<svg xmlns="http://www.w3.org/2000/svg" width="82" height="83" viewBox="0 0 82 83" fill="none">
<mask id="path-1-outside-1_210_478" maskUnits="userSpaceOnUse" x="-1.35266" y="-1.40818" width="84.6076" height="85.7821" fill="black">
<rect fill="white" x="-1.35266" y="-1.40818" width="84.6076" height="85.7821"/>
<path d="M61.2771 17.4295C64.3915 20.2945 64.7439 25.1302 62.0102 28.4228L61.7394 28.7336C60.8592 29.6904 59.7924 30.3852 58.642 30.8113C59.4058 34.1943 58.6493 37.8813 56.2627 40.7559L56.0022 41.0589C55.0277 42.1541 53.8859 43.0202 52.6491 43.654C54.1022 44.0861 55.4937 44.8128 56.7333 45.8421L56.9607 46.036C61.6684 50.1512 62.2605 57.2939 58.2431 62.1324C54.2253 66.9707 47.0961 67.7005 42.1858 63.8293L41.9534 63.6414C40.7136 62.6119 39.7454 61.377 39.054 60.0279C38.6223 61.481 37.8972 62.8731 36.868 64.1127C32.7864 69.0279 25.493 69.7038 20.5777 65.6225C15.6623 61.5409 14.9865 54.2475 19.0679 49.3321C20.0967 48.0933 21.3303 47.1232 22.6785 46.4316C21.3467 46.0356 20.0663 45.3934 18.9075 44.496L18.5966 44.2467C13.7583 40.2289 13.0284 33.0997 16.8997 28.1894L17.0876 27.957C21.1693 23.0423 28.4614 22.3663 33.3766 26.4474L33.6787 26.7072C34.7738 27.6812 35.642 28.8211 36.2764 30.0574C36.6725 28.7255 37.3159 27.445 38.2133 26.2863L38.4626 25.9754C40.8952 23.0463 44.4682 21.623 47.9988 21.8148C48.2189 20.6543 48.6973 19.5275 49.4465 18.526L49.7022 18.2027C52.5246 14.8041 57.5674 14.3365 60.9663 17.1587L61.2771 17.4295ZM44.0563 44.451C42.6035 44.0193 41.2118 43.2949 39.9723 42.2657C38.733 41.2366 37.7645 40.0022 37.073 38.6536C36.6412 40.1062 35.9158 41.4977 34.8869 42.737L34.6271 43.0392C33.6531 44.1342 32.5123 45.0008 31.2761 45.6348C32.7284 46.067 34.1193 46.7936 35.3582 47.8224C36.5972 48.8512 37.566 50.085 38.2574 51.4331C38.6892 49.9813 39.4145 48.5905 40.443 47.3518C41.4724 46.1123 42.7073 45.1426 44.0563 44.451ZM58.3558 20.2995C56.6922 18.9187 54.224 19.1473 52.8427 20.8104C52.3621 21.3892 52.0765 22.0654 51.9782 22.7595C52.9554 23.1853 53.891 23.7512 54.7523 24.4664C55.6658 25.2249 56.4324 26.0947 57.0497 27.0392C57.7371 26.8196 58.3724 26.4093 58.8675 25.8132C60.2486 24.1496 60.0194 21.6809 58.3558 20.2995ZM58.5031 26.813C58.5351 26.7888 58.5683 26.7661 58.5998 26.7409L58.6159 26.7276C58.5791 26.7574 58.5406 26.7846 58.5031 26.813ZM52.2071 20.8665C52.1798 20.9073 52.1543 20.949 52.1284 20.9903C52.1568 20.9449 52.1855 20.8993 52.2157 20.8547L52.2071 20.8665Z"/>
</mask>
<path d="M61.2771 17.4295C64.3915 20.2945 64.7439 25.1302 62.0102 28.4228L61.7394 28.7336C60.8592 29.6904 59.7924 30.3852 58.642 30.8113C59.4058 34.1943 58.6493 37.8813 56.2627 40.7559L56.0022 41.0589C55.0277 42.1541 53.8859 43.0202 52.6491 43.654C54.1022 44.0861 55.4937 44.8128 56.7333 45.8421L56.9607 46.036C61.6684 50.1512 62.2605 57.2939 58.2431 62.1324C54.2253 66.9707 47.0961 67.7005 42.1858 63.8293L41.9534 63.6414C40.7136 62.6119 39.7454 61.377 39.054 60.0279C38.6223 61.481 37.8972 62.8731 36.868 64.1127C32.7864 69.0279 25.493 69.7038 20.5777 65.6225C15.6623 61.5409 14.9865 54.2475 19.0679 49.3321C20.0967 48.0933 21.3303 47.1232 22.6785 46.4316C21.3467 46.0356 20.0663 45.3934 18.9075 44.496L18.5966 44.2467C13.7583 40.2289 13.0284 33.0997 16.8997 28.1894L17.0876 27.957C21.1693 23.0423 28.4614 22.3663 33.3766 26.4474L33.6787 26.7072C34.7738 27.6812 35.642 28.8211 36.2764 30.0574C36.6725 28.7255 37.3159 27.445 38.2133 26.2863L38.4626 25.9754C40.8952 23.0463 44.4682 21.623 47.9988 21.8148C48.2189 20.6543 48.6973 19.5275 49.4465 18.526L49.7022 18.2027C52.5246 14.8041 57.5674 14.3365 60.9663 17.1587L61.2771 17.4295ZM44.0563 44.451C42.6035 44.0193 41.2118 43.2949 39.9723 42.2657C38.733 41.2366 37.7645 40.0022 37.073 38.6536C36.6412 40.1062 35.9158 41.4977 34.8869 42.737L34.6271 43.0392C33.6531 44.1342 32.5123 45.0008 31.2761 45.6348C32.7284 46.067 34.1193 46.7936 35.3582 47.8224C36.5972 48.8512 37.566 50.085 38.2574 51.4331C38.6892 49.9813 39.4145 48.5905 40.443 47.3518C41.4724 46.1123 42.7073 45.1426 44.0563 44.451ZM58.3558 20.2995C56.6922 18.9187 54.224 19.1473 52.8427 20.8104C52.3621 21.3892 52.0765 22.0654 51.9782 22.7595C52.9554 23.1853 53.891 23.7512 54.7523 24.4664C55.6658 25.2249 56.4324 26.0947 57.0497 27.0392C57.7371 26.8196 58.3724 26.4093 58.8675 25.8132C60.2486 24.1496 60.0194 21.6809 58.3558 20.2995ZM58.5031 26.813C58.5351 26.7888 58.5683 26.7661 58.5998 26.7409L58.6159 26.7276C58.5791 26.7574 58.5406 26.7846 58.5031 26.813ZM52.2071 20.8665C52.1798 20.9073 52.1543 20.949 52.1284 20.9903C52.1568 20.9449 52.1855 20.8993 52.2157 20.8547L52.2071 20.8665Z" fill="#DFE6EF"/>
<path d="M61.2771 17.4295L61.8244 16.8346L61.8163 16.8272L61.8081 16.82L61.2771 17.4295ZM62.0102 28.4228L62.6197 28.9538L62.626 28.9466L62.6321 28.9392L62.0102 28.4228ZM61.7394 28.7336L62.3343 29.2809L62.3417 29.2729L62.3489 29.2646L61.7394 28.7336ZM58.642 30.8113L58.3612 30.0532L57.6977 30.299L57.8535 30.9893L58.642 30.8113ZM56.2627 40.7559L56.8757 41.283L56.8846 41.2723L56.2627 40.7559ZM56.0022 41.0589L56.6063 41.5963L56.6152 41.5859L56.0022 41.0589ZM52.6491 43.654L52.2804 42.9346L50.486 43.8541L52.4186 44.4288L52.6491 43.654ZM56.7333 45.8421L57.2579 45.2269L57.2497 45.2202L56.7333 45.8421ZM56.9607 46.036L57.4928 45.4273L57.4852 45.4209L56.9607 46.036ZM58.2431 62.1324L58.865 62.6489L58.865 62.6488L58.2431 62.1324ZM42.1858 63.8293L41.6775 64.458L41.6853 64.4641L42.1858 63.8293ZM41.9534 63.6414L41.4369 64.2634L41.4451 64.27L41.9534 63.6414ZM39.054 60.0279L39.7734 59.6593L38.8535 57.8644L38.2791 59.7977L39.054 60.0279ZM36.868 64.1127L37.4899 64.6291L37.4899 64.6291L36.868 64.1127ZM20.5777 65.6225L20.0613 66.2444L20.0613 66.2444L20.5777 65.6225ZM19.0679 49.3321L18.446 48.8157L18.446 48.8157L19.0679 49.3321ZM22.6785 46.4316L23.0475 47.1508L24.8403 46.2311L22.9089 45.6568L22.6785 46.4316ZM18.9075 44.496L18.4018 45.1268L18.4126 45.1351L18.9075 44.496ZM18.5966 44.2467L18.0801 44.8687L18.0909 44.8774L18.5966 44.2467ZM16.8997 28.1894L16.2711 27.6812L16.2649 27.689L16.8997 28.1894ZM17.0876 27.957L16.4657 27.4405L16.459 27.4488L17.0876 27.957ZM33.3766 26.4474L33.9037 25.8344L33.893 25.8255L33.3766 26.4474ZM33.6787 26.7072L34.216 26.1031L34.2057 26.0943L33.6787 26.7072ZM36.2764 30.0574L35.5572 30.4264L36.4768 32.2187L37.0512 30.2879L36.2764 30.0574ZM38.2133 26.2863L37.5825 25.7805L37.5742 25.7913L38.2133 26.2863ZM38.4626 25.9754L37.8406 25.4588L37.8319 25.4697L38.4626 25.9754ZM47.9988 21.8148L47.9549 22.622L48.6612 22.6604L48.793 21.9654L47.9988 21.8148ZM49.4465 18.526L48.8125 18.0244L48.8057 18.033L48.7992 18.0418L49.4465 18.526ZM49.7022 18.2027L49.0803 17.6862L49.0742 17.6936L49.0682 17.7011L49.7022 18.2027ZM60.9663 17.1587L61.4973 16.5492L61.4901 16.5429L61.4827 16.5368L60.9663 17.1587ZM44.0563 44.451L44.4251 45.1704L46.2195 44.2506L44.2866 43.6762L44.0563 44.451ZM39.9723 42.2657L39.4559 42.8876L39.4559 42.8876L39.9723 42.2657ZM37.073 38.6536L37.7924 38.2848L36.8726 36.491L36.2982 38.4233L37.073 38.6536ZM34.8869 42.737L35.5 43.2641L35.5089 43.2534L34.8869 42.737ZM34.6271 43.0392L35.2312 43.5765L35.2401 43.5662L34.6271 43.0392ZM31.2761 45.6348L30.9072 44.9155L29.1145 45.835L31.0455 46.4096L31.2761 45.6348ZM35.3582 47.8224L35.8747 47.2005L35.8747 47.2005L35.3582 47.8224ZM38.2574 51.4331L37.5381 51.802L38.4577 53.595L39.0322 51.6636L38.2574 51.4331ZM40.443 47.3518L39.8211 46.8354L39.8211 46.8355L40.443 47.3518ZM58.3558 20.2995L58.8722 19.6776L58.8721 19.6775L58.3558 20.2995ZM52.8427 20.8104L52.2208 20.2939L52.2208 20.294L52.8427 20.8104ZM51.9782 22.7595L51.1778 22.6462L51.0917 23.255L51.6553 23.5006L51.9782 22.7595ZM54.7523 24.4664L55.2687 23.8445L55.2687 23.8445L54.7523 24.4664ZM57.0497 27.0392L56.373 27.4815L56.7096 27.9965L57.2957 27.8093L57.0497 27.0392ZM58.8675 25.8132L59.4894 26.3296L59.4894 26.3295L58.8675 25.8132ZM58.5031 26.813L58.0149 26.1687L58.9913 27.4573L58.5031 26.813ZM58.5998 26.7409L59.1056 27.3716L59.1141 27.3646L58.5998 26.7409ZM58.6159 26.7276L59.1302 27.3513L58.1071 26.0995L58.6159 26.7276ZM52.2071 20.8665L51.5522 20.3926L51.544 20.404L51.5362 20.4157L52.2071 20.8665ZM52.1284 20.9903L51.4428 20.5621L52.814 21.4186L52.1284 20.9903ZM52.2157 20.8547L52.8852 21.3078L51.5608 20.3808L52.2157 20.8547ZM61.2771 17.4295L60.7298 18.0245C63.5289 20.5994 63.8457 24.9467 61.3883 27.9064L62.0102 28.4228L62.6321 28.9392C65.6422 25.3138 65.2541 19.9896 61.8244 16.8346L61.2771 17.4295ZM62.0102 28.4228L61.4007 27.8918L61.1299 28.2026L61.7394 28.7336L62.3489 29.2646L62.6197 28.9538L62.0102 28.4228ZM61.7394 28.7336L61.1445 28.1863C60.3535 29.0462 59.3954 29.6702 58.3612 30.0532L58.642 30.8113L58.9228 31.5693C60.1894 31.1001 61.3649 30.3347 62.3343 29.2809L61.7394 28.7336ZM58.642 30.8113L57.8535 30.9893C58.5645 34.1385 57.86 37.5666 55.6407 40.2396L56.2627 40.7559L56.8846 41.2723C59.4386 38.1961 60.2471 34.25 59.4306 30.6332L58.642 30.8113ZM56.2627 40.7559L55.6497 40.229L55.3893 40.5319L56.0022 41.0589L56.6152 41.5859L56.8756 41.2829L56.2627 40.7559ZM56.0022 41.0589L55.3983 40.5215C54.492 41.5401 53.4306 42.3452 52.2804 42.9346L52.6491 43.654L53.0177 44.3734C54.3412 43.6952 55.5634 42.7682 56.6062 41.5962L56.0022 41.0589ZM52.6491 43.654L52.4186 44.4288C53.769 44.8304 55.0629 45.5058 56.2169 46.464L56.7333 45.8421L57.2497 45.2202C55.9246 44.1198 54.4353 43.3418 52.8795 42.8792L52.6491 43.654ZM56.7333 45.8421L56.2088 46.4572L56.4362 46.6511L56.9607 46.036L57.4852 45.4209L57.2578 45.227L56.7333 45.8421ZM56.9607 46.036L56.4287 46.6446C60.8071 50.472 61.3578 57.1157 57.6211 61.616L58.2431 62.1324L58.865 62.6488C63.1632 57.4721 62.5297 49.8305 57.4928 45.4274L56.9607 46.036ZM58.2431 62.1324L57.6212 61.616C53.8842 66.116 47.2532 66.795 42.6863 63.1945L42.1858 63.8293L41.6853 64.4641C46.939 68.6061 54.5663 67.8253 58.865 62.6489L58.2431 62.1324ZM42.1858 63.8293L42.694 63.2007L42.4616 63.0128L41.9534 63.6414L41.4451 64.27L41.6775 64.4579L42.1858 63.8293ZM41.9534 63.6414L42.4698 63.0195C41.3161 62.0615 40.4161 60.9134 39.7734 59.6593L39.054 60.0279L38.3346 60.3966C39.0746 61.8407 40.1112 63.1624 41.437 64.2633L41.9534 63.6414ZM39.054 60.0279L38.2791 59.7977C37.8778 61.1485 37.2038 62.4428 36.2461 63.5963L36.868 64.1127L37.4899 64.6291C38.5906 63.3035 39.3668 61.8135 39.8288 60.2582L39.054 60.0279ZM36.868 64.1127L36.2461 63.5963C32.4497 68.168 25.666 68.7967 21.0941 65.0005L20.5777 65.6225L20.0613 66.2444C25.3201 70.6109 33.1231 69.8878 37.4899 64.6291L36.868 64.1127ZM20.5777 65.6225L21.0941 65.0005C16.5222 61.2042 15.8936 54.4205 19.6898 49.8485L19.0679 49.3321L18.446 48.8157C14.0794 54.0746 14.8024 61.8776 20.0613 66.2444L20.5777 65.6225ZM19.0679 49.3321L19.6898 49.8486C20.6476 48.6952 21.7947 47.7935 23.0475 47.1508L22.6785 46.4316L22.3095 45.7124C20.8659 46.453 19.5458 47.4914 18.446 48.8157L19.0679 49.3321ZM22.6785 46.4316L22.9089 45.6568C21.6707 45.2886 20.4804 44.6917 19.4025 43.8569L18.9075 44.496L18.4126 45.1351C19.6522 46.0952 21.0227 46.7826 22.4481 47.2064L22.6785 46.4316ZM18.9075 44.496L19.4132 43.8653L19.1023 43.6161L18.5966 44.2467L18.0909 44.8774L18.4019 45.1267L18.9075 44.496ZM18.5966 44.2467L19.1131 43.6248C14.6129 39.8879 13.9339 33.2568 17.5345 28.6899L16.8997 28.1894L16.2649 27.689C12.1229 32.9426 12.9036 40.5699 18.0802 44.8686L18.5966 44.2467ZM16.8997 28.1894L17.5283 28.6977L17.7162 28.4653L17.0876 27.957L16.459 27.4488L16.2711 27.6812L16.8997 28.1894ZM17.0876 27.957L17.7095 28.4735C21.5059 23.9022 28.2885 23.2734 32.8602 27.0694L33.3766 26.4474L33.893 25.8255C28.6343 21.4591 20.8326 22.1825 16.4657 27.4406L17.0876 27.957ZM33.3766 26.4474L32.8496 27.0604L33.1517 27.3202L33.6787 26.7072L34.2057 26.0943L33.9036 25.8345L33.3766 26.4474ZM33.6787 26.7072L33.1415 27.3112C34.1606 28.2177 34.9676 29.2774 35.5572 30.4264L36.2764 30.0574L36.9956 29.6883C36.3164 28.3647 35.3871 27.1448 34.216 26.1032L33.6787 26.7072ZM36.2764 30.0574L37.0512 30.2879C37.4194 29.0499 38.0174 27.8594 38.8524 26.7813L38.2133 26.2863L37.5742 25.7913C36.6143 27.0306 35.9256 28.4012 35.5015 29.8269L36.2764 30.0574ZM38.2133 26.2863L38.844 26.7919L39.0933 26.481L38.4626 25.9754L37.8319 25.4697L37.5826 25.7806L38.2133 26.2863ZM38.4626 25.9754L39.0845 26.4918C41.3467 23.7679 44.6688 22.4434 47.9549 22.622L47.9988 21.8148L48.0427 21.0076C44.2677 20.8025 40.4436 22.3248 37.8407 25.4589L38.4626 25.9754ZM47.9988 21.8148L48.793 21.9654C48.9909 20.922 49.4206 19.91 50.0938 19.0102L49.4465 18.526L48.7992 18.0418C47.9739 19.1449 47.4469 20.3866 47.2046 21.6642L47.9988 21.8148ZM49.4465 18.526L50.0804 19.0275L50.3362 18.7042L49.7022 18.2027L49.0682 17.7011L48.8125 18.0244L49.4465 18.526ZM49.7022 18.2027L50.3241 18.7191C52.8613 15.6639 57.3945 15.2437 60.4499 17.7807L60.9663 17.1587L61.4827 16.5368C57.7403 13.4294 52.1879 13.9442 49.0803 17.6862L49.7022 18.2027ZM60.9663 17.1587L60.4353 17.7682L60.7461 18.039L61.2771 17.4295L61.8081 16.82L61.4973 16.5492L60.9663 17.1587ZM44.0563 44.451L44.2866 43.6762C42.9359 43.2748 41.6421 42.6014 40.4887 41.6438L39.9723 42.2657L39.4559 42.8876C40.7816 43.9883 42.2711 44.7638 43.8261 45.2259L44.0563 44.451ZM39.9723 42.2657L40.4887 41.6438C39.3353 40.686 38.4351 39.5384 37.7924 38.2848L37.073 38.6536L36.3537 39.0224C37.0939 40.466 38.1306 41.7871 39.4559 42.8876L39.9723 42.2657ZM37.073 38.6536L36.2982 38.4233C35.8968 39.7735 35.2226 41.0672 34.265 42.2206L34.8869 42.737L35.5089 43.2534C36.6091 41.9282 37.3856 40.4389 37.8479 38.884L37.073 38.6536ZM34.8869 42.737L34.274 42.21L34.0142 42.5122L34.6271 43.0392L35.2401 43.5662L35.4999 43.264L34.8869 42.737ZM34.6271 43.0392L34.0231 42.5019C33.1172 43.5204 32.0566 44.326 30.9072 44.9155L31.2761 45.6348L31.645 46.3541C32.968 45.6755 34.1891 44.7479 35.2311 43.5764L34.6271 43.0392ZM31.2761 45.6348L31.0455 46.4096C32.3952 46.8112 33.6884 47.4865 34.8418 48.4443L35.3582 47.8224L35.8747 47.2005C34.5502 46.1007 33.0617 45.3227 31.5066 44.86L31.2761 45.6348ZM35.3582 47.8224L34.8418 48.4443C35.995 49.4019 36.8955 50.549 37.5381 51.802L38.2574 51.4331L38.9767 51.0642C38.2365 49.6209 37.1993 48.3005 35.8747 47.2005L35.3582 47.8224ZM38.2574 51.4331L39.0322 51.6636C39.4336 50.3141 40.1077 49.0211 41.0649 47.8682L40.443 47.3518L39.8211 46.8355C38.7214 48.1599 37.9449 49.6484 37.4826 51.2026L38.2574 51.4331ZM40.443 47.3518L41.0649 47.8683C42.0231 46.7145 43.1713 45.8131 44.4251 45.1704L44.0563 44.451L43.6876 43.7317C42.2433 44.4721 40.9217 45.5101 39.8211 46.8354L40.443 47.3518ZM58.3558 20.2995L58.8721 19.6775C56.8651 18.0117 53.8873 18.2874 52.2208 20.2939L52.8427 20.8104L53.4646 21.3269C54.5606 20.0072 56.5193 19.8257 57.8395 20.9215L58.3558 20.2995ZM52.8427 20.8104L52.2208 20.294C51.6418 20.9913 51.2964 21.8082 51.1778 22.6462L51.9782 22.7595L52.7786 22.8728C52.8565 22.3227 53.0825 21.787 53.4646 21.3268L52.8427 20.8104ZM51.9782 22.7595L51.6553 23.5006C52.565 23.897 53.4351 24.4234 54.2359 25.0883L54.7523 24.4664L55.2687 23.8445C54.347 23.0791 53.3458 22.4737 52.3012 22.0184L51.9782 22.7595ZM54.7523 24.4664L54.2359 25.0883C55.0864 25.7946 55.7992 26.6035 56.373 27.4815L57.0497 27.0392L57.7264 26.597C57.0655 25.5859 56.2451 24.6553 55.2687 23.8445L54.7523 24.4664ZM57.0497 27.0392L57.2957 27.8093C58.1244 27.5445 58.892 27.0489 59.4894 26.3296L58.8675 25.8132L58.2456 25.2967C57.8528 25.7698 57.3498 26.0947 56.8037 26.2692L57.0497 27.0392ZM58.8675 25.8132L59.4894 26.3295C61.1558 24.3224 60.8791 21.3441 58.8722 19.6776L58.3558 20.2995L57.8394 20.9214C59.1596 22.0177 59.3414 23.9768 58.2455 25.2968L58.8675 25.8132ZM58.5031 26.813L58.9913 27.4573C58.9994 27.4512 59.0055 27.4468 59.0279 27.4305C59.0459 27.4174 59.0746 27.3964 59.1055 27.3715L58.5998 26.7409L58.094 26.1103C58.0942 26.1101 58.0931 26.111 58.09 26.1134C58.0867 26.1159 58.0823 26.1191 58.0754 26.1241C58.0653 26.1315 58.0388 26.1506 58.015 26.1687L58.5031 26.813ZM58.5998 26.7409L59.1141 27.3646L59.1302 27.3513L58.6159 26.7276L58.1016 26.104L58.0855 26.1173L58.5998 26.7409ZM58.6159 26.7276L58.1071 26.0995C58.0819 26.1198 58.0836 26.1167 58.0149 26.1687L58.5031 26.813L58.9913 27.4573C58.9976 27.4525 59.0764 27.3949 59.1247 27.3558L58.6159 26.7276ZM52.2071 20.8665L51.5362 20.4157C51.499 20.471 51.4628 20.5302 51.4428 20.5621L52.1284 20.9903L52.814 21.4186C52.8458 21.3678 52.8605 21.3435 52.8781 21.3174L52.2071 20.8665ZM52.1284 20.9903L52.814 21.4186C52.8425 21.3731 52.8641 21.3389 52.8852 21.3078L52.2157 20.8547L51.5463 20.4015C51.5068 20.4598 51.4712 20.5166 51.4428 20.5621L52.1284 20.9903ZM52.2157 20.8547L51.5608 20.3808L51.5522 20.3926L52.2071 20.8665L52.862 21.3404L52.8706 21.3286L52.2157 20.8547Z" fill="#0088FF" mask="url(#path-1-outside-1_210_478)"/>
<path d="M55.0008 23.5613C55.8005 24.601 57.2917 24.7955 58.3313 23.9958C59.371 23.196 59.5655 21.7049 58.7657 20.6652L56.8833 22.1133L55.0008 23.5613ZM51.8833 15.6133L50.0008 17.0613L52.5008 20.3113L54.3833 18.8633L56.2657 17.4152L53.7657 14.1652L51.8833 15.6133ZM54.3833 18.8633L52.5008 20.3113L55.0008 23.5613L56.8833 22.1133L58.7657 20.6652L56.2657 17.4152L54.3833 18.8633Z" fill="#0088FF"/>
</svg>