<svg xmlns="http://www.w3.org/2000/svg" width="140" height="140" viewBox="0 0 140 140" fill="none">
<mask id="path-1-outside-1_165_491" maskUnits="userSpaceOnUse" x="36.0889" y="0.766113" width="69" height="133" fill="black">
<rect fill="white" x="36.0889" y="0.766113" width="69" height="133"/>
<path d="M71.1924 1.78076C76.0285 2.02634 80.005 5.51441 81 10.1128C84.3006 11.908 86.5416 15.406 86.542 19.4272C90.5628 19.4276 94.0602 21.668 95.8555 24.9673C100.628 25.999 104.203 30.2439 104.203 35.3237C104.203 40.4036 100.627 44.6467 95.8555 45.6782C94.1419 48.8277 90.8782 51.0121 87.0879 51.2046L86.542 51.2192C86.5415 55.24 84.3009 58.7374 81.001 60.5327C80.3474 63.5552 78.4046 66.0961 75.7773 67.5542C75.8866 67.9781 75.9443 68.4224 75.9443 68.8804L76.125 68.8892C77.0156 68.9795 77.7109 69.7315 77.7109 70.646C77.7109 71.5605 77.0157 72.3125 76.125 72.4028L75.9443 72.4126V95.3726H90.0742C91.0493 95.373 91.8398 96.164 91.8398 97.1392V104.203C91.1021 103.649 90.184 103.32 89.1904 103.32C87.731 103.32 86.4365 104.029 85.6328 105.121L82.1309 101.554L75.9443 107.856L82.1309 114.157L85.7363 110.485C86.5452 111.5 87.792 112.151 89.1904 112.151C90.1841 112.151 91.102 111.822 91.8398 111.268V118.333C91.8397 119.308 91.0492 120.099 90.0742 120.099H75.9443V123.63C76.9198 123.63 77.7109 124.422 77.7109 125.397C77.7109 126.372 76.9197 127.163 75.9443 127.163C75.9443 130.089 73.5726 132.461 70.6465 132.461C67.7204 132.461 65.3477 130.089 65.3477 127.163C64.3725 127.162 63.5811 126.372 63.5811 125.397C63.5811 124.422 64.3725 123.631 65.3477 123.63V72.4126L65.167 72.4028C64.2767 72.3121 63.5811 71.5602 63.5811 70.646C63.5811 69.7318 64.2767 68.9799 65.167 68.8892L65.3477 68.8804C65.3477 68.4225 65.4054 67.978 65.5146 67.5542C62.8874 66.0962 60.9436 63.5553 60.29 60.5327C56.9904 58.7371 54.7501 55.239 54.75 51.2183C50.7289 51.2178 47.2307 48.9777 45.4355 45.6772C40.6656 44.645 37.0894 40.4035 37.0889 35.3237C37.0889 30.2439 40.6647 26.0007 45.4355 24.9683C47.2308 21.6681 50.7291 19.4277 54.75 19.4272C54.7504 15.4064 56.991 11.9082 60.291 10.1128C61.3233 5.34183 65.5667 1.76628 70.6465 1.76611L71.1924 1.78076ZM70.6465 7.06494C67.7204 7.06514 65.3477 9.43765 65.3477 12.3638C65.3478 12.9861 65.4562 13.5835 65.6533 14.1382C65.5523 14.1324 65.4501 14.1294 65.3477 14.1294C62.4216 14.1296 60.0489 16.5021 60.0488 19.4282C60.0492 22.354 62.4218 24.7259 65.3477 24.7261C65.9671 24.7261 66.5617 24.6187 67.1143 24.4233V31.7905H59.7461C59.9413 31.2382 60.0488 30.644 60.0488 30.0249C60.0488 27.0987 57.6771 24.7262 54.751 24.7261C51.8249 24.7263 49.4522 27.0988 49.4521 30.0249C49.4522 30.1273 49.4552 30.2296 49.4609 30.3306C48.9062 30.1334 48.3089 30.0249 47.6865 30.0249C44.7604 30.0251 42.3877 32.3976 42.3877 35.3237C42.3881 38.2495 44.7607 40.6214 47.6865 40.6216C48.309 40.6215 48.9061 40.5122 49.4609 40.3149C49.4552 40.4163 49.4522 40.5188 49.4521 40.6216C49.4524 43.5475 51.825 45.9202 54.751 45.9204C57.677 45.9203 60.0486 43.5476 60.0488 40.6216C60.0488 40.0024 59.9413 39.4083 59.7461 38.856H67.1143V46.2222C66.5618 46.0269 65.967 45.9204 65.3477 45.9204C62.4217 45.9206 60.0491 48.2924 60.0488 51.2183C60.049 54.1442 62.4217 56.5169 65.3477 56.5171C65.4501 56.5171 65.5523 56.5131 65.6533 56.5073C65.4559 57.0624 65.3477 57.6608 65.3477 58.2837C65.3481 61.2095 67.7207 63.5813 70.6465 63.5815C73.5723 63.5814 75.9439 61.2095 75.9443 58.2837C75.9443 57.6607 75.8352 57.0626 75.6377 56.5073C75.7391 56.5131 75.8415 56.5171 75.9443 56.5171C78.8705 56.5171 81.2429 54.1443 81.2432 51.2183C81.2429 48.2922 78.8704 45.9204 75.9443 45.9204C75.3253 45.9205 74.7309 46.027 74.1787 46.2222V38.856H81.5459C81.3507 39.4082 81.2432 40.0025 81.2432 40.6216C81.2434 43.5475 83.616 45.9202 86.542 45.9204C89.4679 45.9202 91.8396 43.5475 91.8398 40.6216C91.8398 40.5188 91.8359 40.4163 91.8301 40.3149C92.3853 40.5125 92.9834 40.6215 93.6064 40.6216C96.5323 40.6214 98.9039 38.2495 98.9043 35.3237C98.9043 32.3976 96.5326 30.0251 93.6064 30.0249C92.9835 30.0249 92.3852 30.1331 91.8301 30.3306C91.8358 30.2295 91.8398 30.1274 91.8398 30.0249C91.8398 27.0988 89.468 24.7263 86.542 24.7261C83.6159 24.7263 81.2432 27.0988 81.2432 30.0249C81.2432 30.644 81.3507 31.2383 81.5459 31.7905H74.1787V24.4233C74.731 24.6186 75.3252 24.726 75.9443 24.7261C78.8704 24.7261 81.2428 22.3542 81.2432 19.4282C81.2431 16.502 78.8706 14.1294 75.9443 14.1294C75.8415 14.1294 75.7391 14.1324 75.6377 14.1382C75.835 13.5834 75.9442 12.9863 75.9443 12.3638C75.9443 9.43764 73.5726 7.06512 70.6465 7.06494Z"/>
</mask>
<path d="M71.1924 1.78076C76.0285 2.02634 80.005 5.51441 81 10.1128C84.3006 11.908 86.5416 15.406 86.542 19.4272C90.5628 19.4276 94.0602 21.668 95.8555 24.9673C100.628 25.999 104.203 30.2439 104.203 35.3237C104.203 40.4036 100.627 44.6467 95.8555 45.6782C94.1419 48.8277 90.8782 51.0121 87.0879 51.2046L86.542 51.2192C86.5415 55.24 84.3009 58.7374 81.001 60.5327C80.3474 63.5552 78.4046 66.0961 75.7773 67.5542C75.8866 67.9781 75.9443 68.4224 75.9443 68.8804L76.125 68.8892C77.0156 68.9795 77.7109 69.7315 77.7109 70.646C77.7109 71.5605 77.0157 72.3125 76.125 72.4028L75.9443 72.4126V95.3726H90.0742C91.0493 95.373 91.8398 96.164 91.8398 97.1392V104.203C91.1021 103.649 90.184 103.32 89.1904 103.32C87.731 103.32 86.4365 104.029 85.6328 105.121L82.1309 101.554L75.9443 107.856L82.1309 114.157L85.7363 110.485C86.5452 111.5 87.792 112.151 89.1904 112.151C90.1841 112.151 91.102 111.822 91.8398 111.268V118.333C91.8397 119.308 91.0492 120.099 90.0742 120.099H75.9443V123.63C76.9198 123.63 77.7109 124.422 77.7109 125.397C77.7109 126.372 76.9197 127.163 75.9443 127.163C75.9443 130.089 73.5726 132.461 70.6465 132.461C67.7204 132.461 65.3477 130.089 65.3477 127.163C64.3725 127.162 63.5811 126.372 63.5811 125.397C63.5811 124.422 64.3725 123.631 65.3477 123.63V72.4126L65.167 72.4028C64.2767 72.3121 63.5811 71.5602 63.5811 70.646C63.5811 69.7318 64.2767 68.9799 65.167 68.8892L65.3477 68.8804C65.3477 68.4225 65.4054 67.978 65.5146 67.5542C62.8874 66.0962 60.9436 63.5553 60.29 60.5327C56.9904 58.7371 54.7501 55.239 54.75 51.2183C50.7289 51.2178 47.2307 48.9777 45.4355 45.6772C40.6656 44.645 37.0894 40.4035 37.0889 35.3237C37.0889 30.2439 40.6647 26.0007 45.4355 24.9683C47.2308 21.6681 50.7291 19.4277 54.75 19.4272C54.7504 15.4064 56.991 11.9082 60.291 10.1128C61.3233 5.34183 65.5667 1.76628 70.6465 1.76611L71.1924 1.78076ZM70.6465 7.06494C67.7204 7.06514 65.3477 9.43765 65.3477 12.3638C65.3478 12.9861 65.4562 13.5835 65.6533 14.1382C65.5523 14.1324 65.4501 14.1294 65.3477 14.1294C62.4216 14.1296 60.0489 16.5021 60.0488 19.4282C60.0492 22.354 62.4218 24.7259 65.3477 24.7261C65.9671 24.7261 66.5617 24.6187 67.1143 24.4233V31.7905H59.7461C59.9413 31.2382 60.0488 30.644 60.0488 30.0249C60.0488 27.0987 57.6771 24.7262 54.751 24.7261C51.8249 24.7263 49.4522 27.0988 49.4521 30.0249C49.4522 30.1273 49.4552 30.2296 49.4609 30.3306C48.9062 30.1334 48.3089 30.0249 47.6865 30.0249C44.7604 30.0251 42.3877 32.3976 42.3877 35.3237C42.3881 38.2495 44.7607 40.6214 47.6865 40.6216C48.309 40.6215 48.9061 40.5122 49.4609 40.3149C49.4552 40.4163 49.4522 40.5188 49.4521 40.6216C49.4524 43.5475 51.825 45.9202 54.751 45.9204C57.677 45.9203 60.0486 43.5476 60.0488 40.6216C60.0488 40.0024 59.9413 39.4083 59.7461 38.856H67.1143V46.2222C66.5618 46.0269 65.967 45.9204 65.3477 45.9204C62.4217 45.9206 60.0491 48.2924 60.0488 51.2183C60.049 54.1442 62.4217 56.5169 65.3477 56.5171C65.4501 56.5171 65.5523 56.5131 65.6533 56.5073C65.4559 57.0624 65.3477 57.6608 65.3477 58.2837C65.3481 61.2095 67.7207 63.5813 70.6465 63.5815C73.5723 63.5814 75.9439 61.2095 75.9443 58.2837C75.9443 57.6607 75.8352 57.0626 75.6377 56.5073C75.7391 56.5131 75.8415 56.5171 75.9443 56.5171C78.8705 56.5171 81.2429 54.1443 81.2432 51.2183C81.2429 48.2922 78.8704 45.9204 75.9443 45.9204C75.3253 45.9205 74.7309 46.027 74.1787 46.2222V38.856H81.5459C81.3507 39.4082 81.2432 40.0025 81.2432 40.6216C81.2434 43.5475 83.616 45.9202 86.542 45.9204C89.4679 45.9202 91.8396 43.5475 91.8398 40.6216C91.8398 40.5188 91.8359 40.4163 91.8301 40.3149C92.3853 40.5125 92.9834 40.6215 93.6064 40.6216C96.5323 40.6214 98.9039 38.2495 98.9043 35.3237C98.9043 32.3976 96.5326 30.0251 93.6064 30.0249C92.9835 30.0249 92.3852 30.1331 91.8301 30.3306C91.8358 30.2295 91.8398 30.1274 91.8398 30.0249C91.8398 27.0988 89.468 24.7263 86.542 24.7261C83.6159 24.7263 81.2432 27.0988 81.2432 30.0249C81.2432 30.644 81.3507 31.2383 81.5459 31.7905H74.1787V24.4233C74.731 24.6186 75.3252 24.726 75.9443 24.7261C78.8704 24.7261 81.2428 22.3542 81.2432 19.4282C81.2431 16.502 78.8706 14.1294 75.9443 14.1294C75.8415 14.1294 75.7391 14.1324 75.6377 14.1382C75.835 13.5834 75.9442 12.9863 75.9443 12.3638C75.9443 9.43764 73.5726 7.06512 70.6465 7.06494Z" fill="#DFE6EF"/>
<path d="M71.1924 1.78076L71.2372 0.898821L71.2266 0.898286L71.2161 0.898003L71.1924 1.78076ZM81 10.1128L80.1369 10.2996L80.2225 10.6952L80.5781 10.8885L81 10.1128ZM86.542 19.4272L85.6589 19.4273L85.659 20.3102L86.5419 20.3103L86.542 19.4272ZM95.8555 24.9673L95.0798 25.3894L95.2733 25.7449L95.6689 25.8304L95.8555 24.9673ZM104.203 35.3237L105.086 35.3238V35.3237L104.203 35.3237ZM95.8555 45.6782L95.6689 44.8151L95.2732 44.9006L95.0798 45.2562L95.8555 45.6782ZM87.0879 51.2046L87.1116 52.0873L87.1221 52.0871L87.1327 52.0865L87.0879 51.2046ZM86.542 51.2192L86.5183 50.3365L85.659 50.3595L85.6589 51.2191L86.542 51.2192ZM81.001 60.5327L80.579 59.757L80.2234 59.9505L80.1378 60.3461L81.001 60.5327ZM75.7773 67.5542L75.3488 66.7821L74.7518 67.1134L74.9222 67.7746L75.7773 67.5542ZM75.9443 68.8804H75.0613V69.7215L75.9014 69.7624L75.9443 68.8804ZM76.125 68.8892L76.2141 68.0106L76.1911 68.0083L76.1679 68.0071L76.125 68.8892ZM77.7109 70.646H78.594V70.6459L77.7109 70.646ZM76.125 72.4028L76.1727 73.2846L76.1934 73.2835L76.2141 73.2814L76.125 72.4028ZM75.9443 72.4126L75.8967 71.5308L75.0613 71.576V72.4126H75.9443ZM75.9443 95.3726H75.0613V96.2556H75.9443V95.3726ZM90.0742 95.3726L90.0746 94.4895H90.0742V95.3726ZM91.8398 104.203L91.3096 104.909L92.7229 105.97V104.203H91.8398ZM89.1904 103.32L89.1905 102.437H89.1903L89.1904 103.32ZM85.6328 105.121L85.0027 105.739L85.7292 106.479L86.3439 105.644L85.6328 105.121ZM82.1309 101.554L82.761 100.935L82.1308 100.294L81.5007 100.936L82.1309 101.554ZM75.9443 107.856L75.3142 107.237L74.7068 107.856L75.3142 108.475L75.9443 107.856ZM82.1309 114.157L81.5007 114.775L82.1308 115.417L82.761 114.775L82.1309 114.157ZM85.7363 110.485L86.4269 109.934L85.8051 109.154L85.1062 109.866L85.7363 110.485ZM89.1904 112.151L89.1903 113.034H89.1905L89.1904 112.151ZM91.8398 111.268H92.7229V109.501L91.3096 110.562L91.8398 111.268ZM91.8398 118.333L92.7229 118.333V118.333H91.8398ZM90.0742 120.099V120.982H90.0746L90.0742 120.099ZM75.9443 120.099V119.216H75.0613V120.099H75.9443ZM75.9443 123.63H75.0613V124.513H75.9443V123.63ZM77.7109 125.397L78.594 125.397V125.397H77.7109ZM75.9443 127.163V126.28H75.0613V127.163H75.9443ZM70.6465 132.461L70.6464 133.344H70.6465L70.6465 132.461ZM65.3477 127.163H66.2307L66.2307 126.28L65.3479 126.28L65.3477 127.163ZM63.5811 125.397H62.698V125.397L63.5811 125.397ZM65.3477 123.63L65.3479 124.513L66.2307 124.513V123.63H65.3477ZM65.3477 72.4126H66.2307V71.576L65.3953 71.5308L65.3477 72.4126ZM65.167 72.4028L65.0775 73.2814L65.0984 73.2835L65.1193 73.2846L65.167 72.4028ZM63.5811 70.646L62.698 70.6459V70.646H63.5811ZM65.167 68.8892L65.1241 68.0071L65.1007 68.0083L65.0775 68.0106L65.167 68.8892ZM65.3477 68.8804L65.3906 69.7624L66.2307 69.7215V68.8804H65.3477ZM65.5146 67.5542L66.3698 67.7746L66.5402 67.1134L65.9432 66.7821L65.5146 67.5542ZM60.29 60.5327L61.1532 60.3461L61.0676 59.9505L60.7122 59.7571L60.29 60.5327ZM54.75 51.2183L55.6331 51.2182L55.6331 50.3353L54.7501 50.3352L54.75 51.2183ZM45.4355 45.6772L46.2113 45.2553L46.0179 44.8998L45.6223 44.8141L45.4355 45.6772ZM37.0889 35.3237L36.2058 35.3237V35.3238L37.0889 35.3237ZM45.4355 24.9683L45.6223 25.8314L46.0179 25.7458L46.2113 25.3903L45.4355 24.9683ZM54.75 19.4272L54.7501 20.3103L55.633 20.3102L55.6331 19.4273L54.75 19.4272ZM60.291 10.1128L60.713 10.8885L61.0685 10.6951L61.1541 10.2995L60.291 10.1128ZM70.6465 1.76611L70.6702 0.883354L70.6583 0.883036L70.6465 0.883036L70.6465 1.76611ZM70.6465 7.06494L70.6465 6.18186L70.6464 6.18186L70.6465 7.06494ZM65.3477 12.3638L64.4646 12.3638V12.3639L65.3477 12.3638ZM65.6533 14.1382L65.6032 15.0198L66.9307 15.0953L66.4854 13.8424L65.6533 14.1382ZM65.3477 14.1294L65.3477 13.2463H65.3476L65.3477 14.1294ZM60.0488 19.4282L59.1658 19.4282V19.4283L60.0488 19.4282ZM65.3477 24.7261L65.3476 25.6092H65.3477L65.3477 24.7261ZM67.1143 24.4233H67.9973V23.1745L66.8199 23.5908L67.1143 24.4233ZM67.1143 31.7905V32.6736H67.9973V31.7905H67.1143ZM59.7461 31.7905L58.9135 31.4962L58.4973 32.6736H59.7461V31.7905ZM60.0488 30.0249L60.9319 30.025V30.0249L60.0488 30.0249ZM54.751 24.7261L54.751 23.843H54.7509L54.751 24.7261ZM49.4521 30.0249L48.5691 30.0249V30.025L49.4521 30.0249ZM49.4609 30.3306L49.1652 31.1627L50.4181 31.608L50.3426 30.2804L49.4609 30.3306ZM47.6865 30.0249L47.6866 29.1418H47.6865L47.6865 30.0249ZM42.3877 35.3237L41.5046 35.3237L41.5046 35.3239L42.3877 35.3237ZM47.6865 40.6216L47.6865 41.5047H47.6866L47.6865 40.6216ZM49.4609 40.3149L50.3426 40.3652L50.4183 39.0374L49.1652 39.4829L49.4609 40.3149ZM49.4521 40.6216L48.5691 40.6215V40.6216L49.4521 40.6216ZM54.751 45.9204L54.7509 46.8035H54.751L54.751 45.9204ZM60.0488 40.6216L60.9319 40.6216V40.6215L60.0488 40.6216ZM59.7461 38.856V37.9729H58.4974L58.9135 39.1502L59.7461 38.856ZM67.1143 38.856H67.9973V37.9729H67.1143V38.856ZM67.1143 46.2222L66.8199 47.0548L67.9973 47.471V46.2222H67.1143ZM65.3477 45.9204L65.3477 45.0373H65.3476L65.3477 45.9204ZM60.0488 51.2183L59.1658 51.2182V51.2183L60.0488 51.2183ZM65.3477 56.5171L65.3476 57.4002H65.3477L65.3477 56.5171ZM65.6533 56.5073L66.4853 56.8032L66.931 55.5502L65.6032 55.6257L65.6533 56.5073ZM65.3477 58.2837L64.4646 58.2837V58.2838L65.3477 58.2837ZM70.6465 63.5815L70.6464 64.4646H70.6465L70.6465 63.5815ZM75.9443 58.2837L76.8274 58.2838V58.2837L75.9443 58.2837ZM75.6377 56.5073L75.6881 55.6257L74.3598 55.5498L74.8057 56.8033L75.6377 56.5073ZM75.9443 56.5171L75.9442 57.4002H75.9443V56.5171ZM81.2432 51.2183L82.1262 51.2183V51.2182L81.2432 51.2183ZM75.9443 45.9204V45.0373H75.9442L75.9443 45.9204ZM74.1787 46.2222H73.2956V47.4709L74.473 47.0548L74.1787 46.2222ZM74.1787 38.856V37.9729H73.2956V38.856H74.1787ZM81.5459 38.856L82.3785 39.1502L82.7946 37.9729H81.5459V38.856ZM81.2432 40.6216L80.3601 40.6215V40.6216L81.2432 40.6216ZM86.542 45.9204L86.5419 46.8035H86.5421L86.542 45.9204ZM91.8398 40.6216L92.7229 40.6216V40.6215L91.8398 40.6216ZM91.8301 40.3149L92.1261 39.483L90.8726 39.037L90.9484 40.3652L91.8301 40.3149ZM93.6064 40.6216L93.6064 41.5047H93.6065L93.6064 40.6216ZM98.9043 35.3237L99.7874 35.3239V35.3237L98.9043 35.3237ZM93.6064 30.0249L93.6065 29.1418H93.6064L93.6064 30.0249ZM91.8301 30.3306L90.9484 30.2804L90.8729 31.6084L92.1261 31.1626L91.8301 30.3306ZM91.8398 30.0249L92.7229 30.025V30.0249L91.8398 30.0249ZM86.542 24.7261L86.5421 23.843H86.5419L86.542 24.7261ZM81.2432 30.0249L80.3601 30.0249V30.025L81.2432 30.0249ZM81.5459 31.7905V32.6736H82.7946L82.3785 31.4963L81.5459 31.7905ZM74.1787 31.7905H73.2956V32.6736H74.1787V31.7905ZM74.1787 24.4233L74.473 23.5907L73.2956 23.1746V24.4233H74.1787ZM75.9443 24.7261L75.9442 25.6092H75.9443V24.7261ZM81.2432 19.4282L82.1262 19.4283V19.4282L81.2432 19.4282ZM75.9443 14.1294V13.2463H75.9442L75.9443 14.1294ZM75.6377 14.1382L74.8057 13.8423L74.36 15.0957L75.688 15.0198L75.6377 14.1382ZM75.9443 12.3638L76.8274 12.3639V12.3638L75.9443 12.3638ZM71.1924 1.78076L71.1476 2.6627C75.5784 2.8877 79.2248 6.08444 80.1369 10.2996L81 10.1128L81.8631 9.92603C80.7852 4.94439 76.4786 1.16498 71.2372 0.898821L71.1924 1.78076ZM81 10.1128L80.5781 10.8885C83.606 12.5355 85.6586 15.7425 85.6589 19.4273L86.542 19.4272L87.4251 19.4272C87.4247 15.0695 84.9951 11.2805 81.4219 9.33704L81 10.1128ZM86.542 19.4272L86.5419 20.3103C90.2264 20.3106 93.4328 22.3626 95.0798 25.3894L95.8555 24.9673L96.6311 24.5452C94.6875 20.9733 90.8993 18.5445 86.5421 18.5442L86.542 19.4272ZM95.8555 24.9673L95.6689 25.8304C100.043 26.7762 103.32 30.6685 103.32 35.3237L104.203 35.3237L105.086 35.3237C105.086 29.8193 101.212 25.2219 96.0421 24.1041L95.8555 24.9673ZM104.203 35.3237L103.32 35.3236C103.32 39.9788 100.043 43.8695 95.6689 44.8151L95.8555 45.6782L96.0421 46.5414C101.211 45.4239 105.086 40.8284 105.086 35.3238L104.203 35.3237ZM95.8555 45.6782L95.0798 45.2562C93.5078 48.1455 90.5152 50.1463 87.0431 50.3227L87.0879 51.2046L87.1327 52.0865C91.2412 51.8779 94.7761 49.5099 96.6312 46.1003L95.8555 45.6782ZM87.0879 51.2046L87.0642 50.3218L86.5183 50.3365L86.542 51.2192L86.5657 52.102L87.1116 52.0873L87.0879 51.2046ZM86.542 51.2192L85.6589 51.2191C85.6585 54.9034 83.6063 58.11 80.579 59.757L81.001 60.5327L81.423 61.3084C84.9955 59.3648 87.4245 55.5765 87.4251 51.2193L86.542 51.2192ZM81.001 60.5327L80.1378 60.3461C79.5393 63.1141 77.7588 65.4445 75.3488 66.7821L75.7773 67.5542L76.2059 68.3263C79.0503 66.7477 81.1555 63.9963 81.8641 60.7194L81.001 60.5327ZM75.7773 67.5542L74.9222 67.7746C75.0129 68.1266 75.0613 68.497 75.0613 68.8804H75.9443H76.8274C76.8274 68.3479 76.7602 67.8295 76.6325 67.3338L75.7773 67.5542ZM75.9443 68.8804L75.9014 69.7624L76.0821 69.7712L76.125 68.8892L76.1679 68.0071L75.9872 67.9983L75.9443 68.8804ZM76.125 68.8892L76.0359 69.7677C76.4804 69.8128 76.8278 70.1896 76.8279 70.6461L77.7109 70.646L78.594 70.6459C78.5939 69.2735 77.5509 68.1462 76.2141 68.0106L76.125 68.8892ZM77.7109 70.646H76.8279C76.8279 71.1024 76.4805 71.4791 76.0359 71.5243L76.125 72.4028L76.2141 73.2814C77.5508 73.1458 78.594 72.0186 78.594 70.646H77.7109ZM76.125 72.4028L76.0773 71.521L75.8967 71.5308L75.9443 72.4126L75.992 73.2944L76.1727 73.2846L76.125 72.4028ZM75.9443 72.4126H75.0613V95.3726H75.9443H76.8274V72.4126H75.9443ZM75.9443 95.3726V96.2556H90.0742V95.3726V94.4895H75.9443V95.3726ZM90.0742 95.3726L90.0738 96.2556C90.5612 96.2558 90.9568 96.6515 90.9568 97.1392H91.8398H92.7229C92.7229 95.6765 91.5373 94.4901 90.0746 94.4895L90.0742 95.3726ZM91.8398 97.1392H90.9568V104.203H91.8398H92.7229V97.1392H91.8398ZM91.8398 104.203L92.3701 103.496C91.4847 102.832 90.3818 102.437 89.1905 102.437L89.1904 103.32L89.1903 104.203C89.9862 104.203 90.7194 104.466 91.3096 104.909L91.8398 104.203ZM89.1904 103.32L89.1903 102.437C87.4381 102.437 85.8845 103.289 84.9217 104.597L85.6328 105.121L86.3439 105.644C86.9885 104.769 88.0238 104.203 89.1906 104.203L89.1904 103.32ZM85.6328 105.121L86.2629 104.502L82.761 100.935L82.1309 101.554L81.5008 102.173L85.0027 105.739L85.6328 105.121ZM82.1309 101.554L81.5007 100.936L75.3142 107.237L75.9443 107.856L76.5745 108.475L82.761 102.173L82.1309 101.554ZM75.9443 107.856L75.3142 108.475L81.5007 114.775L82.1309 114.157L82.761 113.538L76.5745 107.237L75.9443 107.856ZM82.1309 114.157L82.761 114.775L86.3664 111.104L85.7363 110.485L85.1062 109.866L81.5008 113.538L82.1309 114.157ZM85.7363 110.485L85.0458 111.035C86.0148 112.251 87.5115 113.034 89.1903 113.034L89.1904 112.151L89.1906 111.268C88.0725 111.268 87.0755 110.748 86.4269 109.934L85.7363 110.485ZM89.1904 112.151L89.1905 113.034C90.3819 113.034 91.4847 112.639 92.3701 111.974L91.8398 111.268L91.3096 110.562C90.7194 111.005 89.9863 111.268 89.1903 111.268L89.1904 112.151ZM91.8398 111.268H90.9568V118.333H91.8398H92.7229V111.268H91.8398ZM91.8398 118.333L90.9568 118.332C90.9567 118.82 90.561 119.216 90.0738 119.216L90.0742 120.099L90.0746 120.982C91.5374 120.982 92.7227 119.795 92.7229 118.333L91.8398 118.333ZM90.0742 120.099V119.216H75.9443V120.099V120.982H90.0742V120.099ZM75.9443 120.099H75.0613V123.63H75.9443H76.8274V120.099H75.9443ZM75.9443 123.63V124.513C76.432 124.513 76.8279 124.909 76.8279 125.397H77.7109H78.594C78.594 123.934 77.4075 122.747 75.9443 122.747V123.63ZM77.7109 125.397L76.8279 125.397C76.8278 125.884 76.4326 126.28 75.9443 126.28V127.163V128.046C77.4068 128.046 78.594 126.861 78.594 125.397L77.7109 125.397ZM75.9443 127.163H75.0613C75.0613 129.601 73.0847 131.578 70.6464 131.578L70.6465 132.461L70.6465 133.344C74.0605 133.344 76.8274 130.576 76.8274 127.163H75.9443ZM70.6465 132.461L70.6466 131.578C68.2081 131.578 66.2307 129.601 66.2307 127.163H65.3477H64.4646C64.4646 130.576 67.2328 133.344 70.6464 133.344L70.6465 132.461ZM65.3477 127.163L65.3479 126.28C64.8594 126.279 64.4641 125.884 64.4641 125.397L63.5811 125.397L62.698 125.397C62.698 126.861 63.8856 128.045 65.3474 128.046L65.3477 127.163ZM63.5811 125.397H64.4641C64.4641 124.91 64.86 124.514 65.3479 124.513L65.3477 123.63L65.3474 122.747C63.885 122.748 62.698 123.934 62.698 125.397H63.5811ZM65.3477 123.63H66.2307V72.4126H65.3477H64.4646V123.63H65.3477ZM65.3477 72.4126L65.3953 71.5308L65.2147 71.521L65.167 72.4028L65.1193 73.2846L65.3 73.2944L65.3477 72.4126ZM65.167 72.4028L65.2565 71.5243C64.8116 71.479 64.4641 71.1018 64.4641 70.646H63.5811H62.698C62.698 72.0187 63.7418 73.1452 65.0775 73.2814L65.167 72.4028ZM63.5811 70.646L64.4641 70.6461C64.4642 70.1902 64.8117 69.813 65.2565 69.7677L65.167 68.8892L65.0775 68.0106C63.7418 68.1467 62.6981 69.2734 62.698 70.6459L63.5811 70.646ZM65.167 68.8892L65.2099 69.7712L65.3906 69.7624L65.3477 68.8804L65.3047 67.9983L65.1241 68.0071L65.167 68.8892ZM65.3477 68.8804H66.2307C66.2307 68.497 66.2791 68.1266 66.3698 67.7746L65.5146 67.5542L64.6595 67.3338C64.5318 67.8294 64.4646 68.348 64.4646 68.8804H65.3477ZM65.5146 67.5542L65.9432 66.7821C63.533 65.4445 61.7517 63.1141 61.1532 60.3461L60.29 60.5327L59.4269 60.7193C60.1355 63.9965 62.2418 66.7479 65.0861 68.3263L65.5146 67.5542ZM60.29 60.5327L60.7122 59.7571C57.6851 58.1098 55.6332 54.9026 55.6331 51.2182L54.75 51.2183L53.8669 51.2183C53.8671 55.5754 56.2957 59.3644 59.8679 61.3084L60.29 60.5327ZM54.75 51.2183L54.7501 50.3352C51.0653 50.3347 47.8581 48.2829 46.2113 45.2553L45.4355 45.6772L44.6598 46.0992C46.6033 49.6724 50.3926 52.1008 54.7499 52.1013L54.75 51.2183ZM45.4355 45.6772L45.6223 44.8141C41.2496 43.8678 37.9724 39.9786 37.9719 35.3236L37.0889 35.3237L36.2058 35.3238C36.2064 40.8285 40.0815 45.4221 45.2488 46.5403L45.4355 45.6772ZM37.0889 35.3237L37.9719 35.3237C37.972 30.6687 41.2489 26.7778 45.6223 25.8314L45.4355 24.9683L45.2488 24.1052C40.0805 25.2236 36.2058 29.8192 36.2058 35.3237L37.0889 35.3237ZM45.4355 24.9683L46.2113 25.3903C47.8582 22.3628 51.0655 20.3108 54.7501 20.3103L54.75 19.4272L54.7499 18.5442C50.3927 18.5447 46.6034 20.9734 44.6598 24.5463L45.4355 24.9683ZM54.75 19.4272L55.6331 19.4273C55.6334 15.7428 57.6857 12.5355 60.713 10.8885L60.291 10.1128L59.869 9.33709C56.2964 11.2808 53.8673 15.0699 53.8669 19.4272L54.75 19.4272ZM60.291 10.1128L61.1541 10.2995C62.1004 5.92609 65.9914 2.64935 70.6465 2.64919L70.6465 1.76611L70.6465 0.883036C65.142 0.883221 60.5462 4.75756 59.4279 9.92604L60.291 10.1128ZM70.6465 1.76611L70.6228 2.64887L71.1687 2.66352L71.1924 1.78076L71.2161 0.898003L70.6702 0.883354L70.6465 1.76611ZM70.6465 7.06494L70.6464 6.18186C67.2327 6.18209 64.4646 8.94989 64.4646 12.3638L65.3477 12.3638L66.2307 12.3638C66.2308 9.92541 68.2081 7.94818 70.6465 7.94802L70.6465 7.06494ZM65.3477 12.3638L64.4646 12.3639C64.4647 13.0893 64.5911 13.7866 64.8212 14.434L65.6533 14.1382L66.4854 13.8424C66.3212 13.3804 66.2308 12.8828 66.2307 12.3636L65.3477 12.3638ZM65.6533 14.1382L65.7034 13.2565C65.5865 13.2499 65.4676 13.2463 65.3477 13.2463L65.3477 14.1294L65.3477 15.0125C65.4327 15.0125 65.5181 15.015 65.6032 15.0198L65.6533 14.1382ZM65.3477 14.1294L65.3476 13.2463C61.9339 13.2466 59.1658 16.0143 59.1658 19.4282L60.0488 19.4282L60.9319 19.4282C60.9319 16.9899 62.9093 15.0127 65.3477 15.0125L65.3477 14.1294ZM60.0488 19.4282L59.1658 19.4283C59.1662 22.8419 61.9343 25.6089 65.3476 25.6092L65.3477 24.7261L65.3477 23.843C62.9094 23.8428 60.9322 21.8661 60.9319 19.4281L60.0488 19.4282ZM65.3477 24.7261L65.3477 25.6092C66.0698 25.6091 66.7639 25.4839 67.4086 25.2559L67.1143 24.4233L66.8199 23.5908C66.3596 23.7535 65.8644 23.843 65.3477 23.843L65.3477 24.7261ZM67.1143 24.4233H66.2312V31.7905H67.1143H67.9973V24.4233H67.1143ZM67.1143 31.7905V30.9074H59.7461V31.7905V32.6736H67.1143V31.7905ZM59.7461 31.7905L60.5787 32.0848C60.8064 31.4405 60.9318 30.7469 60.9319 30.025L60.0488 30.0249L59.1658 30.0248C59.1657 30.5412 59.0762 31.0359 58.9135 31.4962L59.7461 31.7905ZM60.0488 30.0249L60.9319 30.0249C60.9319 26.6112 58.165 23.8431 54.751 23.843L54.751 24.7261L54.7509 25.6092C57.1892 25.6092 59.1657 27.5863 59.1658 30.0249L60.0488 30.0249ZM54.751 24.7261L54.7509 23.843C51.3372 23.8432 48.5691 26.611 48.5691 30.0249L49.4521 30.0249L50.3352 30.0249C50.3352 27.5865 52.3126 25.6093 54.751 25.6092L54.751 24.7261ZM49.4521 30.0249L48.5691 30.025C48.5691 30.1447 48.5726 30.2637 48.5793 30.3807L49.4609 30.3306L50.3426 30.2804C50.3378 30.1955 50.3352 30.1099 50.3352 30.0248L49.4521 30.0249ZM49.4609 30.3306L49.7567 29.4985C49.1094 29.2684 48.4122 29.1419 47.6866 29.1418L47.6865 30.0249L47.6865 30.908C48.2056 30.908 48.703 30.9984 49.1652 31.1627L49.4609 30.3306ZM47.6865 30.0249L47.6865 29.1418C44.2728 29.1421 41.5046 31.9098 41.5046 35.3237L42.3877 35.3237L43.2708 35.3237C43.2708 32.8854 45.2481 30.9081 47.6866 30.908L47.6865 30.0249ZM42.3877 35.3237L41.5046 35.3239C41.5051 38.7374 44.2731 41.5044 47.6865 41.5047L47.6865 40.6216L47.6866 39.7385C45.2483 39.7383 43.2711 37.7616 43.2708 35.3236L42.3877 35.3237ZM47.6865 40.6216L47.6866 41.5047C48.4132 41.5046 49.1102 41.3768 49.7567 41.147L49.4609 40.3149L49.1652 39.4829C48.702 39.6475 48.2048 39.7385 47.6865 39.7385L47.6865 40.6216ZM49.4609 40.3149L48.5793 40.2647C48.5726 40.3823 48.5691 40.5016 48.5691 40.6215L49.4521 40.6216L50.3352 40.6216C50.3352 40.536 50.3377 40.4502 50.3426 40.3652L49.4609 40.3149ZM49.4521 40.6216L48.5691 40.6216C48.5693 44.0353 51.3373 46.8033 54.7509 46.8035L54.751 45.9204L54.751 45.0373C52.3127 45.0372 50.3354 43.0598 50.3352 40.6215L49.4521 40.6216ZM54.751 45.9204L54.751 46.8035C58.165 46.8034 60.9316 44.0351 60.9319 40.6216L60.0488 40.6216L59.1658 40.6215C59.1656 43.0601 57.189 45.0372 54.7509 45.0373L54.751 45.9204ZM60.0488 40.6216L60.9319 40.6215C60.9319 39.8995 60.8064 39.206 60.5787 38.5617L59.7461 38.856L58.9135 39.1502C59.0762 39.6106 59.1657 40.1054 59.1658 40.6216L60.0488 40.6216ZM59.7461 38.856V39.739H67.1143V38.856V37.9729H59.7461V38.856ZM67.1143 38.856H66.2312V46.2222H67.1143H67.9973V38.856H67.1143ZM67.1143 46.2222L67.4086 45.3896C66.763 45.1614 66.0688 45.0373 65.3477 45.0373L65.3477 45.9204L65.3477 46.8035C65.8652 46.8035 66.3605 46.8924 66.8199 47.0548L67.1143 46.2222ZM65.3477 45.9204L65.3476 45.0373C61.9342 45.0376 59.1661 47.8044 59.1658 51.2182L60.0488 51.2183L60.9319 51.2183C60.9321 48.7803 62.9093 46.8037 65.3477 46.8035L65.3477 45.9204ZM60.0488 51.2183L59.1658 51.2183C59.166 54.6319 61.934 57.3999 65.3476 57.4002L65.3477 56.5171L65.3477 55.634C62.9094 55.6338 60.9321 53.6565 60.9319 51.2182L60.0488 51.2183ZM65.3477 56.5171L65.3477 57.4002C65.4726 57.4002 65.5927 57.3953 65.7034 57.389L65.6533 56.5073L65.6032 55.6257C65.5119 55.6309 65.4277 55.634 65.3477 55.634L65.3477 56.5171ZM65.6533 56.5073L64.8213 56.2114C64.5908 56.8596 64.4646 57.558 64.4646 58.2837L65.3477 58.2837L66.2307 58.2837C66.2307 57.7637 66.321 57.2653 66.4853 56.8032L65.6533 56.5073ZM65.3477 58.2837L64.4646 58.2838C64.4651 61.6974 67.2331 64.4644 70.6464 64.4646L70.6465 63.5815L70.6465 62.6985C68.2082 62.6983 66.2311 60.7216 66.2307 58.2836L65.3477 58.2837ZM70.6465 63.5815L70.6465 64.4646C74.0601 64.4644 76.8269 61.6971 76.8274 58.2838L75.9443 58.2837L75.0613 58.2836C75.0609 60.7218 73.0845 62.6983 70.6464 62.6985L70.6465 63.5815ZM75.9443 58.2837L76.8274 58.2837C76.8274 57.5569 76.7 56.8588 76.4697 56.2113L75.6377 56.5073L74.8057 56.8033C74.9704 57.2663 75.0613 57.7644 75.0613 58.2837L75.9443 58.2837ZM75.6377 56.5073L75.5873 57.389C75.6991 57.3953 75.8193 57.4002 75.9442 57.4002L75.9443 56.5171L75.9445 55.634C75.8637 55.634 75.779 55.6309 75.6881 55.6257L75.6377 56.5073ZM75.9443 56.5171V57.4002C79.3582 57.4002 82.126 54.632 82.1262 51.2183L81.2432 51.2183L80.3601 51.2182C80.3599 53.6567 78.3827 55.634 75.9443 55.634V56.5171ZM81.2432 51.2183L82.1262 51.2182C82.1259 47.8044 79.358 45.0373 75.9443 45.0373V45.9204V46.8035C78.3829 46.8035 80.3599 48.7801 80.3601 51.2183L81.2432 51.2183ZM75.9443 45.9204L75.9442 45.0373C75.2234 45.0374 74.5296 45.1616 73.8844 45.3896L74.1787 46.2222L74.473 47.0548C74.9323 46.8925 75.4273 46.8035 75.9444 46.8035L75.9443 45.9204ZM74.1787 46.2222H75.0618V38.856H74.1787H73.2956V46.2222H74.1787ZM74.1787 38.856V39.739H81.5459V38.856V37.9729H74.1787V38.856ZM81.5459 38.856L80.7133 38.5617C80.4856 39.2059 80.3601 39.8996 80.3601 40.6215L81.2432 40.6216L82.1262 40.6216C82.1263 40.1055 82.2158 39.6105 82.3785 39.1502L81.5459 38.856ZM81.2432 40.6216L80.3601 40.6216C80.3603 44.0353 83.1283 46.8033 86.5419 46.8035L86.542 45.9204L86.5421 45.0373C84.1038 45.0372 82.1264 43.0598 82.1262 40.6215L81.2432 40.6216ZM86.542 45.9204L86.5421 46.8035C89.9558 46.8032 92.7227 44.035 92.7229 40.6216L91.8398 40.6216L90.9568 40.6215C90.9566 43.06 88.98 45.0371 86.5419 45.0373L86.542 45.9204ZM91.8398 40.6216L92.7229 40.6215C92.7229 40.4966 92.7181 40.3763 92.7117 40.2646L91.8301 40.3149L90.9484 40.3652C90.9536 40.4563 90.9568 40.541 90.9568 40.6216L91.8398 40.6216ZM91.8301 40.3149L91.5341 41.1469C92.1816 41.3773 92.8797 41.5046 93.6064 41.5047L93.6064 40.6216L93.6065 39.7385C93.0871 39.7385 92.589 39.6477 92.1261 39.483L91.8301 40.3149ZM93.6064 40.6216L93.6065 41.5047C97.0201 41.5045 99.7869 38.7372 99.7874 35.3239L98.9043 35.3237L98.0212 35.3236C98.0209 37.7619 96.0445 39.7384 93.6064 39.7385L93.6064 40.6216ZM98.9043 35.3237L99.7874 35.3237C99.7873 31.91 97.0204 29.142 93.6065 29.1418L93.6064 30.0249L93.6064 30.908C96.0447 30.9081 98.0212 32.8851 98.0212 35.3237L98.9043 35.3237ZM93.6064 30.0249L93.6064 29.1418C92.8807 29.1419 92.1825 29.2679 91.5341 29.4986L91.8301 30.3306L92.1261 31.1626C92.588 30.9982 93.0863 30.908 93.6065 30.908L93.6064 30.0249ZM91.8301 30.3306L92.7117 30.3807C92.718 30.2698 92.7229 30.1498 92.7229 30.025L91.8398 30.0249L90.9568 30.0248C90.9568 30.1049 90.9536 30.1892 90.9484 30.2804L91.8301 30.3306ZM91.8398 30.0249L92.7229 30.0249C92.7229 26.6112 89.9559 23.8433 86.5421 23.843L86.542 24.7261L86.5419 25.6092C88.9802 25.6094 90.9567 27.5864 90.9568 30.0249L91.8398 30.0249ZM86.542 24.7261L86.5419 23.843C83.1282 23.8432 80.3601 26.611 80.3601 30.0249L81.2432 30.0249L82.1262 30.0249C82.1263 27.5865 84.1036 25.6093 86.5421 25.6092L86.542 24.7261ZM81.2432 30.0249L80.3601 30.025C80.3601 30.7469 80.4856 31.4406 80.7133 32.0848L81.5459 31.7905L82.3785 31.4963C82.2158 31.036 82.1263 30.541 82.1262 30.0248L81.2432 30.0249ZM81.5459 31.7905V30.9074H74.1787V31.7905V32.6736H81.5459V31.7905ZM74.1787 31.7905H75.0618V24.4233H74.1787H73.2956V31.7905H74.1787ZM74.1787 24.4233L73.8844 25.2559C74.5287 25.4837 75.2224 25.6091 75.9442 25.6092L75.9443 24.7261L75.9444 23.843C75.4281 23.8429 74.9332 23.7534 74.473 23.5907L74.1787 24.4233ZM75.9443 24.7261V25.6092C79.358 25.6091 82.1258 22.842 82.1262 19.4283L81.2432 19.4282L80.3601 19.4281C80.3598 21.8663 78.3828 23.843 75.9443 23.843V24.7261ZM81.2432 19.4282L82.1262 19.4282C82.1262 16.0143 79.3583 13.2463 75.9443 13.2463V14.1294V15.0125C78.3829 15.0125 80.3601 16.9897 80.3601 19.4282L81.2432 19.4282ZM75.9443 14.1294L75.9442 13.2463C75.8244 13.2463 75.7052 13.2498 75.5873 13.2565L75.6377 14.1382L75.688 15.0198C75.7729 15.015 75.8586 15.0125 75.9444 15.0125L75.9443 14.1294ZM75.6377 14.1382L76.4697 14.4341C76.6997 13.7873 76.8273 13.0904 76.8274 12.3639L75.9443 12.3638L75.0613 12.3636C75.0612 12.8822 74.9703 13.3794 74.8057 13.8423L75.6377 14.1382ZM75.9443 12.3638L76.8274 12.3638C76.8274 8.95009 74.0605 6.18208 70.6465 6.18186L70.6465 7.06494L70.6464 7.94802C73.0847 7.94817 75.0612 9.92519 75.0613 12.3638L75.9443 12.3638Z" fill="#0088FF" mask="url(#path-1-outside-1_165_491)"/>
</svg>