<svg xmlns="http://www.w3.org/2000/svg" width="109" height="55" viewBox="0 0 109 55" fill="none">
<path d="M86.8359 39.0719C85.3359 37.1506 81.4853 38.8874 82.752 42.4895C83.8359 45.5719 88.6358 46.141 92.3359 44.5719C95.8359 43.0876 100.534 36.7505 97.5916 30.2574C92.3544 18.7 76.8738 18.1545 69.7501 28.0268C68.1617 30.2281 67.2518 34.9047 69.0726 37.1506C71.1 39.6512 74.1292 38.6754 75.3971 36.1427C77.4239 32.0942 76.7268 24.9264 72.449 22.403C65.7479 18.45 58.7577 24.8273 59.9385 31.9946C60.415 34.8871 60.8224 36.8894 61.5676 37.9323C63.28 40.3288 66.1391 43.053 68.3716 43.1965C83.6471 44.1783 77.2747 19.0643 73.8359 13.5718C65.6972 0.572418 54.2186 3.12259 47.2358 16.0764C46.2365 17.9302 45.8499 19.0054 45.4173 20.7874C44.9847 22.5693 44.5202 24.9847 44.3175 27.7426C44.1147 30.5005 43.9562 33.5334 44.288 35.5653C45.5156 43.0828 47.8429 45.494 54.4696 49.1137C62.1007 53.2819 72.7365 47.5873 72.9942 38.8986C73.1712 32.9288 70.3239 22.4092 62.0843 27.2826C57.8444 29.7903 53.3189 34.438 56.3271 40.1083C58.0357 43.329 62.212 46.2764 65.8359 45.5751C74.1456 43.9668 75.7661 37.2349 73.3359 29.0719C72.543 26.4083 71.3079 24.3842 70.3359 23.5719C66.453 20.3269 59.6227 18.0828 55.2926 22.295C51.9789 25.5184 51.4225 29.8605 51.6763 34.339C51.817 36.8223 53.6279 40.1773 56.5611 40.1381C58.0564 40.118 59.2309 40.2023 60.6845 38.8874C64.8156 35.1506 64.3438 29.231 60.493 25.0761C58.1717 22.5713 55.8743 20.1113 52.1918 19.6983C43.7305 18.7493 38.7955 25.8352 41.6763 33.699C43.1745 37.7885 44.7437 43.2184 49.0653 45.3117C50.3447 45.9314 51.5699 46.2434 52.7198 45.9899C54.6533 45.5638 55.8847 45.226 56.8114 44.4533C57.7948 43.6335 60.0974 41.6712 60.0049 39.817C59.912 37.9534 60.058 35.048 57.3426 31.5903C55.2479 28.9228 51.3799 26.1284 47.8424 28.0925C38.1798 33.457 56.1742 50.1443 59.464 43.6383C60.1617 42.2584 60.4219 39.7131 58.9453 37.1098C58.1156 35.647 57.6977 34.3746 53.926 32.1963C50.8672 30.4297 44.7799 30.1118 42.5329 33.5813C41.588 35.0403 40.7358 36.4359 41.3463 40.497C43.0859 52.0696 58.076 54.9809 56.7642 42.6209C56.5621 40.7168 56.3676 38.9253 55.3532 36.9116C53.2662 32.7688 50.1942 27.9462 45.5426 26.2453C44.5636 25.8873 42.5987 25.4429 41.2216 25.9152C34.8078 28.1148 32.8758 37.3608 37.0503 42.4654C40.275 46.4085 44.2791 48.5563 49.2576 45.5751C50.278 44.964 52.2816 44.013 54.2603 40.6386C55.6901 38.2004 57.0118 35.9314 56.5708 31.2375C56.1784 27.0609 56.033 25.3522 54.1198 22.6609C47.7941 13.7621 34.1106 12.6737 27.3555 21.658C26.4253 22.8952 25.4225 24.5476 24.845 26.8184C23.5375 31.9593 22.8985 40.6906 28.5408 43.6383C33.8359 46.4046 37.6224 39.8349 37.0068 33.759C36.4687 28.4477 31.5355 24.1988 26.6074 22.7697C25.2001 22.3616 22.8208 21.9319 20.1764 22.3616C15.2058 23.1693 10.05 28.2034 11.1497 33.5666C11.6396 35.9557 13.3359 38.5718 16.0326 39.7011" stroke="#0088FF" stroke-width="2" stroke-linecap="round"/>
</svg>