<svg xmlns="http://www.w3.org/2000/svg" width="109" height="55" viewBox="0 0 109 55" fill="none">
<path d="M84.471 37.7817C84.801 43.9447 92.2385 43.5224 95.524 40.1408C101.708 33.7765 101.494 21.3689 91.797 18.2862C85.5355 16.2957 76.322 18.2977 71.3549 22.878C68.0773 25.9004 64.0534 33.6182 68.0112 34.4004C68.8461 34.5654 69.984 33.6342 70.5695 32.9004C75.7833 26.3656 76.2939 16.7699 71.2751 9.91979C64.8097 1.09518 54.1665 5.24309 49.7599 13.6932C47.175 18.6501 48.0116 27.2734 50.2591 32.3188C52.5963 37.5656 61.2381 41.5868 66.1555 37.9141C82.8954 25.4115 54.534 13.2054 49.512 27.8144C44.3863 42.7253 72.4594 53.0299 74.2882 39.4292C75.5695 29.9004 66.4315 26.9954 59.9 27.9207C52.8598 28.918 49.1732 37.9077 52.2509 44.2395C55.1129 50.1275 64.5939 53.739 68.0112 46.338C68.8032 44.6225 69.5496 42.0554 69.0843 39.299C67.7687 31.506 60.4677 25.7255 52.5695 26.4004C48.1995 26.7738 43.9134 30.8781 43.029 35.4809C42.9121 36.0896 42.6513 38.0333 43.1226 41.0352C43.5272 43.6119 43.8721 45.4727 44.6383 46.618C48.9287 53.0308 59.8043 51.1273 61.2068 42.9465C62.0912 37.7876 62.796 24.9732 58.9086 20.9488C51.7956 13.5851 38.4323 17.5517 37.6254 28.1126C37.4408 30.5289 37.4773 33.8806 37.5751 35.9781C37.7016 38.6912 41.051 48.2813 44.8172 42.9945C47.2243 39.6156 47.4633 33.6122 45.2991 30.3897C43.5695 27.8144 40.2098 28.0943 38.1179 29.09C33.8705 31.1117 33.8067 37.7756 35.1655 41.5433C37.1953 47.1717 42.1713 49.0831 48.0263 47.3732C53.0883 45.8948 55.9966 40.868 56.2095 35.6047C56.3065 33.2084 56.2303 28.9532 55.4719 27.4439C51.0448 18.6338 43.5142 14.5772 33.8501 18.427C25.211 21.8685 20.3083 31.2651 22.8584 40.4588C24.4665 46.2566 34.3855 51.5275 37.7757 44.0548C38.6263 42.1799 39.8441 40.7989 39.0705 35.7432C38.5485 32.332 37.0986 29.0146 34.7801 26.4244C31.2449 22.4747 25.4506 19.7635 20.0782 20.4561C11.0248 21.6233 6.82993 30.7475 12.7444 38.3839C13.7896 39.7335 14.8417 40.4141 15.0973 40.4816" stroke="#0088FF" stroke-width="2.5" stroke-linecap="round"/>
</svg>