<svg xmlns="http://www.w3.org/2000/svg" width="140" height="140" viewBox="0 0 140 140" fill="none">
<mask id="path-1-inside-1_165_654" fill="white">
<path d="M111.268 26.4922C112.243 26.4922 113.033 27.2834 113.033 28.2588V111.268C113.033 112.243 112.243 113.034 111.268 113.034H28.2578C27.2826 113.034 26.4922 112.243 26.4922 111.268V28.2588C26.4922 27.2835 27.2826 26.4924 28.2578 26.4922H111.268ZM69.7627 37.5459C61.9689 37.5463 55.6509 43.8644 55.6504 51.6582L55.6582 52.1436C55.71 53.6716 56.007 55.1386 56.5078 56.5068C54.9955 55.9536 53.3627 55.6504 51.6602 55.6504C43.8662 55.6505 37.5473 61.9687 37.5469 69.7627L37.5508 70.127C37.7441 77.7529 43.9877 83.8759 51.6602 83.876C53.3628 83.876 54.9949 83.5711 56.5068 83.0176C55.9533 84.5304 55.6504 86.1643 55.6504 87.8672C55.6506 95.6612 61.9688 101.979 69.7627 101.979L70.127 101.976C77.7528 101.782 83.8757 95.5396 83.876 87.8672C83.8759 86.1636 83.5716 84.5297 83.0176 83.0166C84.5307 83.571 86.1642 83.876 87.8682 83.876C95.6625 83.8758 101.98 77.5569 101.98 69.7627L101.977 69.3984C101.783 61.7728 95.5404 55.6505 87.8682 55.6504C86.1643 55.6504 84.53 55.9537 83.0166 56.5078C83.5178 55.1396 83.8162 53.6728 83.8682 52.1445L83.876 51.6582C83.8755 43.986 77.7527 37.743 70.127 37.5498L69.7627 37.5459Z"/>
</mask>
<path d="M111.268 26.4922C112.243 26.4922 113.033 27.2834 113.033 28.2588V111.268C113.033 112.243 112.243 113.034 111.268 113.034H28.2578C27.2826 113.034 26.4922 112.243 26.4922 111.268V28.2588C26.4922 27.2835 27.2826 26.4924 28.2578 26.4922H111.268ZM69.7627 37.5459C61.9689 37.5463 55.6509 43.8644 55.6504 51.6582L55.6582 52.1436C55.71 53.6716 56.007 55.1386 56.5078 56.5068C54.9955 55.9536 53.3627 55.6504 51.6602 55.6504C43.8662 55.6505 37.5473 61.9687 37.5469 69.7627L37.5508 70.127C37.7441 77.7529 43.9877 83.8759 51.6602 83.876C53.3628 83.876 54.9949 83.5711 56.5068 83.0176C55.9533 84.5304 55.6504 86.1643 55.6504 87.8672C55.6506 95.6612 61.9688 101.979 69.7627 101.979L70.127 101.976C77.7528 101.782 83.8757 95.5396 83.876 87.8672C83.8759 86.1636 83.5716 84.5297 83.0176 83.0166C84.5307 83.571 86.1642 83.876 87.8682 83.876C95.6625 83.8758 101.98 77.5569 101.98 69.7627L101.977 69.3984C101.783 61.7728 95.5404 55.6505 87.8682 55.6504C86.1643 55.6504 84.53 55.9537 83.0166 56.5078C83.5178 55.1396 83.8162 53.6728 83.8682 52.1445L83.876 51.6582C83.8755 43.986 77.7527 37.743 70.127 37.5498L69.7627 37.5459Z" fill="#DFE6EF"/>
<path d="M111.268 26.4922L111.268 25.6091H111.268V26.4922ZM111.268 113.034V113.917H111.268L111.268 113.034ZM28.2578 113.034L28.2576 113.917H28.2578V113.034ZM28.2578 26.4922V25.6091L28.2576 25.6091L28.2578 26.4922ZM69.7627 37.5459L69.7722 36.6628L69.7627 36.6628L69.7627 37.5459ZM55.6504 51.6582L54.7673 51.6581V51.6653L54.7674 51.6724L55.6504 51.6582ZM55.6582 52.1436L54.7752 52.1578L54.7754 52.1656L54.7756 52.1735L55.6582 52.1436ZM56.5078 56.5068L56.2044 57.3362L57.9909 57.9898L57.3371 56.2033L56.5078 56.5068ZM51.6602 55.6504L51.6602 54.7673H51.6601L51.6602 55.6504ZM37.5469 69.7627L36.6637 69.7626L36.6638 69.7722L37.5469 69.7627ZM37.5508 70.127L36.6677 70.1364L36.668 70.1493L37.5508 70.127ZM51.6602 83.876L51.6601 84.7591H51.6602L51.6602 83.876ZM56.5068 83.0176L57.3361 83.321L57.9899 81.5342L56.2032 82.1883L56.5068 83.0176ZM55.6504 87.8672L54.7673 87.8672V87.8672L55.6504 87.8672ZM69.7627 101.979L69.7627 102.863L69.7722 102.863L69.7627 101.979ZM70.127 101.976L70.1364 102.859L70.1493 102.858L70.127 101.976ZM83.876 87.8672L84.7591 87.8672V87.8672L83.876 87.8672ZM83.0176 83.0166L83.3214 82.1874L81.5337 81.5324L82.1883 83.3203L83.0176 83.0166ZM87.8682 83.876L87.8682 84.7591H87.8682L87.8682 83.876ZM101.98 69.7627L102.864 69.7627L102.863 69.7532L101.98 69.7627ZM101.977 69.3984L102.86 69.389L102.859 69.376L101.977 69.3984ZM87.8682 55.6504L87.8682 54.7673H87.8682L87.8682 55.6504ZM83.0166 56.5078L82.1874 56.2041L81.5327 57.9915L83.3202 57.3371L83.0166 56.5078ZM83.8682 52.1445L84.7507 52.1745L84.751 52.1666L84.7511 52.1587L83.8682 52.1445ZM83.876 51.6582L84.7589 51.6724L84.7591 51.6653V51.6581L83.876 51.6582ZM70.127 37.5498L70.1493 36.6669L70.1364 36.6668L70.127 37.5498ZM111.268 26.4922L111.268 27.3753C111.755 27.3753 112.15 27.7705 112.15 28.2588H113.033H113.916C113.916 26.7963 112.731 25.6092 111.268 25.6091L111.268 26.4922ZM113.033 28.2588H112.15V111.268H113.033H113.916V28.2588H113.033ZM113.033 111.268H112.15C112.15 111.756 111.755 112.151 111.268 112.151L111.268 113.034L111.268 113.917C112.731 113.917 113.916 112.73 113.916 111.268H113.033ZM111.268 113.034V112.151H28.2578V113.034V113.917H111.268V113.034ZM28.2578 113.034L28.258 112.151C27.7708 112.151 27.3753 111.756 27.3753 111.268H26.4922H25.6091C25.6091 112.73 26.7944 113.917 28.2576 113.917L28.2578 113.034ZM26.4922 111.268H27.3753V28.2588H26.4922H25.6091V111.268H26.4922ZM26.4922 28.2588H27.3753C27.3753 27.7708 27.7708 27.3754 28.258 27.3753L28.2578 26.4922L28.2576 25.6091C26.7944 25.6095 25.6091 26.7962 25.6091 28.2588H26.4922ZM28.2578 26.4922V27.3753H111.268V26.4922V25.6091H28.2578V26.4922ZM69.7627 37.5459L69.7627 36.6628C61.4812 36.6632 54.7678 43.3767 54.7673 51.6581L55.6504 51.6582L56.5335 51.6583C56.5339 44.3522 62.4567 38.4293 69.7627 38.429L69.7627 37.5459ZM55.6504 51.6582L54.7674 51.6724L54.7752 52.1578L55.6582 52.1436L56.5412 52.1293L56.5334 51.644L55.6504 51.6582ZM55.6582 52.1436L54.7756 52.1735C54.8306 53.7971 55.1464 55.3564 55.6785 56.8104L56.5078 56.5068L57.3371 56.2033C56.8677 54.9208 56.5893 53.546 56.5408 52.1137L55.6582 52.1436ZM56.5078 56.5068L56.8112 55.6775C55.2036 55.0894 53.4682 54.7673 51.6602 54.7673L51.6602 55.6504L51.6601 56.5335C53.2572 56.5335 54.7874 56.8177 56.2044 57.3362L56.5078 56.5068ZM51.6602 55.6504L51.6601 54.7673C43.3785 54.7674 36.6642 61.4809 36.6638 69.7626L37.5469 69.7627L38.43 69.7627C38.4303 62.4564 44.3538 56.5336 51.6602 56.5335L51.6602 55.6504ZM37.5469 69.7627L36.6638 69.7722L36.6678 70.1364L37.5508 70.127L38.4338 70.1175L38.4299 69.7532L37.5469 69.7627ZM37.5508 70.127L36.668 70.1493C36.8734 78.2529 43.5075 84.7589 51.6601 84.7591L51.6602 83.876L51.6602 82.9929C44.4679 82.9928 38.6148 77.2528 38.4336 70.1046L37.5508 70.127ZM51.6602 83.876L51.6602 84.7591C53.4689 84.759 55.2037 84.4351 56.8104 83.8468L56.5068 83.0176L56.2032 82.1883C54.7861 82.7072 53.2566 82.9929 51.6601 82.9929L51.6602 83.876ZM56.5068 83.0176L55.6775 82.7141C55.0891 84.3224 54.7674 86.0589 54.7673 87.8672L55.6504 87.8672L56.5335 87.8672C56.5335 86.2697 56.8176 84.7383 57.3361 83.321L56.5068 83.0176ZM55.6504 87.8672L54.7673 87.8672C54.7676 96.1489 61.4811 102.862 69.7627 102.863L69.7627 101.979L69.7627 101.096C62.4565 101.096 56.5337 95.1734 56.5335 87.8672L55.6504 87.8672ZM69.7627 101.979L69.7722 102.863L70.1364 102.859L70.127 101.976L70.1175 101.093L69.7532 101.096L69.7627 101.979ZM70.127 101.976L70.1493 102.858C78.2528 102.653 84.7588 96.0199 84.7591 87.8672L83.876 87.8672L82.9929 87.8672C82.9927 95.0594 77.2528 100.912 70.1046 101.093L70.127 101.976ZM83.876 87.8672L84.7591 87.8672C84.759 86.0577 84.4357 84.3212 83.8468 82.713L83.0176 83.0166L82.1883 83.3203C82.7076 84.7382 82.9928 86.2694 82.9929 87.8672L83.876 87.8672ZM83.0176 83.0166L82.7138 83.8458C84.3219 84.435 86.0581 84.759 87.8682 84.7591L87.8682 83.876L87.8682 82.9929C86.2703 82.9929 84.7395 82.707 83.3214 82.1874L83.0176 83.0166ZM87.8682 83.876L87.8682 84.7591C96.1502 84.7589 102.863 78.0445 102.864 69.7627L101.98 69.7627L101.097 69.7627C101.097 77.0692 95.1747 82.9928 87.8681 82.9929L87.8682 83.876ZM101.98 69.7627L102.863 69.7532L102.86 69.389L101.977 69.3984L101.094 69.4079L101.097 69.7722L101.98 69.7627ZM101.977 69.3984L102.859 69.376C102.654 61.2728 96.0206 54.7675 87.8682 54.7673L87.8682 55.6504L87.8681 56.5335C95.0602 56.5336 100.912 62.2729 101.094 69.4208L101.977 69.3984ZM87.8682 55.6504L87.8682 54.7673C86.0588 54.7673 84.3218 55.0895 82.713 55.6786L83.0166 56.5078L83.3202 57.3371C84.7381 56.8179 86.2698 56.5335 87.8682 56.5335L87.8682 55.6504ZM83.0166 56.5078L83.8458 56.8115C84.3782 55.358 84.6955 53.7989 84.7507 52.1745L83.8682 52.1445L82.9856 52.1145C82.9369 53.5467 82.6573 54.9212 82.1874 56.2041L83.0166 56.5078ZM83.8682 52.1445L84.7511 52.1587L84.7589 51.6724L83.876 51.6582L82.993 51.644L82.9852 52.1303L83.8682 52.1445ZM83.876 51.6582L84.7591 51.6581C84.7586 43.5058 78.2527 36.8723 70.1493 36.667L70.127 37.5498L70.1046 38.4326C77.2527 38.6137 82.9925 44.4662 82.9929 51.6583L83.876 51.6582ZM70.127 37.5498L70.1364 36.6668L69.7722 36.6629L69.7627 37.5459L69.7532 38.4289L70.1175 38.4328L70.127 37.5498Z" fill="#0088FF" mask="url(#path-1-inside-1_165_654)"/>
</svg>