<svg xmlns="http://www.w3.org/2000/svg" width="79" height="79" viewBox="0 0 79 79" fill="none">
<mask id="path-1-outside-1_165_491" maskUnits="userSpaceOnUse" x="20" y="0" width="40" height="76" fill="black">
<rect fill="white" x="20" width="40" height="76"/>
<path d="M40 1C42.8762 1 45.2778 3.02427 45.8623 5.72559C47.7313 6.74201 49 8.7228 49 11C51.2767 11 53.2568 12.2683 54.2734 14.1367C56.9753 14.7208 59 17.1234 59 20C59 22.8766 56.9752 25.2782 54.2734 25.8623C53.2569 27.7311 51.277 29 49 29C49 31.277 47.7311 33.2569 45.8623 34.2734C45.492 35.9861 44.3903 37.4247 42.9014 38.25C42.9632 38.49 43 38.7407 43 39C43.5523 39 44 39.4477 44 40C44 40.5523 43.5523 41 43 41V54H51C51.5523 54 52 54.4477 52 55V59.0029C51.5819 58.6884 51.0635 58.5 50.5 58.5C49.6735 58.5 48.9424 58.9024 48.4873 59.5205L46.5029 57.5L43 61.0674L46.5029 64.6357L48.5449 62.5547C49.0029 63.1299 49.7075 63.5 50.5 63.5C51.0637 63.5 51.5818 63.3108 52 62.9961V67C52 67.5523 51.5523 68 51 68H43V70C43.5523 70 44 70.4477 44 71C44 71.5523 43.5523 72 43 72C43 73.6569 41.6569 75 40 75C38.3949 75 37.0842 73.7394 37.0039 72.1543L37 72C36.4477 72 36 71.5523 36 71C36 70.4477 36.4477 70 37 70V41C36.4477 41 36 40.5523 36 40C36 39.4477 36.4477 39 37 39C37 38.7411 37.036 38.4906 37.0977 38.251C35.6084 37.4257 34.5069 35.9861 34.1367 34.2734C32.3533 33.303 31.1165 31.4548 31.0078 29.3086L31 29C28.7228 29 26.742 27.7313 25.7256 25.8623C23.0243 25.2778 21 22.8762 21 20C21 17.1237 23.0242 14.7211 25.7256 14.1367C26.7421 12.2681 28.7231 11 31 11C31 8.72311 32.2681 6.74214 34.1367 5.72559C34.7211 3.02417 37.1237 1 40 1ZM40 4C38.3431 4 37 5.34315 37 7C37 7.35286 37.0639 7.69043 37.1758 8.00488C37.1176 8.00152 37.059 8 37 8C35.3431 8 34 9.34315 34 11C34 12.6569 35.3431 14 37 14C37.3511 14 37.6869 13.936 38 13.8252V18H33.8262C33.9369 17.6869 34 17.351 34 17C34 15.3431 32.6569 14 31 14C29.3431 14 28 15.3431 28 17C28 17.059 28.0015 17.1176 28.0049 17.1758C27.6904 17.0639 27.3529 17 27 17C25.3431 17 24 18.3431 24 20C24 21.6569 25.3431 23 27 23C27.353 23 27.6903 22.9352 28.0049 22.8232C28.0015 22.8817 28 22.9407 28 23C28 24.6569 29.3431 26 31 26C32.6569 26 34 24.6569 34 23C34 22.649 33.9369 22.3131 33.8262 22H38V26.1738C37.6869 26.0631 37.351 26 37 26C35.3431 26 34 27.3431 34 29C34 30.6569 35.3431 32 37 32C37.059 32 37.1176 31.9975 37.1758 31.9941C37.0637 32.3088 37 32.6468 37 33C37 34.6569 38.3431 36 40 36C41.6569 36 43 34.6569 43 33C43 32.6467 42.9354 32.3089 42.8232 31.9941C42.8817 31.9975 42.9406 32 43 32C44.6569 32 46 30.6569 46 29C46 27.3431 44.6569 26 43 26C42.649 26 42.3131 26.0631 42 26.1738V22H46.1738C46.0631 22.3131 46 22.649 46 23C46 24.6569 47.3431 26 49 26C50.6569 26 52 24.6569 52 23C52 22.9406 51.9975 22.8817 51.9941 22.8232C52.3089 22.9354 52.6467 23 53 23C54.6569 23 56 21.6569 56 20C56 18.3431 54.6569 17 53 17C52.6468 17 52.3088 17.0637 51.9941 17.1758C51.9975 17.1176 52 17.059 52 17C52 15.3431 50.6569 14 49 14C47.3431 14 46 15.3431 46 17C46 17.351 46.0631 17.6869 46.1738 18H42V13.8252C42.3131 13.936 42.6489 14 43 14C44.6569 14 46 12.6569 46 11C46 9.34315 44.6569 8 43 8C42.9407 8 42.8817 8.00149 42.8232 8.00488C42.9352 7.69034 43 7.35297 43 7C43 5.34315 41.6569 4 40 4Z"/>
</mask>
<path d="M40 1C42.8762 1 45.2778 3.02427 45.8623 5.72559C47.7313 6.74201 49 8.7228 49 11C51.2767 11 53.2568 12.2683 54.2734 14.1367C56.9753 14.7208 59 17.1234 59 20C59 22.8766 56.9752 25.2782 54.2734 25.8623C53.2569 27.7311 51.277 29 49 29C49 31.277 47.7311 33.2569 45.8623 34.2734C45.492 35.9861 44.3903 37.4247 42.9014 38.25C42.9632 38.49 43 38.7407 43 39C43.5523 39 44 39.4477 44 40C44 40.5523 43.5523 41 43 41V54H51C51.5523 54 52 54.4477 52 55V59.0029C51.5819 58.6884 51.0635 58.5 50.5 58.5C49.6735 58.5 48.9424 58.9024 48.4873 59.5205L46.5029 57.5L43 61.0674L46.5029 64.6357L48.5449 62.5547C49.0029 63.1299 49.7075 63.5 50.5 63.5C51.0637 63.5 51.5818 63.3108 52 62.9961V67C52 67.5523 51.5523 68 51 68H43V70C43.5523 70 44 70.4477 44 71C44 71.5523 43.5523 72 43 72C43 73.6569 41.6569 75 40 75C38.3949 75 37.0842 73.7394 37.0039 72.1543L37 72C36.4477 72 36 71.5523 36 71C36 70.4477 36.4477 70 37 70V41C36.4477 41 36 40.5523 36 40C36 39.4477 36.4477 39 37 39C37 38.7411 37.036 38.4906 37.0977 38.251C35.6084 37.4257 34.5069 35.9861 34.1367 34.2734C32.3533 33.303 31.1165 31.4548 31.0078 29.3086L31 29C28.7228 29 26.742 27.7313 25.7256 25.8623C23.0243 25.2778 21 22.8762 21 20C21 17.1237 23.0242 14.7211 25.7256 14.1367C26.7421 12.2681 28.7231 11 31 11C31 8.72311 32.2681 6.74214 34.1367 5.72559C34.7211 3.02417 37.1237 1 40 1ZM40 4C38.3431 4 37 5.34315 37 7C37 7.35286 37.0639 7.69043 37.1758 8.00488C37.1176 8.00152 37.059 8 37 8C35.3431 8 34 9.34315 34 11C34 12.6569 35.3431 14 37 14C37.3511 14 37.6869 13.936 38 13.8252V18H33.8262C33.9369 17.6869 34 17.351 34 17C34 15.3431 32.6569 14 31 14C29.3431 14 28 15.3431 28 17C28 17.059 28.0015 17.1176 28.0049 17.1758C27.6904 17.0639 27.3529 17 27 17C25.3431 17 24 18.3431 24 20C24 21.6569 25.3431 23 27 23C27.353 23 27.6903 22.9352 28.0049 22.8232C28.0015 22.8817 28 22.9407 28 23C28 24.6569 29.3431 26 31 26C32.6569 26 34 24.6569 34 23C34 22.649 33.9369 22.3131 33.8262 22H38V26.1738C37.6869 26.0631 37.351 26 37 26C35.3431 26 34 27.3431 34 29C34 30.6569 35.3431 32 37 32C37.059 32 37.1176 31.9975 37.1758 31.9941C37.0637 32.3088 37 32.6468 37 33C37 34.6569 38.3431 36 40 36C41.6569 36 43 34.6569 43 33C43 32.6467 42.9354 32.3089 42.8232 31.9941C42.8817 31.9975 42.9406 32 43 32C44.6569 32 46 30.6569 46 29C46 27.3431 44.6569 26 43 26C42.649 26 42.3131 26.0631 42 26.1738V22H46.1738C46.0631 22.3131 46 22.649 46 23C46 24.6569 47.3431 26 49 26C50.6569 26 52 24.6569 52 23C52 22.9406 51.9975 22.8817 51.9941 22.8232C52.3089 22.9354 52.6467 23 53 23C54.6569 23 56 21.6569 56 20C56 18.3431 54.6569 17 53 17C52.6468 17 52.3088 17.0637 51.9941 17.1758C51.9975 17.1176 52 17.059 52 17C52 15.3431 50.6569 14 49 14C47.3431 14 46 15.3431 46 17C46 17.351 46.0631 17.6869 46.1738 18H42V13.8252C42.3131 13.936 42.6489 14 43 14C44.6569 14 46 12.6569 46 11C46 9.34315 44.6569 8 43 8C42.9407 8 42.8817 8.00149 42.8232 8.00488C42.9352 7.69034 43 7.35297 43 7C43 5.34315 41.6569 4 40 4Z" fill="#DFE6EF"/>
<path d="M40 1V0.5V1ZM45.8623 5.72559L45.3736 5.83132L45.4221 6.05534L45.6234 6.16483L45.8623 5.72559ZM49 11H48.5V11.5H49V11ZM54.2734 14.1367L53.8342 14.3757L53.9438 14.577L54.1678 14.6254L54.2734 14.1367ZM54.2734 25.8623L54.1678 25.3736L53.9437 25.422L53.8342 25.6234L54.2734 25.8623ZM49 29V28.5H48.5V29H49ZM45.8623 34.2734L45.6234 33.8342L45.422 33.9437L45.3736 34.1678L45.8623 34.2734ZM42.9014 38.25L42.659 37.8127L42.3206 38.0002L42.4172 38.3748L42.9014 38.25ZM43 39H42.5V39.5H43V39ZM43 41V40.5H42.5V41H43ZM43 54H42.5V54.5H43V54ZM51 54V53.5V53.5V54ZM52 55H52.5V55H52ZM52 59.0029L51.6994 59.4025L52.5 60.0048V59.0029H52ZM48.4873 59.5205L48.1306 59.8709L48.5419 60.2897L48.8899 59.817L48.4873 59.5205ZM46.5029 57.5L46.8597 57.1497L46.5029 56.7864L46.1462 57.1497L46.5029 57.5ZM43 61.0674L42.6432 60.7171L42.2993 61.0673L42.6432 61.4176L43 61.0674ZM46.5029 64.6357L46.1461 64.986L46.503 65.3496L46.8598 64.9859L46.5029 64.6357ZM48.5449 62.5547L48.9361 62.2432L48.5839 61.801L48.188 62.2045L48.5449 62.5547ZM52 62.9961H52.5V61.994L51.6993 62.5966L52 62.9961ZM52 67H52.5V67H52ZM51 68V68.5V68.5V68ZM43 68V67.5H42.5V68H43ZM43 70H42.5V70.5H43V70ZM43 72V71.5H42.5V72H43ZM37.0039 72.1543L36.5039 72.167L36.5045 72.1796L37.0039 72.1543ZM37 72L37.4998 71.9873L37.4875 71.5H37V72ZM37 70V70.5H37.5V70H37ZM37 41H37.5V40.5H37V41ZM37 39V39.5H37.5V39H37ZM37.0977 38.251L37.5819 38.3756L37.6782 38.0011L37.34 37.8136L37.0977 38.251ZM34.1367 34.2734L34.6254 34.1678L34.577 33.9438L34.3757 33.8342L34.1367 34.2734ZM31.0078 29.3086L30.5078 29.3213L30.5085 29.3339L31.0078 29.3086ZM31 29L31.4998 28.9873L31.4875 28.5H31V29ZM25.7256 25.8623L26.1648 25.6234L26.0553 25.4221L25.8313 25.3736L25.7256 25.8623ZM21 20H20.5H21ZM25.7256 14.1367L25.8313 14.6254L26.0553 14.577L26.1648 14.3757L25.7256 14.1367ZM31 11V11.5H31.5V11H31ZM34.1367 5.72559L34.3757 6.1648L34.577 6.05529L34.6254 5.83131L34.1367 5.72559ZM37.1758 8.00488L37.1469 8.50405L37.8996 8.54753L37.6468 7.83726L37.1758 8.00488ZM38 13.8252H38.5V13.1178L37.8332 13.3539L38 13.8252ZM38 18V18.5H38.5V18H38ZM33.8262 18L33.3548 17.8332L33.1189 18.5H33.8262V18ZM34 17H34.5V17H34ZM31 14V13.5V13.5V14ZM28 17H27.5H28ZM28.0049 17.1758L27.8373 17.6468L28.5475 17.8996L28.5041 17.1469L28.0049 17.1758ZM27 17V16.5V16.5V17ZM27 23V23.5V23.5V23ZM28.0049 22.8232L28.504 22.8522L28.5478 22.0993L27.8372 22.3522L28.0049 22.8232ZM28 23H27.5H28ZM31 26V26.5V26.5V26ZM34 23H33.5H34ZM33.8262 22V21.5H33.1189L33.3548 22.1668L33.8262 22ZM38 22H38.5V21.5H38V22ZM38 26.1738L37.8332 26.6452L38.5 26.8811V26.1738H38ZM37 32V31.5V32ZM37.1758 31.9941L37.6468 32.1619L37.8998 31.4515L37.1469 31.495L37.1758 31.9941ZM37 33H37.5H37ZM43 33H43.5H43ZM42.8232 31.9941L42.8523 31.495L42.099 31.4512L42.3522 32.162L42.8232 31.9941ZM43 32V31.5V32ZM43 26V26.5V26ZM42 26.1738H41.5V26.8811L42.1668 26.6452L42 26.1738ZM42 22V21.5H41.5V22H42ZM46.1738 22L46.6452 22.1668L46.8811 21.5H46.1738V22ZM46 23H45.5H46ZM52 23H52.5H52ZM51.9941 22.8232L52.162 22.3522L51.4512 22.099L51.495 22.8523L51.9941 22.8232ZM53 23V23.5V23ZM51.9941 17.1758L51.495 17.1469L51.4515 17.8998L52.1619 17.6468L51.9941 17.1758ZM52 17H51.5H52ZM46 17H46.5H46ZM46.1738 18V18.5H46.8811L46.6452 17.8332L46.1738 18ZM42 18H41.5V18.5H42V18ZM42 13.8252L42.1668 13.3539L41.5 13.1178V13.8252H42ZM42.8232 8.00488L42.3522 7.83721L42.0993 8.54779L42.8522 8.50404L42.8232 8.00488ZM40 1V1.5C42.6357 1.5 44.8378 3.35501 45.3736 5.83132L45.8623 5.72559L46.351 5.61985C45.7178 2.69354 43.1168 0.5 40 0.5V1ZM45.8623 5.72559L45.6234 6.16483C47.338 7.09727 48.5 8.91327 48.5 11H49H49.5C49.5 8.53234 48.1247 6.38676 46.1012 5.28634L45.8623 5.72559ZM49 11V11.5C51.0862 11.5 52.9016 12.6616 53.8342 14.3757L54.2734 14.1367L54.7126 13.8977C53.612 11.875 51.4672 10.5 49 10.5V11ZM54.2734 14.1367L54.1678 14.6254C56.6445 15.1608 58.5 17.3638 58.5 20H59H59.5C59.5 16.8829 57.3061 14.2807 54.3791 13.648L54.2734 14.1367ZM59 20H58.5C58.5 22.636 56.6446 24.8381 54.1678 25.3736L54.2734 25.8623L54.3791 26.351C57.3059 25.7182 59.5 23.1172 59.5 20H59ZM54.2734 25.8623L53.8342 25.6234C52.9016 27.3379 51.0864 28.5 49 28.5V29V29.5C51.4676 29.5 53.6122 28.1243 54.7127 26.1012L54.2734 25.8623ZM49 29H48.5C48.5 31.0864 47.3379 32.9016 45.6234 33.8342L45.8623 34.2734L46.1012 34.7127C48.1243 33.6122 49.5 31.4676 49.5 29H49ZM45.8623 34.2734L45.3736 34.1678C45.0345 35.7361 44.025 37.0556 42.659 37.8127L42.9014 38.25L43.1438 38.6873C44.7557 37.7939 45.9495 36.2361 46.351 34.3791L45.8623 34.2734ZM42.9014 38.25L42.4172 38.3748C42.47 38.5797 42.5 38.7882 42.5 39H43H43.5C43.5 38.6931 43.4565 38.4004 43.3855 38.1252L42.9014 38.25ZM43 39V39.5C43.2761 39.5 43.5 39.7239 43.5 40H44H44.5C44.5 39.1716 43.8284 38.5 43 38.5V39ZM44 40H43.5C43.5 40.2761 43.2761 40.5 43 40.5V41V41.5C43.8284 41.5 44.5 40.8284 44.5 40H44ZM43 41H42.5V54H43H43.5V41H43ZM43 54V54.5H51V54V53.5H43V54ZM51 54V54.5C51.2761 54.5 51.5 54.7239 51.5 55H52H52.5C52.5 54.1716 51.8284 53.5 51 53.5V54ZM52 55H51.5V59.0029H52H52.5V55H52ZM52 59.0029L52.3006 58.6034C51.8001 58.2269 51.1771 58 50.5 58V58.5V59C50.9498 59 51.3637 59.1499 51.6994 59.4025L52 59.0029ZM50.5 58.5V58C49.5069 58 48.6294 58.4842 48.0847 59.224L48.4873 59.5205L48.8899 59.817C49.2555 59.3205 49.8401 59 50.5 59V58.5ZM48.4873 59.5205L48.844 59.1702L46.8597 57.1497L46.5029 57.5L46.1462 57.8503L48.1306 59.8709L48.4873 59.5205ZM46.5029 57.5L46.1462 57.1497L42.6432 60.7171L43 61.0674L43.3568 61.4177L46.8597 57.8503L46.5029 57.5ZM43 61.0674L42.6432 61.4176L46.1461 64.986L46.5029 64.6357L46.8597 64.2855L43.3568 60.7171L43 61.0674ZM46.5029 64.6357L46.8598 64.9859L48.9018 62.9049L48.5449 62.5547L48.188 62.2045L46.146 64.2856L46.5029 64.6357ZM48.5449 62.5547L48.1538 62.8661C48.702 63.5546 49.5478 64 50.5 64V63.5V63C49.8673 63 49.3039 62.7052 48.9361 62.2432L48.5449 62.5547ZM50.5 63.5V64C51.1779 64 51.8005 63.772 52.3007 63.3956L52 62.9961L51.6993 62.5966C51.3632 62.8496 50.9495 63 50.5 63V63.5ZM52 62.9961H51.5V67H52H52.5V62.9961H52ZM52 67H51.5C51.5 67.2761 51.2761 67.5 51 67.5V68V68.5C51.8284 68.5 52.5 67.8284 52.5 67H52ZM51 68V67.5H43V68V68.5H51V68ZM43 68H42.5V70H43H43.5V68H43ZM43 70V70.5C43.2761 70.5 43.5 70.7239 43.5 71H44H44.5C44.5 70.1716 43.8284 69.5 43 69.5V70ZM44 71H43.5C43.5 71.2761 43.2761 71.5 43 71.5V72V72.5C43.8284 72.5 44.5 71.8284 44.5 71H44ZM43 72H42.5C42.5 73.3807 41.3807 74.5 40 74.5V75V75.5C41.933 75.5 43.5 73.933 43.5 72H43ZM40 75V74.5C38.6626 74.5 37.5702 73.4495 37.5033 72.129L37.0039 72.1543L36.5045 72.1796C36.5983 74.0294 38.1272 75.5 40 75.5V75ZM37.0039 72.1543L37.5037 72.1416L37.4998 71.9873L37 72L36.5002 72.0127L36.5041 72.167L37.0039 72.1543ZM37 72V71.5C36.7239 71.5 36.5 71.2761 36.5 71H36H35.5C35.5 71.8284 36.1716 72.5 37 72.5V72ZM36 71H36.5C36.5 70.7239 36.7239 70.5 37 70.5V70V69.5C36.1716 69.5 35.5 70.1716 35.5 71H36ZM37 70H37.5V41H37H36.5V70H37ZM37 41V40.5C36.7239 40.5 36.5 40.2761 36.5 40H36H35.5C35.5 40.8284 36.1716 41.5 37 41.5V41ZM36 40H36.5C36.5 39.7239 36.7239 39.5 37 39.5V39V38.5C36.1716 38.5 35.5 39.1716 35.5 40H36ZM37 39H37.5C37.5 38.7877 37.5295 38.5792 37.5819 38.3756L37.0977 38.251L36.6134 38.1264C36.5425 38.4021 36.5 38.6945 36.5 39H37ZM37.0977 38.251L37.34 37.8136C35.9739 37.0566 34.9645 35.7363 34.6254 34.1678L34.1367 34.2734L33.648 34.3791C34.0494 36.236 35.243 37.7948 36.8553 38.6883L37.0977 38.251ZM34.1367 34.2734L34.3757 33.8342C32.7396 32.944 31.6068 31.2493 31.5072 29.2833L31.0078 29.3086L30.5085 29.3339C30.6263 31.6603 31.967 33.6621 33.8977 34.7126L34.1367 34.2734ZM31.0078 29.3086L31.5077 29.2959L31.4998 28.9873L31 29L30.5002 29.0127L30.508 29.3212L31.0078 29.3086ZM31 29V28.5C28.9133 28.5 27.0973 27.338 26.1648 25.6234L25.7256 25.8623L25.2863 26.1012C26.3868 28.1247 28.5323 29.5 31 29.5V29ZM25.7256 25.8623L25.8313 25.3736C23.355 24.8378 21.5 22.6357 21.5 20H21H20.5C20.5 23.1168 22.6935 25.7178 25.6198 26.351L25.7256 25.8623ZM21 20H21.5C21.5 17.3641 23.355 15.1611 25.8313 14.6254L25.7256 14.1367L25.6199 13.648C22.6933 14.2811 20.5 16.8832 20.5 20H21ZM25.7256 14.1367L26.1648 14.3757C27.0973 12.6615 28.9135 11.5 31 11.5V11V10.5C28.5327 10.5 26.387 11.8747 25.2864 13.8978L25.7256 14.1367ZM31 11H31.5C31.5 8.91348 32.6615 7.09731 34.3757 6.1648L34.1367 5.72559L33.8978 5.28637C31.8747 6.38696 30.5 8.53274 30.5 11H31ZM34.1367 5.72559L34.6254 5.83131C35.1611 3.35501 37.3641 1.5 40 1.5V1V0.5C36.8832 0.5 34.2811 2.69333 33.648 5.61986L34.1367 5.72559ZM40 4V3.5C38.067 3.5 36.5 5.067 36.5 7H37H37.5C37.5 5.61929 38.6193 4.5 40 4.5V4ZM37 7H36.5C36.5 7.41379 36.575 7.80796 36.7047 8.1725L37.1758 8.00488L37.6468 7.83726C37.5528 7.5729 37.5 7.29192 37.5 7H37ZM37.1758 8.00488L37.2046 7.50572C37.1359 7.50174 37.0676 7.5 37 7.5V8V8.5C37.0504 8.5 37.0994 8.5013 37.1469 8.50405L37.1758 8.00488ZM37 8V7.5C35.067 7.5 33.5 9.067 33.5 11H34H34.5C34.5 9.61929 35.6193 8.5 37 8.5V8ZM34 11H33.5C33.5 12.933 35.067 14.5 37 14.5V14V13.5C35.6193 13.5 34.5 12.3807 34.5 11H34ZM37 14V14.5C37.4125 14.5 37.8045 14.4248 38.1668 14.2965L38 13.8252L37.8332 13.3539C37.5692 13.4473 37.2898 13.5 37 13.5V14ZM38 13.8252H37.5V18H38H38.5V13.8252H38ZM38 18V17.5H33.8262V18V18.5H38V18ZM33.8262 18L34.2975 18.1668C34.426 17.8037 34.5 17.4114 34.5 17H34H33.5C33.5 17.2906 33.4479 17.5702 33.3548 17.8332L33.8262 18ZM34 17H34.5C34.5 15.067 32.933 13.5 31 13.5V14V14.5C32.3807 14.5 33.5 15.6193 33.5 17H34ZM31 14V13.5C29.067 13.5 27.5 15.067 27.5 17H28H28.5C28.5 15.6193 29.6193 14.5 31 14.5V14ZM28 17H27.5C27.5 17.0676 27.5017 17.1359 27.5057 17.2046L28.0049 17.1758L28.5041 17.1469C28.5013 17.0994 28.5 17.0504 28.5 17H28ZM28.0049 17.1758L28.1725 16.7047C27.808 16.575 27.4138 16.5 27 16.5V17V17.5C27.2919 17.5 27.5729 17.5528 27.8373 17.6468L28.0049 17.1758ZM27 17V16.5C25.067 16.5 23.5 18.067 23.5 20H24H24.5C24.5 18.6193 25.6193 17.5 27 17.5V17ZM24 20H23.5C23.5 21.933 25.067 23.5 27 23.5V23V22.5C25.6193 22.5 24.5 21.3807 24.5 20H24ZM27 23V23.5C27.4148 23.5 27.8088 23.4238 28.1726 23.2943L28.0049 22.8232L27.8372 22.3522C27.5719 22.4466 27.2912 22.5 27 22.5V23ZM28.0049 22.8232L27.5057 22.7942C27.5017 22.8637 27.5 22.9324 27.5 23H28H28.5C28.5 22.949 28.5013 22.8998 28.504 22.8522L28.0049 22.8232ZM28 23H27.5C27.5 24.933 29.067 26.5 31 26.5V26V25.5C29.6193 25.5 28.5 24.3807 28.5 23H28ZM31 26V26.5C32.933 26.5 34.5 24.933 34.5 23H34H33.5C33.5 24.3807 32.3807 25.5 31 25.5V26ZM34 23H34.5C34.5 22.5886 34.426 22.1963 34.2975 21.8332L33.8262 22L33.3548 22.1668C33.4479 22.4298 33.5 22.7094 33.5 23H34ZM33.8262 22V22.5H38V22V21.5H33.8262V22ZM38 22H37.5V26.1738H38H38.5V22H38ZM38 26.1738L38.1668 25.7025C37.8037 25.574 37.4114 25.5 37 25.5V26V26.5C37.2906 26.5 37.5702 26.5521 37.8332 26.6452L38 26.1738ZM37 26V25.5C35.067 25.5 33.5 27.067 33.5 29H34H34.5C34.5 27.6193 35.6193 26.5 37 26.5V26ZM34 29H33.5C33.5 30.933 35.067 32.5 37 32.5V32V31.5C35.6193 31.5 34.5 30.3807 34.5 29H34ZM37 32V32.5C37.0726 32.5 37.1419 32.4969 37.2046 32.4933L37.1758 31.9941L37.1469 31.495C37.0933 31.4981 37.0454 31.5 37 31.5V32ZM37.1758 31.9941L36.7048 31.8264C36.5747 32.1915 36.5 32.5861 36.5 33H37H37.5C37.5 32.7075 37.5527 32.4262 37.6468 32.1619L37.1758 31.9941ZM37 33H36.5C36.5 34.933 38.067 36.5 40 36.5V36V35.5C38.6193 35.5 37.5 34.3807 37.5 33H37ZM40 36V36.5C41.933 36.5 43.5 34.933 43.5 33H43H42.5C42.5 34.3807 41.3807 35.5 40 35.5V36ZM43 33H43.5C43.5 32.5851 43.4241 32.1907 43.2942 31.8263L42.8232 31.9941L42.3522 32.162C42.4467 32.4272 42.5 32.7083 42.5 33H43ZM42.8232 31.9941L42.7942 32.4933C42.8578 32.497 42.9272 32.5 43 32.5V32V31.5C42.954 31.5 42.9057 31.4981 42.8523 31.495L42.8232 31.9941ZM43 32V32.5C44.933 32.5 46.5 30.933 46.5 29H46H45.5C45.5 30.3807 44.3807 31.5 43 31.5V32ZM46 29H46.5C46.5 27.067 44.933 25.5 43 25.5V26V26.5C44.3807 26.5 45.5 27.6193 45.5 29H46ZM43 26V25.5C42.5886 25.5 42.1963 25.574 41.8332 25.7025L42 26.1738L42.1668 26.6452C42.4298 26.5521 42.7094 26.5 43 26.5V26ZM42 26.1738H42.5V22H42H41.5V26.1738H42ZM42 22V22.5H46.1738V22V21.5H42V22ZM46.1738 22L45.7025 21.8332C45.574 22.1963 45.5 22.5886 45.5 23H46H46.5C46.5 22.7094 46.5521 22.4298 46.6452 22.1668L46.1738 22ZM46 23H45.5C45.5 24.933 47.067 26.5 49 26.5V26V25.5C47.6193 25.5 46.5 24.3807 46.5 23H46ZM49 26V26.5C50.933 26.5 52.5 24.933 52.5 23H52H51.5C51.5 24.3807 50.3807 25.5 49 25.5V26ZM52 23H52.5C52.5 22.9272 52.497 22.8578 52.4933 22.7942L51.9941 22.8232L51.495 22.8523C51.4981 22.9057 51.5 22.954 51.5 23H52ZM51.9941 22.8232L51.8263 23.2942C52.1907 23.4241 52.5851 23.5 53 23.5V23V22.5C52.7083 22.5 52.4272 22.4467 52.162 22.3522L51.9941 22.8232ZM53 23V23.5C54.933 23.5 56.5 21.933 56.5 20H56H55.5C55.5 21.3807 54.3807 22.5 53 22.5V23ZM56 20H56.5C56.5 18.067 54.933 16.5 53 16.5V17V17.5C54.3807 17.5 55.5 18.6193 55.5 20H56ZM53 17V16.5C52.5861 16.5 52.1915 16.5747 51.8264 16.7048L51.9941 17.1758L52.1619 17.6468C52.4262 17.5527 52.7075 17.5 53 17.5V17ZM51.9941 17.1758L52.4933 17.2046C52.4969 17.1419 52.5 17.0726 52.5 17H52H51.5C51.5 17.0454 51.4981 17.0933 51.495 17.1469L51.9941 17.1758ZM52 17H52.5C52.5 15.067 50.933 13.5 49 13.5V14V14.5C50.3807 14.5 51.5 15.6193 51.5 17H52ZM49 14V13.5C47.067 13.5 45.5 15.067 45.5 17H46H46.5C46.5 15.6193 47.6193 14.5 49 14.5V14ZM46 17H45.5C45.5 17.4114 45.574 17.8037 45.7025 18.1668L46.1738 18L46.6452 17.8332C46.5521 17.5702 46.5 17.2906 46.5 17H46ZM46.1738 18V17.5H42V18V18.5H46.1738V18ZM42 18H42.5V13.8252H42H41.5V18H42ZM42 13.8252L41.8332 14.2965C42.1955 14.4248 42.5875 14.5 43 14.5V14V13.5C42.7102 13.5 42.4308 13.4473 42.1668 13.3539L42 13.8252ZM43 14V14.5C44.933 14.5 46.5 12.933 46.5 11H46H45.5C45.5 12.3807 44.3807 13.5 43 13.5V14ZM46 11H46.5C46.5 9.067 44.933 7.5 43 7.5V8V8.5C44.3807 8.5 45.5 9.61929 45.5 11H46ZM43 8V7.5C42.9324 7.5 42.8637 7.50169 42.7942 7.50572L42.8232 8.00488L42.8522 8.50404C42.8998 8.50128 42.949 8.5 43 8.5V8ZM42.8232 8.00488L43.2943 8.17256C43.4238 7.80878 43.5 7.41479 43.5 7H43H42.5C42.5 7.29115 42.4466 7.5719 42.3522 7.83721L42.8232 8.00488ZM43 7H43.5C43.5 5.067 41.933 3.5 40 3.5V4V4.5C41.3807 4.5 42.5 5.61929 42.5 7H43Z" fill="#0088FF" mask="url(#path-1-outside-1_165_491)"/>
</svg>