<svg xmlns="http://www.w3.org/2000/svg" width="79" height="79" viewBox="0 0 79 79" fill="none">
<mask id="path-1-outside-1_165_578" maskUnits="userSpaceOnUse" x="15.5" y="9.5" width="48" height="54" fill="black">
<rect fill="white" x="15.5" y="9.5" width="48" height="54"/>
<path d="M39.8096 10.5068C42.4777 10.6421 44.5995 12.8481 44.5996 15.5498L44.5928 15.8096C44.5597 16.4617 44.402 17.0807 44.1445 17.6445C47.3278 19.3176 49.5 22.6542 49.5 26.5C49.5 27.8135 49.2435 29.0669 48.7822 30.2158C49.9317 29.7547 51.1864 29.5 52.5 29.5C58.0228 29.5 62.5 33.9772 62.5 39.5C62.5 45.0228 58.0228 49.5 52.5 49.5C51.186 49.5 49.9317 49.2438 48.7822 48.7822C49.2438 49.9317 49.5 51.1859 49.5 52.5C49.5 58.0228 45.0228 62.5 39.5 62.5C33.9773 62.4999 29.5 58.0228 29.5 52.5C29.5 51.1863 29.7547 49.9317 30.2158 48.7822C29.0669 49.2434 27.8134 49.5 26.5 49.5C20.9773 49.4999 16.5 45.0228 16.5 39.5C16.5 33.9772 20.9773 29.5001 26.5 29.5C27.8131 29.5 29.0669 29.755 30.2158 30.2158C29.755 29.0669 29.5 27.8131 29.5 26.5C29.5 22.622 31.7085 19.2614 34.9355 17.6025C34.6894 17.0501 34.5391 16.4454 34.5068 15.8096L34.5 15.5498C34.5001 12.7609 36.7609 10.5001 39.5498 10.5L39.8096 10.5068ZM43.2158 35.7822C42.0669 36.2434 40.8134 36.5 39.5 36.5C38.186 36.5 36.9317 36.2438 35.7822 35.7822C36.2438 36.9317 36.5 38.1859 36.5 39.5C36.5 40.8135 36.2435 42.0669 35.7822 43.2158C36.9317 42.7547 38.1864 42.5 39.5 42.5C40.8131 42.5 42.0669 42.755 43.2158 43.2158C42.755 42.0669 42.5 40.8131 42.5 39.5C42.5 38.1863 42.7547 36.9317 43.2158 35.7822ZM39.5498 13.2998C38.3072 13.2998 37.2998 14.3072 37.2998 15.5498C37.2998 15.9624 37.4126 16.3482 37.6064 16.6807C38.2197 16.5631 38.8525 16.5 39.5 16.5C40.1788 16.5 40.8416 16.5684 41.4824 16.6973C41.6825 16.361 41.7998 15.9695 41.7998 15.5498C41.7998 14.3072 40.7924 13.2998 39.5498 13.2998Z"/>
</mask>
<path d="M39.8096 10.5068C42.4777 10.6421 44.5995 12.8481 44.5996 15.5498L44.5928 15.8096C44.5597 16.4617 44.402 17.0807 44.1445 17.6445C47.3278 19.3176 49.5 22.6542 49.5 26.5C49.5 27.8135 49.2435 29.0669 48.7822 30.2158C49.9317 29.7547 51.1864 29.5 52.5 29.5C58.0228 29.5 62.5 33.9772 62.5 39.5C62.5 45.0228 58.0228 49.5 52.5 49.5C51.186 49.5 49.9317 49.2438 48.7822 48.7822C49.2438 49.9317 49.5 51.1859 49.5 52.5C49.5 58.0228 45.0228 62.5 39.5 62.5C33.9773 62.4999 29.5 58.0228 29.5 52.5C29.5 51.1863 29.7547 49.9317 30.2158 48.7822C29.0669 49.2434 27.8134 49.5 26.5 49.5C20.9773 49.4999 16.5 45.0228 16.5 39.5C16.5 33.9772 20.9773 29.5001 26.5 29.5C27.8131 29.5 29.0669 29.755 30.2158 30.2158C29.755 29.0669 29.5 27.8131 29.5 26.5C29.5 22.622 31.7085 19.2614 34.9355 17.6025C34.6894 17.0501 34.5391 16.4454 34.5068 15.8096L34.5 15.5498C34.5001 12.7609 36.7609 10.5001 39.5498 10.5L39.8096 10.5068ZM43.2158 35.7822C42.0669 36.2434 40.8134 36.5 39.5 36.5C38.186 36.5 36.9317 36.2438 35.7822 35.7822C36.2438 36.9317 36.5 38.1859 36.5 39.5C36.5 40.8135 36.2435 42.0669 35.7822 43.2158C36.9317 42.7547 38.1864 42.5 39.5 42.5C40.8131 42.5 42.0669 42.755 43.2158 43.2158C42.755 42.0669 42.5 40.8131 42.5 39.5C42.5 38.1863 42.7547 36.9317 43.2158 35.7822ZM39.5498 13.2998C38.3072 13.2998 37.2998 14.3072 37.2998 15.5498C37.2998 15.9624 37.4126 16.3482 37.6064 16.6807C38.2197 16.5631 38.8525 16.5 39.5 16.5C40.1788 16.5 40.8416 16.5684 41.4824 16.6973C41.6825 16.361 41.7998 15.9695 41.7998 15.5498C41.7998 14.3072 40.7924 13.2998 39.5498 13.2998Z" fill="#DFE6EF"/>
<path d="M39.8096 10.5068L39.8349 10.0073L39.8227 10.007L39.8096 10.5068ZM44.5996 15.5498L45.0996 15.563V15.5498L44.5996 15.5498ZM44.5928 15.8096L45.0923 15.8349L45.0926 15.8227L44.5928 15.8096ZM44.1445 17.6445L43.6897 17.4368L43.4932 17.8671L43.9119 18.0871L44.1445 17.6445ZM48.7822 30.2158L48.3182 30.0295L47.8822 31.1157L48.9684 30.6799L48.7822 30.2158ZM52.5 29.5V29H52.5L52.5 29.5ZM52.5 49.5L52.5 50H52.5V49.5ZM48.7822 48.7822L48.9685 48.3182L47.8819 47.8819L48.3182 48.9685L48.7822 48.7822ZM39.5 62.5L39.5 63H39.5V62.5ZM30.2158 48.7822L30.6799 48.9684L31.1156 47.8822L30.0295 48.3182L30.2158 48.7822ZM26.5 49.5L26.5 50H26.5V49.5ZM26.5 29.5V29H26.5L26.5 29.5ZM30.2158 30.2158L30.0297 30.6799L31.1154 31.1154L30.6799 30.0297L30.2158 30.2158ZM34.9355 17.6025L35.1641 18.0472L35.5847 17.831L35.3923 17.3991L34.9355 17.6025ZM34.5068 15.8096L34.0069 15.8227L34.0075 15.8349L34.5068 15.8096ZM34.5 15.5498L33.9998 15.5498L34.0002 15.563L34.5 15.5498ZM39.5498 10.5L39.563 10L39.5498 10L39.5498 10.5ZM43.2158 35.7822L43.6799 35.9684L44.1156 34.8822L43.0295 35.3182L43.2158 35.7822ZM39.5 36.5L39.5 37H39.5V36.5ZM35.7822 35.7822L35.9685 35.3182L34.8819 34.8819L35.3182 35.9685L35.7822 35.7822ZM35.7822 43.2158L35.3182 43.0295L34.8822 44.1157L35.9684 43.6799L35.7822 43.2158ZM39.5 42.5V42H39.5L39.5 42.5ZM43.2158 43.2158L43.0297 43.6799L44.1154 44.1154L43.6799 43.0297L43.2158 43.2158ZM37.6064 16.6807L37.1745 16.9325L37.3529 17.2384L37.7006 17.1717L37.6064 16.6807ZM39.5 16.5V16H39.5L39.5 16.5ZM41.4824 16.6973L41.3838 17.1874L41.731 17.2573L41.9121 16.9529L41.4824 16.6973ZM39.8096 10.5068L39.7842 11.0062C42.1878 11.1281 44.0995 13.1158 44.0996 15.5498L44.5996 15.5498L45.0996 15.5498C45.0995 12.5804 42.7676 10.1562 39.8349 10.0075L39.8096 10.5068ZM44.5996 15.5498L44.0998 15.5367L44.0929 15.7964L44.5928 15.8096L45.0926 15.8227L45.0994 15.563L44.5996 15.5498ZM44.5928 15.8096L44.0934 15.7842C44.0636 16.3716 43.9217 16.9289 43.6897 17.4368L44.1445 17.6445L44.5994 17.8522C44.8823 17.2326 45.0558 16.5518 45.0921 15.8349L44.5928 15.8096ZM44.1445 17.6445L43.9119 18.0871C46.9375 19.6773 49 22.8474 49 26.5H49.5H50C50 22.4609 47.7182 18.9578 44.3771 17.2019L44.1445 17.6445ZM49.5 26.5H49C49 27.7479 48.7564 28.9381 48.3182 30.0295L48.7822 30.2158L49.2462 30.4021C49.7306 29.1957 50 27.8792 50 26.5H49.5ZM48.7822 30.2158L48.9684 30.6799C50.0599 30.242 51.2515 30 52.5 30L52.5 29.5L52.5 29C51.1213 29 49.8034 29.2674 48.596 29.7518L48.7822 30.2158ZM52.5 29.5V30C57.7467 30 62 34.2533 62 39.5H62.5H63C63 33.701 58.299 29 52.5 29V29.5ZM62.5 39.5H62C62 44.7467 57.7467 49 52.5 49V49.5V50C58.299 50 63 45.299 63 39.5H62.5ZM52.5 49.5L52.5 49C51.2515 49 50.0603 48.7566 48.9685 48.3182L48.7822 48.7822L48.5959 49.2462C49.803 49.7309 51.1205 50 52.5 50L52.5 49.5ZM48.7822 48.7822L48.3182 48.9685C48.7567 50.0604 49 51.2514 49 52.5H49.5H50C50 51.1204 49.7309 49.8031 49.2462 48.5959L48.7822 48.7822ZM49.5 52.5H49C49 57.7467 44.7467 62 39.5 62V62.5V63C45.299 63 50 58.299 50 52.5H49.5ZM39.5 62.5L39.5 62C34.2534 61.9999 30 57.7466 30 52.5H29.5H29C29 58.2989 33.7011 62.9999 39.5 63L39.5 62.5ZM29.5 52.5H30C30 51.2514 30.2419 50.0599 30.6799 48.9684L30.2158 48.7822L29.7518 48.5961C29.2674 49.8035 29 51.1212 29 52.5H29.5ZM30.2158 48.7822L30.0295 48.3182C28.9381 48.7564 27.7478 49 26.5 49V49.5V50C27.8791 50 29.1957 49.7305 30.4021 49.2462L30.2158 48.7822ZM26.5 49.5L26.5 49C21.2534 48.9999 17 44.7466 17 39.5H16.5H16C16 45.2989 20.7011 49.9999 26.5 50L26.5 49.5ZM16.5 39.5H17C17 34.2534 21.2534 30.0001 26.5 30L26.5 29.5L26.5 29C20.7011 29.0001 16 33.7011 16 39.5H16.5ZM26.5 29.5V30C27.7478 30 28.9386 30.2422 30.0297 30.6799L30.2158 30.2158L30.402 29.7518C29.1953 29.2677 27.8783 29 26.5 29V29.5ZM30.2158 30.2158L30.6799 30.0297C30.2422 28.9386 30 27.7479 30 26.5H29.5H29C29 27.8784 29.2677 29.1952 29.7518 30.402L30.2158 30.2158ZM29.5 26.5H30C30 22.8168 32.097 19.6239 35.1641 18.0472L34.9355 17.6025L34.707 17.1579C31.32 18.8989 29 22.4272 29 26.5H29.5ZM34.9355 17.6025L35.3923 17.3991C35.1706 16.9015 35.0352 16.3572 35.0062 15.7842L34.5068 15.8096L34.0075 15.8349C34.0429 16.5337 34.2082 17.1986 34.4788 17.806L34.9355 17.6025ZM34.5068 15.8096L35.0067 15.7964L34.9998 15.5367L34.5 15.5498L34.0002 15.563L34.007 15.8227L34.5068 15.8096ZM34.5 15.5498L35 15.5498C35.0001 13.0371 37.0371 11.0001 39.5498 11L39.5498 10.5L39.5498 10C36.4848 10.0001 34.0001 12.4848 34 15.5498L34.5 15.5498ZM39.5498 10.5L39.5367 10.9998L39.7964 11.0067L39.8096 10.5068L39.8227 10.007L39.563 10.0002L39.5498 10.5ZM43.2158 35.7822L43.0295 35.3182C41.9381 35.7564 40.7478 36 39.5 36V36.5V37C40.8791 37 42.1957 36.7305 43.4021 36.2462L43.2158 35.7822ZM39.5 36.5L39.5 36C38.2515 36 37.0603 35.7566 35.9685 35.3182L35.7822 35.7822L35.5959 36.2462C36.803 36.7309 38.1205 37 39.5 37L39.5 36.5ZM35.7822 35.7822L35.3182 35.9685C35.7567 37.0604 36 38.2515 36 39.5H36.5H37C37 38.1204 36.7309 36.8031 36.2462 35.5959L35.7822 35.7822ZM36.5 39.5H36C36 40.7479 35.7564 41.9381 35.3182 43.0295L35.7822 43.2158L36.2462 43.4021C36.7306 42.1957 37 40.8792 37 39.5H36.5ZM35.7822 43.2158L35.9684 43.6799C37.0599 43.242 38.2515 43 39.5 43L39.5 42.5L39.5 42C38.1213 42 36.8034 42.2674 35.596 42.7518L35.7822 43.2158ZM39.5 42.5V43C40.7478 43 41.9386 43.2422 43.0297 43.6799L43.2158 43.2158L43.402 42.7518C42.1953 42.2677 40.8783 42 39.5 42V42.5ZM43.2158 43.2158L43.6799 43.0297C43.2422 41.9386 43 40.7479 43 39.5H42.5H42C42 40.8784 42.2677 42.1952 42.7518 43.402L43.2158 43.2158ZM42.5 39.5H43C43 38.2514 43.2419 37.0599 43.6799 35.9684L43.2158 35.7822L42.7518 35.5961C42.2674 36.8035 42 38.1212 42 39.5H42.5ZM39.5498 13.2998V12.7998C38.031 12.7998 36.7998 14.031 36.7998 15.5498H37.2998H37.7998C37.7998 14.5833 38.5833 13.7998 39.5498 13.7998V13.2998ZM37.2998 15.5498H36.7998C36.7998 16.0549 36.9381 16.5271 37.1745 16.9325L37.6064 16.6807L38.0384 16.4288C37.887 16.1692 37.7998 15.87 37.7998 15.5498H37.2998ZM37.6064 16.6807L37.7006 17.1717C38.2838 17.0599 38.8851 17 39.5 17L39.5 16.5L39.5 16C38.8199 16 38.1556 16.0663 37.5123 16.1896L37.6064 16.6807ZM39.5 16.5V17C40.1451 17 40.7749 17.065 41.3838 17.1874L41.4824 16.6973L41.581 16.2071C40.9083 16.0718 40.2125 16 39.5 16V16.5ZM41.4824 16.6973L41.9121 16.9529C42.1558 16.5435 42.2998 16.0642 42.2998 15.5498H41.7998H41.2998C41.2998 15.8748 41.2093 16.1785 41.0527 16.4416L41.4824 16.6973ZM41.7998 15.5498H42.2998C42.2998 14.031 41.0686 12.7998 39.5498 12.7998V13.2998V13.7998C40.5163 13.7998 41.2998 14.5833 41.2998 15.5498H41.7998Z" fill="#0088FF" mask="url(#path-1-outside-1_165_578)"/>
</svg>