<svg xmlns="http://www.w3.org/2000/svg" width="106" height="106" viewBox="0 0 106 106" fill="none">
<g clip-path="url(#clip0_189_360)">
<mask id="path-1-outside-1_189_360" maskUnits="userSpaceOnUse" x="12.7645" y="7.47854" width="84.6076" height="85.7821" fill="black">
<rect fill="white" x="12.7645" y="7.47854" width="84.6076" height="85.7821"/>
<path d="M75.3942 26.3162C78.5086 29.1812 78.8611 34.017 76.1273 37.3095L75.8565 37.6203C74.9763 38.5771 73.9095 39.2719 72.7592 39.698C73.5229 43.081 72.7664 46.768 70.3798 49.6427L70.1194 49.9456C69.1449 51.0409 68.003 51.9069 66.7662 52.5407C68.2193 52.9728 69.6109 53.6995 70.8505 54.7288L71.0779 54.9227C75.7856 59.0379 76.3776 66.1806 72.3602 71.0191C68.3424 75.8574 61.2132 76.5873 56.3029 72.716L56.0705 72.5281C54.8308 71.4986 53.8625 70.2638 53.1711 68.9147C52.7394 70.3677 52.0143 71.7599 50.9851 72.9994C46.9036 77.9146 39.6102 78.5905 34.6948 74.5092C29.7794 70.4276 29.1036 63.1343 33.185 58.2189C34.2138 56.98 35.4475 56.01 36.7956 55.3183C35.4638 54.9223 34.1834 54.2801 33.0246 53.3827L32.7137 53.1335C27.8754 49.1156 27.1455 41.9865 31.0169 37.0762L31.2048 36.8438C35.2864 31.929 42.5785 31.253 47.4937 35.3341L47.7959 35.5939C48.891 36.5679 49.7591 37.7078 50.3935 38.9441C50.7897 37.6122 51.433 36.3318 52.3304 35.173L52.5797 34.8621C55.0123 31.933 58.5854 30.5097 62.1159 30.7015C62.336 29.541 62.8144 28.4142 63.5636 27.4127L63.8193 27.0894C66.6417 23.6908 71.6845 23.2233 75.0834 26.0455L75.3942 26.3162ZM58.1735 53.3378C56.7207 52.906 55.329 52.1816 54.0895 51.1524C52.8501 50.1233 51.8816 48.8889 51.1902 47.5403C50.7583 48.9929 50.033 50.3844 49.0041 51.6237L48.7443 51.9259C47.7703 53.0209 46.6294 53.8875 45.3932 54.5215C46.8456 54.9537 48.2364 55.6803 49.4754 56.7091C50.7143 57.7379 51.6831 58.9717 52.3745 60.3198C52.8064 58.868 53.5317 57.4772 54.5601 56.2386C55.5895 54.999 56.8244 54.0293 58.1735 53.3378ZM72.4729 29.1862C70.8093 27.8054 68.3411 28.034 66.9598 29.6971C66.4793 30.2759 66.1936 30.9522 66.0954 31.6462C67.0725 32.072 68.0082 32.638 68.8694 33.3531C69.7829 34.1116 70.5495 34.9814 71.1668 35.9259C71.8542 35.7064 72.4895 35.2961 72.9846 34.6999C74.3657 33.0363 74.1365 30.5676 72.4729 29.1862ZM72.6202 35.6997C72.6522 35.6755 72.6855 35.6528 72.7169 35.6276L72.733 35.6144C72.6963 35.6441 72.6577 35.6713 72.6202 35.6997ZM66.3242 29.7533C66.2969 29.794 66.2714 29.8357 66.2456 29.8771C66.274 29.8316 66.3026 29.7861 66.3328 29.7414L66.3242 29.7533Z"/>
</mask>
<path d="M75.3942 26.3162C78.5086 29.1812 78.8611 34.017 76.1273 37.3095L75.8565 37.6203C74.9763 38.5771 73.9095 39.2719 72.7592 39.698C73.5229 43.081 72.7664 46.768 70.3798 49.6427L70.1194 49.9456C69.1449 51.0409 68.003 51.9069 66.7662 52.5407C68.2193 52.9728 69.6109 53.6995 70.8505 54.7288L71.0779 54.9227C75.7856 59.0379 76.3776 66.1806 72.3602 71.0191C68.3424 75.8574 61.2132 76.5873 56.3029 72.716L56.0705 72.5281C54.8308 71.4986 53.8625 70.2638 53.1711 68.9147C52.7394 70.3677 52.0143 71.7599 50.9851 72.9994C46.9036 77.9146 39.6102 78.5905 34.6948 74.5092C29.7794 70.4276 29.1036 63.1343 33.185 58.2189C34.2138 56.98 35.4475 56.01 36.7956 55.3183C35.4638 54.9223 34.1834 54.2801 33.0246 53.3827L32.7137 53.1335C27.8754 49.1156 27.1455 41.9865 31.0169 37.0762L31.2048 36.8438C35.2864 31.929 42.5785 31.253 47.4937 35.3341L47.7959 35.5939C48.891 36.5679 49.7591 37.7078 50.3935 38.9441C50.7897 37.6122 51.433 36.3318 52.3304 35.173L52.5797 34.8621C55.0123 31.933 58.5854 30.5097 62.1159 30.7015C62.336 29.541 62.8144 28.4142 63.5636 27.4127L63.8193 27.0894C66.6417 23.6908 71.6845 23.2233 75.0834 26.0455L75.3942 26.3162ZM58.1735 53.3378C56.7207 52.906 55.329 52.1816 54.0895 51.1524C52.8501 50.1233 51.8816 48.8889 51.1902 47.5403C50.7583 48.9929 50.033 50.3844 49.0041 51.6237L48.7443 51.9259C47.7703 53.0209 46.6294 53.8875 45.3932 54.5215C46.8456 54.9537 48.2364 55.6803 49.4754 56.7091C50.7143 57.7379 51.6831 58.9717 52.3745 60.3198C52.8064 58.868 53.5317 57.4772 54.5601 56.2386C55.5895 54.999 56.8244 54.0293 58.1735 53.3378ZM72.4729 29.1862C70.8093 27.8054 68.3411 28.034 66.9598 29.6971C66.4793 30.2759 66.1936 30.9522 66.0954 31.6462C67.0725 32.072 68.0082 32.638 68.8694 33.3531C69.7829 34.1116 70.5495 34.9814 71.1668 35.9259C71.8542 35.7064 72.4895 35.2961 72.9846 34.6999C74.3657 33.0363 74.1365 30.5676 72.4729 29.1862ZM72.6202 35.6997C72.6522 35.6755 72.6855 35.6528 72.7169 35.6276L72.733 35.6144C72.6963 35.6441 72.6577 35.6713 72.6202 35.6997ZM66.3242 29.7533C66.2969 29.794 66.2714 29.8357 66.2456 29.8771C66.274 29.8316 66.3026 29.7861 66.3328 29.7414L66.3242 29.7533Z" fill="#DFE6EF"/>
<path d="M75.3942 26.3162L75.9415 25.7213L75.9335 25.7139L75.9252 25.7067L75.3942 26.3162ZM76.1273 37.3095L76.7368 37.8405L76.7431 37.8333L76.7493 37.8259L76.1273 37.3095ZM75.8565 37.6203L76.4515 38.1676L76.4589 38.1596L76.466 38.1513L75.8565 37.6203ZM72.7592 39.698L72.4784 38.94L71.8148 39.1858L71.9706 39.876L72.7592 39.698ZM70.3798 49.6427L70.9929 50.1697L71.0017 50.159L70.3798 49.6427ZM70.1194 49.9456L70.7234 50.483L70.7323 50.4726L70.1194 49.9456ZM66.7662 52.5407L66.3975 51.8213L64.6031 52.7408L66.5358 53.3155L66.7662 52.5407ZM70.8505 54.7288L71.375 54.1137L71.3669 54.1069L70.8505 54.7288ZM71.0779 54.9227L71.6099 54.3141L71.6024 54.3076L71.0779 54.9227ZM72.3602 71.0191L72.9821 71.5356L72.9821 71.5355L72.3602 71.0191ZM56.3029 72.716L55.7946 73.3447L55.8024 73.3508L56.3029 72.716ZM56.0705 72.5281L55.554 73.1501L55.5623 73.1567L56.0705 72.5281ZM53.1711 68.9147L53.8905 68.546L52.9706 66.7511L52.3962 68.6844L53.1711 68.9147ZM50.9851 72.9994L51.607 73.5159L51.607 73.5158L50.9851 72.9994ZM34.6948 74.5092L34.1784 75.1311L34.1784 75.1311L34.6948 74.5092ZM33.185 58.2189L32.5632 57.7024L32.5631 57.7025L33.185 58.2189ZM36.7956 55.3183L37.1646 56.0376L38.9574 55.1178L37.026 54.5435L36.7956 55.3183ZM33.0246 53.3827L32.5189 54.0135L32.5297 54.0219L33.0246 53.3827ZM32.7137 53.1335L32.1972 53.7554L32.2081 53.7641L32.7137 53.1335ZM31.0169 37.0762L30.3882 36.5679L30.3821 36.5757L31.0169 37.0762ZM31.2048 36.8438L30.5828 36.3273L30.5761 36.3355L31.2048 36.8438ZM47.4937 35.3341L48.0208 34.7211L48.0101 34.7122L47.4937 35.3341ZM47.7959 35.5939L48.3332 34.9898L48.3229 34.981L47.7959 35.5939ZM50.3935 38.9441L49.6743 39.3132L50.594 41.1054L51.1683 39.1746L50.3935 38.9441ZM52.3304 35.173L51.6997 34.6673L51.6913 34.678L52.3304 35.173ZM52.5797 34.8621L51.9578 34.3456L51.949 34.3564L52.5797 34.8621ZM62.1159 30.7015L62.0721 31.5087L62.7784 31.5471L62.9102 30.8521L62.1159 30.7015ZM63.5636 27.4127L62.9296 26.9111L62.9228 26.9197L62.9163 26.9285L63.5636 27.4127ZM63.8193 27.0894L63.1975 26.5729L63.1913 26.5803L63.1854 26.5878L63.8193 27.0894ZM75.0834 26.0455L75.6144 25.436L75.6072 25.4297L75.5998 25.4235L75.0834 26.0455ZM58.1735 53.3378L58.5422 54.0571L60.3367 53.1373L58.4037 52.5629L58.1735 53.3378ZM54.0895 51.1524L53.573 51.7743L53.5731 51.7743L54.0895 51.1524ZM51.1902 47.5403L51.9095 47.1715L50.9897 45.3777L50.4153 47.31L51.1902 47.5403ZM49.0041 51.6237L49.6171 52.1508L49.626 52.1401L49.0041 51.6237ZM48.7443 51.9259L49.3484 52.4632L49.3572 52.4529L48.7443 51.9259ZM45.3932 54.5215L45.0243 53.8022L43.2316 54.7217L45.1627 55.2963L45.3932 54.5215ZM49.4754 56.7091L49.9918 56.0872L49.9918 56.0872L49.4754 56.7091ZM52.3745 60.3198L51.6553 60.6887L52.5749 62.4818L53.1494 60.5503L52.3745 60.3198ZM54.5601 56.2386L53.9383 55.7221L53.9382 55.7222L54.5601 56.2386ZM72.4729 29.1862L72.9893 28.5643L72.9892 28.5642L72.4729 29.1862ZM66.9598 29.6971L66.338 29.1807L66.3379 29.1807L66.9598 29.6971ZM66.0954 31.6462L65.295 31.533L65.2088 32.1417L65.7724 32.3873L66.0954 31.6462ZM68.8694 33.3531L69.3858 32.7312L69.3858 32.7312L68.8694 33.3531ZM71.1668 35.9259L70.4902 36.3682L70.8268 36.8832L71.4128 36.696L71.1668 35.9259ZM72.9846 34.6999L73.6065 35.2163L73.6065 35.2163L72.9846 34.6999ZM72.6202 35.6997L72.1321 35.0554L73.1084 36.344L72.6202 35.6997ZM72.7169 35.6276L73.2227 36.2583L73.2312 36.2513L72.7169 35.6276ZM72.733 35.6144L73.2473 36.238L72.2242 34.9862L72.733 35.6144ZM66.3242 29.7533L65.6694 29.2794L65.6611 29.2907L65.6533 29.3024L66.3242 29.7533ZM66.2456 29.8771L65.56 29.4488L66.9312 30.3053L66.2456 29.8771ZM66.3328 29.7414L67.0023 30.1945L65.678 29.2675L66.3328 29.7414ZM75.3942 26.3162L74.8469 26.9112C77.646 29.4861 77.9628 33.8334 75.5054 36.7931L76.1273 37.3095L76.7493 37.8259C79.7593 34.2005 79.3712 28.8763 75.9415 25.7213L75.3942 26.3162ZM76.1273 37.3095L75.5178 36.7785L75.247 37.0893L75.8565 37.6203L76.466 38.1513L76.7368 37.8405L76.1273 37.3095ZM75.8565 37.6203L75.2616 37.073C74.4706 37.9329 73.5125 38.5569 72.4784 38.94L72.7592 39.698L73.04 40.456C74.3065 39.9869 75.4821 39.2214 76.4515 38.1676L75.8565 37.6203ZM72.7592 39.698L71.9706 39.876C72.6817 43.0253 71.9771 46.4533 69.7578 49.1263L70.3798 49.6427L71.0017 50.159C73.5557 47.0828 74.3642 43.1367 73.5477 39.52L72.7592 39.698ZM70.3798 49.6427L69.7668 49.1157L69.5064 49.4186L70.1194 49.9456L70.7323 50.4726L70.9928 50.1696L70.3798 49.6427ZM70.1194 49.9456L69.5154 49.4083C68.6092 50.4268 67.5477 51.2319 66.3975 51.8213L66.7662 52.5407L67.1349 53.2601C68.4583 52.5819 69.6805 51.6549 70.7233 50.4829L70.1194 49.9456ZM66.7662 52.5407L66.5358 53.3155C67.8862 53.7171 69.18 54.3925 70.3341 55.3507L70.8505 54.7288L71.3669 54.1069C70.0417 53.0066 68.5524 52.2285 66.9966 51.7659L66.7662 52.5407ZM70.8505 54.7288L70.326 55.3439L70.5534 55.5378L71.0779 54.9227L71.6024 54.3076L71.375 54.1137L70.8505 54.7288ZM71.0779 54.9227L70.5458 55.5313C74.9243 59.3587 75.4749 66.0024 71.7383 70.5027L72.3602 71.0191L72.9821 71.5355C77.2803 66.3588 76.6469 58.7172 71.6099 54.3141L71.0779 54.9227ZM72.3602 71.0191L71.7383 70.5027C68.0014 75.0027 61.3703 75.6817 56.8034 72.0812L56.3029 72.716L55.8024 73.3508C61.0561 77.4928 68.6834 76.712 72.9821 71.5356L72.3602 71.0191ZM56.3029 72.716L56.8112 72.0874L56.5788 71.8995L56.0705 72.5281L55.5623 73.1567L55.7947 73.3446L56.3029 72.716ZM56.0705 72.5281L56.5869 71.9062C55.4332 70.9482 54.5332 69.8001 53.8905 68.546L53.1711 68.9147L52.4517 69.2834C53.1918 70.7274 54.2283 72.0491 55.5541 73.15L56.0705 72.5281ZM53.1711 68.9147L52.3962 68.6844C51.9949 70.0352 51.321 71.3295 50.3632 72.483L50.9851 72.9994L51.607 73.5158C52.7077 72.1902 53.4839 70.7002 53.946 69.1449L53.1711 68.9147ZM50.9851 72.9994L50.3632 72.483C46.5669 77.0547 39.7831 77.6834 35.2112 73.8873L34.6948 74.5092L34.1784 75.1311C39.4372 79.4976 47.2403 78.7745 51.607 73.5159L50.9851 72.9994ZM34.6948 74.5092L35.2112 73.8873C30.6393 70.0909 30.0107 63.3072 33.807 58.7353L33.185 58.2189L32.5631 57.7025C28.1965 62.9613 28.9195 70.7643 34.1784 75.1311L34.6948 74.5092ZM33.185 58.2189L33.8069 58.7353C34.7648 57.5819 35.9119 56.6803 37.1646 56.0376L36.7956 55.3183L36.4266 54.5991C34.9831 55.3397 33.6629 56.3781 32.5632 57.7024L33.185 58.2189ZM36.7956 55.3183L37.026 54.5435C35.7878 54.1753 34.5975 53.5784 33.5196 52.7436L33.0246 53.3827L32.5297 54.0219C33.7693 54.9819 35.1399 55.6693 36.5652 56.0932L36.7956 55.3183ZM33.0246 53.3827L33.5303 52.7521L33.2194 52.5028L32.7137 53.1335L32.2081 53.7641L32.519 54.0134L33.0246 53.3827ZM32.7137 53.1335L33.2302 52.5116C28.7301 48.7746 28.051 42.1436 31.6517 37.5766L31.0169 37.0762L30.3821 36.5757C26.24 41.8294 27.0207 49.4567 32.1973 53.7554L32.7137 53.1335ZM31.0169 37.0762L31.6455 37.5844L31.8334 37.352L31.2048 36.8438L30.5761 36.3355L30.3882 36.5679L31.0169 37.0762ZM31.2048 36.8438L31.8266 37.3602C35.6231 32.7889 42.4056 32.1601 46.9773 35.9561L47.4937 35.3341L48.0101 34.7122C42.7514 30.3458 34.9497 31.0692 30.5829 36.3273L31.2048 36.8438ZM47.4937 35.3341L46.9667 35.9471L47.2689 36.2069L47.7959 35.5939L48.3229 34.981L48.0207 34.7212L47.4937 35.3341ZM47.7959 35.5939L47.2586 36.198C48.2778 37.1044 49.0847 38.1642 49.6743 39.3132L50.3935 38.9441L51.1127 38.5751C50.4335 37.2515 49.5042 36.0315 48.3331 34.9899L47.7959 35.5939ZM50.3935 38.9441L51.1683 39.1746C51.5366 37.9366 52.1345 36.7461 52.9695 35.668L52.3304 35.173L51.6913 34.678C50.7315 35.9174 50.0428 37.2879 49.6187 38.7136L50.3935 38.9441ZM52.3304 35.173L52.9611 35.6787L53.2104 35.3678L52.5797 34.8621L51.949 34.3564L51.6998 34.6673L52.3304 35.173ZM52.5797 34.8621L53.2016 35.3786C55.4638 32.6546 58.7859 31.3301 62.0721 31.5087L62.1159 30.7015L62.1598 29.8944C58.3848 29.6892 54.5607 31.2115 51.9578 34.3456L52.5797 34.8621ZM62.1159 30.7015L62.9102 30.8521C63.108 29.8087 63.5378 28.7968 64.2109 27.8969L63.5636 27.4127L62.9163 26.9285C62.0911 28.0316 61.564 29.2733 61.3217 30.551L62.1159 30.7015ZM63.5636 27.4127L64.1976 27.9142L64.4533 27.5909L63.8193 27.0894L63.1854 26.5878L62.9296 26.9111L63.5636 27.4127ZM63.8193 27.0894L64.4412 27.6058C66.9784 24.5506 71.5116 24.1304 74.567 26.6674L75.0834 26.0455L75.5998 25.4235C71.8575 22.3161 66.305 22.8309 63.1975 26.5729L63.8193 27.0894ZM75.0834 26.0455L74.5524 26.655L74.8632 26.9257L75.3942 26.3162L75.9252 25.7067L75.6144 25.436L75.0834 26.0455ZM58.1735 53.3378L58.4037 52.5629C57.053 52.1615 55.7592 51.4882 54.6059 50.5305L54.0895 51.1524L53.5731 51.7743C54.8987 52.875 56.3883 53.6506 57.9432 54.1126L58.1735 53.3378ZM54.0895 51.1524L54.6059 50.5305C53.4524 49.5727 52.5523 48.4251 51.9095 47.1715L51.1902 47.5403L50.4708 47.9091C51.211 49.3528 52.2478 50.6739 53.573 51.7743L54.0895 51.1524ZM51.1902 47.5403L50.4153 47.31C50.0139 48.6602 49.3397 49.9539 48.3821 51.1073L49.0041 51.6237L49.626 52.1401C50.7262 50.8149 51.5028 49.3256 51.965 47.7707L51.1902 47.5403ZM49.0041 51.6237L48.3911 51.0967L48.1313 51.3989L48.7443 51.9259L49.3572 52.4529L49.617 52.1507L49.0041 51.6237ZM48.7443 51.9259L48.1403 51.3886C47.2343 52.4071 46.1737 53.2127 45.0243 53.8022L45.3932 54.5215L45.7621 55.2408C47.0851 54.5622 48.3062 53.6346 49.3483 52.4631L48.7443 51.9259ZM45.3932 54.5215L45.1627 55.2963C46.5123 55.6979 47.8055 56.3732 48.959 57.331L49.4754 56.7091L49.9918 56.0872C48.6673 54.9874 47.1788 54.2094 45.6238 53.7467L45.3932 54.5215ZM49.4754 56.7091L48.9589 57.331C50.1121 58.2886 51.0126 59.4358 51.6553 60.6887L52.3745 60.3198L53.0938 59.9509C52.3536 58.5077 51.3165 57.1872 49.9918 56.0872L49.4754 56.7091ZM52.3745 60.3198L53.1494 60.5503C53.5507 59.2008 54.2248 57.9078 55.1821 56.755L54.5601 56.2386L53.9382 55.7222C52.8385 57.0466 52.062 58.5351 51.5997 60.0894L52.3745 60.3198ZM54.5601 56.2386L55.182 56.755C56.1402 55.6012 57.2884 54.6998 58.5422 54.0571L58.1735 53.3378L57.8047 52.6184C56.3604 53.3588 55.0388 54.3968 53.9383 55.7221L54.5601 56.2386ZM72.4729 29.1862L72.9892 28.5642C70.9822 26.8984 68.0045 27.1741 66.338 29.1807L66.9598 29.6971L67.5817 30.2136C68.6777 28.8939 70.6364 28.7124 71.9566 29.8082L72.4729 29.1862ZM66.9598 29.6971L66.3379 29.1807C65.7589 29.878 65.4136 30.6949 65.295 31.533L66.0954 31.6462L66.8958 31.7595C66.9736 31.2094 67.1996 30.6737 67.5818 30.2135L66.9598 29.6971ZM66.0954 31.6462L65.7724 32.3873C66.6821 32.7837 67.5522 33.3101 68.353 33.975L68.8694 33.3531L69.3858 32.7312C68.4641 31.9658 67.463 31.3604 66.4183 30.9052L66.0954 31.6462ZM68.8694 33.3531L68.353 33.975C69.2035 34.6813 69.9164 35.4902 70.4902 36.3682L71.1668 35.9259L71.8435 35.4837C71.1827 34.4726 70.3623 33.542 69.3858 32.7312L68.8694 33.3531ZM71.1668 35.9259L71.4128 36.696C72.2415 36.4313 73.0092 35.9356 73.6065 35.2163L72.9846 34.6999L72.3627 34.1835C71.9699 34.6565 71.4669 34.9815 70.9209 35.1559L71.1668 35.9259ZM72.9846 34.6999L73.6065 35.2163C75.2729 33.2091 74.9963 30.2308 72.9893 28.5643L72.4729 29.1862L71.9565 29.8081C73.2768 30.9044 73.4585 32.8636 72.3626 34.1835L72.9846 34.6999ZM72.6202 35.6997L73.1084 36.344C73.1165 36.3379 73.1226 36.3335 73.145 36.3172C73.163 36.3041 73.1917 36.2831 73.2227 36.2582L72.7169 35.6276L72.2111 34.997C72.2114 34.9968 72.2103 34.9977 72.2071 35.0001C72.2038 35.0026 72.1994 35.0058 72.1926 35.0108C72.1824 35.0182 72.1559 35.0373 72.1321 35.0554L72.6202 35.6997ZM72.7169 35.6276L73.2312 36.2513L73.2473 36.238L72.733 35.6144L72.2187 34.9907L72.2026 35.004L72.7169 35.6276ZM72.733 35.6144L72.2242 34.9862C72.199 35.0066 72.2007 35.0034 72.1321 35.0554L72.6202 35.6997L73.1084 36.344C73.1148 36.3392 73.1935 36.2816 73.2418 36.2425L72.733 35.6144ZM66.3242 29.7533L65.6533 29.3024C65.6161 29.3577 65.5799 29.4169 65.56 29.4488L66.2456 29.8771L66.9312 30.3053C66.9629 30.2545 66.9776 30.2302 66.9952 30.2041L66.3242 29.7533ZM66.2456 29.8771L66.9312 30.3053C66.9596 30.2598 66.9812 30.2256 67.0023 30.1945L66.3328 29.7414L65.6634 29.2883C65.624 29.3465 65.5883 29.4034 65.56 29.4488L66.2456 29.8771ZM66.3328 29.7414L65.678 29.2675L65.6694 29.2794L66.3242 29.7533L66.9791 30.2272L66.9877 30.2153L66.3328 29.7414Z" fill="#0088FF" mask="url(#path-1-outside-1_189_360)"/>
</g>
<defs>
<clipPath id="clip0_189_360">
<rect width="75.1923" height="75.1923" fill="white" transform="translate(48.0355) rotate(39.7051)"/>
</clipPath>
</defs>
</svg>