<svg xmlns="http://www.w3.org/2000/svg" width="79" height="79" viewBox="0 0 79 79" fill="none">
<mask id="path-1-inside-1_165_654" fill="white">
<path d="M63 15C63.5523 15 64 15.4477 64 16V63C64 63.5523 63.5523 64 63 64H16C15.4477 64 15 63.5523 15 63V16C15 15.4477 15.4477 15 16 15H63ZM39.5 21.2588C35.087 21.2589 31.5089 24.837 31.5088 29.25C31.5089 30.2146 31.6811 31.1399 31.9951 31.9961C31.1386 31.6824 30.2135 31.5098 29.249 31.5098C24.8363 31.5101 21.2591 35.0872 21.2588 39.5C21.259 43.9127 24.8362 47.4908 29.249 47.4912C30.214 47.4912 31.1387 47.3172 31.9951 47.0029C31.681 47.8599 31.5088 48.7858 31.5088 49.751C31.5091 54.1639 35.0872 57.7411 39.5 57.7412C43.9127 57.7409 47.4899 54.1637 47.4902 49.751C47.4902 48.7857 47.3172 47.8598 47.0029 47.0029C47.8598 47.3175 48.7855 47.4912 49.751 47.4912C54.1638 47.4909 57.741 43.9127 57.7412 39.5L57.7305 39.0889C57.5162 34.8672 54.0258 31.5101 49.751 31.5098C48.7855 31.5098 47.8593 31.6818 47.002 31.9961C47.3162 31.1398 47.4901 30.2149 47.4902 29.25C47.4901 24.8372 43.9129 21.2591 39.5 21.2588Z"/>
</mask>
<path d="M63 15C63.5523 15 64 15.4477 64 16V63C64 63.5523 63.5523 64 63 64H16C15.4477 64 15 63.5523 15 63V16C15 15.4477 15.4477 15 16 15H63ZM39.5 21.2588C35.087 21.2589 31.5089 24.837 31.5088 29.25C31.5089 30.2146 31.6811 31.1399 31.9951 31.9961C31.1386 31.6824 30.2135 31.5098 29.249 31.5098C24.8363 31.5101 21.2591 35.0872 21.2588 39.5C21.259 43.9127 24.8362 47.4908 29.249 47.4912C30.214 47.4912 31.1387 47.3172 31.9951 47.0029C31.681 47.8599 31.5088 48.7858 31.5088 49.751C31.5091 54.1639 35.0872 57.7411 39.5 57.7412C43.9127 57.7409 47.4899 54.1637 47.4902 49.751C47.4902 48.7857 47.3172 47.8598 47.0029 47.0029C47.8598 47.3175 48.7855 47.4912 49.751 47.4912C54.1638 47.4909 57.741 43.9127 57.7412 39.5L57.7305 39.0889C57.5162 34.8672 54.0258 31.5101 49.751 31.5098C48.7855 31.5098 47.8593 31.6818 47.002 31.9961C47.3162 31.1398 47.4901 30.2149 47.4902 29.25C47.4901 24.8372 43.9129 21.2591 39.5 21.2588Z" fill="#DFE6EF"/>
<path d="M39.5 21.2588L39.5 20.7588H39.5L39.5 21.2588ZM31.5088 29.25L31.0088 29.25V29.25L31.5088 29.25ZM31.9951 31.9961L31.8232 32.4656L32.8358 32.8365L32.4646 31.8239L31.9951 31.9961ZM29.249 31.5098L29.249 31.0098H29.249L29.249 31.5098ZM21.2588 39.5L20.7588 39.5V39.5L21.2588 39.5ZM29.249 47.4912L29.249 47.9912H29.249L29.249 47.4912ZM31.9951 47.0029L32.4646 47.175L32.836 46.1617L31.8229 46.5335L31.9951 47.0029ZM31.5088 49.751L31.0088 49.751V49.751L31.5088 49.751ZM39.5 57.7412L39.5 58.2412H39.5L39.5 57.7412ZM47.4902 49.751L47.9902 49.751V49.751L47.4902 49.751ZM47.0029 47.0029L47.1753 46.5336L46.1617 46.1614L46.5335 47.1751L47.0029 47.0029ZM49.751 47.4912L49.751 47.9912H49.751L49.751 47.4912ZM57.7412 39.5L58.2414 39.5L58.241 39.4869L57.7412 39.5ZM57.7305 39.0889L58.2304 39.0758L58.2298 39.0635L57.7305 39.0889ZM49.751 31.5098L49.751 31.0098H49.751L49.751 31.5098ZM47.002 31.9961L46.5326 31.8238L46.1608 32.837L47.174 32.4655L47.002 31.9961ZM47.4902 29.25L47.9902 29.25V29.25L47.4902 29.25ZM63 15V15.5C63.2761 15.5 63.5 15.7239 63.5 16H64H64.5C64.5 15.1716 63.8284 14.5 63 14.5V15ZM64 16H63.5V63H64H64.5V16H64ZM64 63H63.5C63.5 63.2761 63.2761 63.5 63 63.5V64V64.5C63.8284 64.5 64.5 63.8284 64.5 63H64ZM63 64V63.5H16V64V64.5H63V64ZM16 64V63.5C15.7239 63.5 15.5 63.2761 15.5 63H15H14.5C14.5 63.8284 15.1716 64.5 16 64.5V64ZM15 63H15.5V16H15H14.5V63H15ZM15 16H15.5C15.5 15.7239 15.7239 15.5 16 15.5V15V14.5C15.1716 14.5 14.5 15.1716 14.5 16H15ZM16 15V15.5H63V15V14.5H16V15ZM39.5 21.2588L39.5 20.7588C34.8109 20.7589 31.0089 24.5609 31.0088 29.25L31.5088 29.25L32.0088 29.25C32.0089 25.1132 35.3632 21.7589 39.5 21.7588L39.5 21.2588ZM31.5088 29.25L31.0088 29.25C31.0089 30.2745 31.1919 31.258 31.5257 32.1682L31.9951 31.9961L32.4646 31.8239C32.1704 31.0218 32.0089 30.1547 32.0088 29.25L31.5088 29.25ZM31.9951 31.9961L32.1671 31.5266C31.2568 31.1932 30.2736 31.0098 29.249 31.0098L29.249 31.5098L29.249 32.0098C30.1534 32.0098 31.0204 32.1716 31.8232 32.4656L31.9951 31.9961ZM29.249 31.5098L29.249 31.0098C24.5602 31.0102 20.7591 34.8111 20.7588 39.5L21.2588 39.5L21.7588 39.5C21.759 35.3634 25.1125 32.0101 29.2491 32.0098L29.249 31.5098ZM21.2588 39.5L20.7588 39.5C20.759 44.1888 24.56 47.9908 29.249 47.9912L29.249 47.4912L29.2491 46.9912C25.1124 46.9909 21.759 43.6366 21.7588 39.5L21.2588 39.5ZM29.249 47.4912L29.249 47.9912C30.2745 47.9912 31.2575 47.8062 32.1674 47.4723L31.9951 47.0029L31.8229 46.5335C31.0199 46.8282 30.1534 46.9912 29.249 46.9912L29.249 47.4912ZM31.9951 47.0029L31.5257 46.8308C31.1917 47.7418 31.0088 48.726 31.0088 49.751L31.5088 49.751L32.0088 49.751C32.0088 48.8457 32.1702 47.9779 32.4646 47.175L31.9951 47.0029ZM31.5088 49.751L31.0088 49.751C31.0092 54.4401 34.8111 58.2411 39.5 58.2412L39.5 57.7412L39.5 57.2412C35.3633 57.2411 32.0091 53.8876 32.0088 49.7509L31.5088 49.751ZM39.5 57.7412L39.5 58.2412C44.1888 58.2408 47.9899 54.4398 47.9902 49.751L47.4902 49.751L46.9902 49.7509C46.9899 53.8875 43.6365 57.2409 39.5 57.2412L39.5 57.7412ZM47.4902 49.751L47.9902 49.751C47.9902 48.7256 47.8064 47.7415 47.4724 46.8308L47.0029 47.0029L46.5335 47.1751C46.8281 47.9782 46.9902 48.8458 46.9902 49.751L47.4902 49.751ZM47.0029 47.0029L46.8306 47.4723C47.7412 47.8066 48.7251 47.9912 49.751 47.9912L49.751 47.4912L49.751 46.9912C48.8458 46.9912 47.9784 46.8284 47.1753 46.5336L47.0029 47.0029ZM49.751 47.4912L49.751 47.9912C54.44 47.9908 58.241 44.1888 58.2412 39.5L57.7412 39.5L57.2412 39.5C57.241 43.6367 53.8876 46.9909 49.7509 46.9912L49.751 47.4912ZM57.7412 39.5L58.241 39.4869L58.2303 39.0758L57.7305 39.0889L57.2306 39.1019L57.2414 39.5131L57.7412 39.5ZM57.7305 39.0889L58.2298 39.0635C58.0022 34.5773 54.2935 31.0101 49.751 31.0098L49.751 31.5098L49.7509 32.0098C53.7581 32.0101 57.0303 35.1571 57.2311 39.1142L57.7305 39.0889ZM49.751 31.5098L49.751 31.0098C48.7257 31.0098 47.7413 31.1925 46.8299 31.5266L47.002 31.9961L47.174 32.4655C47.9773 32.1711 48.8453 32.0098 49.751 32.0098L49.751 31.5098ZM47.002 31.9961L47.4713 32.1683C47.8052 31.2585 47.9901 30.2755 47.9902 29.25L47.4902 29.25L46.9902 29.25C46.9901 30.1544 46.8272 31.021 46.5326 31.8238L47.002 31.9961ZM47.4902 29.25L47.9902 29.25C47.9901 24.5611 44.1891 20.7592 39.5 20.7588L39.5 21.2588L39.5 21.7588C43.6367 21.7591 46.9901 25.1133 46.9902 29.25L47.4902 29.25Z" fill="#0088FF" mask="url(#path-1-inside-1_165_654)"/>
</svg>