<svg xmlns="http://www.w3.org/2000/svg" width="140" height="140" viewBox="0 0 140 140" fill="none">
<mask id="path-1-outside-1_165_578" maskUnits="userSpaceOnUse" x="28.1426" y="17.5447" width="84" height="94" fill="black">
<rect fill="white" x="28.1426" y="17.5447" width="84" height="94"/>
<path d="M70.3105 18.5564C75.0229 18.7955 78.7694 22.692 78.7695 27.4636C78.7694 28.7824 78.4815 30.0336 77.9678 31.1599C83.5903 34.1146 87.4256 40.0101 87.4258 46.8025L87.416 47.4109C87.3448 49.5079 86.9036 51.5117 86.1621 53.3621C88.1916 52.5494 90.4066 52.1013 92.7246 52.1013C102.326 52.1016 110.138 59.7634 110.38 69.3064L110.386 69.7625C110.386 79.5165 102.479 87.4233 92.7246 87.4236C90.4061 87.4236 88.1917 86.974 86.1621 86.1609C86.904 88.0118 87.3447 90.0164 87.416 92.114L87.4258 92.7224C87.4258 102.476 79.5186 110.383 69.7646 110.384C60.163 110.384 52.3503 102.722 52.1084 93.1785L52.1025 92.7224C52.1026 90.4044 52.5513 88.19 53.3643 86.1609C51.3356 86.9736 49.1224 87.4235 46.8047 87.4236C37.203 87.4236 29.3904 79.762 29.1484 70.2185L29.1426 69.7625C29.1429 60.0084 37.0507 52.1013 46.8047 52.1013C49.122 52.1014 51.3356 52.5497 53.3643 53.3621C52.6231 51.5118 52.1835 49.5076 52.1123 47.4109L52.1025 46.8025C52.1027 39.9533 56.0017 34.0144 61.7012 31.0847C61.2086 29.978 60.9327 28.7532 60.9326 27.4636C60.9327 22.538 64.9261 18.545 69.8516 18.5447L70.3105 18.5564ZM76.3242 63.2009C74.2956 64.0137 72.0823 64.4636 69.7646 64.4636C67.4461 64.4636 65.2317 64.0141 63.2021 63.2009C63.944 65.0518 64.3848 67.0565 64.4561 69.1541L64.4658 69.7625C64.4658 72.0802 64.0151 74.2935 63.2021 76.322C65.2317 75.5093 67.4466 75.0613 69.7646 75.0613C72.0819 75.0613 74.2956 75.5097 76.3242 76.322C75.5119 74.2934 75.0635 72.0798 75.0635 69.7625L75.0732 69.1541C75.1444 67.0569 75.583 65.0518 76.3242 63.2009ZM69.8506 23.489C67.6564 23.4895 65.8773 25.2686 65.877 27.4626C65.877 28.1904 66.0734 28.872 66.415 29.4587C67.4996 29.2505 68.6194 29.1414 69.7646 29.1414C70.9644 29.1414 72.136 29.262 73.2686 29.49C73.6216 28.8963 73.8252 28.2033 73.8252 27.4626C73.8248 25.2684 72.0452 23.489 69.8506 23.489Z"/>
</mask>
<path d="M70.3105 18.5564C75.0229 18.7955 78.7694 22.692 78.7695 27.4636C78.7694 28.7824 78.4815 30.0336 77.9678 31.1599C83.5903 34.1146 87.4256 40.0101 87.4258 46.8025L87.416 47.4109C87.3448 49.5079 86.9036 51.5117 86.1621 53.3621C88.1916 52.5494 90.4066 52.1013 92.7246 52.1013C102.326 52.1016 110.138 59.7634 110.38 69.3064L110.386 69.7625C110.386 79.5165 102.479 87.4233 92.7246 87.4236C90.4061 87.4236 88.1917 86.974 86.1621 86.1609C86.904 88.0118 87.3447 90.0164 87.416 92.114L87.4258 92.7224C87.4258 102.476 79.5186 110.383 69.7646 110.384C60.163 110.384 52.3503 102.722 52.1084 93.1785L52.1025 92.7224C52.1026 90.4044 52.5513 88.19 53.3643 86.1609C51.3356 86.9736 49.1224 87.4235 46.8047 87.4236C37.203 87.4236 29.3904 79.762 29.1484 70.2185L29.1426 69.7625C29.1429 60.0084 37.0507 52.1013 46.8047 52.1013C49.122 52.1014 51.3356 52.5497 53.3643 53.3621C52.6231 51.5118 52.1835 49.5076 52.1123 47.4109L52.1025 46.8025C52.1027 39.9533 56.0017 34.0144 61.7012 31.0847C61.2086 29.978 60.9327 28.7532 60.9326 27.4636C60.9327 22.538 64.9261 18.545 69.8516 18.5447L70.3105 18.5564ZM76.3242 63.2009C74.2956 64.0137 72.0823 64.4636 69.7646 64.4636C67.4461 64.4636 65.2317 64.0141 63.2021 63.2009C63.944 65.0518 64.3848 67.0565 64.4561 69.1541L64.4658 69.7625C64.4658 72.0802 64.0151 74.2935 63.2021 76.322C65.2317 75.5093 67.4466 75.0613 69.7646 75.0613C72.0819 75.0613 74.2956 75.5097 76.3242 76.322C75.5119 74.2934 75.0635 72.0798 75.0635 69.7625L75.0732 69.1541C75.1444 67.0569 75.583 65.0518 76.3242 63.2009ZM69.8506 23.489C67.6564 23.4895 65.8773 25.2686 65.877 27.4626C65.877 28.1904 66.0734 28.872 66.415 29.4587C67.4996 29.2505 68.6194 29.1414 69.7646 29.1414C70.9644 29.1414 72.136 29.262 73.2686 29.49C73.6216 28.8963 73.8252 28.2033 73.8252 27.4626C73.8248 25.2684 72.0452 23.489 69.8506 23.489Z" fill="#DFE6EF"/>
<path d="M70.3105 18.5564L70.3553 17.6745L70.3442 17.6739L70.3331 17.6736L70.3105 18.5564ZM78.7695 27.4636L79.6526 27.4637V27.4636L78.7695 27.4636ZM77.9678 31.1599L77.1643 30.7934L76.8178 31.5532L77.557 31.9416L77.9678 31.1599ZM87.4258 46.8025L88.3087 46.8167L88.3089 46.8096V46.8025L87.4258 46.8025ZM87.416 47.4109L88.2986 47.4409L88.2989 47.433L88.299 47.4251L87.416 47.4109ZM86.1621 53.3621L85.3424 53.0336L84.5748 54.9489L86.4904 54.1819L86.1621 53.3621ZM92.7246 52.1013L92.7246 51.2182H92.7246V52.1013ZM110.38 69.3064L111.263 69.2951L111.263 69.284L110.38 69.3064ZM110.386 69.7625H111.269L111.269 69.7511L110.386 69.7625ZM92.7246 87.4236V88.3067H92.7246L92.7246 87.4236ZM86.1621 86.1609L86.4905 85.3412L84.5745 84.5735L85.3424 86.4894L86.1621 86.1609ZM87.416 92.114L88.299 92.0998L88.2989 92.0919L88.2986 92.084L87.416 92.114ZM87.4258 92.7224H88.3089V92.7153L88.3087 92.7082L87.4258 92.7224ZM69.7646 110.384V111.267H69.7647L69.7646 110.384ZM52.1084 93.1785L51.2253 93.1898L51.2256 93.2008L52.1084 93.1785ZM52.1025 92.7224L51.2194 92.7224L51.2195 92.7338L52.1025 92.7224ZM53.3643 86.1609L54.184 86.4893L54.9514 84.5737L53.0359 85.3411L53.3643 86.1609ZM46.8047 87.4236V88.3067H46.8047L46.8047 87.4236ZM29.1484 70.2185L28.2654 70.2299L28.2656 70.2409L29.1484 70.2185ZM29.1426 69.7625L28.2594 69.7624L28.2596 69.7738L29.1426 69.7625ZM46.8047 52.1013L46.8047 51.2182H46.8047V52.1013ZM53.3643 53.3621L53.036 54.1819L54.9511 54.9487L54.184 53.0337L53.3643 53.3621ZM52.1123 47.4109L51.2293 47.4251L51.2295 47.433L51.2297 47.4408L52.1123 47.4109ZM52.1025 46.8025L51.2195 46.8025V46.8096L51.2196 46.8167L52.1025 46.8025ZM61.7012 31.0847L62.1049 31.8701L62.8475 31.4884L62.5079 30.7256L61.7012 31.0847ZM60.9326 27.4636L60.0495 27.4636V27.4637L60.9326 27.4636ZM69.8516 18.5447L69.8741 17.6619L69.8628 17.6616L69.8515 17.6616L69.8516 18.5447ZM76.3242 63.2009L77.144 63.5292L77.9111 61.6139L75.9958 62.3812L76.3242 63.2009ZM69.7646 64.4636V65.3467H69.7647L69.7646 64.4636ZM63.2021 63.2009L63.5306 62.3812L61.6145 61.6135L62.3825 63.5295L63.2021 63.2009ZM64.4561 69.1541L65.339 69.1399L65.3389 69.132L65.3386 69.1241L64.4561 69.1541ZM64.4658 69.7625H65.3489V69.7554L65.3488 69.7483L64.4658 69.7625ZM63.2021 76.322L62.3824 75.9935L61.6149 77.9089L63.5304 77.1418L63.2021 76.322ZM69.7646 75.0613L69.7647 74.1782H69.7646V75.0613ZM76.3242 76.322L75.9959 77.1418L77.9108 77.9086L77.144 75.9938L76.3242 76.322ZM75.0635 69.7625L74.1805 69.7483L74.1804 69.7554V69.7625H75.0635ZM75.0732 69.1541L74.1907 69.1241L74.1904 69.132L74.1903 69.1399L75.0732 69.1541ZM69.8506 23.489V22.6059L69.8504 22.6059L69.8506 23.489ZM65.877 27.4626L64.9939 27.4625V27.4626H65.877ZM66.415 29.4587L65.6519 29.903L65.9668 30.444L66.5815 30.326L66.415 29.4587ZM69.7646 29.1414L69.7647 28.2583H69.7646V29.1414ZM73.2686 29.49L73.0943 30.3557L73.7078 30.4792L74.0276 29.9413L73.2686 29.49ZM73.8252 27.4626H74.7083V27.4625L73.8252 27.4626ZM70.3105 18.5564L70.2658 19.4383C74.5108 19.6537 77.8864 23.1646 77.8865 27.4636L78.7695 27.4636L79.6526 27.4636C79.6525 22.2194 75.535 17.9373 70.3553 17.6745L70.3105 18.5564ZM78.7695 27.4636L77.8865 27.4636C77.8864 28.6526 77.627 29.7791 77.1643 30.7934L77.9678 31.1599L78.7712 31.5264C79.336 30.2881 79.6525 28.9123 79.6526 27.4637L78.7695 27.4636ZM77.9678 31.1599L77.557 31.9416C82.9007 34.7498 86.5425 40.3511 86.5427 46.8025L87.4258 46.8025L88.3089 46.8025C88.3087 39.669 84.2798 33.4794 78.3786 30.3782L77.9678 31.1599ZM87.4258 46.8025L86.5428 46.7883L86.5331 47.3967L87.416 47.4109L88.299 47.4251L88.3087 46.8167L87.4258 46.8025ZM87.416 47.4109L86.5334 47.3809C86.4658 49.3727 86.0469 51.2757 85.3424 53.0336L86.1621 53.3621L86.9818 53.6906C87.7604 51.7478 88.2238 49.6431 88.2986 47.4409L87.416 47.4109ZM86.1621 53.3621L86.4904 54.1819C88.4176 53.4101 90.5212 52.9844 92.7246 52.9844V52.1013V51.2182C90.2919 51.2182 87.9657 51.6886 85.8338 52.5423L86.1621 53.3621ZM92.7246 52.1013L92.7246 52.9844C101.846 52.9847 109.267 60.2634 109.497 69.3288L110.38 69.3064L111.263 69.284C111.008 59.2634 102.806 51.2185 92.7246 51.2182L92.7246 52.1013ZM110.38 69.3064L109.497 69.3177L109.503 69.7738L110.386 69.7625L111.269 69.7511L111.263 69.2951L110.38 69.3064ZM110.386 69.7625H109.503C109.503 79.0288 101.991 86.5402 92.7246 86.5405L92.7246 87.4236L92.7246 88.3067C102.966 88.3064 111.269 80.0042 111.269 69.7625H110.386ZM92.7246 87.4236V86.5405C90.5211 86.5405 88.4181 86.1134 86.4905 85.3412L86.1621 86.1609L85.8337 86.9806C87.9653 87.8347 90.291 88.3067 92.7246 88.3067V87.4236ZM86.1621 86.1609L85.3424 86.4894C86.0472 88.2477 86.4658 90.1515 86.5334 92.144L87.416 92.114L88.2986 92.084C88.2237 89.8814 87.7608 87.7758 86.9818 85.8323L86.1621 86.1609ZM87.416 92.114L86.5331 92.1282L86.5428 92.7366L87.4258 92.7224L88.3087 92.7082L88.299 92.0998L87.416 92.114ZM87.4258 92.7224H86.5427C86.5427 101.989 79.0309 109.5 69.7646 109.5L69.7646 110.384L69.7647 111.267C80.0063 111.266 88.3089 102.964 88.3089 92.7224H87.4258ZM69.7646 110.384V109.5C60.6432 109.5 53.221 102.222 52.9912 93.1561L52.1084 93.1785L51.2256 93.2008C51.4796 103.222 59.6828 111.267 69.7646 111.267V110.384ZM52.1084 93.1785L52.9914 93.1671L52.9855 92.7111L52.1025 92.7224L51.2195 92.7338L51.2254 93.1898L52.1084 93.1785ZM52.1025 92.7224L52.9856 92.7224C52.9857 90.5193 53.412 88.4161 54.184 86.4893L53.3643 86.1609L52.5445 85.8325C51.6906 87.9638 51.2195 90.2896 51.2195 92.7224L52.1025 92.7224ZM53.3643 86.1609L53.0359 85.3411C51.1091 86.1131 49.0072 86.5404 46.8047 86.5405L46.8047 87.4236L46.8047 88.3067C49.2376 88.3066 51.5621 87.8342 53.6927 86.9806L53.3643 86.1609ZM46.8047 87.4236V86.5405C37.6832 86.5405 30.261 79.2619 30.0312 70.1961L29.1484 70.2185L28.2656 70.2409C28.5197 80.262 36.7229 88.3067 46.8047 88.3067V87.4236ZM29.1484 70.2185L30.0314 70.2072L30.0256 69.7511L29.1426 69.7625L28.2596 69.7738L28.2654 70.2299L29.1484 70.2185ZM29.1426 69.7625L30.0257 69.7625C30.0259 60.4962 37.5384 52.9844 46.8047 52.9844V52.1013V51.2182C36.5631 51.2182 28.2598 59.5207 28.2595 69.7624L29.1426 69.7625ZM46.8047 52.1013L46.8047 52.9844C49.0072 52.9845 51.1095 53.4104 53.036 54.1819L53.3643 53.3621L53.6925 52.5423C51.5617 51.689 49.2368 51.2183 46.8047 51.2182L46.8047 52.1013ZM53.3643 53.3621L54.184 53.0337C53.48 51.2762 53.0625 49.3728 52.9949 47.3809L52.1123 47.4109L51.2297 47.4408C51.3045 49.6423 51.7661 51.7473 52.5445 53.6904L53.3643 53.3621ZM52.1123 47.4109L52.9953 47.3967L52.9855 46.7883L52.1025 46.8025L51.2196 46.8167L51.2293 47.4251L52.1123 47.4109ZM52.1025 46.8025L52.9856 46.8025C52.9858 40.2971 56.6882 34.6544 62.1049 31.8701L61.7012 31.0847L61.2975 30.2993C55.3152 33.3743 51.2197 39.6096 51.2195 46.8025L52.1025 46.8025ZM61.7012 31.0847L62.5079 30.7256C62.0642 29.7287 61.8158 28.6261 61.8157 27.4636L60.9326 27.4636L60.0495 27.4637C60.0496 28.8804 60.3529 30.2272 60.8944 31.4438L61.7012 31.0847ZM60.9326 27.4636L61.8157 27.4636C61.8158 23.0258 65.4138 19.4281 69.8516 19.4278L69.8516 18.5447L69.8515 17.6616C64.4384 17.662 60.0497 22.0502 60.0495 27.4636L60.9326 27.4636ZM69.8516 18.5447L69.829 19.4275L70.288 19.4392L70.3105 18.5564L70.3331 17.6736L69.8741 17.6619L69.8516 18.5447ZM76.3242 63.2009L75.9958 62.3812C74.069 63.1531 71.9671 63.5805 69.7646 63.5805L69.7646 64.4636L69.7647 65.3467C72.1976 65.3466 74.5221 64.8742 76.6526 64.0207L76.3242 63.2009ZM69.7646 64.4636V63.5805C67.5612 63.5805 65.4581 63.1535 63.5306 62.3812L63.2021 63.2009L62.8737 64.0207C65.0054 64.8747 67.3311 65.3467 69.7646 65.3467V64.4636ZM63.2021 63.2009L62.3825 63.5295C63.0872 65.2877 63.5058 67.1915 63.5735 69.184L64.4561 69.1541L65.3386 69.1241C65.2638 66.9214 64.8008 64.8159 64.0218 62.8724L63.2021 63.2009ZM64.4561 69.1541L63.5731 69.1682L63.5829 69.7766L64.4658 69.7625L65.3488 69.7483L65.339 69.1399L64.4561 69.1541ZM64.4658 69.7625H63.5827C63.5827 71.9648 63.1546 74.0668 62.3824 75.9935L63.2021 76.322L64.0219 76.6505C64.8756 74.5202 65.3489 72.1957 65.3489 69.7625H64.4658ZM63.2021 76.322L63.5304 77.1418C65.4576 76.3701 67.5613 75.9444 69.7646 75.9444V75.0613V74.1782C67.332 74.1782 65.0057 74.6486 62.8739 75.5022L63.2021 76.322ZM69.7646 75.0613L69.7646 75.9444C71.9671 75.9444 74.0695 76.3704 75.9959 77.1418L76.3242 76.322L76.6525 75.5022C74.5216 74.6489 72.1967 74.1783 69.7647 74.1782L69.7646 75.0613ZM76.3242 76.322L77.144 75.9938C76.3726 74.0673 75.9466 71.965 75.9466 69.7625H75.0635H74.1804C74.1804 72.1946 74.6512 74.5195 75.5044 76.6503L76.3242 76.322ZM75.0635 69.7625L75.9464 69.7766L75.9562 69.1682L75.0732 69.1541L74.1903 69.1399L74.1805 69.7483L75.0635 69.7625ZM75.0732 69.1541L75.9558 69.184C76.0234 67.1913 76.44 65.287 77.144 63.5292L76.3242 63.2009L75.5044 62.8726C74.7259 64.8166 74.2653 66.9225 74.1907 69.1241L75.0732 69.1541ZM69.8506 23.489L69.8504 22.6059C67.1687 22.6065 64.9943 24.7808 64.9939 27.4625L65.877 27.4626L66.76 27.4628C66.7603 25.7563 68.1442 24.3724 69.8508 24.3721L69.8506 23.489ZM65.877 27.4626H64.9939C64.9939 28.3515 65.2343 29.1858 65.6519 29.903L66.415 29.4587L67.1782 29.0144C66.9126 28.5582 66.76 28.0293 66.76 27.4626H65.877ZM66.415 29.4587L66.5815 30.326C67.6116 30.1282 68.6756 30.0244 69.7646 30.0244V29.1414V28.2583C68.5631 28.2583 67.3876 28.3728 66.2485 28.5915L66.415 29.4587ZM69.7646 29.1414L69.7646 30.0244C70.905 30.0245 72.0183 30.1391 73.0943 30.3557L73.2686 29.49L73.4428 28.6243C72.2537 28.3849 71.0237 28.2583 69.7647 28.2583L69.7646 29.1414ZM73.2686 29.49L74.0276 29.9413C74.4591 29.2156 74.7083 28.3674 74.7083 27.4626H73.8252H72.9421C72.9421 28.0392 72.784 28.5769 72.5095 29.0387L73.2686 29.49ZM73.8252 27.4626L74.7083 27.4625C74.7078 24.7805 72.5328 22.6059 69.8506 22.6059V23.489V24.3721C71.5576 24.3721 72.9418 25.7562 72.9421 27.4628L73.8252 27.4626Z" fill="#0088FF" mask="url(#path-1-outside-1_165_578)"/>
</svg>