<svg xmlns="http://www.w3.org/2000/svg" width="140" height="140" viewBox="0 0 140 140" fill="none">
<mask id="path-1-outside-1_165_491" maskUnits="userSpaceOnUse" x="35.0889" y="-0.233887" width="71" height="135" fill="black">
<rect fill="white" x="35.0889" y="-0.233887" width="71" height="135"/>
<path d="M71.1924 1.78076C76.0285 2.02634 80.005 5.51441 81 10.1128C84.3006 11.908 86.5416 15.406 86.542 19.4272C90.5628 19.4276 94.0602 21.668 95.8555 24.9673C100.628 25.999 104.203 30.2439 104.203 35.3237C104.203 40.4036 100.627 44.6467 95.8555 45.6782C94.1419 48.8277 90.8782 51.0121 87.0879 51.2046L86.542 51.2192C86.5415 55.24 84.3009 58.7374 81.001 60.5327C80.3474 63.5552 78.4046 66.0961 75.7773 67.5542C75.8866 67.9781 75.9443 68.4224 75.9443 68.8804L76.125 68.8892C77.0156 68.9795 77.7109 69.7315 77.7109 70.646C77.7109 71.5605 77.0157 72.3125 76.125 72.4028L75.9443 72.4126V95.3726H90.0742C91.0493 95.373 91.8398 96.164 91.8398 97.1392V104.203C91.1021 103.649 90.184 103.32 89.1904 103.32C87.731 103.32 86.4365 104.029 85.6328 105.121L82.1309 101.554L75.9443 107.856L82.1309 114.157L85.7363 110.485C86.5452 111.5 87.792 112.151 89.1904 112.151C90.1841 112.151 91.102 111.822 91.8398 111.268V118.333C91.8397 119.308 91.0492 120.099 90.0742 120.099H75.9443V123.63C76.9198 123.63 77.7109 124.422 77.7109 125.397C77.7109 126.372 76.9197 127.163 75.9443 127.163C75.9443 130.089 73.5726 132.461 70.6465 132.461C67.7204 132.461 65.3477 130.089 65.3477 127.163C64.3725 127.162 63.5811 126.372 63.5811 125.397C63.5811 124.422 64.3725 123.631 65.3477 123.63V72.4126L65.167 72.4028C64.2767 72.3121 63.5811 71.5602 63.5811 70.646C63.5811 69.7318 64.2767 68.9799 65.167 68.8892L65.3477 68.8804C65.3477 68.4225 65.4054 67.978 65.5146 67.5542C62.8874 66.0962 60.9436 63.5553 60.29 60.5327C56.9904 58.7371 54.7501 55.239 54.75 51.2183C50.7289 51.2178 47.2307 48.9777 45.4355 45.6772C40.6656 44.645 37.0894 40.4035 37.0889 35.3237C37.0889 30.2439 40.6647 26.0007 45.4355 24.9683C47.2308 21.6681 50.7291 19.4277 54.75 19.4272C54.7504 15.4064 56.991 11.9082 60.291 10.1128C61.3233 5.34183 65.5667 1.76628 70.6465 1.76611L71.1924 1.78076ZM70.6465 7.06494C67.7204 7.06514 65.3477 9.43765 65.3477 12.3638C65.3478 12.9861 65.4562 13.5835 65.6533 14.1382C65.5523 14.1324 65.4501 14.1294 65.3477 14.1294C62.4216 14.1296 60.0489 16.5021 60.0488 19.4282C60.0492 22.354 62.4218 24.7259 65.3477 24.7261C65.9671 24.7261 66.5617 24.6187 67.1143 24.4233V31.7905H59.7461C59.9413 31.2382 60.0488 30.644 60.0488 30.0249C60.0488 27.0987 57.6771 24.7262 54.751 24.7261C51.8249 24.7263 49.4522 27.0988 49.4521 30.0249C49.4522 30.1273 49.4552 30.2296 49.4609 30.3306C48.9062 30.1334 48.3089 30.0249 47.6865 30.0249C44.7604 30.0251 42.3877 32.3976 42.3877 35.3237C42.3881 38.2495 44.7607 40.6214 47.6865 40.6216C48.309 40.6215 48.9061 40.5122 49.4609 40.3149C49.4552 40.4163 49.4522 40.5188 49.4521 40.6216C49.4524 43.5475 51.825 45.9202 54.751 45.9204C57.677 45.9203 60.0486 43.5476 60.0488 40.6216C60.0488 40.0024 59.9413 39.4083 59.7461 38.856H67.1143V46.2222C66.5618 46.0269 65.967 45.9204 65.3477 45.9204C62.4217 45.9206 60.0491 48.2924 60.0488 51.2183C60.049 54.1442 62.4217 56.5169 65.3477 56.5171C65.4501 56.5171 65.5523 56.5131 65.6533 56.5073C65.4559 57.0624 65.3477 57.6608 65.3477 58.2837C65.3481 61.2095 67.7207 63.5813 70.6465 63.5815C73.5723 63.5814 75.9439 61.2095 75.9443 58.2837C75.9443 57.6607 75.8352 57.0626 75.6377 56.5073C75.7391 56.5131 75.8415 56.5171 75.9443 56.5171C78.8705 56.5171 81.2429 54.1443 81.2432 51.2183C81.2429 48.2922 78.8704 45.9204 75.9443 45.9204C75.3253 45.9205 74.7309 46.027 74.1787 46.2222V38.856H81.5459C81.3507 39.4082 81.2432 40.0025 81.2432 40.6216C81.2434 43.5475 83.616 45.9202 86.542 45.9204C89.4679 45.9202 91.8396 43.5475 91.8398 40.6216C91.8398 40.5188 91.8359 40.4163 91.8301 40.3149C92.3853 40.5125 92.9834 40.6215 93.6064 40.6216C96.5323 40.6214 98.9039 38.2495 98.9043 35.3237C98.9043 32.3976 96.5326 30.0251 93.6064 30.0249C92.9835 30.0249 92.3852 30.1331 91.8301 30.3306C91.8358 30.2295 91.8398 30.1274 91.8398 30.0249C91.8398 27.0988 89.468 24.7263 86.542 24.7261C83.6159 24.7263 81.2432 27.0988 81.2432 30.0249C81.2432 30.644 81.3507 31.2383 81.5459 31.7905H74.1787V24.4233C74.731 24.6186 75.3252 24.726 75.9443 24.7261C78.8704 24.7261 81.2428 22.3542 81.2432 19.4282C81.2431 16.502 78.8706 14.1294 75.9443 14.1294C75.8415 14.1294 75.7391 14.1324 75.6377 14.1382C75.835 13.5834 75.9442 12.9863 75.9443 12.3638C75.9443 9.43764 73.5726 7.06512 70.6465 7.06494Z"/>
</mask>
<path d="M71.1924 1.78076C76.0285 2.02634 80.005 5.51441 81 10.1128C84.3006 11.908 86.5416 15.406 86.542 19.4272C90.5628 19.4276 94.0602 21.668 95.8555 24.9673C100.628 25.999 104.203 30.2439 104.203 35.3237C104.203 40.4036 100.627 44.6467 95.8555 45.6782C94.1419 48.8277 90.8782 51.0121 87.0879 51.2046L86.542 51.2192C86.5415 55.24 84.3009 58.7374 81.001 60.5327C80.3474 63.5552 78.4046 66.0961 75.7773 67.5542C75.8866 67.9781 75.9443 68.4224 75.9443 68.8804L76.125 68.8892C77.0156 68.9795 77.7109 69.7315 77.7109 70.646C77.7109 71.5605 77.0157 72.3125 76.125 72.4028L75.9443 72.4126V95.3726H90.0742C91.0493 95.373 91.8398 96.164 91.8398 97.1392V104.203C91.1021 103.649 90.184 103.32 89.1904 103.32C87.731 103.32 86.4365 104.029 85.6328 105.121L82.1309 101.554L75.9443 107.856L82.1309 114.157L85.7363 110.485C86.5452 111.5 87.792 112.151 89.1904 112.151C90.1841 112.151 91.102 111.822 91.8398 111.268V118.333C91.8397 119.308 91.0492 120.099 90.0742 120.099H75.9443V123.63C76.9198 123.63 77.7109 124.422 77.7109 125.397C77.7109 126.372 76.9197 127.163 75.9443 127.163C75.9443 130.089 73.5726 132.461 70.6465 132.461C67.7204 132.461 65.3477 130.089 65.3477 127.163C64.3725 127.162 63.5811 126.372 63.5811 125.397C63.5811 124.422 64.3725 123.631 65.3477 123.63V72.4126L65.167 72.4028C64.2767 72.3121 63.5811 71.5602 63.5811 70.646C63.5811 69.7318 64.2767 68.9799 65.167 68.8892L65.3477 68.8804C65.3477 68.4225 65.4054 67.978 65.5146 67.5542C62.8874 66.0962 60.9436 63.5553 60.29 60.5327C56.9904 58.7371 54.7501 55.239 54.75 51.2183C50.7289 51.2178 47.2307 48.9777 45.4355 45.6772C40.6656 44.645 37.0894 40.4035 37.0889 35.3237C37.0889 30.2439 40.6647 26.0007 45.4355 24.9683C47.2308 21.6681 50.7291 19.4277 54.75 19.4272C54.7504 15.4064 56.991 11.9082 60.291 10.1128C61.3233 5.34183 65.5667 1.76628 70.6465 1.76611L71.1924 1.78076ZM70.6465 7.06494C67.7204 7.06514 65.3477 9.43765 65.3477 12.3638C65.3478 12.9861 65.4562 13.5835 65.6533 14.1382C65.5523 14.1324 65.4501 14.1294 65.3477 14.1294C62.4216 14.1296 60.0489 16.5021 60.0488 19.4282C60.0492 22.354 62.4218 24.7259 65.3477 24.7261C65.9671 24.7261 66.5617 24.6187 67.1143 24.4233V31.7905H59.7461C59.9413 31.2382 60.0488 30.644 60.0488 30.0249C60.0488 27.0987 57.6771 24.7262 54.751 24.7261C51.8249 24.7263 49.4522 27.0988 49.4521 30.0249C49.4522 30.1273 49.4552 30.2296 49.4609 30.3306C48.9062 30.1334 48.3089 30.0249 47.6865 30.0249C44.7604 30.0251 42.3877 32.3976 42.3877 35.3237C42.3881 38.2495 44.7607 40.6214 47.6865 40.6216C48.309 40.6215 48.9061 40.5122 49.4609 40.3149C49.4552 40.4163 49.4522 40.5188 49.4521 40.6216C49.4524 43.5475 51.825 45.9202 54.751 45.9204C57.677 45.9203 60.0486 43.5476 60.0488 40.6216C60.0488 40.0024 59.9413 39.4083 59.7461 38.856H67.1143V46.2222C66.5618 46.0269 65.967 45.9204 65.3477 45.9204C62.4217 45.9206 60.0491 48.2924 60.0488 51.2183C60.049 54.1442 62.4217 56.5169 65.3477 56.5171C65.4501 56.5171 65.5523 56.5131 65.6533 56.5073C65.4559 57.0624 65.3477 57.6608 65.3477 58.2837C65.3481 61.2095 67.7207 63.5813 70.6465 63.5815C73.5723 63.5814 75.9439 61.2095 75.9443 58.2837C75.9443 57.6607 75.8352 57.0626 75.6377 56.5073C75.7391 56.5131 75.8415 56.5171 75.9443 56.5171C78.8705 56.5171 81.2429 54.1443 81.2432 51.2183C81.2429 48.2922 78.8704 45.9204 75.9443 45.9204C75.3253 45.9205 74.7309 46.027 74.1787 46.2222V38.856H81.5459C81.3507 39.4082 81.2432 40.0025 81.2432 40.6216C81.2434 43.5475 83.616 45.9202 86.542 45.9204C89.4679 45.9202 91.8396 43.5475 91.8398 40.6216C91.8398 40.5188 91.8359 40.4163 91.8301 40.3149C92.3853 40.5125 92.9834 40.6215 93.6064 40.6216C96.5323 40.6214 98.9039 38.2495 98.9043 35.3237C98.9043 32.3976 96.5326 30.0251 93.6064 30.0249C92.9835 30.0249 92.3852 30.1331 91.8301 30.3306C91.8358 30.2295 91.8398 30.1274 91.8398 30.0249C91.8398 27.0988 89.468 24.7263 86.542 24.7261C83.6159 24.7263 81.2432 27.0988 81.2432 30.0249C81.2432 30.644 81.3507 31.2383 81.5459 31.7905H74.1787V24.4233C74.731 24.6186 75.3252 24.726 75.9443 24.7261C78.8704 24.7261 81.2428 22.3542 81.2432 19.4282C81.2431 16.502 78.8706 14.1294 75.9443 14.1294C75.8415 14.1294 75.7391 14.1324 75.6377 14.1382C75.835 13.5834 75.9442 12.9863 75.9443 12.3638C75.9443 9.43764 73.5726 7.06512 70.6465 7.06494Z" fill="#DFE6EF"/>
<path d="M71.1924 1.78076L71.2685 0.282692L71.2505 0.281783L71.2326 0.281301L71.1924 1.78076ZM81 10.1128L79.5339 10.43L79.6793 11.102L80.2833 11.4305L81 10.1128ZM86.542 19.4272L85.042 19.4274L85.0421 20.9271L86.5419 20.9272L86.542 19.4272ZM95.8555 24.9673L94.5379 25.6842L94.8665 26.2881L95.5385 26.4334L95.8555 24.9673ZM104.203 35.3237L105.703 35.3239V35.3237L104.203 35.3237ZM95.8555 45.6782L95.5385 44.2121L94.8665 44.3574L94.5379 44.9614L95.8555 45.6782ZM87.0879 51.2046L87.1281 52.7041L87.1461 52.7036L87.164 52.7027L87.0879 51.2046ZM86.542 51.2192L86.5018 49.7198L85.0422 49.7589L85.042 51.2191L86.542 51.2192ZM81.001 60.5327L80.2841 59.2151L79.6802 59.5437L79.5349 60.2157L81.001 60.5327ZM75.7773 67.5542L75.0495 66.2426L74.0354 66.8054L74.3248 67.9285L75.7773 67.5542ZM75.9443 68.8804H74.4443V70.3092L75.8714 70.3786L75.9443 68.8804ZM76.125 68.8892L76.2764 67.3968L76.2372 67.3928L76.1979 67.3909L76.125 68.8892ZM77.7109 70.646H79.2109V70.6459L77.7109 70.646ZM76.125 72.4028L76.206 73.9006L76.2413 73.8987L76.2764 73.8952L76.125 72.4028ZM75.9443 72.4126L75.8634 70.9148L74.4443 70.9915V72.4126H75.9443ZM75.9443 95.3726H74.4443V96.8726H75.9443V95.3726ZM90.0742 95.3726L90.0749 93.8726H90.0742V95.3726ZM91.8398 104.203L90.9392 105.402L93.3398 107.205V104.203H91.8398ZM89.1904 103.32L89.1906 101.82H89.1902L89.1904 103.32ZM85.6328 105.121L84.5625 106.172L85.7965 107.428L86.8408 106.01L85.6328 105.121ZM82.1309 101.554L83.2011 100.503L82.1307 99.4131L81.0605 100.503L82.1309 101.554ZM75.9443 107.856L74.8739 106.805L73.8422 107.856L74.874 108.907L75.9443 107.856ZM82.1309 114.157L81.0605 115.208L82.1308 116.298L83.2012 115.208L82.1309 114.157ZM85.7363 110.485L86.9093 109.55L85.8532 108.225L84.666 109.434L85.7363 110.485ZM89.1904 112.151L89.1902 113.651H89.1906L89.1904 112.151ZM91.8398 111.268H93.3398V108.266L90.9391 110.069L91.8398 111.268ZM91.8398 118.333L93.3398 118.333V118.333H91.8398ZM90.0742 120.099V121.599H90.0749L90.0742 120.099ZM75.9443 120.099V118.599H74.4443V120.099H75.9443ZM75.9443 123.63H74.4443V125.13H75.9443V123.63ZM77.7109 125.397L79.2109 125.397V125.397H77.7109ZM75.9443 127.163V125.663H74.4443V127.163H75.9443ZM70.6465 132.461L70.6464 133.961H70.6466L70.6465 132.461ZM65.3477 127.163H66.8477L66.8477 125.663L65.3481 125.663L65.3477 127.163ZM63.5811 125.397H62.0811V125.397L63.5811 125.397ZM65.3477 123.63L65.3481 125.13L66.8477 125.13V123.63H65.3477ZM65.3477 72.4126H66.8477V70.9915L65.4286 70.9148L65.3477 72.4126ZM65.167 72.4028L65.0149 73.8951L65.0504 73.8987L65.086 73.9006L65.167 72.4028ZM63.5811 70.646L62.0811 70.6459V70.646H63.5811ZM65.167 68.8892L65.0941 67.3909L65.0544 67.3929L65.0149 67.3969L65.167 68.8892ZM65.3477 68.8804L65.4205 70.3786L66.8477 70.3092V68.8804H65.3477ZM65.5146 67.5542L66.9672 67.9285L67.2566 66.8054L66.2425 66.2426L65.5146 67.5542ZM60.29 60.5327L61.7562 60.2157L61.6109 59.5438L61.007 59.2152L60.29 60.5327ZM54.75 51.2183L56.25 51.2182L56.25 49.7184L54.7502 49.7183L54.75 51.2183ZM45.4355 45.6772L46.7532 44.9605L46.4247 44.3566L45.7528 44.2112L45.4355 45.6772ZM37.0889 35.3237L35.5889 35.3237V35.3239L37.0889 35.3237ZM45.4355 24.9683L45.7528 26.4343L46.4247 26.2889L46.7532 25.6851L45.4355 24.9683ZM54.75 19.4272L54.7502 20.9272L56.2499 20.9271L56.25 19.4274L54.75 19.4272ZM60.291 10.1128L61.0079 11.4304L61.6117 11.1019L61.7571 10.43L60.291 10.1128ZM70.6465 1.76611L70.6867 0.266653L70.6666 0.266113L70.6464 0.266113L70.6465 1.76611ZM70.6465 7.06494L70.6466 5.56494H70.6464L70.6465 7.06494ZM65.3477 12.3638L63.8477 12.3638V12.364L65.3477 12.3638ZM65.6533 14.1382L65.5682 15.6358L67.8231 15.7639L67.0667 13.6358L65.6533 14.1382ZM65.3477 14.1294L65.3477 12.6294H65.3475L65.3477 14.1294ZM60.0488 19.4282L58.5488 19.4282V19.4284L60.0488 19.4282ZM65.3477 24.7261L65.3475 26.2261H65.3477L65.3477 24.7261ZM67.1143 24.4233H68.6143V22.302L66.6143 23.0091L67.1143 24.4233ZM67.1143 31.7905V33.2905H68.6143V31.7905H67.1143ZM59.7461 31.7905L58.3318 31.2906L57.6249 33.2905H59.7461V31.7905ZM60.0488 30.0249L61.5488 30.025V30.0249L60.0488 30.0249ZM54.751 24.7261L54.751 23.2261H54.7509L54.751 24.7261ZM49.4521 30.0249L47.9521 30.0249V30.025L49.4521 30.0249ZM49.4609 30.3306L48.9586 31.7439L51.0868 32.5003L50.9585 30.2454L49.4609 30.3306ZM47.6865 30.0249L47.6866 28.5249H47.6864L47.6865 30.0249ZM42.3877 35.3237L40.8877 35.3237V35.324L42.3877 35.3237ZM47.6865 40.6216L47.6864 42.1216H47.6866L47.6865 40.6216ZM49.4609 40.3149L50.9585 40.4003L51.0871 38.1449L48.9585 38.9016L49.4609 40.3149ZM49.4521 40.6216L47.9521 40.6215V40.6217L49.4521 40.6216ZM54.751 45.9204L54.7509 47.4204H54.751L54.751 45.9204ZM60.0488 40.6216L61.5488 40.6217V40.6215L60.0488 40.6216ZM59.7461 38.856V37.356H57.625L58.3318 39.3558L59.7461 38.856ZM67.1143 38.856H68.6143V37.356H67.1143V38.856ZM67.1143 46.2222L66.6143 47.6364L68.6143 48.3434V46.2222H67.1143ZM65.3477 45.9204L65.3477 44.4204H65.3475L65.3477 45.9204ZM60.0488 51.2183L58.5488 51.2181V51.2184L60.0488 51.2183ZM65.3477 56.5171L65.3475 58.0171H65.3477L65.3477 56.5171ZM65.6533 56.5073L67.0666 57.0099L67.8235 54.8815L65.5682 55.0097L65.6533 56.5073ZM65.3477 58.2837L63.8477 58.2837V58.2839L65.3477 58.2837ZM70.6465 63.5815L70.6464 65.0815H70.6466L70.6465 63.5815ZM75.9443 58.2837L77.4443 58.2839V58.2837L75.9443 58.2837ZM75.6377 56.5073L75.7232 55.0098L73.467 54.8809L74.2245 57.0101L75.6377 56.5073ZM75.9443 56.5171L75.9441 58.0171H75.9443V56.5171ZM81.2432 51.2183L82.7432 51.2184V51.2181L81.2432 51.2183ZM75.9443 45.9204V44.4204H75.9442L75.9443 45.9204ZM74.1787 46.2222H72.6787V48.3432L74.6786 47.6364L74.1787 46.2222ZM74.1787 38.856V37.356H72.6787V38.856H74.1787ZM81.5459 38.856L82.9602 39.3557L83.6669 37.356H81.5459V38.856ZM81.2432 40.6216L79.7432 40.6215V40.6217L81.2432 40.6216ZM86.542 45.9204L86.5419 47.4204H86.5421L86.542 45.9204ZM91.8398 40.6216L93.3398 40.6217V40.6215L91.8398 40.6216ZM91.8301 40.3149L92.3329 38.9017L90.2038 38.1442L90.3325 40.4004L91.8301 40.3149ZM93.6064 40.6216L93.6063 42.1216H93.6065L93.6064 40.6216ZM98.9043 35.3237L100.404 35.324V35.3237L98.9043 35.3237ZM93.6064 30.0249L93.6065 28.5249H93.6063L93.6064 30.0249ZM91.8301 30.3306L90.3325 30.2454L90.2042 32.5011L92.3328 31.7438L91.8301 30.3306ZM91.8398 30.0249L93.3398 30.0251V30.0249L91.8398 30.0249ZM86.542 24.7261L86.5421 23.2261H86.5419L86.542 24.7261ZM81.2432 30.0249L79.7432 30.0249V30.025L81.2432 30.0249ZM81.5459 31.7905V33.2905H83.6669L82.9602 31.2907L81.5459 31.7905ZM74.1787 31.7905H72.6787V33.2905H74.1787V31.7905ZM74.1787 24.4233L74.6786 23.0091L72.6787 22.3022V24.4233H74.1787ZM75.9443 24.7261L75.9442 26.2261H75.9443V24.7261ZM81.2432 19.4282L82.7432 19.4284V19.4282L81.2432 19.4282ZM75.9443 14.1294V12.6294H75.9442L75.9443 14.1294ZM75.6377 14.1382L74.2244 13.6356L73.4673 15.7646L75.7232 15.6357L75.6377 14.1382ZM75.9443 12.3638L77.4443 12.364V12.3638L75.9443 12.3638ZM71.1924 1.78076L71.1163 3.27883C75.2639 3.48945 78.6798 6.48267 79.5339 10.43L81 10.1128L82.4661 9.79556C81.3302 4.54616 76.7931 0.56323 71.2685 0.282692L71.1924 1.78076ZM81 10.1128L80.2833 11.4305C83.1207 12.9738 85.0417 15.9776 85.042 19.4274L86.542 19.4272L88.042 19.4271C88.0416 14.8344 85.4804 10.8422 81.7167 8.79509L81 10.1128ZM86.542 19.4272L86.5419 20.9272C89.9913 20.9275 92.9945 22.8479 94.5379 25.6842L95.8555 24.9673L97.173 24.2503C95.1258 20.488 91.1343 17.9276 86.5421 17.9272L86.542 19.4272ZM95.8555 24.9673L95.5385 26.4334C99.6352 27.3191 102.703 30.9651 102.703 35.3237L104.203 35.3237L105.703 35.3237C105.703 29.5227 101.62 24.679 96.1724 23.5012L95.8555 24.9673ZM104.203 35.3237L102.703 35.3236C102.703 39.6821 99.6346 43.3266 95.5385 44.2121L95.8555 45.6782L96.1724 47.1444C101.619 45.9668 105.703 41.1251 105.703 35.3239L104.203 35.3237ZM95.8555 45.6782L94.5379 44.9614C93.0648 47.6689 90.2616 49.5415 87.0118 49.7065L87.0879 51.2046L87.164 52.7027C91.4948 52.4827 95.2191 49.9865 97.1731 46.3951L95.8555 45.6782ZM87.0879 51.2046L87.0477 49.7051L86.5018 49.7198L86.542 51.2192L86.5822 52.7187L87.1281 52.7041L87.0879 51.2046ZM86.542 51.2192L85.042 51.2191C85.0416 54.6683 83.1211 57.6717 80.2841 59.2151L81.001 60.5327L81.7178 61.8503C85.4807 59.8031 88.0414 55.8116 88.042 51.2194L86.542 51.2192ZM81.001 60.5327L79.5349 60.2157C78.9748 62.806 77.3077 64.9893 75.0495 66.2426L75.7773 67.5542L76.5052 68.8658C79.5014 67.2029 81.7201 64.3044 82.4671 60.8497L81.001 60.5327ZM75.7773 67.5542L74.3248 67.9285C74.4026 68.2304 74.4443 68.549 74.4443 68.8804H75.9443H77.4443C77.4443 68.2958 77.3705 67.7257 77.2299 67.1799L75.7773 67.5542ZM75.9443 68.8804L75.8714 70.3786L76.0521 70.3874L76.125 68.8892L76.1979 67.3909L76.0172 67.3821L75.9443 68.8804ZM76.125 68.8892L75.9736 70.3815C76.1065 70.395 76.2109 70.5095 76.2109 70.6461L77.7109 70.646L79.2109 70.6459C79.2108 68.9536 77.9248 67.564 76.2764 67.3968L76.125 68.8892ZM77.7109 70.646H76.2109C76.2109 70.7824 76.1067 70.897 75.9736 70.9105L76.125 72.4028L76.2764 73.8952C77.9247 73.7279 79.2109 72.3386 79.2109 70.646H77.7109ZM76.125 72.4028L76.044 70.905L75.8634 70.9148L75.9443 72.4126L76.0253 73.9104L76.206 73.9006L76.125 72.4028ZM75.9443 72.4126H74.4443V95.3726H75.9443H77.4443V72.4126H75.9443ZM75.9443 95.3726V96.8726H90.0742V95.3726V93.8726H75.9443V95.3726ZM90.0742 95.3726L90.0736 96.8726C90.2203 96.8726 90.3398 96.992 90.3398 97.1392H91.8398H93.3398C93.3398 95.336 91.8783 93.8733 90.0749 93.8726L90.0742 95.3726ZM91.8398 97.1392H90.3398V104.203H91.8398H93.3398V97.1392H91.8398ZM91.8398 104.203L92.7405 103.003C91.7521 102.261 90.5201 101.82 89.1906 101.82L89.1904 103.32L89.1903 104.82C89.8479 104.82 90.4521 105.036 90.9392 105.402L91.8398 104.203ZM89.1904 103.32L89.1902 101.82C87.2336 101.82 85.4989 102.772 84.4249 104.231L85.6328 105.121L86.8408 106.01C87.3741 105.286 88.2283 104.82 89.1907 104.82L89.1904 103.32ZM85.6328 105.121L86.7031 104.07L83.2011 100.503L82.1309 101.554L81.0606 102.605L84.5625 106.172L85.6328 105.121ZM82.1309 101.554L81.0605 100.503L74.8739 106.805L75.9443 107.856L77.0147 108.907L83.2013 102.605L82.1309 101.554ZM75.9443 107.856L74.874 108.907L81.0605 115.208L82.1309 114.157L83.2012 113.106L77.0147 106.805L75.9443 107.856ZM82.1309 114.157L83.2012 115.208L86.8066 111.536L85.7363 110.485L84.666 109.434L81.0606 113.106L82.1309 114.157ZM85.7363 110.485L84.5634 111.42C85.6443 112.776 87.3155 113.651 89.1902 113.651L89.1904 112.151L89.1907 110.651C88.2684 110.651 87.4461 110.223 86.9093 109.55L85.7363 110.485ZM89.1904 112.151L89.1906 113.651C90.5201 113.651 91.752 113.21 92.7406 112.467L91.8398 111.268L90.9391 110.069C90.4521 110.434 89.8481 110.651 89.1903 110.651L89.1904 112.151ZM91.8398 111.268H90.3398V118.333H91.8398H93.3398V111.268H91.8398ZM91.8398 118.333L90.3398 118.332C90.3398 118.48 90.22 118.599 90.0736 118.599L90.0742 120.099L90.0749 121.599C91.8784 121.598 93.3396 120.135 93.3398 118.333L91.8398 118.333ZM90.0742 120.099V118.599H75.9443V120.099V121.599H90.0742V120.099ZM75.9443 120.099H74.4443V123.63H75.9443H77.4443V120.099H75.9443ZM75.9443 123.63V125.13C76.0913 125.13 76.2109 125.25 76.2109 125.397H77.7109H79.2109C79.2109 123.593 77.7482 122.13 75.9443 122.13V123.63ZM77.7109 125.397L76.2109 125.397C76.2109 125.543 76.0923 125.663 75.9443 125.663V127.163V128.663C77.7471 128.663 79.2109 127.202 79.2109 125.397L77.7109 125.397ZM75.9443 127.163H74.4443C74.4443 129.261 72.7439 130.961 70.6464 130.961L70.6465 132.461L70.6466 133.961C74.4013 133.961 77.4443 130.917 77.4443 127.163H75.9443ZM70.6465 132.461L70.6466 130.961C68.5488 130.961 66.8477 129.26 66.8477 127.163H65.3477H63.8477C63.8477 130.917 66.8921 133.961 70.6464 133.961L70.6465 132.461ZM65.3477 127.163L65.3481 125.663C65.1996 125.663 65.0811 125.542 65.0811 125.397L63.5811 125.397L62.0811 125.397C62.0811 127.202 63.5454 128.662 65.3472 128.663L65.3477 127.163ZM63.5811 125.397H65.0811C65.0811 125.251 65.2006 125.13 65.3481 125.13L65.3477 123.63L65.3472 122.13C63.5444 122.131 62.0811 123.593 62.0811 125.397H63.5811ZM65.3477 123.63H66.8477V72.4126H65.3477H63.8477V123.63H65.3477ZM65.3477 72.4126L65.4286 70.9148L65.248 70.905L65.167 72.4028L65.086 73.9006L65.2667 73.9104L65.3477 72.4126ZM65.167 72.4028L65.3191 70.9106C65.1852 70.8969 65.0811 70.7815 65.0811 70.646H63.5811H62.0811C62.0811 72.3389 63.3682 73.7273 65.0149 73.8951L65.167 72.4028ZM63.5811 70.646L65.0811 70.6461C65.0811 70.5104 65.1854 70.3951 65.3191 70.3814L65.167 68.8892L65.0149 67.3969C63.3681 67.5647 62.0812 68.9532 62.0811 70.6459L63.5811 70.646ZM65.167 68.8892L65.2399 70.3874L65.4205 70.3786L65.3477 68.8804L65.2748 67.3821L65.0941 67.3909L65.167 68.8892ZM65.3477 68.8804H66.8477C66.8477 68.5491 66.8894 68.2303 66.9672 67.9285L65.5146 67.5542L64.0621 67.1799C63.9215 67.7256 63.8477 68.2959 63.8477 68.8804H65.3477ZM65.5146 67.5542L66.2425 66.2426C63.984 64.9893 62.3162 62.8058 61.7562 60.2157L60.29 60.5327L58.8239 60.8497C59.571 64.3048 61.7908 67.2031 64.7868 68.8658L65.5146 67.5542ZM60.29 60.5327L61.007 59.2152C58.1705 57.6715 56.2501 54.6676 56.25 51.2182L54.75 51.2183L53.25 51.2183C53.2501 55.8104 55.8104 59.8026 59.573 61.8503L60.29 60.5327ZM54.75 51.2183L54.7502 49.7183C51.3003 49.7178 48.2964 47.7976 46.7532 44.9605L45.4355 45.6772L44.1179 46.394C46.1651 50.1577 50.1576 52.7177 54.7498 52.7183L54.75 51.2183ZM45.4355 45.6772L45.7528 44.2112C41.6576 43.3249 38.5893 39.6817 38.5889 35.3236L37.0889 35.3237L35.5889 35.3239C35.5895 41.1254 39.6735 45.965 45.1183 47.1433L45.4355 45.6772ZM37.0889 35.3237L38.5889 35.3237C38.5889 30.9655 41.657 27.3207 45.7528 26.4343L45.4355 24.9683L45.1183 23.5022C39.6723 24.6808 35.5889 29.5224 35.5889 35.3237L37.0889 35.3237ZM45.4355 24.9683L46.7532 25.6851C48.2965 22.8482 51.3005 20.9277 54.7502 20.9272L54.75 19.4272L54.7498 17.9272C50.1577 17.9278 46.1651 20.4881 44.1179 24.2515L45.4355 24.9683ZM54.75 19.4272L56.25 19.4274C56.2503 15.9779 58.171 12.9738 61.0079 11.4304L60.291 10.1128L59.5742 8.79517C55.8111 10.8425 53.2504 14.8349 53.25 19.4271L54.75 19.4272ZM60.291 10.1128L61.7571 10.43C62.6433 6.33426 66.2881 3.26626 70.6465 3.26611L70.6465 1.76611L70.6464 0.266113C64.8453 0.266308 60.0033 4.34939 58.8249 9.79558L60.291 10.1128ZM70.6465 1.76611L70.6062 3.26557L71.1521 3.28022L71.1924 1.78076L71.2326 0.281301L70.6867 0.266653L70.6465 1.76611ZM70.6465 7.06494L70.6464 5.56494C66.892 5.56519 63.8477 8.60913 63.8477 12.3638L65.3477 12.3638L66.8477 12.3638C66.8477 10.2662 68.5488 8.56508 70.6466 8.56494L70.6465 7.06494ZM65.3477 12.3638L63.8477 12.364C63.8478 13.1614 63.9868 13.9285 64.24 14.6406L65.6533 14.1382L67.0667 13.6358C66.9255 13.2385 66.8477 12.8107 66.8477 12.3635L65.3477 12.3638ZM65.6533 14.1382L65.7384 12.6406C65.6103 12.6333 65.4798 12.6294 65.3477 12.6294L65.3477 14.1294L65.3477 15.6294C65.4205 15.6294 65.4942 15.6316 65.5682 15.6358L65.6533 14.1382ZM65.3477 14.1294L65.3475 12.6294C61.5932 12.6297 58.5489 15.6736 58.5488 19.4282L60.0488 19.4282L61.5488 19.4282C61.5488 17.3306 63.2499 15.6295 65.3478 15.6294L65.3477 14.1294ZM60.0488 19.4282L58.5488 19.4284C58.5493 23.1828 61.5936 26.2258 65.3475 26.2261L65.3477 24.7261L65.3478 23.2261C63.25 23.2259 61.5491 21.5253 61.5488 19.428L60.0488 19.4282ZM65.3477 24.7261L65.3477 26.2261C66.1416 26.2261 66.9051 26.0883 67.6143 25.8376L67.1143 24.4233L66.6143 23.0091C66.2184 23.1491 65.7926 23.2261 65.3477 23.2261L65.3477 24.7261ZM67.1143 24.4233H65.6143V31.7905H67.1143H68.6143V24.4233H67.1143ZM67.1143 31.7905V30.2905H59.7461V31.7905V33.2905H67.1143V31.7905ZM59.7461 31.7905L61.1603 32.2904C61.4108 31.5818 61.5488 30.8188 61.5488 30.025L60.0488 30.0249L58.5488 30.0248C58.5488 30.4693 58.4718 30.8946 58.3318 31.2906L59.7461 31.7905ZM60.0488 30.0249L61.5488 30.0249C61.5488 26.2706 58.5059 23.2262 54.751 23.2261L54.751 24.7261L54.7509 26.2261C56.8484 26.2262 58.5488 27.9268 58.5488 30.0249L60.0488 30.0249ZM54.751 24.7261L54.7509 23.2261C50.9965 23.2263 47.9522 26.2703 47.9521 30.0249L49.4521 30.0249L50.9521 30.0249C50.9522 27.9273 52.6533 26.2262 54.7511 26.2261L54.751 24.7261ZM49.4521 30.0249L47.9521 30.025C47.9522 30.1569 47.9561 30.2875 47.9634 30.4157L49.4609 30.3306L50.9585 30.2454C50.9543 30.1716 50.9522 30.0978 50.9521 30.0248L49.4521 30.0249ZM49.4609 30.3306L49.9633 28.9172C49.2513 28.6641 48.4843 28.525 47.6866 28.5249L47.6865 30.0249L47.6864 31.5249C48.1335 31.5249 48.5611 31.6027 48.9586 31.7439L49.4609 30.3306ZM47.6865 30.0249L47.6864 28.5249C43.9321 28.5252 40.8877 31.5691 40.8877 35.3237L42.3877 35.3237L43.8877 35.3237C43.8877 33.2261 45.5888 31.525 47.6866 31.5249L47.6865 30.0249ZM42.3877 35.3237L40.8877 35.324C40.8883 39.0782 43.9325 42.1213 47.6864 42.1216L47.6865 40.6216L47.6866 39.1216C45.5889 39.1214 43.888 37.4208 43.8877 35.3235L42.3877 35.3237ZM47.6865 40.6216L47.6866 42.1216C48.486 42.1215 49.2527 41.9809 49.9634 41.7283L49.4609 40.3149L48.9585 38.9016C48.5595 39.0434 48.132 39.1216 47.6864 39.1216L47.6865 40.6216ZM49.4609 40.3149L47.9634 40.2295C47.956 40.3587 47.9522 40.4897 47.9521 40.6215L49.4521 40.6216L50.9521 40.6217C50.9522 40.548 50.9543 40.4739 50.9585 40.4003L49.4609 40.3149ZM49.4521 40.6216L47.9521 40.6217C47.9524 44.376 50.9966 47.4202 54.7509 47.4204L54.751 45.9204L54.7511 44.4204C52.6535 44.4203 50.9523 42.7191 50.9521 40.6215L49.4521 40.6216ZM54.751 45.9204L54.751 47.4204C58.5059 47.4203 61.5485 44.3756 61.5488 40.6217L60.0488 40.6216L58.5488 40.6215C58.5487 42.7195 56.8481 44.4203 54.7509 44.4204L54.751 45.9204ZM60.0488 40.6216L61.5488 40.6215C61.5488 39.8276 61.4108 39.0646 61.1604 38.3561L59.7461 38.856L58.3318 39.3558C58.4718 39.7519 58.5488 40.1773 58.5488 40.6216L60.0488 40.6216ZM59.7461 38.856V40.356H67.1143V38.856V37.356H59.7461V38.856ZM67.1143 38.856H65.6143V46.2222H67.1143H68.6143V38.856H67.1143ZM67.1143 46.2222L67.6142 44.8079C66.9036 44.5568 66.1399 44.4204 65.3477 44.4204L65.3477 45.9204L65.3477 47.4204C65.7941 47.4204 66.22 47.497 66.6143 47.6364L67.1143 46.2222ZM65.3477 45.9204L65.3475 44.4204C61.5936 44.4207 58.5492 47.4636 58.5488 51.2181L60.0488 51.2183L61.5488 51.2184C61.549 49.1212 63.2499 47.4206 65.3478 47.4204L65.3477 45.9204ZM60.0488 51.2183L58.5488 51.2184C58.5491 54.9726 61.5933 58.0168 65.3475 58.0171L65.3477 56.5171L65.3478 55.0171C63.2502 55.0169 61.549 53.3158 61.5488 51.2181L60.0488 51.2183ZM65.3477 56.5171L65.3477 58.0171C65.4883 58.0171 65.6209 58.0116 65.7384 58.0049L65.6533 56.5073L65.5682 55.0097C65.4837 55.0145 65.412 55.0171 65.3477 55.0171L65.3477 56.5171ZM65.6533 56.5073L64.24 56.0047C63.9864 56.7179 63.8477 57.4861 63.8477 58.2837L65.3477 58.2837L66.8477 58.2837C66.8477 57.8356 66.9254 57.407 67.0666 57.0099L65.6533 56.5073ZM65.3477 58.2837L63.8477 58.2839C63.8482 62.0382 66.8924 65.0813 70.6464 65.0815L70.6465 63.5815L70.6466 62.0815C68.5489 62.0814 66.848 60.3808 66.8477 58.2835L65.3477 58.2837ZM70.6465 63.5815L70.6466 65.0815C74.4009 65.0813 77.4438 62.0378 77.4443 58.2839L75.9443 58.2837L74.4443 58.2835C74.444 60.3811 72.7438 62.0814 70.6464 62.0815L70.6465 63.5815ZM75.9443 58.2837L77.4443 58.2837C77.4443 57.4844 77.3042 56.7165 77.0509 56.0046L75.6377 56.5073L74.2245 57.0101C74.3662 57.4086 74.4443 57.8369 74.4443 58.2837L75.9443 58.2837ZM75.6377 56.5073L75.5522 58.0049C75.6712 58.0117 75.8038 58.0171 75.9441 58.0171L75.9443 56.5171L75.9445 55.0171C75.8792 55.0171 75.8069 55.0145 75.7232 55.0098L75.6377 56.5073ZM75.9443 56.5171V58.0171C79.699 58.0171 82.7429 54.9727 82.7432 51.2184L81.2432 51.2183L79.7432 51.2181C79.743 53.316 78.0419 55.0171 75.9443 55.0171V56.5171ZM81.2432 51.2183L82.7432 51.2181C82.7428 47.4635 79.6986 44.4204 75.9443 44.4204V45.9204V47.4204C78.0422 47.4204 79.743 49.1209 79.7432 51.2184L81.2432 51.2183ZM75.9443 45.9204L75.9442 44.4204C75.1521 44.4205 74.3889 44.5569 73.6789 44.8079L74.1787 46.2222L74.6786 47.6364C75.0729 47.4971 75.4985 47.4205 75.9445 47.4204L75.9443 45.9204ZM74.1787 46.2222H75.6787V38.856H74.1787H72.6787V46.2222H74.1787ZM74.1787 38.856V40.356H81.5459V38.856V37.356H74.1787V38.856ZM81.5459 38.856L80.1316 38.3562C79.8813 39.0646 79.7432 39.8276 79.7432 40.6215L81.2432 40.6216L82.7432 40.6217C82.7432 40.1774 82.8202 39.7519 82.9602 39.3557L81.5459 38.856ZM81.2432 40.6216L79.7432 40.6217C79.7434 44.376 82.7876 47.4202 86.5419 47.4204L86.542 45.9204L86.5421 44.4204C84.4445 44.4203 82.7433 42.7191 82.7432 40.6215L81.2432 40.6216ZM86.542 45.9204L86.5421 47.4204C90.2967 47.4201 93.3396 44.3756 93.3398 40.6217L91.8398 40.6216L90.3398 40.6215C90.3397 42.7194 88.6391 44.4202 86.5419 44.4204L86.542 45.9204ZM91.8398 40.6216L93.3398 40.6215C93.3398 40.481 93.3344 40.3483 93.3276 40.2295L91.8301 40.3149L90.3325 40.4004C90.3373 40.4843 90.3398 40.5565 90.3398 40.6217L91.8398 40.6216ZM91.8301 40.3149L91.3273 41.7282C92.0393 41.9815 92.8073 42.1215 93.6063 42.1216L93.6064 40.6216L93.6065 39.1216C93.1596 39.1216 92.7313 39.0435 92.3329 38.9017L91.8301 40.3149ZM93.6064 40.6216L93.6065 42.1216C97.3609 42.1214 100.404 39.0778 100.404 35.324L98.9043 35.3237L97.4043 35.3235C97.404 37.4212 95.7037 39.1215 93.6064 39.1216L93.6064 40.6216ZM98.9043 35.3237L100.404 35.3237C100.404 31.5694 97.3613 28.5251 93.6065 28.5249L93.6064 30.0249L93.6064 31.5249C95.7038 31.525 97.4043 33.2257 97.4043 35.3237L98.9043 35.3237ZM93.6064 30.0249L93.6063 28.5249C92.8089 28.525 92.0408 28.6635 91.3273 28.9173L91.8301 30.3306L92.3328 31.7438C92.7297 31.6026 93.1581 31.5249 93.6065 31.5249L93.6064 30.0249ZM91.8301 30.3306L93.3277 30.4158C93.3344 30.298 93.3398 30.1655 93.3398 30.0251L91.8398 30.0249L90.3398 30.0247C90.3398 30.0893 90.3373 30.1611 90.3325 30.2454L91.8301 30.3306ZM91.8398 30.0249L93.3398 30.0249C93.3398 26.2706 90.2967 23.2264 86.5421 23.2261L86.542 24.7261L86.5419 26.2261C88.6393 26.2263 90.3398 27.927 90.3398 30.0249L91.8398 30.0249ZM86.542 24.7261L86.5419 23.2261C82.7876 23.2263 79.7432 26.2703 79.7432 30.0249L81.2432 30.0249L82.7432 30.0249C82.7432 27.9273 84.4443 26.2262 86.5421 26.2261L86.542 24.7261ZM81.2432 30.0249L79.7432 30.025C79.7432 30.8188 79.8812 31.5819 80.1316 32.2903L81.5459 31.7905L82.9602 31.2907C82.8202 30.8947 82.7432 30.4691 82.7432 30.0248L81.2432 30.0249ZM81.5459 31.7905V30.2905H74.1787V31.7905V33.2905H81.5459V31.7905ZM74.1787 31.7905H75.6787V24.4233H74.1787H72.6787V31.7905H74.1787ZM74.1787 24.4233L73.6788 25.8376C74.3874 26.0881 75.1505 26.226 75.9442 26.2261L75.9443 24.7261L75.9445 23.2261C75.5 23.226 75.0745 23.149 74.6786 23.0091L74.1787 24.4233ZM75.9443 24.7261V26.2261C79.6986 26.2261 82.7427 23.1828 82.7432 19.4284L81.2432 19.4282L79.7432 19.428C79.7429 21.5255 78.0421 23.2261 75.9443 23.2261V24.7261ZM81.2432 19.4282L82.7432 19.4282C82.7431 15.6736 79.699 12.6294 75.9443 12.6294V14.1294V15.6294C78.0421 15.6294 79.7431 17.3304 79.7432 19.4282L81.2432 19.4282ZM75.9443 14.1294L75.9442 12.6294C75.8125 12.6294 75.6816 12.6332 75.5522 12.6406L75.6377 14.1382L75.7232 15.6357C75.7965 15.6316 75.8706 15.6294 75.9445 15.6294L75.9443 14.1294ZM75.6377 14.1382L77.051 14.6407C77.3038 13.9299 77.4442 13.1631 77.4443 12.364L75.9443 12.3638L74.4443 12.3635C74.4443 12.8094 74.3662 13.2369 74.2244 13.6356L75.6377 14.1382ZM75.9443 12.3638L77.4443 12.3638C77.4443 8.60949 74.4013 5.56518 70.6466 5.56494L70.6465 7.06494L70.6464 8.56494C72.7439 8.56507 74.4443 10.2658 74.4443 12.3638L75.9443 12.3638Z" fill="#0088FF" mask="url(#path-1-outside-1_165_491)"/>
</svg>