<svg xmlns="http://www.w3.org/2000/svg" width="140" height="140" viewBox="0 0 140 140" fill="none">
<mask id="path-1-outside-1_165_578" maskUnits="userSpaceOnUse" x="27.1426" y="16.5447" width="85" height="96" fill="black">
<rect fill="white" x="27.1426" y="16.5447" width="85" height="96"/>
<path d="M70.3105 18.5564C75.0229 18.7955 78.7694 22.692 78.7695 27.4636C78.7694 28.7824 78.4815 30.0336 77.9678 31.1599C83.5903 34.1146 87.4256 40.0101 87.4258 46.8025L87.416 47.4109C87.3448 49.5079 86.9036 51.5117 86.1621 53.3621C88.1916 52.5494 90.4066 52.1013 92.7246 52.1013C102.326 52.1016 110.138 59.7634 110.38 69.3064L110.386 69.7625C110.386 79.5165 102.479 87.4233 92.7246 87.4236C90.4061 87.4236 88.1917 86.974 86.1621 86.1609C86.904 88.0118 87.3447 90.0164 87.416 92.114L87.4258 92.7224C87.4258 102.476 79.5186 110.383 69.7646 110.384C60.163 110.384 52.3503 102.722 52.1084 93.1785L52.1025 92.7224C52.1026 90.4044 52.5513 88.19 53.3643 86.1609C51.3356 86.9736 49.1224 87.4235 46.8047 87.4236C37.203 87.4236 29.3904 79.762 29.1484 70.2185L29.1426 69.7625C29.1429 60.0084 37.0507 52.1013 46.8047 52.1013C49.122 52.1014 51.3356 52.5497 53.3643 53.3621C52.6231 51.5118 52.1835 49.5076 52.1123 47.4109L52.1025 46.8025C52.1027 39.9533 56.0017 34.0144 61.7012 31.0847C61.2086 29.978 60.9327 28.7532 60.9326 27.4636C60.9327 22.538 64.9261 18.545 69.8516 18.5447L70.3105 18.5564ZM76.3242 63.2009C74.2956 64.0137 72.0823 64.4636 69.7646 64.4636C67.4461 64.4636 65.2317 64.0141 63.2021 63.2009C63.944 65.0518 64.3848 67.0565 64.4561 69.1541L64.4658 69.7625C64.4658 72.0802 64.0151 74.2935 63.2021 76.322C65.2317 75.5093 67.4466 75.0613 69.7646 75.0613C72.0819 75.0613 74.2956 75.5097 76.3242 76.322C75.5119 74.2934 75.0635 72.0798 75.0635 69.7625L75.0732 69.1541C75.1444 67.0569 75.583 65.0518 76.3242 63.2009ZM69.8506 23.489C67.6564 23.4895 65.8773 25.2686 65.877 27.4626C65.877 28.1904 66.0734 28.872 66.415 29.4587C67.4996 29.2505 68.6194 29.1414 69.7646 29.1414C70.9644 29.1414 72.136 29.262 73.2686 29.49C73.6216 28.8963 73.8252 28.2033 73.8252 27.4626C73.8248 25.2684 72.0452 23.489 69.8506 23.489Z"/>
</mask>
<path d="M70.3105 18.5564C75.0229 18.7955 78.7694 22.692 78.7695 27.4636C78.7694 28.7824 78.4815 30.0336 77.9678 31.1599C83.5903 34.1146 87.4256 40.0101 87.4258 46.8025L87.416 47.4109C87.3448 49.5079 86.9036 51.5117 86.1621 53.3621C88.1916 52.5494 90.4066 52.1013 92.7246 52.1013C102.326 52.1016 110.138 59.7634 110.38 69.3064L110.386 69.7625C110.386 79.5165 102.479 87.4233 92.7246 87.4236C90.4061 87.4236 88.1917 86.974 86.1621 86.1609C86.904 88.0118 87.3447 90.0164 87.416 92.114L87.4258 92.7224C87.4258 102.476 79.5186 110.383 69.7646 110.384C60.163 110.384 52.3503 102.722 52.1084 93.1785L52.1025 92.7224C52.1026 90.4044 52.5513 88.19 53.3643 86.1609C51.3356 86.9736 49.1224 87.4235 46.8047 87.4236C37.203 87.4236 29.3904 79.762 29.1484 70.2185L29.1426 69.7625C29.1429 60.0084 37.0507 52.1013 46.8047 52.1013C49.122 52.1014 51.3356 52.5497 53.3643 53.3621C52.6231 51.5118 52.1835 49.5076 52.1123 47.4109L52.1025 46.8025C52.1027 39.9533 56.0017 34.0144 61.7012 31.0847C61.2086 29.978 60.9327 28.7532 60.9326 27.4636C60.9327 22.538 64.9261 18.545 69.8516 18.5447L70.3105 18.5564ZM76.3242 63.2009C74.2956 64.0137 72.0823 64.4636 69.7646 64.4636C67.4461 64.4636 65.2317 64.0141 63.2021 63.2009C63.944 65.0518 64.3848 67.0565 64.4561 69.1541L64.4658 69.7625C64.4658 72.0802 64.0151 74.2935 63.2021 76.322C65.2317 75.5093 67.4466 75.0613 69.7646 75.0613C72.0819 75.0613 74.2956 75.5097 76.3242 76.322C75.5119 74.2934 75.0635 72.0798 75.0635 69.7625L75.0732 69.1541C75.1444 67.0569 75.583 65.0518 76.3242 63.2009ZM69.8506 23.489C67.6564 23.4895 65.8773 25.2686 65.877 27.4626C65.877 28.1904 66.0734 28.872 66.415 29.4587C67.4996 29.2505 68.6194 29.1414 69.7646 29.1414C70.9644 29.1414 72.136 29.262 73.2686 29.49C73.6216 28.8963 73.8252 28.2033 73.8252 27.4626C73.8248 25.2684 72.0452 23.489 69.8506 23.489Z" fill="#DFE6EF"/>
<path d="M70.3105 18.5564L70.3866 17.0583L70.3677 17.0574L70.3488 17.0569L70.3105 18.5564ZM78.7695 27.4636L80.2695 27.4637V27.4636L78.7695 27.4636ZM77.9678 31.1599L76.6031 30.5374L76.0144 31.8279L77.27 32.4877L77.9678 31.1599ZM87.4258 46.8025L88.9256 46.8266L88.9258 46.8145V46.8024L87.4258 46.8025ZM87.416 47.4109L88.9151 47.4618L88.9156 47.4484L88.9158 47.435L87.416 47.4109ZM86.1621 53.3621L84.7698 52.8041L83.4659 56.0575L86.7197 54.7546L86.1621 53.3621ZM92.7246 52.1013L92.7247 50.6013H92.7246V52.1013ZM110.38 69.3064L111.88 69.2871L111.88 69.2777L111.879 69.2683L110.38 69.3064ZM110.386 69.7625H111.886V69.7528L111.886 69.7432L110.386 69.7625ZM92.7246 87.4236V88.9236H92.7247L92.7246 87.4236ZM86.1621 86.1609L86.72 84.7685L83.4653 83.4645L84.7698 86.719L86.1621 86.1609ZM87.416 92.114L88.9158 92.0899L88.9156 92.0765L88.9151 92.0631L87.416 92.114ZM87.4258 92.7224H88.9258V92.7104L88.9256 92.6983L87.4258 92.7224ZM69.7646 110.384V111.884H69.7647L69.7646 110.384ZM52.1084 93.1785L50.6085 93.1977L50.6086 93.2071L50.6089 93.2165L52.1084 93.1785ZM52.1025 92.7224L50.6025 92.7224V92.732L50.6027 92.7417L52.1025 92.7224ZM53.3643 86.1609L54.7567 86.7187L56.0603 83.4649L52.8064 84.7685L53.3643 86.1609ZM46.8047 87.4236V88.9236H46.8047L46.8047 87.4236ZM29.1484 70.2185L27.6486 70.2378L27.6487 70.2471L27.6489 70.2565L29.1484 70.2185ZM29.1426 69.7625L27.6426 69.7624L27.6426 69.7721L27.6427 69.7817L29.1426 69.7625ZM46.8047 52.1013L46.8047 50.6013H46.8047V52.1013ZM53.3643 53.3621L52.8066 54.7546L56.0597 56.0572L54.7567 52.8043L53.3643 53.3621ZM52.1123 47.4109L50.6125 47.435L50.6127 47.4484L50.6132 47.4618L52.1123 47.4109ZM52.1025 46.8025L50.6025 46.8024V46.8145L50.6027 46.8266L52.1025 46.8025ZM61.7012 31.0847L62.3869 32.4188L63.6483 31.7704L63.0716 30.4748L61.7012 31.0847ZM60.9326 27.4636L59.4326 27.4636V27.4637L60.9326 27.4636ZM69.8516 18.5447L69.8898 17.0452L69.8707 17.0447L69.8515 17.0447L69.8516 18.5447ZM76.3242 63.2009L77.7167 63.7586L79.0197 60.5052L75.7664 61.8085L76.3242 63.2009ZM69.7646 64.4636V65.9636H69.7647L69.7646 64.4636ZM63.2021 63.2009L63.76 61.8085L60.5054 60.5046L61.8098 63.759L63.2021 63.2009ZM64.4561 69.1541L65.9559 69.13L65.9556 69.1165L65.9552 69.1031L64.4561 69.1541ZM64.4658 69.7625H65.9658V69.7504L65.9656 69.7384L64.4658 69.7625ZM63.2021 76.322L61.8098 75.764L60.506 79.0175L63.7598 77.7145L63.2021 76.322ZM69.7646 75.0613L69.7647 73.5613H69.7646V75.0613ZM76.3242 76.322L75.7666 77.7145L79.0191 79.017L77.7167 75.7644L76.3242 76.322ZM75.0635 69.7625L73.5637 69.7384L73.5635 69.7504V69.7625H75.0635ZM75.0732 69.1541L73.5741 69.1032L73.5737 69.1166L73.5734 69.13L75.0732 69.1541ZM69.8506 23.489V21.989H69.8503L69.8506 23.489ZM65.877 27.4626L64.377 27.4624V27.4626H65.877ZM66.415 29.4587L65.1187 30.2134L65.6537 31.1323L66.6978 30.9318L66.415 29.4587ZM69.7646 29.1414L69.7647 27.6414H69.7646V29.1414ZM73.2686 29.49L72.9725 30.9605L74.0146 31.1703L74.5579 30.2566L73.2686 29.49ZM73.8252 27.4626H75.3252V27.4624L73.8252 27.4626ZM70.3105 18.5564L70.2345 20.0545C74.153 20.2533 77.2694 23.4948 77.2695 27.4637L78.7695 27.4636L80.2695 27.4636C80.2694 21.8892 75.8928 17.3377 70.3866 17.0583L70.3105 18.5564ZM78.7695 27.4636L77.2695 27.4635C77.2695 28.5619 77.03 29.6013 76.6031 30.5374L77.9678 31.1599L79.3325 31.7824C79.933 30.4659 80.2694 29.0029 80.2695 27.4637L78.7695 27.4636ZM77.9678 31.1599L77.27 32.4877C82.419 35.1936 85.9256 40.5893 85.9258 46.8025L87.4258 46.8025L88.9258 46.8024C88.9256 39.4308 84.7615 33.0356 78.6656 29.8321L77.9678 31.1599ZM87.4258 46.8025L85.926 46.7784L85.9162 47.3868L87.416 47.4109L88.9158 47.435L88.9256 46.8266L87.4258 46.8025ZM87.416 47.4109L85.9169 47.36C85.8517 49.2782 85.4484 51.1108 84.7698 52.8041L86.1621 53.3621L87.5545 53.9201C88.3589 51.9127 88.8379 49.7375 88.9151 47.4618L87.416 47.4109ZM86.1621 53.3621L86.7197 54.7546C88.5754 54.0115 90.6013 53.6013 92.7246 53.6013V52.1013V50.6013C90.2118 50.6013 87.8079 51.0872 85.6045 51.9696L86.1621 53.3621ZM92.7246 52.1013L92.7246 53.6013C101.51 53.6016 108.659 60.6127 108.88 69.3445L110.38 69.3064L111.879 69.2683C111.617 58.9141 103.142 50.6016 92.7247 50.6013L92.7246 52.1013ZM110.38 69.3064L108.88 69.3257L108.886 69.7817L110.386 69.7625L111.886 69.7432L111.88 69.2871L110.38 69.3064ZM110.386 69.7625H108.886C108.886 78.688 101.65 85.9233 92.7246 85.9236L92.7246 87.4236L92.7247 88.9236C103.307 88.9233 111.886 80.345 111.886 69.7625H110.386ZM92.7246 87.4236V85.9236C90.6015 85.9236 88.5762 85.5122 86.72 84.7685L86.1621 86.1609L85.6042 87.5533C87.8072 88.4359 90.2106 88.9236 92.7246 88.9236V87.4236ZM86.1621 86.1609L84.7698 86.719C85.4486 88.4125 85.8517 90.2458 85.9169 92.1649L87.416 92.114L88.9151 92.0631C88.8378 89.787 88.3594 87.611 87.5544 85.6028L86.1621 86.1609ZM87.416 92.114L85.9162 92.1381L85.926 92.7465L87.4258 92.7224L88.9256 92.6983L88.9158 92.0899L87.416 92.114ZM87.4258 92.7224H85.9258C85.9258 101.648 78.6902 108.883 69.7646 108.884L69.7646 110.384L69.7647 111.884C80.347 111.883 88.9258 103.305 88.9258 92.7224H87.4258ZM69.7646 110.384V108.884C60.9786 108.884 53.8293 101.873 53.6079 93.1405L52.1084 93.1785L50.6089 93.2165C50.8714 103.571 59.3474 111.884 69.7646 111.884V110.384ZM52.1084 93.1785L53.6083 93.1592L53.6024 92.7031L52.1025 92.7224L50.6027 92.7417L50.6085 93.1977L52.1084 93.1785ZM52.1025 92.7224L53.6025 92.7225C53.6026 90.5995 54.0133 88.5741 54.7567 86.7187L53.3643 86.1609L51.9718 85.603C51.0893 87.8058 50.6026 90.2094 50.6025 92.7224L52.1025 92.7224ZM53.3643 86.1609L52.8064 84.7685C50.9509 85.5119 48.9267 85.9235 46.8046 85.9236L46.8047 87.4236L46.8047 88.9236C49.3181 88.9235 51.7203 88.4354 53.9221 87.5533L53.3643 86.1609ZM46.8047 87.4236V85.9236C38.0186 85.9236 30.8693 78.9126 30.648 70.1805L29.1484 70.2185L27.6489 70.2565C27.9114 80.6114 36.3874 88.9236 46.8047 88.9236V87.4236ZM29.1484 70.2185L30.6483 70.1992L30.6425 69.7432L29.1426 69.7625L27.6427 69.7817L27.6486 70.2378L29.1484 70.2185ZM29.1426 69.7625L30.6426 69.7625C30.6428 60.837 37.8791 53.6013 46.8047 53.6013V52.1013V50.6013C36.2224 50.6013 27.6429 59.1799 27.6426 69.7624L29.1426 69.7625ZM46.8047 52.1013L46.8046 53.6013C48.927 53.6014 50.9516 54.0117 52.8066 54.7546L53.3643 53.3621L53.9219 51.9696C51.7196 51.0877 49.3169 50.6014 46.8047 50.6013L46.8047 52.1013ZM53.3643 53.3621L54.7567 52.8043C54.0786 51.1116 53.6766 49.2787 53.6114 47.36L52.1123 47.4109L50.6132 47.4618C50.6904 49.7364 51.1675 51.9119 51.9718 53.9198L53.3643 53.3621ZM52.1123 47.4109L53.6121 47.3868L53.6023 46.7784L52.1025 46.8025L50.6027 46.8266L50.6125 47.435L52.1123 47.4109ZM52.1025 46.8025L53.6025 46.8025C53.6027 40.5372 57.1678 35.1015 62.3869 32.4188L61.7012 31.0847L61.0154 29.7506C54.8356 32.9272 50.6027 39.3695 50.6025 46.8024L52.1025 46.8025ZM61.7012 31.0847L63.0716 30.4748C62.662 29.5546 62.4327 28.5372 62.4326 27.4635L60.9326 27.4636L59.4326 27.4637C59.4327 28.9693 59.7551 30.4013 60.3308 31.6947L61.7012 31.0847ZM60.9326 27.4636L62.4326 27.4637C62.4327 23.3665 65.7545 20.045 69.8517 20.0447L69.8516 18.5447L69.8515 17.0447C64.0978 17.0451 59.4327 21.7095 59.4326 27.4636L60.9326 27.4636ZM69.8516 18.5447L69.8133 20.0442L70.2723 20.0559L70.3105 18.5564L70.3488 17.0569L69.8898 17.0452L69.8516 18.5447ZM76.3242 63.2009L75.7664 61.8085C73.9108 62.5519 71.8866 62.9636 69.7646 62.9636L69.7646 64.4636L69.7647 65.9636C72.278 65.9635 74.6803 65.4754 76.8821 64.5933L76.3242 63.2009ZM69.7646 64.4636V62.9636C67.6416 62.9636 65.6163 62.5522 63.76 61.8085L63.2021 63.2009L62.6443 64.5933C64.8472 65.4759 67.2507 65.9636 69.7646 65.9636V64.4636ZM63.2021 63.2009L61.8098 63.759C62.4886 65.4525 62.8917 67.2859 62.9569 69.205L64.4561 69.1541L65.9552 69.1031C65.8779 66.8271 65.3994 64.6511 64.5945 62.6429L63.2021 63.2009ZM64.4561 69.1541L62.9562 69.1781L62.966 69.7865L64.4658 69.7625L65.9656 69.7384L65.9559 69.13L64.4561 69.1541ZM64.4658 69.7625H62.9658C62.9658 71.8842 62.5535 73.9084 61.8098 75.764L63.2021 76.322L64.5945 76.88C65.4767 74.6786 65.9658 72.2763 65.9658 69.7625H64.4658ZM63.2021 76.322L63.7598 77.7145C65.6154 76.9715 67.6414 76.5613 69.7646 76.5613V75.0613V73.5613C67.2519 73.5613 64.8479 74.0472 62.6445 74.9295L63.2021 76.322ZM69.7646 75.0613L69.7646 76.5613C71.8869 76.5613 73.9116 76.9717 75.7666 77.7145L76.3242 76.322L76.8818 74.9295C74.6795 74.0476 72.2769 73.5614 69.7647 73.5613L69.7646 75.0613ZM76.3242 76.322L77.7167 75.7644C76.9739 73.9094 76.5635 71.8848 76.5635 69.7625H75.0635H73.5635C73.5635 72.2748 74.0499 74.6774 74.9317 76.8796L76.3242 76.322ZM75.0635 69.7625L76.5633 69.7865L76.573 69.1781L75.0732 69.1541L73.5734 69.13L73.5637 69.7384L75.0635 69.7625ZM75.0732 69.1541L76.5724 69.2049C76.6375 67.2852 77.0388 65.4514 77.7167 63.7586L76.3242 63.2009L74.9317 62.6433C74.1272 64.6522 73.6512 66.8286 73.5741 69.1032L75.0732 69.1541ZM69.8506 23.489L69.8503 21.989C66.828 21.9896 64.3774 24.4401 64.377 27.4624L65.877 27.4626L67.377 27.4629C67.3772 26.0971 68.4849 24.9893 69.8509 24.989L69.8506 23.489ZM65.877 27.4626H64.377C64.377 28.464 64.6481 29.405 65.1187 30.2134L66.415 29.4587L67.7113 28.704C67.4988 28.339 67.377 27.9167 67.377 27.4626H65.877ZM66.415 29.4587L66.6978 30.9318C67.6898 30.7414 68.7149 30.6414 69.7646 30.6414V29.1414V27.6414C68.5238 27.6414 67.3094 27.7597 66.1322 27.9856L66.415 29.4587ZM69.7646 29.1414L69.7646 30.6414C70.8636 30.6414 71.9361 30.7518 72.9725 30.9605L73.2686 29.49L73.5646 28.0195C72.3359 27.7721 71.0652 27.6414 69.7647 27.6414L69.7646 29.1414ZM73.2686 29.49L74.5579 30.2566C75.0441 29.4387 75.3252 28.4821 75.3252 27.4626H73.8252H72.3252C72.3252 27.9246 72.199 28.3538 71.9792 28.7234L73.2686 29.49ZM73.8252 27.4626L75.3252 27.4624C75.3247 24.4397 72.8734 21.989 69.8506 21.989V23.489V24.989C71.2169 24.989 72.325 26.097 72.3252 27.4629L73.8252 27.4626Z" fill="#0088FF" mask="url(#path-1-outside-1_165_578)"/>
</svg>