<svg xmlns="http://www.w3.org/2000/svg" width="49" height="47" viewBox="0 0 49 47" fill="none">
<circle cx="24.8563" cy="23.4539" r="20.8682" transform="rotate(5.92859 24.8563 23.4539)" fill="white" fill-opacity="0.74" stroke="#0088FF" stroke-width="0.69"/>
<circle cx="24.8557" cy="23.4533" r="17.2849" transform="rotate(5.92859 24.8557 23.4533)" fill="url(#paint0_linear_189_329)"/>
<ellipse cx="10.1666" cy="6.674" rx="10.1666" ry="6.674" transform="matrix(0.972293 -0.233766 0.222691 0.974889 16.4222 28.5938)" fill="url(#paint1_linear_189_329)" fill-opacity="0.54"/>
<ellipse cx="6.24516" cy="11.8803" rx="6.24516" ry="11.8803" transform="matrix(0.874019 0.485891 -0.474387 0.880316 13.0599 4.06152)" fill="url(#paint2_linear_189_329)"/>
<ellipse cx="14.7468" cy="28.679" rx="2.27203" ry="2.31417" transform="rotate(5.92859 14.7468 28.679)" fill="white" fill-opacity="0.69"/>
<rect width="6.78823" height="6.78823" transform="matrix(0.623128 0.78212 -0.770537 0.637395 32.3607 14.8486)" fill="white"/>
<defs>
<linearGradient id="paint0_linear_189_329" x1="15.7547" y1="38.0573" x2="33.3923" y2="7.93223" gradientUnits="userSpaceOnUse">
<stop stop-color="#D1DBE8" stop-opacity="0.76"/>
<stop offset="0.826923" stop-color="white"/>
</linearGradient>
<linearGradient id="paint1_linear_189_329" x1="10.1666" y1="0" x2="10.1666" y2="13.348" gradientUnits="userSpaceOnUse">
<stop stop-color="#0087FF" stop-opacity="0"/>
<stop offset="1" stop-color="#357FFF" stop-opacity="0.39"/>
</linearGradient>
<linearGradient id="paint2_linear_189_329" x1="6.24516" y1="0" x2="6.24516" y2="23.7606" gradientUnits="userSpaceOnUse">
<stop stop-color="#EEDFFF" stop-opacity="0.69"/>
<stop offset="0.6875" stop-color="#7EC3FF" stop-opacity="0"/>
</linearGradient>
</defs>
</svg>