<svg xmlns="http://www.w3.org/2000/svg" width="49" height="47" viewBox="0 0 49 47" fill="none">
<circle cx="24.8561" cy="23.4537" r="20.8689" transform="rotate(5.92859 24.8561 23.4537)" fill="white" fill-opacity="0.75" stroke="#0088FF" stroke-width="0.69"/>
<circle cx="24.8563" cy="23.4539" r="17.2854" transform="rotate(5.92859 24.8563 23.4539)" fill="url(#paint0_linear_189_396)"/>
<ellipse cx="10.1669" cy="6.67422" rx="10.1669" ry="6.67422" transform="matrix(0.972293 -0.233766 0.222691 0.974889 16.4233 28.5938)" fill="url(#paint1_linear_189_396)" fill-opacity="0.54"/>
<ellipse cx="6.24537" cy="11.8807" rx="6.24537" ry="11.8807" transform="matrix(0.874019 0.485891 -0.474387 0.880316 13.0601 4.06055)" fill="url(#paint2_linear_189_396)"/>
<ellipse cx="14.7489" cy="28.6811" rx="2.2721" ry="2.31425" transform="rotate(5.92859 14.7489 28.6811)" fill="white" fill-opacity="0.69"/>
<rect width="4.65128" height="4.65128" transform="matrix(0.623128 0.78212 -0.770537 0.637395 31.9507 17.0811)" fill="white"/>
<defs>
<linearGradient id="paint0_linear_189_396" x1="15.755" y1="38.0584" x2="33.3932" y2="7.93234" gradientUnits="userSpaceOnUse">
<stop stop-color="#F0DFE9" stop-opacity="0.75"/>
<stop offset="0.826923" stop-color="white" stop-opacity="0.75"/>
</linearGradient>
<linearGradient id="paint1_linear_189_396" x1="10.1669" y1="0" x2="10.1669" y2="13.3484" gradientUnits="userSpaceOnUse">
<stop stop-color="#FFCE3A" stop-opacity="0"/>
<stop offset="1" stop-color="#E435FF" stop-opacity="0.39"/>
</linearGradient>
<linearGradient id="paint2_linear_189_396" x1="6.24537" y1="0" x2="6.24537" y2="23.7614" gradientUnits="userSpaceOnUse">
<stop stop-color="#FAF4FF" stop-opacity="0.69"/>
<stop offset="0.6875" stop-color="#7EE7FF" stop-opacity="0"/>
</linearGradient>
</defs>
</svg>