<svg xmlns="http://www.w3.org/2000/svg" width="49" height="85" viewBox="0 0 49 85" fill="none">
<mask id="path-1-outside-1_193_432" maskUnits="userSpaceOnUse" x="-1.08611" y="-1.06631" width="50.6622" height="86.892" fill="black">
<rect fill="white" x="-1.08611" y="-1.06631" width="50.6622" height="86.892"/>
<path d="M27.1979 1.48591C30.6173 1.72164 33.3348 4.23246 33.9801 7.43641C35.7946 8.73503 36.9859 10.8229 37.0875 13.1604C39.3895 13.5808 41.2928 15.0482 42.3308 17.0227C45.4188 18.1006 47.5329 21.1392 47.2977 24.5584C47.0619 27.978 44.5509 30.696 41.3452 31.3404C40.0465 33.1547 37.9605 34.3468 35.6222 34.4479C35.2017 36.7503 33.735 38.6533 31.7599 39.6911C31.0784 41.6435 29.6128 43.2052 27.7629 44.0314C28.2573 44.1638 28.6045 44.6318 28.5681 45.1616C28.5266 45.7632 28.0055 46.2172 27.4039 46.1759L26.429 60.3386L34.8485 60.9182C35.6134 60.9709 36.1912 61.634 36.1386 62.399L35.8587 66.4645C35.4269 66.0906 34.8762 65.8468 34.2626 65.8045C33.3621 65.7426 32.5351 66.1257 31.993 66.7652L29.9836 64.4146L25.8999 68.0392L29.4485 72.1892L31.8287 70.0762C32.2845 70.7367 33.0248 71.1921 33.8876 71.2516C34.5014 71.2938 35.0802 71.1268 35.5592 70.8156L35.2793 74.8811C35.2266 75.6459 34.5634 76.2238 33.7986 76.1712L25.3791 75.5916L25.2291 77.7701L25.3398 77.7835C25.8852 77.8772 26.2821 78.3702 26.2433 78.9342C26.2045 79.4983 25.7437 79.9333 25.1906 79.9513L25.0792 79.9485C24.9549 81.7533 23.3913 83.1162 21.5865 82.9922C19.8379 82.8718 18.504 81.4002 18.5352 79.6674L18.5429 79.4986L18.5419 79.4985C17.9404 79.4569 17.4863 78.9358 17.5276 78.3343C17.5691 77.7327 18.0903 77.2788 18.6918 77.3201L18.6928 77.3201L20.8676 45.7259L20.7569 45.7125C20.2112 45.619 19.8146 45.1259 19.8533 44.5617C19.8898 44.0316 20.2985 43.6155 20.8067 43.5526C19.0878 42.4807 17.8497 40.7328 17.4422 38.7056C15.6285 37.4068 14.4357 35.3204 14.3347 32.9826C12.0333 32.5615 10.1282 31.0954 9.0905 29.1202C6.00527 28.0418 3.89039 25.006 4.12542 21.5866C4.36089 18.1678 6.87131 15.449 10.076 14.8035C11.3746 12.989 13.4625 11.7968 15.8 11.6951C16.221 9.39355 17.6882 7.48873 19.6634 6.45092C20.7419 3.36487 23.7791 1.2508 27.1979 1.48591Z"/>
</mask>
<path d="M27.1979 1.48591L27.2457 0.79338L27.2456 0.793372L27.1979 1.48591ZM33.9801 7.43641L33.2996 7.57348L33.3536 7.84168L33.5761 8.0009L33.9801 7.43641ZM37.0875 13.1604L36.394 13.1906L36.4181 13.7438L36.9628 13.8433L37.0875 13.1604ZM42.3308 17.0227L41.7163 17.3457L41.8437 17.588L42.102 17.6781L42.3308 17.0227ZM47.2977 24.5584L47.9902 24.6061L47.9902 24.606L47.2977 24.5584ZM41.3452 31.3404L41.2084 30.6599L40.9401 30.7138L40.7808 30.9364L41.3452 31.3404ZM35.6222 34.4479L35.5922 33.7544L35.0389 33.7783L34.9393 34.3232L35.6222 34.4479ZM31.7599 39.6911L31.437 39.0766L31.1947 39.204L31.1045 39.4624L31.7599 39.6911ZM27.7629 44.0314L27.4798 43.3976L25.6928 44.1957L27.5834 44.7019L27.7629 44.0314ZM28.5681 45.1616L29.2606 45.2094L29.2606 45.2093L28.5681 45.1616ZM27.4039 46.1759L27.4515 45.4833L26.759 45.4357L26.7113 46.1282L27.4039 46.1759ZM26.429 60.3386L25.7365 60.291L25.6888 60.9835L26.3813 61.0312L26.429 60.3386ZM34.8485 60.9182L34.8962 60.2257L34.8962 60.2257L34.8485 60.9182ZM35.8587 66.4645L35.4043 66.9893L36.4557 67.8997L36.5512 66.5122L35.8587 66.4645ZM34.2626 65.8045L34.3102 65.112L34.3102 65.112L34.2626 65.8045ZM31.993 66.7652L31.4653 67.2163L31.9952 67.8361L32.5225 67.2141L31.993 66.7652ZM29.9836 64.4146L30.5113 63.9636L30.0518 63.426L29.5228 63.8955L29.9836 64.4146ZM25.8999 68.0392L25.4391 67.5201L24.9294 67.9724L25.3723 68.4904L25.8999 68.0392ZM29.4485 72.1892L28.9209 72.6403L29.3805 73.1778L29.9093 72.7083L29.4485 72.1892ZM31.8287 70.0762L32.4 69.6819L31.9545 69.0363L31.3679 69.5571L31.8287 70.0762ZM33.8876 71.2516L33.8399 71.9441L33.84 71.9441L33.8876 71.2516ZM35.5592 70.8156L36.2517 70.8632L36.3472 69.4756L35.181 70.2335L35.5592 70.8156ZM35.2793 74.8811L35.9719 74.9289L35.9719 74.9288L35.2793 74.8811ZM33.7986 76.1712L33.7509 76.8637L33.7509 76.8637L33.7986 76.1712ZM25.3791 75.5916L25.4267 74.8991L24.7342 74.8514L24.6865 75.5439L25.3791 75.5916ZM25.2291 77.7701L24.5366 77.7224L24.4913 78.3794L25.1451 78.4591L25.2291 77.7701ZM25.3398 77.7835L25.4572 77.0994L25.4406 77.0965L25.4238 77.0945L25.3398 77.7835ZM26.2433 78.9342L26.9359 78.982L26.9359 78.9819L26.2433 78.9342ZM25.1906 79.9513L25.1733 80.6452L25.1932 80.6457L25.2131 80.6451L25.1906 79.9513ZM25.0792 79.9485L25.0964 79.2545L24.4323 79.238L24.3866 79.9008L25.0792 79.9485ZM21.5865 82.9922L21.5388 83.6847L21.5389 83.6847L21.5865 82.9922ZM18.5352 79.6674L17.8417 79.6357L17.8413 79.6453L17.8411 79.6549L18.5352 79.6674ZM18.5429 79.4986L19.2363 79.5302L19.2672 78.8526L18.5905 78.806L18.5429 79.4986ZM18.5419 79.4985L18.494 80.191L18.4942 80.191L18.5419 79.4985ZM17.5276 78.3343L16.8351 78.2866L16.8351 78.2867L17.5276 78.3343ZM18.6918 77.3201L18.7395 76.6275L18.7393 76.6275L18.6918 77.3201ZM18.6928 77.3201L18.6451 78.0127L19.3377 78.0603L19.3853 77.3678L18.6928 77.3201ZM20.8676 45.7259L21.5601 45.7736L21.6054 45.1166L20.9516 45.0369L20.8676 45.7259ZM20.7569 45.7125L20.6398 46.3967L20.6563 46.3995L20.6729 46.4015L20.7569 45.7125ZM19.8533 44.5617L19.1608 44.5141L19.1608 44.5141L19.8533 44.5617ZM20.8067 43.5526L20.8921 44.2415L22.8371 44.0005L21.174 42.9635L20.8067 43.5526ZM17.4422 38.7056L18.1228 38.5688L18.0688 38.3005L17.8463 38.1412L17.4422 38.7056ZM14.3347 32.9826L15.0282 32.9526L15.0043 32.3994L14.4596 32.2997L14.3347 32.9826ZM9.0905 29.1202L9.70502 28.7973L9.57779 28.5551L9.31953 28.4649L9.0905 29.1202ZM4.12542 21.5866L3.43289 21.5389L3.43288 21.539L4.12542 21.5866ZM10.076 14.8035L10.2131 15.484L10.4813 15.4299L10.6405 15.2075L10.076 14.8035ZM15.8 11.6951L15.8302 12.3886L16.3833 12.3645L16.4829 11.82L15.8 11.6951ZM19.6634 6.45092L19.9863 7.06544L20.2285 6.93819L20.3187 6.67994L19.6634 6.45092ZM27.1979 1.48591L27.1502 2.17844C30.2492 2.39209 32.7143 4.66779 33.2996 7.57348L33.9801 7.43641L34.6606 7.29934C33.9552 3.79714 30.9853 1.05119 27.2457 0.79338L27.1979 1.48591ZM33.9801 7.43641L33.5761 8.0009C35.2226 9.17929 36.3019 11.0728 36.394 13.1906L37.0875 13.1604L37.7811 13.1302C37.6698 10.5729 36.3666 8.29077 34.3841 6.87191L33.9801 7.43641ZM37.0875 13.1604L36.9628 13.8433C39.0478 14.224 40.7742 15.5535 41.7163 17.3457L42.3308 17.0227L42.9452 16.6997C41.8114 14.5428 39.7312 12.9375 37.2123 12.4775L37.0875 13.1604ZM42.3308 17.0227L42.102 17.6781C44.9023 18.6555 46.8183 21.4116 46.6051 24.5107L47.2977 24.5584L47.9902 24.606C48.2475 20.8667 45.9352 17.5456 42.5595 16.3673L42.3308 17.0227ZM47.2977 24.5584L46.6051 24.5106C46.3915 27.61 44.1156 30.0754 41.2084 30.6599L41.3452 31.3404L41.482 32.021C44.9862 31.3166 47.7324 28.346 47.9902 24.6061L47.2977 24.5584ZM41.3452 31.3404L40.7808 30.9364C39.6021 32.583 37.7102 33.6628 35.5922 33.7544L35.6222 34.4479L35.6522 35.1414C38.2107 35.0308 40.491 33.7264 41.9097 31.7445L41.3452 31.3404ZM35.6222 34.4479L34.9393 34.3232C34.5585 36.4087 33.2296 38.1347 31.437 39.0766L31.7599 39.6911L32.0828 40.3056C34.2405 39.1719 35.845 37.0919 36.3051 34.5726L35.6222 34.4479ZM31.7599 39.6911L31.1045 39.4624C30.4872 41.2309 29.1583 42.6479 27.4798 43.3976L27.7629 44.0314L28.046 44.6652C30.0672 43.7625 31.6696 42.0561 32.4153 39.9199L31.7599 39.6911ZM27.7629 44.0314L27.5834 44.7019C27.7622 44.7498 27.8888 44.9208 27.8755 45.114L28.5681 45.1616L29.2606 45.2093C29.3202 44.3429 28.7524 43.5777 27.9425 43.3608L27.7629 44.0314ZM28.5681 45.1616L27.8755 45.1139C27.8604 45.3331 27.6707 45.4984 27.4515 45.4833L27.4039 46.1759L27.3562 46.8684C28.3403 46.9361 29.1928 46.1934 29.2606 45.2094L28.5681 45.1616ZM27.4039 46.1759L26.7113 46.1282L25.7365 60.291L26.429 60.3386L27.1215 60.3863L28.0964 46.2235L27.4039 46.1759ZM26.429 60.3386L26.3813 61.0312L34.8009 61.6107L34.8485 60.9182L34.8962 60.2257L26.4767 59.6461L26.429 60.3386ZM34.8485 60.9182L34.8008 61.6107C35.1833 61.6371 35.4723 61.9689 35.446 62.3513L36.1386 62.399L36.8311 62.4466C36.9101 61.2992 36.0436 60.3047 34.8962 60.2257L34.8485 60.9182ZM36.1386 62.399L35.446 62.3513L35.1662 66.4169L35.8587 66.4645L36.5512 66.5122L36.8311 62.4466L36.1386 62.399ZM35.8587 66.4645L36.3131 65.9397C35.7729 65.472 35.0811 65.1651 34.3102 65.112L34.2626 65.8045L34.2149 66.4971C34.6713 66.5285 35.0808 66.7092 35.4043 66.9893L35.8587 66.4645ZM34.2626 65.8045L34.3102 65.112C33.1794 65.0343 32.1416 65.5164 31.4635 66.3163L31.993 66.7652L32.5225 67.2141C32.9286 66.735 33.5448 66.451 34.2149 66.4971L34.2626 65.8045ZM31.993 66.7652L32.5206 66.3141L30.5113 63.9636L29.9836 64.4146L29.456 64.8657L31.4653 67.2163L31.993 66.7652ZM29.9836 64.4146L29.5228 63.8955L25.4391 67.5201L25.8999 68.0392L26.3607 68.5584L30.4444 64.9338L29.9836 64.4146ZM25.8999 68.0392L25.3723 68.4904L28.9209 72.6403L29.4485 72.1892L29.9761 71.7381L26.4275 67.5881L25.8999 68.0392ZM29.4485 72.1892L29.9093 72.7083L32.2896 70.5953L31.8287 70.0762L31.3679 69.5571L28.9876 71.6701L29.4485 72.1892ZM31.8287 70.0762L31.2574 70.4705C31.8275 71.2966 32.7563 71.8695 33.8399 71.9441L33.8876 71.2516L33.9353 70.5591C33.2933 70.5148 32.7416 70.1768 32.4 69.6819L31.8287 70.0762ZM33.8876 71.2516L33.84 71.9441C34.6117 71.9972 35.3389 71.7866 35.9374 71.3976L35.5592 70.8156L35.181 70.2335C34.8215 70.4671 34.3911 70.5904 33.9353 70.5591L33.8876 71.2516ZM35.5592 70.8156L34.8667 70.7679L34.5868 74.8335L35.2793 74.8811L35.9719 74.9288L36.2517 70.8632L35.5592 70.8156ZM35.2793 74.8811L34.5868 74.8333C34.5604 75.2159 34.2285 75.5049 33.8462 75.4786L33.7986 76.1712L33.7509 76.8637C34.8983 76.9426 35.8927 76.076 35.9719 74.9289L35.2793 74.8811ZM33.7986 76.1712L33.8463 75.4786L25.4267 74.8991L25.3791 75.5916L25.3314 76.2841L33.7509 76.8637L33.7986 76.1712ZM25.3791 75.5916L24.6865 75.5439L24.5366 77.7224L25.2291 77.7701L25.9216 77.8177L26.0716 75.6393L25.3791 75.5916ZM25.2291 77.7701L25.1451 78.4591L25.2558 78.4726L25.3398 77.7835L25.4238 77.0945L25.3131 77.081L25.2291 77.7701ZM25.3398 77.7835L25.2223 78.4677C25.4208 78.5018 25.5649 78.682 25.5508 78.8866L26.2433 78.9342L26.9359 78.9819C26.9994 78.0584 26.3497 77.2526 25.4572 77.0994L25.3398 77.7835ZM26.2433 78.9342L25.5508 78.8865C25.5367 79.092 25.3684 79.2509 25.168 79.2575L25.1906 79.9513L25.2131 80.6451C26.1191 80.6156 26.8723 79.9046 26.9359 78.982L26.2433 78.9342ZM25.1906 79.9513L25.2078 79.2573L25.0964 79.2545L25.0792 79.9485L25.0619 80.6424L25.1733 80.6452L25.1906 79.9513ZM25.0792 79.9485L24.3866 79.9008C24.2887 81.3234 23.0563 82.3973 21.6341 82.2997L21.5865 82.9922L21.5389 83.6847C23.7263 83.835 25.6211 82.1833 25.7717 79.9962L25.0792 79.9485ZM21.5865 82.9922L21.6342 82.2997C20.2562 82.2048 19.2046 81.0448 19.2292 79.6799L18.5352 79.6674L17.8411 79.6549C17.8033 81.7556 19.4197 83.5389 21.5388 83.6847L21.5865 82.9922ZM18.5352 79.6674L19.2286 79.699L19.2363 79.5302L18.5429 79.4986L17.8494 79.4669L17.8417 79.6357L18.5352 79.6674ZM18.5429 79.4986L18.5905 78.806L18.5896 78.806L18.5419 79.4985L18.4942 80.191L18.4952 80.1911L18.5429 79.4986ZM18.5419 79.4985L18.5897 78.806C18.3704 78.7908 18.2051 78.6009 18.2202 78.3819L17.5276 78.3343L16.8351 78.2867C16.7675 79.2708 17.5103 80.123 18.494 80.191L18.5419 79.4985ZM17.5276 78.3343L18.2202 78.382C18.2353 78.163 18.425 77.9976 18.6444 78.0126L18.6918 77.3201L18.7393 76.6275C17.7556 76.5601 16.9029 77.3024 16.8351 78.2866L17.5276 78.3343ZM18.6918 77.3201L18.6442 78.0126L18.6451 78.0127L18.6928 77.3201L18.7405 76.6276L18.7395 76.6275L18.6918 77.3201ZM18.6928 77.3201L19.3853 77.3678L21.5601 45.7736L20.8676 45.7259L20.1751 45.6783L18.0003 77.2725L18.6928 77.3201ZM20.8676 45.7259L20.9516 45.0369L20.8409 45.0234L20.7569 45.7125L20.6729 46.4015L20.7836 46.415L20.8676 45.7259ZM20.7569 45.7125L20.8741 45.0282C20.676 44.9943 20.5318 44.8144 20.5459 44.6094L19.8533 44.5617L19.1608 44.5141C19.0973 45.4374 19.7465 46.2437 20.6398 46.3967L20.7569 45.7125ZM19.8533 44.5617L20.5459 44.6094C20.5592 44.4163 20.7081 44.2643 20.8921 44.2415L20.8067 43.5526L20.7214 42.8637C19.8888 42.9668 19.2205 43.647 19.1608 44.5141L19.8533 44.5617ZM20.8067 43.5526L21.174 42.9635C19.6143 41.991 18.4919 40.4051 18.1228 38.5688L17.4422 38.7056L16.7616 38.8424C17.2075 41.0605 18.5613 42.9705 20.4394 44.1416L20.8067 43.5526ZM17.4422 38.7056L17.8463 38.1412C16.2001 36.9624 15.1197 35.0701 15.0282 32.9526L14.3347 32.9826L13.6412 33.0125C13.7517 35.5707 15.0569 37.8513 17.038 39.27L17.4422 38.7056ZM14.3347 32.9826L14.4596 32.2997C12.3746 31.9183 10.6467 30.5897 9.70502 28.7973L9.0905 29.1202L8.47597 29.443C9.60978 31.6012 11.692 33.2048 14.2098 33.6654L14.3347 32.9826ZM9.0905 29.1202L9.31953 28.4649C6.52149 27.4869 4.60495 24.7333 4.81796 21.6342L4.12542 21.5866L3.43288 21.539C3.17584 25.2787 5.48905 28.5968 8.86146 29.7755L9.0905 29.1202ZM4.12542 21.5866L4.81795 21.6343C5.03137 18.5357 7.30677 16.0694 10.2131 15.484L10.076 14.8035L9.9389 14.123C6.43585 14.8287 3.69041 17.7999 3.43289 21.5389L4.12542 21.5866ZM10.076 14.8035L10.6405 15.2075C11.819 13.5608 13.7127 12.4807 15.8302 12.3886L15.8 11.6951L15.7699 11.0015C13.2124 11.1128 10.9302 12.4171 9.51149 14.3995L10.076 14.8035ZM15.8 11.6951L16.4829 11.82C16.8642 9.73507 18.1937 8.00728 19.9863 7.06544L19.6634 6.45092L19.3405 5.8364C17.1826 6.97019 15.5778 9.05202 15.1172 11.5702L15.8 11.6951ZM19.6634 6.45092L20.3187 6.67994C21.2968 3.88126 24.0516 1.96535 27.1503 2.17845L27.1979 1.48591L27.2456 0.793372C23.5066 0.536242 20.1871 2.84848 19.0081 6.2219L19.6634 6.45092Z" fill="#0088FF" mask="url(#path-1-outside-1_193_432)"/>
</svg>