<svg xmlns="http://www.w3.org/2000/svg" width="66" height="66" viewBox="0 0 66 66" fill="none">
<mask id="path-1-inside-1_193_421" fill="white">
<path d="M63.6818 17.9979C65.2063 18.6465 65.9166 20.4083 65.2682 21.9328L47.5099 63.6821C46.8614 65.2067 45.0997 65.9169 43.575 65.2685L1.82575 47.5102C0.301089 46.8617 -0.409161 45.1 0.23936 43.5754L17.9976 1.82607C18.6259 0.349133 20.2989 -0.363653 21.789 0.182882L21.9325 0.239681L63.6818 17.9979ZM21.7273 0.722254C20.469 0.187067 19.0155 0.773176 18.4802 2.03133L0.721932 43.7806C0.186725 45.0389 0.77275 46.4925 2.03101 47.0277L43.7803 64.7859C45.0385 65.321 46.4922 64.7351 47.0274 63.4769L64.7856 21.7276C65.3207 20.4694 64.7346 19.0158 63.4765 18.4805L21.7273 0.722254Z"/>
</mask>
<path d="M63.6818 17.9979C65.2063 18.6465 65.9166 20.4083 65.2682 21.9328L47.5099 63.6821C46.8614 65.2067 45.0997 65.9169 43.575 65.2685L1.82575 47.5102C0.301089 46.8617 -0.409161 45.1 0.23936 43.5754L17.9976 1.82607C18.6259 0.349133 20.2989 -0.363653 21.789 0.182882L21.9325 0.239681L63.6818 17.9979ZM21.7273 0.722254C20.469 0.187067 19.0155 0.773176 18.4802 2.03133L0.721932 43.7806C0.186725 45.0389 0.77275 46.4925 2.03101 47.0277L43.7803 64.7859C45.0385 65.321 46.4922 64.7351 47.0274 63.4769L64.7856 21.7276C65.3207 20.4694 64.7346 19.0158 63.4765 18.4805L21.7273 0.722254Z" fill="#DFE6EF"/>
<path d="M63.6818 17.9979L63.9519 17.363L63.9519 17.363L63.6818 17.9979ZM65.2682 21.9328L65.9031 22.2029L65.9031 22.2029L65.2682 21.9328ZM47.5099 63.6821L46.875 63.412L47.5099 63.6821ZM43.575 65.2685L43.305 65.9035L43.305 65.9035L43.575 65.2685ZM1.82575 47.5102L1.55567 48.1452L1.55567 48.1452L1.82575 47.5102ZM0.23936 43.5754L-0.395587 43.3053L0.23936 43.5754ZM17.9976 1.82607L17.3627 1.55596L17.3627 1.55599L17.9976 1.82607ZM21.789 0.182882L22.0429 -0.458697L22.0348 -0.461911L22.0266 -0.464918L21.789 0.182882ZM21.9325 0.239681L22.2026 -0.395266L22.1946 -0.398684L22.1864 -0.401898L21.9325 0.239681ZM21.7273 0.722254L21.4572 1.3572L21.7273 0.722254ZM18.4802 2.03133L17.8453 1.76121L17.8452 1.76126L18.4802 2.03133ZM0.721932 43.7806L1.35688 44.0507L0.721932 43.7806ZM2.03101 47.0277L1.76093 47.6626L1.76094 47.6626L2.03101 47.0277ZM43.7803 64.7859L43.5102 65.4209L43.5103 65.4209L43.7803 64.7859ZM64.7856 21.7276L65.4206 21.9976L65.4206 21.9976L64.7856 21.7276ZM63.4765 18.4805L63.7467 17.8456L63.7466 17.8456L63.4765 18.4805ZM63.6818 17.9979L63.4117 18.6329C64.5855 19.1323 65.1325 20.4889 64.6332 21.6628L65.2682 21.9328L65.9031 22.2029C66.7007 20.3277 65.827 18.1607 63.9519 17.363L63.6818 17.9979ZM65.2682 21.9328L64.6332 21.6628L46.875 63.412L47.5099 63.6821L48.1449 63.9522L65.9031 22.2029L65.2682 21.9328ZM47.5099 63.6821L46.875 63.412C46.3757 64.5859 45.0191 65.1328 43.8451 64.6335L43.575 65.2685L43.305 65.9035C45.1802 66.701 47.3472 65.8275 48.1449 63.9522L47.5099 63.6821ZM43.575 65.2685L43.8451 64.6336L2.09583 46.8753L1.82575 47.5102L1.55567 48.1452L43.305 65.9035L43.575 65.2685ZM1.82575 47.5102L2.09583 46.8753C0.921838 46.3759 0.374946 45.0194 0.874307 43.8454L0.23936 43.5754L-0.395587 43.3053C-1.19327 45.1806 -0.31966 47.3475 1.55567 48.1452L1.82575 47.5102ZM0.23936 43.5754L0.874307 43.8454L18.6326 2.09615L17.9976 1.82607L17.3627 1.55599L-0.395587 43.3053L0.23936 43.5754ZM17.9976 1.82607L18.6326 2.09618C19.1163 0.95909 20.4046 0.410064 21.5514 0.830681L21.789 0.182882L22.0266 -0.464918C20.1932 -1.13737 18.1356 -0.260824 17.3627 1.55596L17.9976 1.82607ZM21.789 0.182882L21.5351 0.824461L21.6786 0.88126L21.9325 0.239681L22.1864 -0.401898L22.0429 -0.458697L21.789 0.182882ZM21.9325 0.239681L21.6624 0.874629L63.4117 18.6329L63.6818 17.9979L63.9519 17.363L22.2026 -0.395266L21.9325 0.239681ZM21.7273 0.722254L21.9973 0.087307C20.3884 -0.597057 18.5297 0.152468 17.8453 1.76121L18.4802 2.03133L19.1151 2.30145C19.5012 1.39388 20.5497 0.971192 21.4572 1.3572L21.7273 0.722254ZM18.4802 2.03133L17.8452 1.76126L0.0869853 43.5105L0.721932 43.7806L1.35688 44.0507L19.1151 2.30141L18.4802 2.03133ZM0.721932 43.7806L0.0869853 43.5105C-0.597383 45.1195 0.152001 46.9783 1.76093 47.6626L2.03101 47.0277L2.30109 46.3927C1.3935 46.0067 0.970832 44.9583 1.35688 44.0507L0.721932 43.7806ZM2.03101 47.0277L1.76094 47.6626L43.5102 65.4209L43.7803 64.7859L44.0504 64.151L2.30109 46.3927L2.03101 47.0277ZM43.7803 64.7859L43.5103 65.4209C45.1191 66.1051 46.9779 65.3559 47.6623 63.7469L47.0274 63.4769L46.3924 63.2068C46.0064 64.1143 44.958 64.5369 44.0503 64.151L43.7803 64.7859ZM47.0274 63.4769L47.6623 63.7469L65.4206 21.9976L64.7856 21.7276L64.1507 21.4575L46.3924 63.2068L47.0274 63.4769ZM64.7856 21.7276L65.4206 21.9976C66.1048 20.3888 65.3554 18.53 63.7467 17.8456L63.4765 18.4805L63.2064 19.1154C64.1139 19.5015 64.5366 20.55 64.1507 21.4575L64.7856 21.7276ZM63.4765 18.4805L63.7466 17.8456L21.9973 0.087307L21.7273 0.722254L21.4572 1.3572L63.2065 19.1155L63.4765 18.4805Z" fill="#0088FF" mask="url(#path-1-inside-1_193_421)"/>
</svg>