<svg xmlns="http://www.w3.org/2000/svg" width="692" height="55" viewBox="0 0 692 55" fill="none">
<path d="M96 32.319C96.33 38.4819 104.214 39.3599 107.5 35.9783C113.684 29.6139 108.197 24.0316 98.5 20.9489C92.2384 18.9584 82.467 18.4199 77.5 23.0001C74.2224 26.0225 64.0534 33.6183 68.0112 34.4005C68.8461 34.5655 69.984 33.6343 70.5695 32.9005C75.7833 26.3658 75.5882 21.8503 70.5695 15.0002C64.1041 6.17561 57.9066 7.54986 53.5 16C50.9151 20.9568 48.0116 27.2735 50.2591 32.319C52.5963 37.5657 61.2381 41.5869 66.1555 37.9142C82.8954 25.4116 54.534 13.2055 49.512 27.8146C44.3863 42.7254 71.1712 51.5149 73 37.9142C74.2813 28.3854 66.4315 26.9956 59.9 27.9208C52.8598 28.9182 49.1732 37.9078 52.2509 44.2396C55.1129 50.1276 64.5939 53.7391 68.0112 46.3381C68.8032 44.6226 69.5496 42.0555 69.0843 39.2992C67.7687 31.5061 60.4677 25.7257 52.5695 26.4005C48.1995 26.7739 43.9134 30.8782 43.029 35.481C42.9121 36.0898 42.6513 38.0334 43.1226 41.0353C43.5272 43.612 43.8721 45.4728 44.6383 46.6181C48.9287 53.0309 59.8043 51.1274 61.2068 42.9466C62.0912 37.7878 62.796 24.9733 58.9086 20.9489C51.7956 13.5852 38.4323 17.5518 37.6254 28.1128C37.4408 30.529 37.4773 33.8807 37.5751 35.9783C37.7016 38.6914 41.051 48.2814 44.8172 42.9946C47.2243 39.6157 47.4633 33.6123 45.2991 30.3898C43.5695 27.8146 40.2098 28.0944 38.1179 29.0901C33.8705 31.1118 33.8067 37.7757 35.1655 41.5434C37.1953 47.1718 42.1713 49.0832 48.0263 47.3733C53.0883 45.895 55.9966 40.8681 56.2095 35.6048C56.3065 33.2085 56.2303 28.9533 55.4719 27.444C51.0448 18.6339 43.5142 14.5773 33.8501 18.4271C25.211 21.8686 20.3083 31.2652 22.8584 40.4589C24.4665 46.2567 34.3855 51.5276 37.7757 44.0549C38.6263 42.1801 39.8441 40.799 39.0705 35.7433C38.5485 32.3322 37.0986 29.0147 34.7801 26.4245C31.2449 22.4748 25.4506 19.7636 20.0782 20.4562C11.0248 21.6234 6.82993 30.7476 12.7444 38.384C13.7896 39.7336 14.8417 40.4142 15.0973 40.4817" stroke="#0088FF" stroke-width="2" stroke-linecap="round"/>
</svg>