<svg xmlns="http://www.w3.org/2000/svg" width="692" height="55" viewBox="0 0 692 55" fill="none">
<path d="M232.698 36.2722C232.25 36.2025 231.815 36.1348 228.849 36.1037C225.884 36.0726 220.55 36.0779 216.622 36.2262C212.693 36.3746 210.243 36.6576 200.23 36.6813C190.217 36.7051 173.152 36.6182 163.876 36.2605C141.888 35.4127 113.546 36.4362 92.6361 29.8818C86.0442 27.8154 78.9654 27.0653 72.3386 29.8824C70.0182 30.8689 56.5479 36.2326 63.5364 41.3569C64.2645 41.8907 65.4108 42.2442 66.706 42.0819C67.7425 41.952 68.921 41.6936 69.7962 40.8995C70.4324 40.3223 70.9627 39.6286 71.1863 38.7066C71.4036 37.8105 71.8916 35.7481 71.215 32.671C67.8885 17.5404 42.1805 10.975 44.1306 31.3053C44.396 34.0714 44.6165 36.4705 45.6497 38.4635C47.6195 42.2633 49.2099 44.8056 51.0288 45.6193C62.8326 50.8997 67.2472 35.2322 57.2647 31.1844C55.1673 30.3339 51.0275 29.4009 48.5371 31.511C43.9574 35.3914 45.3664 43.9218 51.4568 45.774C52.3288 46.0392 53.8033 46.3451 55.6891 45.8616C59.0555 44.9985 61.4977 43.9346 62.5393 42.2829C64.2762 39.5284 65.2613 35.3701 63.915 31.6224C61.0252 23.5783 49.7547 21.2066 43.3313 26.8938C42.0237 28.0515 39.5162 30.4467 38.5561 34.2806C36.9029 40.8824 42.5917 48.0076 49.211 42.1888C53.3619 38.5399 52.1969 29.2344 48.6554 25.4663C37.6859 13.7945 19.3822 26.5939 27.1541 40.7325C29.5 45 34 46.5 37.2298 43.6461C42.3829 39.0928 41.6298 22.0904 32.1757 20.7853C12 18 9.15665 40.2518 14.0917 40.2518" stroke="#0088FF" stroke-width="2" stroke-linecap="round"/>
</svg>