<svg xmlns="http://www.w3.org/2000/svg" width="692" height="55" viewBox="0 0 692 55" fill="none">
<path d="M144 30.3897C144.445 38.7051 104.277 30.7676 99 29.0901C89.0123 25.9151 57.7298 32.3684 68.0112 34.4004C68.8461 34.5655 69.984 33.6343 70.5695 32.9004C90.4564 7.97486 40.9389 11.3956 50.2591 32.3189C52.5963 37.5656 61.2381 41.5868 66.1555 37.9141C82.8954 25.4116 54.534 13.2054 49.512 27.8145C44.3863 42.7254 72.4594 49.0816 74.2882 35.4809C75.5695 25.9521 66.4315 26.9955 59.9 27.9208C52.8598 28.9181 49.1732 37.9077 52.2509 44.2395C57.1969 54.4148 70.7462 49.1436 69.0843 39.2991C67.7687 31.506 60.4677 25.7256 52.5695 26.4004C48.1995 26.7738 43.9134 30.8781 43.029 35.4809C42.9121 36.0897 42.6513 38.0334 43.1226 41.0353C43.5272 43.6119 43.8721 45.4727 44.6383 46.618C48.9287 53.0308 59.8043 51.1273 61.2068 42.9465C62.0912 37.7877 62.796 24.9733 58.9086 20.9489C51.7956 13.5851 38.4323 17.5517 37.6254 28.1127C37.3792 31.3364 39.444 50.5372 44.8172 42.9946C47.2243 39.6156 47.4633 33.6123 45.2991 30.3897C43.5695 27.8145 40.2098 28.0944 38.1179 29.0901C33.8705 31.1117 33.8067 37.7756 35.1655 41.5434C37.1953 47.1718 42.1713 49.0832 48.0263 47.3732C53.0883 45.8949 55.9966 40.868 56.2095 35.6048C56.3065 33.2084 56.2303 28.9532 55.4719 27.4439C51.0448 18.6338 43.5142 14.5772 33.8501 18.4271C25.211 21.8686 20.3083 31.2651 22.8584 40.4589C24.4665 46.2567 34.3855 51.5276 37.7757 44.0549C38.6263 42.18 39.8441 40.799 39.0705 35.7432C38.5485 32.3321 37.0986 29.0147 34.7801 26.4244C31.2449 22.4748 25.4506 19.7635 20.0782 20.4562C11.0248 21.6233 6.82993 30.7476 12.7444 38.384C13.7896 39.7335 14.8417 40.4142 15.0973 40.4817" stroke="#0088FF" stroke-width="2" stroke-linecap="round"/>
</svg>