<svg xmlns="http://www.w3.org/2000/svg" width="692" height="55" viewBox="0 0 692 55" fill="none">
<path d="M15.1152 37.7026C15.488 37.1708 17.5591 34.7707 20.8315 32.7389C25.4916 29.8454 42.8213 25.961 46.2398 33.0826C49.6212 40.1269 40.0698 39.6211 36.4173 38.9998C29.6576 37.8501 32.2605 32.4998 38 32.4998C41.5 32.4998 42.9619 33.3473 43.5 35.4998C44 37.4998 41.6093 40.8521 40.8945 41.2666C40.3277 41.5953 39.6382 41.6642 38.9846 41.5774C38.331 41.4905 37.7009 41.1804 37.264 40.7518C35.6126 39.1315 36.1634 34.5121 37.8836 30.0448C40.5556 23.1058 54.3142 24.4435 59.1466 27.6221C69.2398 34.2609 76.3355 34.6942 88.8954 35.1092C117.979 36.0702 146.953 35.407 176.002 37.4393C192.195 38.5721 208.969 39.5321 225.216 38.9652C263.099 37.6436 295 38.9652 334.457 40.8366C359.955 42.0459 390.185 42.686 415.5 41.8815" stroke="#0088FF" stroke-width="2" stroke-linecap="round"/>
</svg>