<svg xmlns="http://www.w3.org/2000/svg" width="692" height="55" viewBox="0 0 692 55" fill="none">
<path d="M344 38.1836C318.852 39.0965 293.548 38.194 268.369 38.773C252.632 39.1349 236.908 37.5753 221.177 37.3551C207.645 37.1656 184.207 37.472 171.478 36.8342C149.374 35.7265 128.3 29.3365 105.848 28.882C97.5651 28.7144 90.2544 28.5937 86.3321 28.4036C81.8825 28.1881 80.7988 28.1033 79.7325 27.9572C77.6777 27.6756 75.6783 27.3601 72.394 26.6462C63.992 24.8197 57.5547 24.7623 54 26.6462C48.649 29.482 49.6938 37.6138 54.8736 40.1432C62.1807 43.7112 71.2529 37.841 67.1071 29.516C62.8111 20.8894 43.726 19.6224 43.4614 31.4287C43.2773 39.6442 53.8714 41.4274 53.3273 34.4772C52.8204 28.0036 43.4025 26.5159 38.6025 28.6632C34.2808 30.5965 29.7825 32.7794 29.5056 36.5088C28.8127 45.8404 39.8866 46.1783 39.4411 39.3897C39.0751 33.8141 38.0491 28.9432 35.6526 27.1702C24.1956 18.6938 14.0616 25.5772 13.6191 39.2048" stroke="#0088FF" stroke-width="2" stroke-linecap="round"/>
</svg>