<svg xmlns="http://www.w3.org/2000/svg" width="240" height="485" viewBox="0 0 240 485" fill="none">
<path d="M39.665 2.5C35.4597 42.9964 53.0603 88.5422 74.2229 122.725C81.9398 135.189 92.1077 150.015 108 169.883C144.702 215.765 176.41 249.017 190.722 306.837C194.917 323.784 197.56 338.906 198.979 352.827C200.397 366.747 200.512 379.007 200.469 387.566C200.427 396.125 200.225 400.611 200.016 405.233" stroke="#0088FF" stroke-width="5" stroke-linecap="round"/>
<mask id="path-2-outside-1_210_475" maskUnits="userSpaceOnUse" x="172.809" y="399.395" width="50.6622" height="86.892" fill="black">
<rect fill="white" x="172.809" y="399.395" width="50.6622" height="86.892"/>
<path d="M201.093 401.947C204.513 402.183 207.23 404.693 207.876 407.897C209.69 409.196 210.881 411.284 210.983 413.621C213.285 414.042 215.188 415.509 216.226 417.484C219.314 418.562 221.428 421.6 221.193 425.019C220.957 428.439 218.446 431.157 215.241 431.801C213.942 433.616 211.856 434.808 209.518 434.909C209.097 437.211 207.631 439.114 205.655 440.152C204.974 442.104 203.508 443.666 201.658 444.492C202.153 444.625 202.5 445.093 202.464 445.623C202.422 446.224 201.901 446.678 201.299 446.637L200.324 460.8L208.744 461.379C209.509 461.432 210.087 462.095 210.034 462.86L209.754 466.925C209.322 466.552 208.772 466.308 208.158 466.265C207.258 466.204 206.431 466.587 205.888 467.226L203.879 464.876L199.795 468.5L203.344 472.65L205.724 470.537C206.18 471.198 206.92 471.653 207.783 471.713C208.397 471.755 208.976 471.588 209.455 471.277L209.175 475.342C209.122 476.107 208.459 476.685 207.694 476.632L199.275 476.053L199.125 478.231L199.235 478.244C199.781 478.338 200.178 478.831 200.139 479.395C200.1 479.959 199.639 480.394 199.086 480.412L198.975 480.409C198.85 482.214 197.287 483.577 195.482 483.453C193.733 483.333 192.399 481.861 192.431 480.128L192.438 479.96L192.437 479.959C191.836 479.918 191.382 479.397 191.423 478.795C191.465 478.194 191.986 477.74 192.587 477.781L192.588 477.781L194.763 446.187L194.652 446.173C194.107 446.08 193.71 445.587 193.749 445.023C193.785 444.493 194.194 444.076 194.702 444.014C192.983 442.942 191.745 441.194 191.338 439.167C189.524 437.868 188.331 435.781 188.23 433.444C185.929 433.022 184.024 431.556 182.986 429.581C179.901 428.503 177.786 425.467 178.021 422.048C178.256 418.629 180.767 415.91 183.971 415.264C185.27 413.45 187.358 412.258 189.696 412.156C190.116 409.854 191.584 407.95 193.559 406.912C194.637 403.826 197.675 401.712 201.093 401.947ZM200.807 406.102C199.003 405.978 197.438 407.341 197.314 409.146C197.287 409.529 197.33 409.902 197.427 410.253C197.365 410.245 197.302 410.239 197.239 410.235C195.434 410.111 193.87 411.474 193.745 413.279C193.621 415.083 194.984 416.647 196.789 416.771C197.171 416.797 197.542 416.756 197.891 416.659L197.578 421.204L193.034 420.891C193.178 420.559 193.269 420.197 193.295 419.815C193.419 418.01 192.057 416.446 190.253 416.321C188.448 416.197 186.883 417.56 186.759 419.365C186.755 419.428 186.752 419.492 186.751 419.554C186.417 419.409 186.053 419.316 185.67 419.29C183.865 419.166 182.301 420.529 182.176 422.334C182.052 424.138 183.415 425.702 185.22 425.826C185.604 425.853 185.976 425.811 186.327 425.713C186.319 425.775 186.313 425.838 186.309 425.901C186.185 427.706 187.548 429.27 189.353 429.395C191.158 429.519 192.721 428.156 192.845 426.351C192.872 425.969 192.831 425.598 192.734 425.249L197.278 425.562L196.965 430.107C196.633 429.963 196.271 429.871 195.889 429.845C194.084 429.721 192.52 431.084 192.395 432.888C192.271 434.693 193.634 436.257 195.439 436.381C195.502 436.385 195.566 436.387 195.628 436.388C195.483 436.722 195.391 437.087 195.364 437.471C195.244 439.218 196.517 440.738 198.235 440.947C198.236 440.947 198.238 440.948 198.239 440.948L198.408 440.964C200.212 441.088 201.776 439.726 201.9 437.921C201.927 437.537 201.885 437.163 201.787 436.812C201.849 436.82 201.912 436.827 201.975 436.831C203.78 436.955 205.345 435.593 205.469 433.788C205.593 431.983 204.23 430.419 202.425 430.295C202.043 430.268 201.672 430.31 201.323 430.407L201.636 425.862L206.181 426.175C206.037 426.507 205.945 426.869 205.919 427.251C205.795 429.056 207.158 430.62 208.963 430.745C210.767 430.869 212.331 429.506 212.455 427.701C212.46 427.638 212.462 427.574 212.462 427.512C212.796 427.657 213.161 427.75 213.545 427.776C215.35 427.9 216.914 426.538 217.038 424.733C217.162 422.928 215.8 421.364 213.995 421.24C213.611 421.213 213.237 421.255 212.886 421.353C212.894 421.291 212.901 421.228 212.905 421.165C213.029 419.36 211.667 417.796 209.862 417.671C208.058 417.547 206.493 418.91 206.369 420.715C206.343 421.097 206.384 421.468 206.481 421.817L201.936 421.504L202.249 416.959C202.581 417.103 202.943 417.195 203.325 417.221C205.13 417.345 206.694 415.983 206.819 414.178C206.943 412.374 205.58 410.809 203.775 410.685C203.712 410.68 203.648 410.677 203.586 410.677C203.731 410.343 203.824 409.979 203.85 409.596C203.974 407.791 202.612 406.227 200.807 406.102Z"/>
</mask>
<path d="M201.093 401.947C204.513 402.183 207.23 404.693 207.876 407.897C209.69 409.196 210.881 411.284 210.983 413.621C213.285 414.042 215.188 415.509 216.226 417.484C219.314 418.562 221.428 421.6 221.193 425.019C220.957 428.439 218.446 431.157 215.241 431.801C213.942 433.616 211.856 434.808 209.518 434.909C209.097 437.211 207.631 439.114 205.655 440.152C204.974 442.104 203.508 443.666 201.658 444.492C202.153 444.625 202.5 445.093 202.464 445.623C202.422 446.224 201.901 446.678 201.299 446.637L200.324 460.8L208.744 461.379C209.509 461.432 210.087 462.095 210.034 462.86L209.754 466.925C209.322 466.552 208.772 466.308 208.158 466.265C207.258 466.204 206.431 466.587 205.888 467.226L203.879 464.876L199.795 468.5L203.344 472.65L205.724 470.537C206.18 471.198 206.92 471.653 207.783 471.713C208.397 471.755 208.976 471.588 209.455 471.277L209.175 475.342C209.122 476.107 208.459 476.685 207.694 476.632L199.275 476.053L199.125 478.231L199.235 478.244C199.781 478.338 200.178 478.831 200.139 479.395C200.1 479.959 199.639 480.394 199.086 480.412L198.975 480.409C198.85 482.214 197.287 483.577 195.482 483.453C193.733 483.333 192.399 481.861 192.431 480.128L192.438 479.96L192.437 479.959C191.836 479.918 191.382 479.397 191.423 478.795C191.465 478.194 191.986 477.74 192.587 477.781L192.588 477.781L194.763 446.187L194.652 446.173C194.107 446.08 193.71 445.587 193.749 445.023C193.785 444.493 194.194 444.076 194.702 444.014C192.983 442.942 191.745 441.194 191.338 439.167C189.524 437.868 188.331 435.781 188.23 433.444C185.929 433.022 184.024 431.556 182.986 429.581C179.901 428.503 177.786 425.467 178.021 422.048C178.256 418.629 180.767 415.91 183.971 415.264C185.27 413.45 187.358 412.258 189.696 412.156C190.116 409.854 191.584 407.95 193.559 406.912C194.637 403.826 197.675 401.712 201.093 401.947ZM200.807 406.102C199.003 405.978 197.438 407.341 197.314 409.146C197.287 409.529 197.33 409.902 197.427 410.253C197.365 410.245 197.302 410.239 197.239 410.235C195.434 410.111 193.87 411.474 193.745 413.279C193.621 415.083 194.984 416.647 196.789 416.771C197.171 416.797 197.542 416.756 197.891 416.659L197.578 421.204L193.034 420.891C193.178 420.559 193.269 420.197 193.295 419.815C193.419 418.01 192.057 416.446 190.253 416.321C188.448 416.197 186.883 417.56 186.759 419.365C186.755 419.428 186.752 419.492 186.751 419.554C186.417 419.409 186.053 419.316 185.67 419.29C183.865 419.166 182.301 420.529 182.176 422.334C182.052 424.138 183.415 425.702 185.22 425.826C185.604 425.853 185.976 425.811 186.327 425.713C186.319 425.775 186.313 425.838 186.309 425.901C186.185 427.706 187.548 429.27 189.353 429.395C191.158 429.519 192.721 428.156 192.845 426.351C192.872 425.969 192.831 425.598 192.734 425.249L197.278 425.562L196.965 430.107C196.633 429.963 196.271 429.871 195.889 429.845C194.084 429.721 192.52 431.084 192.395 432.888C192.271 434.693 193.634 436.257 195.439 436.381C195.502 436.385 195.566 436.387 195.628 436.388C195.483 436.722 195.391 437.087 195.364 437.471C195.244 439.218 196.517 440.738 198.235 440.947C198.236 440.947 198.238 440.948 198.239 440.948L198.408 440.964C200.212 441.088 201.776 439.726 201.9 437.921C201.927 437.537 201.885 437.163 201.787 436.812C201.849 436.82 201.912 436.827 201.975 436.831C203.78 436.955 205.345 435.593 205.469 433.788C205.593 431.983 204.23 430.419 202.425 430.295C202.043 430.268 201.672 430.31 201.323 430.407L201.636 425.862L206.181 426.175C206.037 426.507 205.945 426.869 205.919 427.251C205.795 429.056 207.158 430.62 208.963 430.745C210.767 430.869 212.331 429.506 212.455 427.701C212.46 427.638 212.462 427.574 212.462 427.512C212.796 427.657 213.161 427.75 213.545 427.776C215.35 427.9 216.914 426.538 217.038 424.733C217.162 422.928 215.8 421.364 213.995 421.24C213.611 421.213 213.237 421.255 212.886 421.353C212.894 421.291 212.901 421.228 212.905 421.165C213.029 419.36 211.667 417.796 209.862 417.671C208.058 417.547 206.493 418.91 206.369 420.715C206.343 421.097 206.384 421.468 206.481 421.817L201.936 421.504L202.249 416.959C202.581 417.103 202.943 417.195 203.325 417.221C205.13 417.345 206.694 415.983 206.819 414.178C206.943 412.374 205.58 410.809 203.775 410.685C203.712 410.68 203.648 410.677 203.586 410.677C203.731 410.343 203.824 409.979 203.85 409.596C203.974 407.791 202.612 406.227 200.807 406.102Z" fill="#D1DBE8"/>
<path d="M201.093 401.947L201.141 401.254L201.141 401.254L201.093 401.947ZM207.876 407.897L207.195 408.034L207.249 408.303L207.472 408.462L207.876 407.897ZM210.983 413.621L210.29 413.651L210.314 414.205L210.858 414.304L210.983 413.621ZM216.226 417.484L215.612 417.807L215.739 418.049L215.998 418.139L216.226 417.484ZM221.193 425.019L221.886 425.067L221.886 425.067L221.193 425.019ZM215.241 431.801L215.104 431.121L214.836 431.175L214.676 431.397L215.241 431.801ZM209.518 434.909L209.488 434.215L208.934 434.239L208.835 434.784L209.518 434.909ZM205.655 440.152L205.332 439.538L205.09 439.665L205 439.923L205.655 440.152ZM201.658 444.492L201.375 443.859L199.588 444.657L201.479 445.163L201.658 444.492ZM202.464 445.623L203.156 445.67L203.156 445.67L202.464 445.623ZM201.299 446.637L201.347 445.944L200.655 445.897L200.607 446.589L201.299 446.637ZM200.324 460.8L199.632 460.752L199.584 461.444L200.277 461.492L200.324 460.8ZM208.744 461.379L208.792 460.687L208.792 460.687L208.744 461.379ZM210.034 462.86L210.727 462.908L210.034 462.86ZM209.754 466.925L209.3 467.45L210.351 468.361L210.447 466.973L209.754 466.925ZM208.158 466.265L208.206 465.573L208.206 465.573L208.158 466.265ZM205.888 467.226L205.361 467.677L205.891 468.297L206.418 467.675L205.888 467.226ZM203.879 464.876L204.407 464.425L203.947 463.887L203.418 464.356L203.879 464.876ZM199.795 468.5L199.335 467.981L198.825 468.433L199.268 468.951L199.795 468.5ZM203.344 472.65L202.816 473.101L203.276 473.639L203.805 473.169L203.344 472.65ZM205.724 470.537L206.296 470.143L205.85 469.497L205.263 470.018L205.724 470.537ZM207.783 471.713L207.735 472.405L207.735 472.405L207.783 471.713ZM209.455 471.277L210.147 471.324L210.243 469.937L209.076 470.694L209.455 471.277ZM209.175 475.342L209.867 475.39L209.867 475.39L209.175 475.342ZM207.694 476.632L207.646 477.325L207.646 477.325L207.694 476.632ZM199.275 476.053L199.322 475.36L198.63 475.312L198.582 476.005L199.275 476.053ZM199.125 478.231L198.432 478.183L198.387 478.84L199.041 478.92L199.125 478.231ZM199.235 478.244L199.353 477.56L199.336 477.557L199.319 477.555L199.235 478.244ZM200.139 479.395L200.831 479.443L200.831 479.443L200.139 479.395ZM199.086 480.412L199.069 481.106L199.089 481.107L199.109 481.106L199.086 480.412ZM198.975 480.409L198.992 479.715L198.328 479.699L198.282 480.362L198.975 480.409ZM195.482 483.453L195.434 484.146L195.434 484.146L195.482 483.453ZM192.431 480.128L191.737 480.097L191.737 480.106L191.737 480.116L192.431 480.128ZM192.438 479.96L193.132 479.991L193.163 479.314L192.486 479.267L192.438 479.96ZM192.437 479.959L192.39 480.652L192.39 480.652L192.437 479.959ZM191.423 478.795L190.731 478.748L190.731 478.748L191.423 478.795ZM192.587 477.781L192.635 477.088L192.635 477.088L192.587 477.781ZM192.588 477.781L192.541 478.474L193.233 478.521L193.281 477.829L192.588 477.781ZM194.763 446.187L195.456 446.235L195.501 445.578L194.847 445.498L194.763 446.187ZM194.652 446.173L194.535 446.858L194.552 446.86L194.568 446.862L194.652 446.173ZM193.749 445.023L193.056 444.975L193.056 444.975L193.749 445.023ZM194.702 444.014L194.788 444.702L196.733 444.461L195.07 443.424L194.702 444.014ZM191.338 439.167L192.018 439.03L191.964 438.761L191.742 438.602L191.338 439.167ZM188.23 433.444L188.924 433.414L188.9 432.86L188.355 432.761L188.23 433.444ZM182.986 429.581L183.601 429.258L183.473 429.016L183.215 428.926L182.986 429.581ZM178.021 422.048L177.328 422L177.328 422L178.021 422.048ZM183.971 415.264L184.109 415.945L184.377 415.891L184.536 415.668L183.971 415.264ZM189.696 412.156L189.726 412.85L190.279 412.825L190.378 412.281L189.696 412.156ZM193.559 406.912L193.882 407.526L194.124 407.399L194.214 407.141L193.559 406.912ZM200.807 406.102L200.855 405.41L200.855 405.41L200.807 406.102ZM197.314 409.146L196.621 409.098L196.621 409.098L197.314 409.146ZM197.427 410.253L197.341 410.942L198.377 411.072L198.096 410.066L197.427 410.253ZM197.239 410.235L197.287 409.542L197.286 409.542L197.239 410.235ZM193.745 413.279L193.053 413.231L193.053 413.231L193.745 413.279ZM196.789 416.771L196.741 417.464L196.741 417.464L196.789 416.771ZM197.891 416.659L198.584 416.707L198.651 415.728L197.705 415.99L197.891 416.659ZM197.578 421.204L197.53 421.897L198.223 421.944L198.271 421.252L197.578 421.204ZM193.034 420.891L192.397 420.616L192.007 421.516L192.987 421.584L193.034 420.891ZM193.295 419.815L193.988 419.863L193.988 419.862L193.295 419.815ZM190.253 416.321L190.3 415.629L190.3 415.629L190.253 416.321ZM186.759 419.365L186.066 419.317L186.066 419.317L186.759 419.365ZM186.751 419.554L186.474 420.191L187.433 420.608L187.445 419.563L186.751 419.554ZM185.67 419.29L185.718 418.597L185.717 418.597L185.67 419.29ZM182.176 422.334L181.484 422.286L181.484 422.286L182.176 422.334ZM185.22 425.826L185.172 426.519L185.172 426.519L185.22 425.826ZM186.327 425.713L187.016 425.8L187.147 424.762L186.14 425.044L186.327 425.713ZM186.309 425.901L185.617 425.853L185.617 425.854L186.309 425.901ZM189.353 429.395L189.305 430.087L189.305 430.087L189.353 429.395ZM192.845 426.351L193.538 426.399L193.538 426.399L192.845 426.351ZM192.734 425.249L192.782 424.557L191.803 424.489L192.065 425.435L192.734 425.249ZM197.278 425.562L197.971 425.61L198.018 424.917L197.326 424.869L197.278 425.562ZM196.965 430.107L196.69 430.744L197.59 431.134L197.658 430.154L196.965 430.107ZM195.889 429.845L195.937 429.152L195.937 429.152L195.889 429.845ZM192.395 432.888L191.703 432.841L191.703 432.841L192.395 432.888ZM195.439 436.381L195.391 437.074L195.391 437.074L195.439 436.381ZM195.628 436.388L196.265 436.665L196.682 435.706L195.637 435.694L195.628 436.388ZM195.364 437.471L194.671 437.424L194.671 437.424L195.364 437.471ZM198.235 440.947L198.319 440.258L198.319 440.258L198.235 440.947ZM198.239 440.948L198.137 441.635L198.156 441.638L198.176 441.64L198.239 440.948ZM198.408 440.964L198.344 441.655L198.352 441.656L198.36 441.656L198.408 440.964ZM201.9 437.921L202.593 437.969L202.593 437.969L201.9 437.921ZM201.787 436.812L201.874 436.123L200.836 435.992L201.118 436.999L201.787 436.812ZM201.975 436.831L201.927 437.523L201.928 437.524L201.975 436.831ZM205.469 433.788L206.161 433.836L206.161 433.836L205.469 433.788ZM202.425 430.295L202.473 429.602L202.473 429.602L202.425 430.295ZM201.323 430.407L200.631 430.359L200.563 431.339L201.509 431.076L201.323 430.407ZM201.636 425.862L201.684 425.169L200.991 425.122L200.943 425.814L201.636 425.862ZM206.181 426.175L206.818 426.451L207.208 425.55L206.229 425.482L206.181 426.175ZM205.919 427.251L205.226 427.203L205.226 427.203L205.919 427.251ZM208.963 430.745L208.915 431.437L208.915 431.437L208.963 430.745ZM212.455 427.701L213.148 427.749L213.148 427.748L212.455 427.701ZM212.462 427.512L212.739 426.875L211.78 426.458L211.768 427.503L212.462 427.512ZM213.545 427.776L213.498 428.469L213.498 428.469L213.545 427.776ZM217.038 424.733L217.731 424.781L217.731 424.781L217.038 424.733ZM213.995 421.24L214.043 420.547L214.043 420.547L213.995 421.24ZM212.886 421.353L212.198 421.266L212.067 422.304L213.074 422.022L212.886 421.353ZM212.905 421.165L213.598 421.212L213.598 421.212L212.905 421.165ZM209.862 417.671L209.91 416.979L209.91 416.979L209.862 417.671ZM206.369 420.715L205.676 420.667L205.676 420.667L206.369 420.715ZM206.481 421.817L206.433 422.509L207.412 422.577L207.15 421.631L206.481 421.817ZM201.936 421.504L201.243 421.456L201.196 422.149L201.888 422.197L201.936 421.504ZM202.249 416.959L202.525 416.322L201.624 415.932L201.556 416.911L202.249 416.959ZM203.325 417.221L203.277 417.914L203.278 417.914L203.325 417.221ZM206.819 414.178L207.511 414.226L207.511 414.226L206.819 414.178ZM203.775 410.685L203.823 409.992L203.823 409.992L203.775 410.685ZM203.586 410.677L202.949 410.4L202.532 411.359L203.578 411.371L203.586 410.677ZM203.85 409.596L204.543 409.643L204.543 409.643L203.85 409.596ZM201.093 401.947L201.046 402.639C204.145 402.853 206.61 405.129 207.195 408.034L207.876 407.897L208.556 407.76C207.851 404.258 204.881 401.512 201.141 401.254L201.093 401.947ZM207.876 407.897L207.472 408.462C209.118 409.64 210.197 411.534 210.29 413.651L210.983 413.621L211.677 413.591C211.565 411.034 210.262 408.752 208.28 407.333L207.876 407.897ZM210.983 413.621L210.858 414.304C212.943 414.685 214.67 416.014 215.612 417.807L216.226 417.484L216.841 417.161C215.707 415.004 213.627 413.398 211.108 412.938L210.983 413.621ZM216.226 417.484L215.998 418.139C218.798 419.116 220.714 421.873 220.501 424.972L221.193 425.019L221.886 425.067C222.143 421.328 219.831 418.007 216.455 416.828L216.226 417.484ZM221.193 425.019L220.501 424.972C220.287 428.071 218.011 430.536 215.104 431.121L215.241 431.801L215.378 432.482C218.882 431.778 221.628 428.807 221.886 425.067L221.193 425.019ZM215.241 431.801L214.676 431.397C213.498 433.044 211.606 434.124 209.488 434.215L209.518 434.909L209.548 435.602C212.106 435.492 214.386 434.187 215.805 432.205L215.241 431.801ZM209.518 434.909L208.835 434.784C208.454 436.87 207.125 438.596 205.332 439.538L205.655 440.152L205.978 440.767C208.136 439.633 209.741 437.553 210.201 435.034L209.518 434.909ZM205.655 440.152L205 439.923C204.383 441.692 203.054 443.109 201.375 443.859L201.658 444.492L201.942 445.126C203.963 444.223 205.565 442.517 206.311 440.381L205.655 440.152ZM201.658 444.492L201.479 445.163C201.658 445.211 201.784 445.382 201.771 445.575L202.464 445.623L203.156 445.67C203.216 444.804 202.648 444.039 201.838 443.822L201.658 444.492ZM202.464 445.623L201.771 445.575C201.756 445.794 201.566 445.959 201.347 445.944L201.299 446.637L201.252 447.329C202.236 447.397 203.088 446.654 203.156 445.67L202.464 445.623ZM201.299 446.637L200.607 446.589L199.632 460.752L200.324 460.8L201.017 460.847L201.992 446.684L201.299 446.637ZM200.324 460.8L200.277 461.492L208.696 462.072L208.744 461.379L208.792 460.687L200.372 460.107L200.324 460.8ZM208.744 461.379L208.696 462.072C209.079 462.098 209.368 462.43 209.342 462.812L210.034 462.86L210.727 462.908C210.806 461.76 209.939 460.766 208.792 460.687L208.744 461.379ZM210.034 462.86L209.342 462.812L209.062 466.878L209.754 466.925L210.447 466.973L210.727 462.908L210.034 462.86ZM209.754 466.925L210.209 466.401C209.668 465.933 208.977 465.626 208.206 465.573L208.158 466.265L208.11 466.958C208.567 466.989 208.976 467.17 209.3 467.45L209.754 466.925ZM208.158 466.265L208.206 465.573C207.075 465.495 206.037 465.977 205.359 466.777L205.888 467.226L206.418 467.675C206.824 467.196 207.44 466.912 208.11 466.958L208.158 466.265ZM205.888 467.226L206.416 466.775L204.407 464.425L203.879 464.876L203.351 465.327L205.361 467.677L205.888 467.226ZM203.879 464.876L203.418 464.356L199.335 467.981L199.795 468.5L200.256 469.019L204.34 465.395L203.879 464.876ZM199.795 468.5L199.268 468.951L202.816 473.101L203.344 472.65L203.872 472.199L200.323 468.049L199.795 468.5ZM203.344 472.65L203.805 473.169L206.185 471.056L205.724 470.537L205.263 470.018L202.883 472.131L203.344 472.65ZM205.724 470.537L205.153 470.931C205.723 471.758 206.652 472.33 207.735 472.405L207.783 471.713L207.831 471.02C207.189 470.976 206.637 470.638 206.296 470.143L205.724 470.537ZM207.783 471.713L207.735 472.405C208.507 472.458 209.234 472.248 209.833 471.859L209.455 471.277L209.076 470.694C208.717 470.928 208.287 471.051 207.831 471.02L207.783 471.713ZM209.455 471.277L208.762 471.229L208.482 475.294L209.175 475.342L209.867 475.39L210.147 471.324L209.455 471.277ZM209.175 475.342L208.482 475.294C208.456 475.677 208.124 475.966 207.742 475.94L207.694 476.632L207.646 477.325C208.794 477.404 209.788 476.537 209.867 475.39L209.175 475.342ZM207.694 476.632L207.742 475.94L199.322 475.36L199.275 476.053L199.227 476.745L207.646 477.325L207.694 476.632ZM199.275 476.053L198.582 476.005L198.432 478.183L199.125 478.231L199.817 478.279L199.967 476.1L199.275 476.053ZM199.125 478.231L199.041 478.92L199.151 478.934L199.235 478.244L199.319 477.555L199.209 477.542L199.125 478.231ZM199.235 478.244L199.118 478.929C199.316 478.963 199.46 479.143 199.446 479.348L200.139 479.395L200.831 479.443C200.895 478.519 200.245 477.714 199.353 477.56L199.235 478.244ZM200.139 479.395L199.446 479.347C199.432 479.553 199.264 479.712 199.064 479.718L199.086 480.412L199.109 481.106C200.015 481.077 200.768 480.365 200.831 479.443L200.139 479.395ZM199.086 480.412L199.103 479.718L198.992 479.715L198.975 480.409L198.957 481.103L199.069 481.106L199.086 480.412ZM198.975 480.409L198.282 480.362C198.184 481.784 196.952 482.858 195.53 482.761L195.482 483.453L195.434 484.146C197.622 484.296 199.517 482.644 199.667 480.457L198.975 480.409ZM195.482 483.453L195.53 482.761C194.152 482.666 193.1 481.506 193.125 480.141L192.431 480.128L191.737 480.116C191.699 482.216 193.315 484 195.434 484.146L195.482 483.453ZM192.431 480.128L193.124 480.16L193.132 479.991L192.438 479.96L191.745 479.928L191.737 480.097L192.431 480.128ZM192.438 479.96L192.486 479.267L192.485 479.267L192.437 479.959L192.39 480.652L192.391 480.652L192.438 479.96ZM192.437 479.959L192.485 479.267C192.266 479.252 192.101 479.062 192.116 478.843L191.423 478.795L190.731 478.748C190.663 479.732 191.406 480.584 192.39 480.652L192.437 479.959ZM191.423 478.795L192.116 478.843C192.131 478.624 192.321 478.459 192.54 478.474L192.587 477.781L192.635 477.088C191.651 477.021 190.798 477.763 190.731 478.748L191.423 478.795ZM192.587 477.781L192.54 478.474L192.541 478.474L192.588 477.781L192.636 477.089L192.635 477.088L192.587 477.781ZM192.588 477.781L193.281 477.829L195.456 446.235L194.763 446.187L194.071 446.139L191.896 477.733L192.588 477.781ZM194.763 446.187L194.847 445.498L194.736 445.484L194.652 446.173L194.568 446.862L194.679 446.876L194.763 446.187ZM194.652 446.173L194.77 445.489C194.571 445.455 194.427 445.275 194.441 445.07L193.749 445.023L193.056 444.975C192.993 445.898 193.642 446.705 194.535 446.858L194.652 446.173ZM193.749 445.023L194.441 445.07C194.455 444.877 194.604 444.725 194.788 444.702L194.702 444.014L194.617 443.325C193.784 443.428 193.116 444.108 193.056 444.975L193.749 445.023ZM194.702 444.014L195.07 443.424C193.51 442.452 192.387 440.866 192.018 439.03L191.338 439.167L190.657 439.303C191.103 441.521 192.457 443.431 194.335 444.603L194.702 444.014ZM191.338 439.167L191.742 438.602C190.096 437.423 189.015 435.531 188.924 433.414L188.23 433.444L187.537 433.473C187.647 436.032 188.952 438.312 190.934 439.731L191.338 439.167ZM188.23 433.444L188.355 432.761C186.27 432.379 184.542 431.051 183.601 429.258L182.986 429.581L182.371 429.904C183.505 432.062 185.587 433.666 188.105 434.126L188.23 433.444ZM182.986 429.581L183.215 428.926C180.417 427.948 178.5 425.194 178.713 422.095L178.021 422.048L177.328 422C177.071 425.74 179.385 429.058 182.757 430.236L182.986 429.581ZM178.021 422.048L178.713 422.095C178.927 418.997 181.202 416.53 184.109 415.945L183.971 415.264L183.834 414.584C180.331 415.29 177.586 418.261 177.328 422L178.021 422.048ZM183.971 415.264L184.536 415.668C185.714 414.022 187.608 412.942 189.726 412.85L189.696 412.156L189.665 411.462C187.108 411.574 184.826 412.878 183.407 414.86L183.971 415.264ZM189.696 412.156L190.378 412.281C190.76 410.196 192.089 408.468 193.882 407.526L193.559 406.912L193.236 406.297C191.078 407.431 189.473 409.513 189.013 412.031L189.696 412.156ZM193.559 406.912L194.214 407.141C195.192 404.342 197.947 402.426 201.046 402.639L201.093 401.947L201.141 401.254C197.402 400.997 194.083 403.309 192.904 406.683L193.559 406.912ZM200.807 406.102L200.855 405.41C198.668 405.259 196.772 406.911 196.621 409.098L197.314 409.146L198.006 409.193C198.104 407.771 199.337 406.697 200.76 406.795L200.807 406.102ZM197.314 409.146L196.621 409.098C196.589 409.563 196.64 410.016 196.759 410.44L197.427 410.253L198.096 410.066C198.019 409.789 197.986 409.495 198.006 409.193L197.314 409.146ZM197.427 410.253L197.514 409.564C197.436 409.554 197.359 409.547 197.287 409.542L197.239 410.235L197.191 410.927C197.245 410.931 197.295 410.936 197.341 410.942L197.427 410.253ZM197.239 410.235L197.286 409.542C195.099 409.392 193.203 411.044 193.053 413.231L193.745 413.279L194.438 413.326C194.536 411.904 195.769 410.83 197.191 410.927L197.239 410.235ZM193.745 413.279L193.053 413.231C192.902 415.418 194.554 417.313 196.741 417.464L196.789 416.771L196.837 416.079C195.414 415.981 194.34 414.748 194.438 413.326L193.745 413.279ZM196.789 416.771L196.741 417.464C197.204 417.496 197.654 417.445 198.077 417.328L197.891 416.659L197.705 415.99C197.43 416.067 197.137 416.099 196.837 416.079L196.789 416.771ZM197.891 416.659L197.198 416.611L196.886 421.156L197.578 421.204L198.271 421.252L198.584 416.707L197.891 416.659ZM197.578 421.204L197.626 420.511L193.082 420.199L193.034 420.891L192.987 421.584L197.53 421.897L197.578 421.204ZM193.034 420.891L193.671 421.167C193.846 420.763 193.956 420.324 193.988 419.863L193.295 419.815L192.603 419.767C192.582 420.069 192.51 420.354 192.397 420.616L193.034 420.891ZM193.295 419.815L193.988 419.862C194.138 417.675 192.488 415.78 190.3 415.629L190.253 416.321L190.205 417.014C191.627 417.112 192.701 418.345 192.603 419.767L193.295 419.815ZM190.253 416.321L190.3 415.629C188.113 415.479 186.217 417.13 186.066 419.317L186.759 419.365L187.452 419.413C187.55 417.99 188.783 416.916 190.205 417.014L190.253 416.321ZM186.759 419.365L186.066 419.317C186.061 419.39 186.058 419.467 186.057 419.546L186.751 419.554L187.445 419.563C187.446 419.516 187.448 419.467 187.452 419.413L186.759 419.365ZM186.751 419.554L187.028 418.918C186.624 418.742 186.183 418.629 185.718 418.597L185.67 419.29L185.622 419.982C185.924 420.003 186.211 420.076 186.474 420.191L186.751 419.554ZM185.67 419.29L185.717 418.597C183.53 418.447 181.634 420.099 181.484 422.286L182.176 422.334L182.869 422.381C182.967 420.959 184.2 419.885 185.622 419.982L185.67 419.29ZM182.176 422.334L181.484 422.286C181.333 424.473 182.985 426.368 185.172 426.519L185.22 425.826L185.268 425.134C183.845 425.036 182.771 423.803 182.869 422.381L182.176 422.334ZM185.22 425.826L185.172 426.519C185.638 426.551 186.09 426.5 186.514 426.381L186.327 425.713L186.14 425.044C185.863 425.121 185.57 425.154 185.267 425.134L185.22 425.826ZM186.327 425.713L185.638 425.625C185.628 425.704 185.622 425.781 185.617 425.853L186.309 425.901L187.002 425.949C187.005 425.895 187.01 425.845 187.016 425.8L186.327 425.713ZM186.309 425.901L185.617 425.854C185.466 428.041 187.118 429.936 189.305 430.087L189.353 429.395L189.4 428.702C187.978 428.604 186.904 427.371 187.002 425.949L186.309 425.901ZM189.353 429.395L189.305 430.087C191.493 430.238 193.387 428.586 193.538 426.399L192.845 426.351L192.153 426.303C192.055 427.726 190.823 428.8 189.4 428.702L189.353 429.395ZM192.845 426.351L193.538 426.399C193.57 425.937 193.521 425.487 193.403 425.063L192.734 425.249L192.065 425.435C192.142 425.709 192.174 426.001 192.153 426.304L192.845 426.351ZM192.734 425.249L192.687 425.942L197.231 426.254L197.278 425.562L197.326 424.869L192.782 424.557L192.734 425.249ZM197.278 425.562L196.586 425.514L196.273 430.059L196.965 430.107L197.658 430.154L197.971 425.61L197.278 425.562ZM196.965 430.107L197.241 429.47C196.839 429.296 196.4 429.184 195.937 429.152L195.889 429.845L195.841 430.537C196.142 430.558 196.427 430.63 196.69 430.744L196.965 430.107ZM195.889 429.845L195.937 429.152C193.749 429.002 191.854 430.653 191.703 432.841L192.395 432.888L193.088 432.936C193.186 431.514 194.419 430.44 195.841 430.537L195.889 429.845ZM192.395 432.888L191.703 432.841C191.552 435.028 193.204 436.923 195.391 437.074L195.439 436.381L195.487 435.689C194.064 435.59 192.99 434.358 193.088 432.936L192.395 432.888ZM195.439 436.381L195.391 437.074C195.471 437.079 195.548 437.081 195.62 437.082L195.628 436.388L195.637 435.694C195.583 435.693 195.534 435.692 195.487 435.689L195.439 436.381ZM195.628 436.388L194.992 436.111C194.816 436.516 194.704 436.958 194.671 437.424L195.364 437.471L196.057 437.519C196.077 437.216 196.15 436.928 196.265 436.665L195.628 436.388ZM195.364 437.471L194.671 437.424C194.526 439.541 196.069 441.383 198.151 441.636L198.235 440.947L198.319 440.258C196.965 440.093 195.962 438.895 196.057 437.519L195.364 437.471ZM198.235 440.947L198.15 441.636C198.126 441.633 198.105 441.629 198.089 441.626C198.072 441.622 198.058 441.618 198.047 441.615C198.036 441.612 198.028 441.61 198.023 441.608C198.02 441.607 198.018 441.606 198.017 441.606C198.015 441.605 198.014 441.605 198.014 441.605C198.013 441.605 198.015 441.605 198.015 441.605C198.016 441.606 198.018 441.606 198.02 441.607C198.024 441.608 198.032 441.611 198.041 441.614C198.051 441.617 198.064 441.62 198.079 441.624C198.095 441.628 198.114 441.632 198.137 441.635L198.239 440.948L198.342 440.262C198.364 440.265 198.383 440.269 198.398 440.273C198.414 440.276 198.426 440.28 198.435 440.283C198.444 440.285 198.452 440.288 198.455 440.289C198.458 440.29 198.462 440.291 198.46 440.29C198.46 440.29 198.455 440.289 198.45 440.287C198.445 440.285 198.436 440.282 198.425 440.279C198.414 440.276 198.399 440.272 198.382 440.269C198.365 440.265 198.343 440.261 198.319 440.258L198.235 440.947ZM198.239 440.948L198.176 441.64L198.344 441.655L198.408 440.964L198.471 440.273L198.303 440.257L198.239 440.948ZM198.408 440.964L198.36 441.656C200.547 441.807 202.442 440.156 202.593 437.969L201.9 437.921L201.208 437.873C201.11 439.296 199.878 440.369 198.455 440.271L198.408 440.964ZM201.9 437.921L202.593 437.969C202.625 437.503 202.574 437.05 202.455 436.625L201.787 436.812L201.118 436.999C201.196 437.276 201.229 437.57 201.208 437.874L201.9 437.921ZM201.787 436.812L201.7 437.501C201.771 437.51 201.848 437.518 201.927 437.523L201.975 436.831L202.023 436.138C201.976 436.135 201.926 436.13 201.874 436.123L201.787 436.812ZM201.975 436.831L201.928 437.524C204.115 437.674 206.011 436.024 206.161 433.836L205.469 433.788L204.776 433.741C204.678 435.163 203.446 436.236 202.023 436.138L201.975 436.831ZM205.469 433.788L206.161 433.836C206.312 431.649 204.66 429.753 202.473 429.602L202.425 430.295L202.378 430.987C203.8 431.085 204.874 432.318 204.776 433.741L205.469 433.788ZM202.425 430.295L202.473 429.602C202.01 429.57 201.56 429.62 201.137 429.738L201.323 430.407L201.509 431.076C201.784 430.999 202.077 430.967 202.378 430.987L202.425 430.295ZM201.323 430.407L202.016 430.454L202.329 425.91L201.636 425.862L200.943 425.814L200.631 430.359L201.323 430.407ZM201.636 425.862L201.588 426.554L206.133 426.867L206.181 426.175L206.229 425.482L201.684 425.169L201.636 425.862ZM206.181 426.175L205.544 425.899C205.37 426.301 205.258 426.74 205.226 427.203L205.919 427.251L206.611 427.299C206.632 426.998 206.704 426.713 206.818 426.451L206.181 426.175ZM205.919 427.251L205.226 427.203C205.076 429.391 206.728 431.286 208.915 431.437L208.963 430.745L209.01 430.052C207.588 429.954 206.514 428.721 206.611 427.299L205.919 427.251ZM208.963 430.745L208.915 431.437C211.102 431.588 212.997 429.936 213.148 427.749L212.455 427.701L211.763 427.653C211.665 429.076 210.432 430.15 209.01 430.052L208.963 430.745ZM212.455 427.701L213.148 427.748C213.153 427.669 213.156 427.592 213.156 427.52L212.462 427.512L211.768 427.503C211.768 427.556 211.766 427.606 211.763 427.653L212.455 427.701ZM212.462 427.512L212.185 428.148C212.59 428.324 213.032 428.436 213.498 428.469L213.545 427.776L213.593 427.083C213.29 427.063 213.003 426.99 212.739 426.875L212.462 427.512ZM213.545 427.776L213.498 428.469C215.685 428.619 217.58 426.968 217.731 424.781L217.038 424.733L216.345 424.686C216.247 426.108 215.015 427.181 213.593 427.083L213.545 427.776ZM217.038 424.733L217.731 424.781C217.881 422.594 216.23 420.698 214.043 420.547L213.995 421.24L213.948 421.932C215.37 422.03 216.443 423.263 216.345 424.686L217.038 424.733ZM213.995 421.24L214.043 420.547C213.578 420.515 213.124 420.566 212.699 420.685L212.886 421.353L213.074 422.022C213.35 421.944 213.644 421.911 213.948 421.932L213.995 421.24ZM212.886 421.353L213.575 421.44C213.584 421.369 213.592 421.292 213.598 421.212L212.905 421.165L212.213 421.117C212.209 421.164 212.204 421.213 212.198 421.266L212.886 421.353ZM212.905 421.165L213.598 421.212C213.748 419.025 212.098 417.129 209.91 416.979L209.862 417.671L209.815 418.364C211.237 418.462 212.31 419.694 212.213 421.117L212.905 421.165ZM209.862 417.671L209.91 416.979C207.723 416.828 205.827 418.48 205.676 420.667L206.369 420.715L207.061 420.762C207.159 419.34 208.393 418.266 209.815 418.364L209.862 417.671ZM206.369 420.715L205.676 420.667C205.644 421.13 205.695 421.58 205.812 422.003L206.481 421.817L207.15 421.631C207.073 421.356 207.041 421.063 207.061 420.762L206.369 420.715ZM206.481 421.817L206.529 421.124L201.984 420.811L201.936 421.504L201.888 422.197L206.433 422.509L206.481 421.817ZM201.936 421.504L202.629 421.552L202.941 417.007L202.249 416.959L201.556 416.911L201.243 421.456L201.936 421.504ZM202.249 416.959L201.973 417.596C202.376 417.77 202.815 417.882 203.277 417.914L203.325 417.221L203.373 416.529C203.072 416.508 202.787 416.436 202.525 416.322L202.249 416.959ZM203.325 417.221L203.278 417.914C205.465 418.064 207.36 416.414 207.511 414.226L206.819 414.178L206.126 414.131C206.028 415.553 204.795 416.626 203.373 416.529L203.325 417.221ZM206.819 414.178L207.511 414.226C207.662 412.039 206.01 410.143 203.823 409.992L203.775 410.685L203.727 411.377C205.15 411.475 206.224 412.708 206.126 414.131L206.819 414.178ZM203.775 410.685L203.823 409.992C203.75 409.987 203.673 409.983 203.594 409.983L203.586 410.677L203.578 411.371C203.624 411.371 203.673 411.374 203.728 411.377L203.775 410.685ZM203.586 410.677L204.222 410.954C204.398 410.55 204.511 410.109 204.543 409.643L203.85 409.596L203.158 409.548C203.137 409.85 203.064 410.136 202.949 410.4L203.586 410.677ZM203.85 409.596L204.543 409.643C204.693 407.456 203.043 405.56 200.855 405.41L200.807 406.102L200.76 406.795C202.182 406.893 203.255 408.125 203.158 409.548L203.85 409.596Z" fill="#0088FF" mask="url(#path-2-outside-1_210_475)"/>
<path d="M200.501 401.5C200.332 402.939 200.065 405.061 200.5 406.5" stroke="#0088FF" stroke-width="6" stroke-linecap="round"/>
</svg>