<svg xmlns="http://www.w3.org/2000/svg" width="66" height="66" viewBox="0 0 66 66" fill="none">
<mask id="path-1-inside-1_189_386" fill="white">
<path d="M63.6828 17.9979C65.2073 18.6465 65.9176 20.4083 65.2692 21.9328L47.5109 63.6821C46.8624 65.2067 45.1006 65.9169 43.576 65.2685L1.82672 47.5102C0.302065 46.8617 -0.408185 45.1 0.240336 43.5754L17.9986 1.82607C18.6472 0.301515 20.4089 -0.408818 21.9335 0.239681L63.6828 17.9979ZM40.2416 15.1576C35.9844 13.3468 31.0644 15.3298 29.2533 19.5869L29.1446 19.8548C28.8181 20.7017 28.6401 21.5724 28.5964 22.436C27.8994 21.7821 27.0778 21.2362 26.1476 20.8405C21.8903 19.0296 16.9699 21.0134 15.1589 25.2707C13.3485 29.528 15.3323 34.4477 19.5895 36.2585C20.5201 36.6542 21.4834 36.8659 22.4381 36.9141C21.7832 37.6117 21.2366 38.434 20.8405 39.3652C19.0298 43.6226 21.0139 48.5422 25.2711 50.353C29.5282 52.1633 34.4476 50.1802 36.2585 45.9233C36.6547 44.992 36.8671 44.0276 36.9153 43.072C37.6131 43.7272 38.4353 44.2747 39.3669 44.6709C43.6239 46.481 48.5434 44.498 50.3543 40.2412C52.1649 35.9842 50.1817 31.0641 45.925 29.2529C44.9931 28.8565 44.0282 28.6435 43.0719 28.5954C43.6645 27.9646 44.1697 27.2326 44.5537 26.4091L44.6713 26.145C46.4818 21.888 44.4984 16.9687 40.2416 15.1576ZM29.1309 23.4349C29.1299 23.422 29.1281 23.409 29.1272 23.3962L29.1257 23.3648C29.1272 23.3881 29.1292 23.4116 29.1309 23.4349Z"/>
</mask>
<path d="M63.6828 17.9979C65.2073 18.6465 65.9176 20.4083 65.2692 21.9328L47.5109 63.6821C46.8624 65.2067 45.1006 65.9169 43.576 65.2685L1.82672 47.5102C0.302065 46.8617 -0.408185 45.1 0.240336 43.5754L17.9986 1.82607C18.6472 0.301515 20.4089 -0.408818 21.9335 0.239681L63.6828 17.9979ZM40.2416 15.1576C35.9844 13.3468 31.0644 15.3298 29.2533 19.5869L29.1446 19.8548C28.8181 20.7017 28.6401 21.5724 28.5964 22.436C27.8994 21.7821 27.0778 21.2362 26.1476 20.8405C21.8903 19.0296 16.9699 21.0134 15.1589 25.2707C13.3485 29.528 15.3323 34.4477 19.5895 36.2585C20.5201 36.6542 21.4834 36.8659 22.4381 36.9141C21.7832 37.6117 21.2366 38.434 20.8405 39.3652C19.0298 43.6226 21.0139 48.5422 25.2711 50.353C29.5282 52.1633 34.4476 50.1802 36.2585 45.9233C36.6547 44.992 36.8671 44.0276 36.9153 43.072C37.6131 43.7272 38.4353 44.2747 39.3669 44.6709C43.6239 46.481 48.5434 44.498 50.3543 40.2412C52.1649 35.9842 50.1817 31.0641 45.925 29.2529C44.9931 28.8565 44.0282 28.6435 43.0719 28.5954C43.6645 27.9646 44.1697 27.2326 44.5537 26.4091L44.6713 26.145C46.4818 21.888 44.4984 16.9687 40.2416 15.1576ZM29.1309 23.4349C29.1299 23.422 29.1281 23.409 29.1272 23.3962L29.1257 23.3648C29.1272 23.3881 29.1292 23.4116 29.1309 23.4349Z" fill="#DFE6EF"/>
<path d="M63.6828 17.9979L63.9529 17.363L63.9529 17.363L63.6828 17.9979ZM65.2692 21.9328L65.9041 22.2029L65.9041 22.2029L65.2692 21.9328ZM43.576 65.2685L43.3059 65.9035L43.306 65.9035L43.576 65.2685ZM17.9986 1.82607L17.3637 1.55596L17.3637 1.55599L17.9986 1.82607ZM40.2416 15.1576L40.5118 14.5227L40.5117 14.5226L40.2416 15.1576ZM29.2533 19.5869L28.6183 19.3167L28.6139 19.3276L29.2533 19.5869ZM29.1446 19.8548L28.5051 19.5955L28.5008 19.6066L29.1446 19.8548ZM28.5964 22.436L28.1243 22.9392L29.2102 23.958L29.2855 22.4709L28.5964 22.436ZM26.1476 20.8405L26.4178 20.2055L26.4177 20.2055L26.1476 20.8405ZM15.1589 25.2707L14.5239 25.0006L14.5239 25.0007L15.1589 25.2707ZM19.5895 36.2585L19.3194 36.8935L19.3195 36.8935L19.5895 36.2585ZM22.4381 36.9141L22.9412 37.3864L23.9608 36.3002L22.4729 36.225L22.4381 36.9141ZM20.8405 39.3652L20.2055 39.0951L20.2055 39.0951L20.8405 39.3652ZM25.2711 50.353L25.001 50.988L25.0011 50.988L25.2711 50.353ZM36.2585 45.9233L36.8935 46.1935L36.8935 46.1934L36.2585 45.9233ZM36.9153 43.072L37.3876 42.569L36.3012 41.5491L36.2261 43.0373L36.9153 43.072ZM39.3669 44.6709L39.0968 45.3059L39.0969 45.3059L39.3669 44.6709ZM50.3543 40.2412L50.9893 40.5114L50.9893 40.5113L50.3543 40.2412ZM45.925 29.2529L46.1952 28.618L46.1951 28.6179L45.925 29.2529ZM43.0719 28.5954L42.569 28.123L41.5483 29.2096L43.0373 29.2845L43.0719 28.5954ZM44.5537 26.4091L45.1792 26.7008L45.184 26.6899L44.5537 26.4091ZM44.6713 26.145L45.3017 26.4259L45.3063 26.4151L44.6713 26.145ZM29.1309 23.4349L28.4428 23.4862L29.819 23.384L29.1309 23.4349ZM29.1272 23.3962L28.438 23.429L28.4383 23.4363L28.4388 23.4435L29.1272 23.3962ZM29.1257 23.3648L29.8143 23.3201L28.4365 23.3976L29.1257 23.3648ZM63.6828 17.9979L63.4127 18.6329C64.5865 19.1323 65.1335 20.4889 64.6342 21.6628L65.2692 21.9328L65.9041 22.2029C66.7016 20.3277 65.828 18.1607 63.9529 17.363L63.6828 17.9979ZM65.2692 21.9328L64.6342 21.6628L46.876 63.412L47.5109 63.6821L48.1458 63.9522L65.9041 22.2029L65.2692 21.9328ZM47.5109 63.6821L46.876 63.412C46.3766 64.5859 45.0201 65.1328 43.8461 64.6335L43.576 65.2685L43.306 65.9035C45.1812 66.701 47.3482 65.8275 48.1458 63.9522L47.5109 63.6821ZM43.576 65.2685L43.8461 64.6336L2.0968 46.8753L1.82672 47.5102L1.55665 48.1452L43.3059 65.9035L43.576 65.2685ZM1.82672 47.5102L2.0968 46.8753C0.922814 46.3759 0.375923 45.0194 0.875283 43.8454L0.240336 43.5754L-0.394611 43.3053C-1.19229 45.1806 -0.318684 47.3475 1.55665 48.1452L1.82672 47.5102ZM0.240336 43.5754L0.875283 43.8454L18.6335 2.09615L17.9986 1.82607L17.3637 1.55599L-0.394611 43.3053L0.240336 43.5754ZM17.9986 1.82607L18.6335 2.09618C19.133 0.92223 20.4895 0.375303 21.6634 0.874629L21.9335 0.239681L22.2036 -0.395266C20.3283 -1.19294 18.1614 -0.3192 17.3637 1.55596L17.9986 1.82607ZM21.9335 0.239681L21.6634 0.874629L63.4127 18.6329L63.6828 17.9979L63.9529 17.363L22.2036 -0.395266L21.9335 0.239681ZM40.2416 15.1576L40.5117 14.5226C35.9039 12.5627 30.5787 14.7089 28.6183 19.3168L29.2533 19.5869L29.8882 19.857C31.5501 15.9506 36.065 14.1308 39.9716 15.7925L40.2416 15.1576ZM29.2533 19.5869L28.6139 19.3276L28.5052 19.5955L29.1446 19.8548L29.784 20.1141L29.8927 19.8462L29.2533 19.5869ZM29.1446 19.8548L28.5008 19.6066C28.1473 20.5234 27.9546 21.4663 27.9073 22.4011L28.5964 22.436L29.2855 22.4709C29.3256 21.6785 29.4888 20.88 29.7884 20.1031L29.1446 19.8548ZM28.5964 22.436L29.0685 21.9328C28.3136 21.2246 27.424 20.6337 26.4178 20.2055L26.1476 20.8405L25.8775 21.4754C26.7315 21.8388 27.4851 22.3395 28.1243 22.9392L28.5964 22.436ZM26.1476 20.8405L26.4177 20.2055C21.8097 18.2455 16.4841 20.3927 14.5239 25.0006L15.1589 25.2707L15.7938 25.5408C17.4557 21.6342 21.9709 19.8137 25.8776 21.4754L26.1476 20.8405ZM15.1589 25.2707L14.5239 25.0007C12.5644 29.6086 14.7116 34.9335 19.3194 36.8935L19.5895 36.2585L19.8596 35.6236C15.953 33.9619 14.1326 29.4473 15.7939 25.5407L15.1589 25.2707ZM19.5895 36.2585L19.3195 36.8935C20.3269 37.3219 21.37 37.551 22.4033 37.6032L22.4381 36.9141L22.4729 36.225C21.5968 36.1807 20.7133 35.9866 19.8595 35.6235L19.5895 36.2585ZM22.4381 36.9141L21.935 36.4418C21.2259 37.1973 20.6341 38.0876 20.2055 39.0951L20.8405 39.3652L21.4754 39.6353C21.8391 38.7803 22.3405 38.0261 22.9412 37.3864L22.4381 36.9141ZM20.8405 39.3652L20.2055 39.0951C18.2457 43.7033 20.3932 49.028 25.001 50.988L25.2711 50.353L25.5412 49.7181C21.6345 48.0564 19.814 43.5419 21.4754 39.6352L20.8405 39.3652ZM25.2711 50.353L25.0011 50.988C29.6088 52.9474 34.9333 50.801 36.8935 46.1935L36.2585 45.9233L35.6236 45.6532C33.9618 49.5595 29.4476 51.3793 25.5411 49.7181L25.2711 50.353ZM36.2585 45.9233L36.8935 46.1934C37.3222 45.1854 37.5522 44.1412 37.6044 43.1068L36.9153 43.072L36.2261 43.0373C36.1819 43.914 35.9871 44.7985 35.6236 45.6533L36.2585 45.9233ZM36.9153 43.072L36.443 43.5751C37.1984 44.2843 38.0886 44.877 39.0968 45.3059L39.3669 44.6709L39.637 44.036C38.7819 43.6723 38.0279 43.1702 37.3876 42.569L36.9153 43.072ZM39.3669 44.6709L39.0969 45.3059C43.7045 47.2651 49.0291 45.1188 50.9893 40.5114L50.3543 40.2412L49.7194 39.9711C48.0576 43.8772 43.5433 45.697 39.6369 44.036L39.3669 44.6709ZM50.3543 40.2412L50.9893 40.5113C52.949 35.9037 50.8025 30.5784 46.1952 28.618L45.925 29.2529L45.6549 29.8878C49.5609 31.5498 51.3808 36.0648 49.7194 39.9712L50.3543 40.2412ZM45.925 29.2529L46.1951 28.6179C45.1868 28.189 44.142 27.9583 43.1066 27.9062L43.0719 28.5954L43.0373 29.2845C43.9144 29.3286 44.7995 29.5239 45.655 29.8878L45.925 29.2529ZM43.0719 28.5954L43.5749 29.0678C44.2159 28.3853 44.7631 27.5927 45.1791 26.7007L44.5537 26.4091L43.9283 26.1175C43.5764 26.8724 43.113 27.5438 42.569 28.123L43.0719 28.5954ZM44.5537 26.4091L45.184 26.6899L45.3016 26.4258L44.6713 26.145L44.041 25.8643L43.9234 26.1284L44.5537 26.4091ZM44.6713 26.145L45.3063 26.4151C47.2659 21.8074 45.1191 16.4829 40.5118 14.5227L40.2416 15.1576L39.9715 15.7925C43.8776 17.4545 45.6977 21.9686 44.0364 25.875L44.6713 26.145ZM29.1309 23.4349L29.819 23.3836C29.8182 23.3727 29.8173 23.3634 29.8166 23.3567C29.816 23.3503 29.8153 23.3442 29.8151 23.3419C29.8147 23.3386 29.8147 23.3385 29.8148 23.3392C29.8149 23.3402 29.8152 23.3437 29.8156 23.3488L29.1272 23.3962L28.4388 23.4435C28.4396 23.4551 28.4405 23.465 28.4412 23.4724C28.4419 23.4796 28.4426 23.486 28.443 23.4891C28.4432 23.4911 28.4433 23.492 28.4434 23.493C28.4435 23.4938 28.4435 23.494 28.4435 23.4938C28.4434 23.4935 28.4431 23.4906 28.4428 23.4862L29.1309 23.4349ZM29.1272 23.3962L29.8164 23.3633L29.8149 23.3319L29.1257 23.3648L28.4365 23.3976L28.438 23.429L29.1272 23.3962ZM29.1257 23.3648L28.4372 23.4094C28.4389 23.4363 28.4417 23.4717 28.4428 23.4857L29.1309 23.4349L29.819 23.384C29.8166 23.3515 29.8155 23.3399 29.8143 23.3201L29.1257 23.3648Z" fill="#0088FF" mask="url(#path-1-inside-1_189_386)"/>
</svg>