<svg xmlns="http://www.w3.org/2000/svg" width="45" height="83" viewBox="0 0 45 83" fill="none">
<mask id="path-1-outside-1_189_336" maskUnits="userSpaceOnUse" x="-4.4992" y="-1.83975" width="50.6622" height="86.892" fill="black">
<rect fill="white" x="-4.4992" y="-1.83975" width="50.6622" height="86.892"/>
<path d="M23.7849 0.712472C27.2042 0.948203 29.9217 3.45903 30.567 6.66297C32.3815 7.96159 33.5728 10.0495 33.6745 12.3869C35.9764 12.8073 37.8797 14.2747 38.9177 16.2493C42.0057 17.3271 44.1198 20.3657 43.8846 23.7849C43.6488 27.2046 41.1378 29.9226 37.9321 30.567C36.6334 32.3813 34.5474 33.5734 32.2091 33.6745C31.7886 35.9768 30.3219 37.8799 28.3468 38.9177C27.6653 40.8701 26.1997 42.4318 24.3498 43.258C24.8442 43.3903 25.1915 43.8584 25.155 44.3882C25.1135 44.9898 24.5924 45.4438 23.9908 45.4024L23.0159 59.5652L31.4354 60.1448C32.2004 60.1974 32.7781 60.8606 32.7255 61.6255L32.4456 65.6911C32.0138 65.3172 31.4632 65.0734 30.8495 65.0311C29.949 64.9692 29.122 65.3522 28.5799 65.9918L26.5706 63.6412L22.4868 67.2658L26.0354 71.4158L28.4156 69.3028C28.8715 69.9633 29.6117 70.4187 30.4745 70.4782C31.0883 70.5204 31.6671 70.3534 32.1461 70.0421L31.8663 74.1077C31.8135 74.8725 31.1503 75.4503 30.3855 75.3977L21.966 74.8182L21.816 76.9966L21.9267 77.0101C22.4721 77.1037 22.8691 77.5968 22.8303 78.1608C22.7914 78.7248 22.3306 79.1599 21.7775 79.1778L21.6661 79.1751C21.5418 80.9799 19.9782 82.3427 18.1734 82.2188C16.4249 82.0984 15.0909 80.6267 15.1221 78.8939L15.1298 78.7251L15.1288 78.7251C14.5273 78.6835 14.0732 78.1624 14.1146 77.5609C14.156 76.9593 14.6772 76.5054 15.2788 76.5466L15.2797 76.5467L17.4545 44.9525L17.3438 44.939C16.7982 44.8456 16.4015 44.3525 16.4403 43.7883C16.4768 43.2582 16.8854 42.8421 17.3937 42.7791C15.6747 41.7073 14.4366 39.9594 14.0291 37.9321C12.2154 36.6334 11.0226 34.547 10.9216 32.2091C8.62018 31.7881 6.71514 30.322 5.67741 28.3467C2.59218 27.2684 0.477309 24.2325 0.712332 20.8132C0.947805 17.3943 3.45822 14.6756 6.6629 14.03C7.96152 12.2155 10.0494 11.0233 12.3869 10.9216C12.8079 8.62011 14.2751 6.71529 16.2503 5.67748C17.3288 2.59143 20.366 0.47736 23.7849 0.712472ZM23.4988 4.86768C21.6941 4.74372 20.1296 6.10658 20.0052 7.91132C19.9788 8.29504 20.0209 8.668 20.1189 9.01842C20.0568 9.01058 19.9935 9.00489 19.9302 9.00054C18.1255 8.87657 16.561 10.2394 16.4366 12.0442C16.3126 13.8489 17.6757 15.4123 19.4803 15.5368C19.8622 15.5631 20.2334 15.5217 20.5824 15.4247L20.2696 19.9697L15.7256 19.6569C15.8695 19.3245 15.9604 18.9624 15.9867 18.5805C16.1107 16.7757 14.7487 15.2114 12.944 15.0869C11.1393 14.9629 9.57478 16.3258 9.45039 18.1305C9.44603 18.1938 9.44299 18.2572 9.44225 18.3199C9.1086 18.1748 8.74484 18.082 8.36117 18.0556C6.55643 17.9316 4.99193 19.2945 4.86754 21.0992C4.74352 22.9039 6.10656 24.4674 7.91124 24.5919C8.29503 24.6182 8.66788 24.5762 9.01834 24.4782C9.01048 24.5403 9.00483 24.6035 9.00046 24.6668C8.87625 26.4717 10.2393 28.036 12.0441 28.1605C13.8489 28.2844 15.4125 26.9216 15.5368 25.1168C15.563 24.7349 15.5226 24.3636 15.4256 24.0147L19.9696 24.3275L19.6567 28.8724C19.3244 28.7286 18.9622 28.6367 18.5804 28.6104C16.7756 28.4864 15.2112 29.8493 15.0868 31.654C14.9627 33.4588 16.3258 35.0222 18.1305 35.1467C18.1937 35.151 18.2572 35.1531 18.3199 35.1538C18.1744 35.488 18.0819 35.8525 18.0554 36.2369C17.9314 38.0416 19.2944 39.605 21.0991 39.7295C22.9039 39.8535 24.4673 38.4915 24.5917 36.6868C24.6181 36.3024 24.5765 35.9287 24.4782 35.5777C24.5403 35.5856 24.6035 35.5922 24.6668 35.5966C26.4717 35.7208 28.0359 34.3588 28.1603 32.5539C28.2844 30.749 26.9216 29.1846 25.1167 29.0603C24.7348 29.0341 24.3635 29.0754 24.0146 29.1724L24.3274 24.6275L28.8723 24.9403C28.7284 25.2727 28.6367 25.6348 28.6103 26.0167C28.4861 27.8215 29.8492 29.3858 31.6539 29.5103C33.4588 29.6344 35.0223 28.2715 35.1466 26.4666C35.1509 26.4033 35.153 26.3399 35.1538 26.2772C35.4878 26.4226 35.8525 26.5151 36.2368 26.5416C38.0415 26.6656 39.6049 25.3036 39.7294 23.4989C39.8534 21.6941 38.4915 20.1298 36.6867 20.0053C36.3025 19.979 35.9285 20.0206 35.5777 20.1189C35.5855 20.0567 35.5922 19.9937 35.5965 19.9303C35.7206 18.1255 34.3586 16.5612 32.5539 16.4367C30.7491 16.3128 29.1846 17.6756 29.0602 19.4804C29.034 19.8623 29.0754 20.2335 29.1723 20.5825L24.6274 20.2696L24.9403 15.7247C25.2726 15.8686 25.6347 15.9604 26.0166 15.9868C27.8215 16.111 29.3857 14.7489 29.5102 12.9441C29.6342 11.1392 28.2714 9.57473 26.4665 9.45046C26.4033 9.44612 26.3398 9.44305 26.2772 9.44232C26.4223 9.10853 26.515 8.74511 26.5415 8.36124C26.6656 6.55645 25.3036 4.99213 23.4988 4.86768Z"/>
</mask>
<path d="M23.7849 0.712472C27.2042 0.948203 29.9217 3.45903 30.567 6.66297C32.3815 7.96159 33.5728 10.0495 33.6745 12.3869C35.9764 12.8073 37.8797 14.2747 38.9177 16.2493C42.0057 17.3271 44.1198 20.3657 43.8846 23.7849C43.6488 27.2046 41.1378 29.9226 37.9321 30.567C36.6334 32.3813 34.5474 33.5734 32.2091 33.6745C31.7886 35.9768 30.3219 37.8799 28.3468 38.9177C27.6653 40.8701 26.1997 42.4318 24.3498 43.258C24.8442 43.3903 25.1915 43.8584 25.155 44.3882C25.1135 44.9898 24.5924 45.4438 23.9908 45.4024L23.0159 59.5652L31.4354 60.1448C32.2004 60.1974 32.7781 60.8606 32.7255 61.6255L32.4456 65.6911C32.0138 65.3172 31.4632 65.0734 30.8495 65.0311C29.949 64.9692 29.122 65.3522 28.5799 65.9918L26.5706 63.6412L22.4868 67.2658L26.0354 71.4158L28.4156 69.3028C28.8715 69.9633 29.6117 70.4187 30.4745 70.4782C31.0883 70.5204 31.6671 70.3534 32.1461 70.0421L31.8663 74.1077C31.8135 74.8725 31.1503 75.4503 30.3855 75.3977L21.966 74.8182L21.816 76.9966L21.9267 77.0101C22.4721 77.1037 22.8691 77.5968 22.8303 78.1608C22.7914 78.7248 22.3306 79.1599 21.7775 79.1778L21.6661 79.1751C21.5418 80.9799 19.9782 82.3427 18.1734 82.2188C16.4249 82.0984 15.0909 80.6267 15.1221 78.8939L15.1298 78.7251L15.1288 78.7251C14.5273 78.6835 14.0732 78.1624 14.1146 77.5609C14.156 76.9593 14.6772 76.5054 15.2788 76.5466L15.2797 76.5467L17.4545 44.9525L17.3438 44.939C16.7982 44.8456 16.4015 44.3525 16.4403 43.7883C16.4768 43.2582 16.8854 42.8421 17.3937 42.7791C15.6747 41.7073 14.4366 39.9594 14.0291 37.9321C12.2154 36.6334 11.0226 34.547 10.9216 32.2091C8.62018 31.7881 6.71514 30.322 5.67741 28.3467C2.59218 27.2684 0.477309 24.2325 0.712332 20.8132C0.947805 17.3943 3.45822 14.6756 6.6629 14.03C7.96152 12.2155 10.0494 11.0233 12.3869 10.9216C12.8079 8.62011 14.2751 6.71529 16.2503 5.67748C17.3288 2.59143 20.366 0.47736 23.7849 0.712472ZM23.4988 4.86768C21.6941 4.74372 20.1296 6.10658 20.0052 7.91132C19.9788 8.29504 20.0209 8.668 20.1189 9.01842C20.0568 9.01058 19.9935 9.00489 19.9302 9.00054C18.1255 8.87657 16.561 10.2394 16.4366 12.0442C16.3126 13.8489 17.6757 15.4123 19.4803 15.5368C19.8622 15.5631 20.2334 15.5217 20.5824 15.4247L20.2696 19.9697L15.7256 19.6569C15.8695 19.3245 15.9604 18.9624 15.9867 18.5805C16.1107 16.7757 14.7487 15.2114 12.944 15.0869C11.1393 14.9629 9.57478 16.3258 9.45039 18.1305C9.44603 18.1938 9.44299 18.2572 9.44225 18.3199C9.1086 18.1748 8.74484 18.082 8.36117 18.0556C6.55643 17.9316 4.99193 19.2945 4.86754 21.0992C4.74352 22.9039 6.10656 24.4674 7.91124 24.5919C8.29503 24.6182 8.66788 24.5762 9.01834 24.4782C9.01048 24.5403 9.00483 24.6035 9.00046 24.6668C8.87625 26.4717 10.2393 28.036 12.0441 28.1605C13.8489 28.2844 15.4125 26.9216 15.5368 25.1168C15.563 24.7349 15.5226 24.3636 15.4256 24.0147L19.9696 24.3275L19.6567 28.8724C19.3244 28.7286 18.9622 28.6367 18.5804 28.6104C16.7756 28.4864 15.2112 29.8493 15.0868 31.654C14.9627 33.4588 16.3258 35.0222 18.1305 35.1467C18.1937 35.151 18.2572 35.1531 18.3199 35.1538C18.1744 35.488 18.0819 35.8525 18.0554 36.2369C17.9314 38.0416 19.2944 39.605 21.0991 39.7295C22.9039 39.8535 24.4673 38.4915 24.5917 36.6868C24.6181 36.3024 24.5765 35.9287 24.4782 35.5777C24.5403 35.5856 24.6035 35.5922 24.6668 35.5966C26.4717 35.7208 28.0359 34.3588 28.1603 32.5539C28.2844 30.749 26.9216 29.1846 25.1167 29.0603C24.7348 29.0341 24.3635 29.0754 24.0146 29.1724L24.3274 24.6275L28.8723 24.9403C28.7284 25.2727 28.6367 25.6348 28.6103 26.0167C28.4861 27.8215 29.8492 29.3858 31.6539 29.5103C33.4588 29.6344 35.0223 28.2715 35.1466 26.4666C35.1509 26.4033 35.153 26.3399 35.1538 26.2772C35.4878 26.4226 35.8525 26.5151 36.2368 26.5416C38.0415 26.6656 39.6049 25.3036 39.7294 23.4989C39.8534 21.6941 38.4915 20.1298 36.6867 20.0053C36.3025 19.979 35.9285 20.0206 35.5777 20.1189C35.5855 20.0567 35.5922 19.9937 35.5965 19.9303C35.7206 18.1255 34.3586 16.5612 32.5539 16.4367C30.7491 16.3128 29.1846 17.6756 29.0602 19.4804C29.034 19.8623 29.0754 20.2335 29.1723 20.5825L24.6274 20.2696L24.9403 15.7247C25.2726 15.8686 25.6347 15.9604 26.0166 15.9868C27.8215 16.111 29.3857 14.7489 29.5102 12.9441C29.6342 11.1392 28.2714 9.57473 26.4665 9.45046C26.4033 9.44612 26.3398 9.44305 26.2772 9.44232C26.4223 9.10853 26.515 8.74511 26.5415 8.36124C26.6656 6.55645 25.3036 4.99213 23.4988 4.86768Z" fill="#D1DBE8"/>
<path d="M23.7849 0.712472L23.8326 0.0199425L23.8325 0.0199344L23.7849 0.712472ZM30.567 6.66297L29.8865 6.80004L29.9406 7.06824L30.163 7.22747L30.567 6.66297ZM33.6745 12.3869L32.9809 12.4171L33.005 12.9703L33.5498 13.0698L33.6745 12.3869ZM38.9177 16.2493L38.3033 16.5723L38.4306 16.8145L38.6889 16.9047L38.9177 16.2493ZM43.8846 23.7849L44.5771 23.8327L44.5771 23.8326L43.8846 23.7849ZM37.9321 30.567L37.7953 29.8864L37.527 29.9404L37.3677 30.1629L37.9321 30.567ZM32.2091 33.6745L32.1792 32.9809L31.6258 33.0049L31.5263 33.5497L32.2091 33.6745ZM28.3468 38.9177L28.0239 38.3032L27.7816 38.4305L27.6914 38.6889L28.3468 38.9177ZM24.3498 43.258L24.0668 42.6241L22.2798 43.4223L24.1703 43.9285L24.3498 43.258ZM25.155 44.3882L25.8475 44.4359L25.8475 44.4358L25.155 44.3882ZM23.9908 45.4024L24.0384 44.7099L23.3459 44.6623L23.2983 45.3548L23.9908 45.4024ZM23.0159 59.5652L22.3234 59.5175L22.2757 60.2101L22.9682 60.2577L23.0159 59.5652ZM31.4354 60.1448L31.4831 59.4522L31.4831 59.4522L31.4354 60.1448ZM32.4456 65.6911L31.9912 66.2159L33.0426 67.1263L33.1381 65.7388L32.4456 65.6911ZM30.8495 65.0311L30.8972 64.3386L30.8971 64.3386L30.8495 65.0311ZM28.5799 65.9918L28.0522 66.4428L28.5821 67.0627L29.1094 66.4406L28.5799 65.9918ZM26.5706 63.6412L27.0982 63.1901L26.6387 62.6526L26.1098 63.122L26.5706 63.6412ZM22.4868 67.2658L22.026 66.7466L21.5163 67.199L21.9592 67.7169L22.4868 67.2658ZM26.0354 71.4158L25.5078 71.8669L25.9674 72.4044L26.4963 71.9349L26.0354 71.4158ZM28.4156 69.3028L28.987 68.9085L28.5414 68.2628L27.9548 68.7836L28.4156 69.3028ZM30.4745 70.4782L30.4268 71.1707L30.4269 71.1707L30.4745 70.4782ZM32.1461 70.0421L32.8386 70.0898L32.9342 68.7022L31.7679 69.4601L32.1461 70.0421ZM31.8663 74.1077L32.5588 74.1555L32.5588 74.1554L31.8663 74.1077ZM30.3855 75.3977L30.3378 76.0903L30.3379 76.0903L30.3855 75.3977ZM21.966 74.8182L22.0136 74.1256L21.3211 74.078L21.2734 74.7705L21.966 74.8182ZM21.816 76.9966L21.1235 76.9489L21.0783 77.606L21.732 77.6857L21.816 76.9966ZM21.9267 77.0101L22.0441 76.3259L22.0275 76.3231L22.0107 76.321L21.9267 77.0101ZM22.8303 78.1608L23.5228 78.2085L23.5228 78.2084L22.8303 78.1608ZM21.7775 79.1778L21.7602 79.8718L21.7801 79.8723L21.8 79.8716L21.7775 79.1778ZM21.6661 79.1751L21.6833 78.4811L21.0192 78.4646L20.9735 79.1274L21.6661 79.1751ZM18.1734 82.2188L18.1257 82.9113L18.1258 82.9113L18.1734 82.2188ZM15.1221 78.8939L14.4286 78.8623L14.4282 78.8719L14.428 78.8815L15.1221 78.8939ZM15.1298 78.7251L15.8232 78.7568L15.8542 78.0792L15.1774 78.0326L15.1298 78.7251ZM15.1288 78.7251L15.0809 79.4176L15.0811 79.4176L15.1288 78.7251ZM14.1146 77.5609L13.422 77.5132L13.422 77.5133L14.1146 77.5609ZM15.2788 76.5466L15.3264 75.8541L15.3262 75.8541L15.2788 76.5466ZM15.2797 76.5467L15.2321 77.2392L15.9246 77.2869L15.9723 76.5944L15.2797 76.5467ZM17.4545 44.9525L18.147 45.0002L18.1923 44.3431L17.5385 44.2634L17.4545 44.9525ZM17.3438 44.939L17.2267 45.6232L17.2432 45.6261L17.2598 45.6281L17.3438 44.939ZM16.4403 43.7883L15.7477 43.7406L15.7477 43.7407L16.4403 43.7883ZM17.3937 42.7791L17.479 43.468L19.424 43.2271L17.7609 42.1901L17.3937 42.7791ZM14.0291 37.9321L14.7097 37.7953L14.6557 37.5271L14.4333 37.3678L14.0291 37.9321ZM10.9216 32.2091L11.6151 32.1792L11.5912 31.626L11.0465 31.5263L10.9216 32.2091ZM5.67741 28.3467L6.29194 28.0239L6.1647 27.7817L5.90645 27.6914L5.67741 28.3467ZM0.712332 20.8132L0.0197993 20.7655L0.0197925 20.7656L0.712332 20.8132ZM6.6629 14.03L6.79999 14.7105L7.06817 14.6565L7.22739 14.434L6.6629 14.03ZM12.3869 10.9216L12.4171 11.6151L12.9702 11.5911L13.0698 11.0465L12.3869 10.9216ZM16.2503 5.67748L16.5732 6.292L16.8154 6.16476L16.9056 5.9065L16.2503 5.67748ZM23.4988 4.86768L23.5466 4.17515L23.5464 4.17514L23.4988 4.86768ZM20.0052 7.91132L19.3127 7.86358L19.3127 7.86372L20.0052 7.91132ZM20.1189 9.01842L20.032 9.70713L21.0688 9.83793L20.7874 8.83149L20.1189 9.01842ZM19.9302 9.00054L19.9779 8.308L19.9778 8.30799L19.9302 9.00054ZM16.4366 12.0442L15.7441 11.9964L15.7441 11.9966L16.4366 12.0442ZM19.4803 15.5368L19.4325 16.2294L19.4327 16.2294L19.4803 15.5368ZM20.5824 15.4247L21.2749 15.4724L21.3423 14.4931L20.3966 14.7559L20.5824 15.4247ZM20.2696 19.9697L20.2219 20.6622L20.9144 20.7099L20.9621 20.0173L20.2696 19.9697ZM15.7256 19.6569L15.0885 19.3812L14.6987 20.282L15.6779 20.3494L15.7256 19.6569ZM15.9867 18.5805L16.6792 18.6282L16.6792 18.6281L15.9867 18.5805ZM12.944 15.0869L12.9918 14.3944L12.9916 14.3944L12.944 15.0869ZM9.45039 18.1305L8.75786 18.0828L8.75785 18.0829L9.45039 18.1305ZM9.44225 18.3199L9.1655 18.9565L10.1239 19.3731L10.1364 18.3281L9.44225 18.3199ZM8.36117 18.0556L8.40892 17.363L8.40874 17.363L8.36117 18.0556ZM4.86754 21.0992L4.17501 21.0515L4.175 21.0516L4.86754 21.0992ZM7.91124 24.5919L7.86347 25.2844L7.86366 25.2844L7.91124 24.5919ZM9.01834 24.4782L9.70704 24.5652L9.83817 23.5281L8.83137 23.8096L9.01834 24.4782ZM9.00046 24.6668L8.30794 24.619L8.30793 24.6192L9.00046 24.6668ZM12.0441 28.1605L11.9963 28.853L11.9965 28.853L12.0441 28.1605ZM15.5368 25.1168L16.2293 25.1644L16.2293 25.1643L15.5368 25.1168ZM15.4256 24.0147L15.4733 23.3222L14.494 23.2548L14.7568 24.2006L15.4256 24.0147ZM19.9696 24.3275L20.6621 24.3752L20.7098 23.6826L20.0173 23.635L19.9696 24.3275ZM19.6567 28.8724L19.3811 29.5095L20.2819 29.8993L20.3493 28.9201L19.6567 28.8724ZM18.5804 28.6104L18.6281 27.9178L18.628 27.9178L18.5804 28.6104ZM15.0868 31.654L14.3942 31.6063L14.3942 31.6064L15.0868 31.654ZM18.1305 35.1467L18.0827 35.8392L18.0828 35.8392L18.1305 35.1467ZM18.3199 35.1538L18.9564 35.4309L19.3738 34.4721L18.3281 34.4597L18.3199 35.1538ZM18.0554 36.2369L17.3629 36.1891L17.3629 36.1893L18.0554 36.2369ZM21.0991 39.7295L21.0514 40.422L21.0515 40.4221L21.0991 39.7295ZM24.5917 36.6868L25.2842 36.7345L25.2843 36.7344L24.5917 36.6868ZM24.4782 35.5777L24.5652 34.8891L23.5275 34.7578L23.8097 35.765L24.4782 35.5777ZM24.6668 35.5966L24.6189 36.2891L24.6191 36.2891L24.6668 35.5966ZM28.1603 32.5539L28.8528 32.6017L28.8529 32.6015L28.1603 32.5539ZM25.1167 29.0603L25.1644 28.3678L25.1642 28.3678L25.1167 29.0603ZM24.0146 29.1724L23.3221 29.1247L23.2546 30.1041L24.2005 29.8412L24.0146 29.1724ZM24.3274 24.6275L24.3751 23.9349L23.6826 23.8873L23.6349 24.5798L24.3274 24.6275ZM28.8723 24.9403L29.5094 25.2161L29.8995 24.3152L28.92 24.2478L28.8723 24.9403ZM28.6103 26.0167L27.9178 25.9689L27.9178 25.969L28.6103 26.0167ZM31.6539 29.5103L31.6062 30.2028L31.6063 30.2028L31.6539 29.5103ZM35.1466 26.4666L35.8391 26.5143L35.8391 26.5141L35.1466 26.4666ZM35.1538 26.2772L35.4309 25.6407L34.4718 25.2232L34.4596 26.2691L35.1538 26.2772ZM36.2368 26.5416L36.189 27.2342L36.1892 27.2342L36.2368 26.5416ZM39.7294 23.4989L40.4219 23.5467L40.4219 23.5465L39.7294 23.4989ZM36.6867 20.0053L36.7345 19.3128L36.7343 19.3128L36.6867 20.0053ZM35.5777 20.1189L34.889 20.0319L34.7579 21.0695L35.7649 20.7873L35.5777 20.1189ZM35.5965 19.9303L36.2891 19.978L36.2891 19.9779L35.5965 19.9303ZM32.5539 16.4367L32.6016 15.7442L32.6014 15.7442L32.5539 16.4367ZM29.0602 19.4804L28.3677 19.4326L28.3677 19.4327L29.0602 19.4804ZM29.1723 20.5825L29.1246 21.275L30.1039 21.3424L29.8412 20.3967L29.1723 20.5825ZM24.6274 20.2696L23.9349 20.222L23.8872 20.9145L24.5797 20.9622L24.6274 20.2696ZM24.9403 15.7247L25.2161 15.0877L24.3151 14.6976L24.2477 15.677L24.9403 15.7247ZM26.0166 15.9868L25.9688 16.6793L25.9689 16.6793L26.0166 15.9868ZM29.5102 12.9441L30.2027 12.9919L30.2027 12.9917L29.5102 12.9441ZM26.4665 9.45046L26.5142 8.75793L26.5141 8.75792L26.4665 9.45046ZM26.2772 9.44232L25.6406 9.16547L25.2236 10.1242L26.2691 10.1364L26.2772 9.44232ZM26.5415 8.36124L27.234 8.40899L27.234 8.40885L26.5415 8.36124ZM23.7849 0.712472L23.7371 1.405C26.8361 1.61865 29.3012 3.89435 29.8865 6.80004L30.567 6.66297L31.2475 6.5259C30.5421 3.0237 27.5722 0.277755 23.8326 0.0199425L23.7849 0.712472ZM30.567 6.66297L30.163 7.22747C31.8095 8.40585 32.8888 10.2994 32.9809 12.4171L33.6745 12.3869L34.368 12.3568C34.2567 9.7995 32.9535 7.51733 30.971 6.09848L30.567 6.66297ZM33.6745 12.3869L33.5498 13.0698C35.6347 13.4506 37.3611 14.7801 38.3033 16.5723L38.9177 16.2493L39.5321 15.9263C38.3983 13.7694 36.3181 12.1641 33.7992 11.7041L33.6745 12.3869ZM38.9177 16.2493L38.6889 16.9047C41.4892 17.8821 43.4053 20.6382 43.1921 23.7373L43.8846 23.7849L44.5771 23.8326C44.8344 20.0933 42.5221 16.7721 39.1465 15.5939L38.9177 16.2493ZM43.8846 23.7849L43.1921 23.7372C42.9784 26.8365 40.7025 29.302 37.7953 29.8864L37.9321 30.567L38.0689 31.2475C41.5731 30.5431 44.3193 27.5726 44.5771 23.8327L43.8846 23.7849ZM37.9321 30.567L37.3677 30.1629C36.189 31.8096 34.2971 32.8894 32.1792 32.9809L32.2091 33.6745L32.2391 34.368C34.7976 34.2574 37.0779 32.953 38.4966 30.971L37.9321 30.567ZM32.2091 33.6745L31.5263 33.5497C31.1454 35.6352 29.8165 37.3613 28.0239 38.3032L28.3468 38.9177L28.6697 39.5322C30.8274 38.3984 32.4319 36.3184 32.892 33.7992L32.2091 33.6745ZM28.3468 38.9177L27.6914 38.6889C27.0741 40.4575 25.7452 41.8745 24.0668 42.6241L24.3498 43.258L24.6329 43.8918C26.6542 42.989 28.2565 41.2827 29.0022 39.1465L28.3468 38.9177ZM24.3498 43.258L24.1703 43.9285C24.3491 43.9764 24.4758 44.1474 24.4625 44.3405L25.155 44.3882L25.8475 44.4358C25.9072 43.5694 25.3393 42.8043 24.5294 42.5874L24.3498 43.258ZM25.155 44.3882L24.4625 44.3405C24.4474 44.5597 24.2576 44.725 24.0384 44.7099L23.9908 45.4024L23.9432 46.095C24.9273 46.1627 25.7797 45.4199 25.8475 44.4359L25.155 44.3882ZM23.9908 45.4024L23.2983 45.3548L22.3234 59.5175L23.0159 59.5652L23.7084 59.6129L24.6833 45.4501L23.9908 45.4024ZM23.0159 59.5652L22.9682 60.2577L31.3878 60.8373L31.4354 60.1448L31.4831 59.4522L23.0636 58.8727L23.0159 59.5652ZM31.4354 60.1448L31.3877 60.8373C31.7702 60.8636 32.0593 61.1954 32.0329 61.5778L32.7255 61.6255L33.418 61.6732C33.497 60.5257 32.6305 59.5313 31.4831 59.4522L31.4354 60.1448ZM32.7255 61.6255L32.0329 61.5778L31.7531 65.6434L32.4456 65.6911L33.1381 65.7388L33.418 61.6732L32.7255 61.6255ZM32.4456 65.6911L32.9 65.1663C32.3598 64.6986 31.6681 64.3916 30.8972 64.3386L30.8495 65.0311L30.8018 65.7236C31.2583 65.7551 31.6677 65.9358 31.9912 66.2159L32.4456 65.6911ZM30.8495 65.0311L30.8971 64.3386C29.7663 64.2608 28.7285 64.7429 28.0504 65.5429L28.5799 65.9918L29.1094 66.4406C29.5156 65.9615 30.1317 65.6776 30.8019 65.7236L30.8495 65.0311ZM28.5799 65.9918L29.1076 65.5407L27.0982 63.1901L26.5706 63.6412L26.0429 64.0923L28.0522 66.4428L28.5799 65.9918ZM26.5706 63.6412L26.1098 63.122L22.026 66.7466L22.4868 67.2658L22.9476 67.785L27.0314 64.1604L26.5706 63.6412ZM22.4868 67.2658L21.9592 67.7169L25.5078 71.8669L26.0354 71.4158L26.563 70.9646L23.0144 66.8147L22.4868 67.2658ZM26.0354 71.4158L26.4963 71.9349L28.8765 69.8219L28.4156 69.3028L27.9548 68.7836L25.5745 70.8966L26.0354 71.4158ZM28.4156 69.3028L27.8443 69.697C28.4144 70.5232 29.3433 71.096 30.4268 71.1707L30.4745 70.4782L30.5223 69.7856C29.8802 69.7414 29.3285 69.4034 28.987 68.9085L28.4156 69.3028ZM30.4745 70.4782L30.4269 71.1707C31.1986 71.2238 31.9258 71.0132 32.5243 70.6242L32.1461 70.0421L31.7679 69.4601C31.4084 69.6936 30.978 69.817 30.5222 69.7856L30.4745 70.4782ZM32.1461 70.0421L31.4536 69.9945L31.1737 74.06L31.8663 74.1077L32.5588 74.1554L32.8386 70.0898L32.1461 70.0421ZM31.8663 74.1077L31.1737 74.0599C31.1473 74.4424 30.8154 74.7315 30.4331 74.7052L30.3855 75.3977L30.3379 76.0903C31.4853 76.1692 32.4796 75.3026 32.5588 74.1555L31.8663 74.1077ZM30.3855 75.3977L30.4332 74.7052L22.0136 74.1256L21.966 74.8182L21.9183 75.5107L30.3378 76.0903L30.3855 75.3977ZM21.966 74.8182L21.2734 74.7705L21.1235 76.9489L21.816 76.9966L22.5086 77.0443L22.6585 74.8658L21.966 74.8182ZM21.816 76.9966L21.732 77.6857L21.8427 77.6992L21.9267 77.0101L22.0107 76.321L21.9 76.3075L21.816 76.9966ZM21.9267 77.0101L21.8092 77.6943C22.0077 77.7283 22.1518 77.9086 22.1377 78.1132L22.8303 78.1608L23.5228 78.2084C23.5863 77.285 22.9366 76.4792 22.0441 76.3259L21.9267 77.0101ZM22.8303 78.1608L22.1377 78.1131C22.1236 78.3186 21.9553 78.4775 21.7549 78.484L21.7775 79.1778L21.8 79.8716C22.706 79.8422 23.4592 79.1311 23.5228 78.2085L22.8303 78.1608ZM21.7775 79.1778L21.7947 78.4839L21.6833 78.4811L21.6661 79.1751L21.6488 79.869L21.7602 79.8718L21.7775 79.1778ZM21.6661 79.1751L20.9735 79.1274C20.8756 80.5499 19.6432 81.6239 18.221 81.5262L18.1734 82.2188L18.1258 82.9113C20.3132 83.0615 22.208 81.4098 22.3586 79.2227L21.6661 79.1751ZM18.1734 82.2188L18.2211 81.5262C16.8431 81.4314 15.7916 80.2714 15.8161 78.9064L15.1221 78.8939L14.428 78.8815C14.3902 80.9821 16.0066 82.7654 18.1257 82.9113L18.1734 82.2188ZM15.1221 78.8939L15.8155 78.9256L15.8232 78.7568L15.1298 78.7251L14.4363 78.6935L14.4286 78.8623L15.1221 78.8939ZM15.1298 78.7251L15.1774 78.0326L15.1765 78.0325L15.1288 78.7251L15.0811 79.4176L15.0821 79.4177L15.1298 78.7251ZM15.1288 78.7251L15.1767 78.0325C14.9574 78.0174 14.792 77.8275 14.8071 77.6085L14.1146 77.5609L13.422 77.5133C13.3544 78.4973 14.0972 79.3496 15.0809 79.4176L15.1288 78.7251ZM14.1146 77.5609L14.8071 77.6086C14.8222 77.3896 15.0119 77.2241 15.2313 77.2392L15.2788 76.5466L15.3262 75.8541C14.3425 75.7866 13.4898 76.529 13.422 77.5132L14.1146 77.5609ZM15.2788 76.5466L15.2311 77.2392L15.2321 77.2392L15.2797 76.5467L15.3274 75.8542L15.3264 75.8541L15.2788 76.5466ZM15.2797 76.5467L15.9723 76.5944L18.147 45.0002L17.4545 44.9525L16.762 44.9048L14.5872 76.499L15.2797 76.5467ZM17.4545 44.9525L17.5385 44.2634L17.4278 44.2499L17.3438 44.939L17.2598 45.6281L17.3705 45.6416L17.4545 44.9525ZM17.3438 44.939L17.461 44.2548C17.2629 44.2209 17.1187 44.041 17.1328 43.8359L16.4403 43.7883L15.7477 43.7407C15.6843 44.664 16.3334 45.4703 17.2267 45.6232L17.3438 44.939ZM16.4403 43.7883L17.1328 43.836C17.1461 43.6428 17.295 43.4908 17.479 43.468L17.3937 42.7791L17.3083 42.0902C16.4757 42.1934 15.8074 42.8735 15.7477 43.7406L16.4403 43.7883ZM17.3937 42.7791L17.7609 42.1901C16.2012 41.2175 15.0788 39.6317 14.7097 37.7953L14.0291 37.9321L13.3485 38.0689C13.7944 40.2871 15.1482 42.1971 17.0264 43.3682L17.3937 42.7791ZM14.0291 37.9321L14.4333 37.3678C12.7871 36.1889 11.7066 34.2966 11.6151 32.1792L10.9216 32.2091L10.2281 32.2391C10.3386 34.7973 11.6438 37.0778 13.625 38.4965L14.0291 37.9321ZM10.9216 32.2091L11.0465 31.5263C8.96149 31.1448 7.23358 29.8162 6.29194 28.0239L5.67741 28.3467L5.06288 28.6696C6.1967 30.8277 8.27888 32.4313 10.7967 32.892L10.9216 32.2091ZM5.67741 28.3467L5.90645 27.6914C3.1084 26.7135 1.19187 23.9598 1.40487 20.8608L0.712332 20.8132L0.0197925 20.7656C-0.237247 24.5053 2.07596 27.8233 5.44838 29.002L5.67741 28.3467ZM0.712332 20.8132L1.40487 20.8609C1.61828 17.7622 3.89368 15.296 6.79999 14.7105L6.6629 14.03L6.52581 13.3495C3.02277 14.0552 0.277327 17.0264 0.0197993 20.7655L0.712332 20.8132ZM6.6629 14.03L7.22739 14.434C8.40589 12.7874 10.2996 11.7073 12.4171 11.6151L12.3869 10.9216L12.3568 10.2281C9.7993 10.3394 7.51715 11.6437 6.0984 13.626L6.6629 14.03ZM12.3869 10.9216L13.0698 11.0465C13.4511 8.96163 14.7806 7.23384 16.5732 6.292L16.2503 5.67748L15.9275 5.06297C13.7696 6.19675 12.1647 8.27858 11.7041 10.7967L12.3869 10.9216ZM16.2503 5.67748L16.9056 5.9065C17.8837 3.10782 20.6385 1.19191 23.7372 1.40501L23.7849 0.712472L23.8325 0.0199344C20.0935 -0.237196 16.774 2.07504 15.595 5.44847L16.2503 5.67748ZM23.4988 4.86768L23.5464 4.17514C21.3593 4.02491 19.4634 5.67638 19.3127 7.86358L20.0052 7.91132L20.6977 7.95905C20.7958 6.53678 22.0289 5.46252 23.4513 5.56022L23.4988 4.86768ZM20.0052 7.91132L19.3127 7.86372C19.2807 8.32907 19.3318 8.7813 19.4504 9.20535L20.1189 9.01842L20.7874 8.83149C20.71 8.55471 20.677 8.26101 20.6977 7.95891L20.0052 7.91132ZM20.1189 9.01842L20.2058 8.3297C20.1274 8.31981 20.0505 8.313 19.9779 8.308L19.9302 9.00054L19.8825 9.69307C19.9365 9.69678 19.9862 9.70136 20.032 9.70713L20.1189 9.01842ZM19.9302 9.00054L19.9778 8.30799C17.7907 8.15777 15.8948 9.80924 15.7441 11.9964L16.4366 12.0442L17.1291 12.0919C17.2272 10.6696 18.4603 9.59538 19.8827 9.69308L19.9302 9.00054ZM16.4366 12.0442L15.7441 11.9966C15.5938 14.184 17.2458 16.0785 19.4325 16.2294L19.4803 15.5368L19.5281 14.8443C18.1055 14.7462 17.0315 13.5138 17.1291 12.0917L16.4366 12.0442ZM19.4803 15.5368L19.4327 16.2294C19.8957 16.2612 20.3457 16.211 20.7682 16.0936L20.5824 15.4247L20.3966 14.7559C20.1211 14.8324 19.8288 14.865 19.528 14.8443L19.4803 15.5368ZM20.5824 15.4247L19.8899 15.3771L19.577 19.922L20.2696 19.9697L20.9621 20.0173L21.2749 15.4724L20.5824 15.4247ZM20.2696 19.9697L20.3172 19.2771L15.7733 18.9643L15.7256 19.6569L15.6779 20.3494L20.2219 20.6622L20.2696 19.9697ZM15.7256 19.6569L16.3627 19.9326C16.5373 19.5291 16.6474 19.0899 16.6792 18.6282L15.9867 18.5805L15.2941 18.5328C15.2733 18.8348 15.2016 19.1199 15.0885 19.3812L15.7256 19.6569ZM15.9867 18.5805L16.6792 18.6281C16.8296 16.4411 15.1791 14.5453 12.9918 14.3944L12.944 15.0869L12.8962 15.7794C14.3183 15.8775 15.3919 17.1103 15.2941 18.5329L15.9867 18.5805ZM12.944 15.0869L12.9916 14.3944C10.8045 14.2441 8.90861 15.8956 8.75786 18.0828L9.45039 18.1305L10.1429 18.1783C10.2409 16.756 11.4741 15.6817 12.8964 15.7794L12.944 15.0869ZM9.45039 18.1305L8.75785 18.0829C8.75286 18.1555 8.74906 18.2325 8.74812 18.3116L9.44225 18.3199L10.1364 18.3281C10.1369 18.282 10.1392 18.2322 10.1429 18.1782L9.45039 18.1305ZM9.44225 18.3199L9.719 17.6833C9.31525 17.5077 8.87421 17.3951 8.40892 17.363L8.36117 18.0556L8.31341 18.7481C8.61546 18.7689 8.90195 18.8419 9.1655 18.9565L9.44225 18.3199ZM8.36117 18.0556L8.40874 17.363C6.22163 17.2128 4.32576 18.8643 4.17501 21.0515L4.86754 21.0992L5.56007 21.1469C5.6581 19.7247 6.89122 18.6504 8.3136 18.7481L8.36117 18.0556ZM4.86754 21.0992L4.175 21.0516C4.02468 23.239 5.67669 25.1335 7.86347 25.2844L7.91124 24.5919L7.95902 23.8993C6.53644 23.8012 5.46236 22.5688 5.56008 21.1468L4.86754 21.0992ZM7.91124 24.5919L7.86366 25.2844C8.32902 25.3164 8.78116 25.2653 9.20531 25.1467L9.01834 24.4782L8.83137 23.8096C8.55461 23.887 8.26103 23.9201 7.95883 23.8993L7.91124 24.5919ZM9.01834 24.4782L8.32965 24.3911C8.31969 24.4699 8.31293 24.5467 8.30794 24.619L9.00046 24.6668L9.69299 24.7146C9.69674 24.6603 9.70127 24.6108 9.70704 24.5652L9.01834 24.4782ZM9.00046 24.6668L8.30793 24.6192C8.15738 26.8066 9.80924 28.7021 11.9963 28.853L12.0441 28.1605L12.0919 27.4679C10.6694 27.3698 9.59511 26.1368 9.693 24.7145L9.00046 24.6668ZM12.0441 28.1605L11.9965 28.853C14.1839 29.0033 16.0787 27.3516 16.2293 25.1644L15.5368 25.1168L14.8442 25.0691C14.7463 26.4917 13.5139 27.5656 12.0917 27.4679L12.0441 28.1605ZM15.5368 25.1168L16.2293 25.1643C16.261 24.7028 16.2122 24.2526 16.0945 23.8289L15.4256 24.0147L14.7568 24.2006C14.833 24.4747 14.8649 24.7671 14.8442 25.0692L15.5368 25.1168ZM15.4256 24.0147L15.378 24.7073L19.9219 25.02L19.9696 24.3275L20.0173 23.635L15.4733 23.3222L15.4256 24.0147ZM19.9696 24.3275L19.277 24.2798L18.9642 28.8247L19.6567 28.8724L20.3493 28.9201L20.6621 24.3752L19.9696 24.3275ZM19.6567 28.8724L19.9324 28.2353C19.5301 28.0613 19.091 27.9497 18.6281 27.9178L18.5804 28.6104L18.5327 29.3029C18.8334 29.3236 19.1187 29.396 19.3811 29.5095L19.6567 28.8724ZM18.5804 28.6104L18.628 27.9178C16.4409 27.7676 14.545 29.4191 14.3942 31.6063L15.0868 31.654L15.7793 31.7018C15.8773 30.2795 17.1104 29.2052 18.5328 29.3029L18.5804 28.6104ZM15.0868 31.654L14.3942 31.6064C14.2438 33.7939 15.8959 35.6884 18.0827 35.8392L18.1305 35.1467L18.1782 34.4541C16.7556 34.356 15.6815 33.1236 15.7793 31.7016L15.0868 31.654ZM18.1305 35.1467L18.0828 35.8392C18.1625 35.8447 18.2396 35.8471 18.3117 35.848L18.3199 35.1538L18.3281 34.4597C18.2749 34.4591 18.225 34.4574 18.1781 34.4541L18.1305 35.1467ZM18.3199 35.1538L17.6834 34.8768C17.5071 35.2818 17.395 35.7238 17.3629 36.1891L18.0554 36.2369L18.748 36.2846C18.7689 35.9813 18.8418 35.6941 18.9564 35.4309L18.3199 35.1538ZM18.0554 36.2369L17.3629 36.1893C17.2126 38.3767 18.8646 40.2712 21.0514 40.422L21.0991 39.7295L21.1469 39.037C19.7243 38.9389 18.6502 37.7065 18.748 36.2845L18.0554 36.2369ZM21.0991 39.7295L21.0515 40.4221C23.2387 40.5723 25.1334 38.9217 25.2842 36.7345L24.5917 36.6868L23.8992 36.639C23.8011 38.0614 22.5691 39.1347 21.1467 39.037L21.0991 39.7295ZM24.5917 36.6868L25.2843 36.7344C25.3162 36.2691 25.2658 35.8159 25.1466 35.3905L24.4782 35.5777L23.8097 35.765C23.8872 36.0414 23.92 36.3358 23.8992 36.6392L24.5917 36.6868ZM24.4782 35.5777L24.3911 36.2664C24.4629 36.2755 24.5395 36.2836 24.6189 36.2891L24.6668 35.5966L24.7146 34.9041C24.6675 34.9008 24.6177 34.8957 24.5652 34.8891L24.4782 35.5777ZM24.6668 35.5966L24.6191 36.2891C26.8063 36.4397 28.7021 34.7892 28.8528 32.6017L28.1603 32.5539L27.4678 32.5062C27.3698 33.9284 26.1371 35.002 24.7144 34.9041L24.6668 35.5966ZM28.1603 32.5539L28.8529 32.6015C29.0032 30.4143 27.3518 28.5184 25.1644 28.3678L25.1167 29.0603L25.069 29.7528C26.4914 29.8508 27.5656 31.0838 27.4678 32.5063L28.1603 32.5539ZM25.1167 29.0603L25.1642 28.3678C24.7015 28.336 24.2513 28.3861 23.8287 28.5036L24.0146 29.1724L24.2005 29.8412C24.4757 29.7647 24.7681 29.7322 25.0692 29.7529L25.1167 29.0603ZM24.0146 29.1724L24.7071 29.2201L25.02 24.6751L24.3274 24.6275L23.6349 24.5798L23.3221 29.1247L24.0146 29.1724ZM24.3274 24.6275L24.2798 25.32L28.8247 25.6329L28.8723 24.9403L28.92 24.2478L24.3751 23.9349L24.3274 24.6275ZM28.8723 24.9403L28.2353 24.6645C28.061 25.0671 27.9497 25.5061 27.9178 25.9689L28.6103 26.0167L29.3028 26.0645C29.3236 25.7634 29.3959 25.4783 29.5094 25.2161L28.8723 24.9403ZM28.6103 26.0167L27.9178 25.969C27.7672 28.1564 29.4191 30.052 31.6062 30.2028L31.6539 29.5103L31.7017 28.8178C30.2792 28.7196 29.205 27.4866 29.3028 26.0643L28.6103 26.0167ZM31.6539 29.5103L31.6063 30.2028C33.7939 30.3532 35.6886 28.7015 35.8391 26.5143L35.1466 26.4666L34.4541 26.4189C34.3561 27.8416 33.1238 28.9155 31.7015 28.8178L31.6539 29.5103ZM35.1466 26.4666L35.8391 26.5141C35.8446 26.4346 35.847 26.3577 35.8479 26.2853L35.1538 26.2772L34.4596 26.2691C34.459 26.3221 34.4573 26.3719 34.4541 26.4191L35.1466 26.4666ZM35.1538 26.2772L34.8767 26.9137C35.2817 27.09 35.7238 27.2021 36.189 27.2342L36.2368 26.5416L36.2846 25.8491C35.9812 25.8282 35.694 25.7553 35.4309 25.6407L35.1538 26.2772ZM36.2368 26.5416L36.1892 27.2342C38.3764 27.3845 40.2711 25.7338 40.4219 23.5467L39.7294 23.4989L39.0369 23.4512C38.9388 24.8735 37.7067 25.9468 36.2844 25.8491L36.2368 26.5416ZM39.7294 23.4989L40.4219 23.5465C40.5723 21.3595 38.9219 19.4637 36.7345 19.3128L36.6867 20.0053L36.639 20.6979C38.0611 20.7959 39.1346 22.0287 39.0368 23.4513L39.7294 23.4989ZM36.6867 20.0053L36.7343 19.3128C36.2691 19.2809 35.8157 19.3313 35.3904 19.4505L35.5777 20.1189L35.7649 20.7873C36.0413 20.7099 36.3359 20.6771 36.6392 20.6979L36.6867 20.0053ZM35.5777 20.1189L36.2664 20.2059C36.2754 20.1343 36.2836 20.0577 36.2891 19.978L35.5965 19.9303L34.904 19.8826C34.9008 19.9296 34.8956 19.9791 34.889 20.0319L35.5777 20.1189ZM35.5965 19.9303L36.2891 19.9779C36.4394 17.7909 34.7891 15.895 32.6016 15.7442L32.5539 16.4367L32.5061 17.1293C33.9282 17.2273 35.0018 18.4601 34.904 19.8827L35.5965 19.9303ZM32.5539 16.4367L32.6014 15.7442C30.4143 15.594 28.5185 17.2454 28.3677 19.4326L29.0602 19.4804L29.7528 19.5281C29.8508 18.1058 31.0839 17.0316 32.5063 17.1293L32.5539 16.4367ZM29.0602 19.4804L28.3677 19.4327C28.3358 19.8957 28.3861 20.3459 28.5035 20.7683L29.1723 20.5825L29.8412 20.3967C29.7646 20.1212 29.7321 19.8288 29.7528 19.528L29.0602 19.4804ZM29.1723 20.5825L29.22 19.8899L24.6751 19.5771L24.6274 20.2696L24.5797 20.9622L29.1246 21.275L29.1723 20.5825ZM24.6274 20.2696L25.3199 20.3173L25.6328 15.7724L24.9403 15.7247L24.2477 15.677L23.9349 20.222L24.6274 20.2696ZM24.9403 15.7247L24.6644 16.3617C25.067 16.5361 25.5061 16.6473 25.9688 16.6793L26.0166 15.9868L26.0644 15.2942C25.7634 15.2734 25.4782 15.2012 25.2161 15.0877L24.9403 15.7247ZM26.0166 15.9868L25.9689 16.6793C28.1561 16.8298 30.0518 15.1792 30.2027 12.9919L29.5102 12.9441L28.8176 12.8963C28.7195 14.3185 27.4869 15.3921 26.0643 15.2942L26.0166 15.9868ZM29.5102 12.9441L30.2027 12.9917C30.3531 10.8044 28.7016 8.90853 26.5142 8.75793L26.4665 9.45046L26.4188 10.143C27.8412 10.2409 28.9154 11.474 28.8176 12.8965L29.5102 12.9441ZM26.4665 9.45046L26.5141 8.75792C26.4418 8.75296 26.3646 8.74912 26.2853 8.74819L26.2772 9.44232L26.2691 10.1364C26.3149 10.137 26.3647 10.1393 26.419 10.143L26.4665 9.45046ZM26.2772 9.44232L26.9138 9.71917C27.0895 9.31516 27.2019 8.87442 27.234 8.40899L26.5415 8.36124L25.849 8.31349C25.8281 8.6158 25.7552 8.90191 25.6406 9.16547L26.2772 9.44232ZM26.5415 8.36124L27.234 8.40885C27.3844 6.22188 25.734 4.32599 23.5466 4.17515L23.4988 4.86768L23.4511 5.56021C24.8732 5.65827 25.9468 6.89103 25.849 8.31363L26.5415 8.36124Z" fill="#0088FF" mask="url(#path-1-outside-1_189_336)"/>
</svg>